<svg width="1317" height="338" viewBox="0 0 1317 338" fill="none" xmlns="http://www.w3.org/2000/svg">
<g filter="url(#filter0_d_1060_6105)">
<path d="M304.499 238.382H325.732V178.432C325.732 178.432 338.221 204.66 368.197 204.66C408.164 204.66 425.649 173.436 425.649 138.465C425.649 103.493 408.164 72.269 368.197 72.269C338.221 72.269 325.732 98.4974 325.732 98.4974V76.0159H304.499V238.382ZM364.45 87.2567C385.682 87.2567 403.168 102.244 403.168 138.465C403.168 174.685 385.682 189.672 364.45 189.672C343.217 189.672 325.732 172.187 325.732 138.465C325.732 104.742 343.217 87.2567 364.45 87.2567ZM480.585 204.66C511.809 204.66 524.299 179.681 524.299 179.681V183.427C524.299 199.664 534.29 202.162 546.78 202.162C552.276 202.162 558.021 200.913 558.021 200.913V185.925C545.531 187.174 545.531 180.93 545.531 170.938V113.485C545.531 84.7587 526.797 72.269 493.074 72.269C461.85 72.269 439.369 84.7587 439.369 113.485H460.601C460.601 95.9995 471.842 87.2567 493.074 87.2567C513.058 87.2567 524.299 93.5015 524.299 108.489C524.299 118.481 521.801 128.473 493.074 128.473C450.609 128.473 436.871 145.958 436.871 167.191C436.871 188.423 451.858 204.66 480.585 204.66ZM490.576 140.962C518.553 140.962 524.049 131.72 524.299 131.22V139.713C524.299 177.183 503.066 189.672 485.581 189.672C469.344 189.672 459.352 179.681 459.352 164.693C459.352 145.958 476.838 140.962 490.576 140.962ZM627.876 204.66C664.096 204.66 682.83 182.179 684.079 157.199H661.598C659.1 177.183 647.859 189.672 627.876 189.672C606.643 189.672 589.157 174.685 589.157 138.465C589.157 102.244 606.643 87.2567 627.876 87.2567C647.859 87.2567 659.1 99.7464 661.598 119.73H684.079C682.83 94.7505 664.096 72.269 627.876 72.269C586.659 72.269 566.676 102.244 566.676 138.465C566.676 174.685 586.659 204.66 627.876 204.66ZM755.154 132.469C755.154 145.792 753.821 158.864 751.157 171.687C748.659 184.51 744.662 196.667 739.167 208.157C733.838 219.814 726.927 230.555 718.434 240.381H697.951C705.611 229.889 712.022 218.732 717.185 206.908C722.347 195.251 726.261 183.094 728.925 170.438C731.59 157.782 732.922 145.042 732.922 132.22C732.922 119.064 731.59 106.074 728.925 93.2517C726.261 80.4289 722.347 68.0225 717.185 56.0324C712.022 44.0422 705.528 32.8848 697.701 22.5599H718.434C726.927 32.5517 733.838 43.4594 739.167 55.283C744.662 67.1066 748.659 79.513 751.157 92.5023C753.821 105.492 755.154 118.814 755.154 132.469ZM795.072 200.913V164.693L818.053 140.713L857.52 200.913H882.5L831.792 126.225L880.002 76.0159H856.271L795.072 140.962V76.0159H773.839V200.913H795.072ZM887.584 200.913C887.584 200.913 891.33 202.162 897.575 202.162C926.302 202.162 937.542 179.681 937.542 119.73V92.2525H987.501V200.913H1008.73V76.0159H917.559V117.232C917.559 175.934 908.067 183.927 891.83 183.927C889.332 183.927 887.584 183.427 887.584 183.427V200.913ZM1066.28 204.66C1097.51 204.66 1110 179.681 1110 179.681V183.427C1110 199.664 1119.99 202.162 1132.48 202.162C1137.98 202.162 1143.72 200.913 1143.72 200.913V185.925C1131.23 187.174 1131.23 180.93 1131.23 170.938V113.485C1131.23 84.7587 1112.5 72.269 1078.77 72.269C1047.55 72.269 1025.07 84.7587 1025.07 113.485H1046.3C1046.3 95.9995 1057.54 87.2567 1078.77 87.2567C1098.76 87.2567 1110 93.5015 1110 108.489C1110 118.481 1107.5 128.473 1078.77 128.473C1036.31 128.473 1022.57 145.958 1022.57 167.191C1022.57 188.423 1037.56 204.66 1066.28 204.66ZM1076.28 140.962C1104.25 140.962 1109.75 131.72 1110 131.22V139.713C1110 177.183 1088.77 189.672 1071.28 189.672C1055.04 189.672 1045.05 179.681 1045.05 164.693C1045.05 145.958 1062.54 140.962 1076.28 140.962ZM1169.86 238.382V200.913H1273.53V238.382H1294.76V184.676H1272.28V76.0159H1181.1V104.742C1181.1 163.444 1171.11 184.676 1153.62 184.676H1148.63V238.382H1169.86ZM1183.6 184.676C1197.34 173.436 1201.09 144.21 1201.09 107.24V92.2525H1251.04V184.676H1183.6Z" fill="#F8F6F0"/>
</g>
<g filter="url(#filter1_d_1060_6105)">
<path d="M128.321 38.9715L149.173 95.3225C151.003 100.268 154.902 104.167 159.848 105.997L216.199 126.849C220.131 128.304 220.131 133.866 216.199 135.321L159.848 156.173C154.902 158.003 151.003 161.902 149.173 166.848L128.321 223.199C126.866 227.131 121.304 227.131 119.849 223.199L98.9971 166.848C97.1672 161.902 93.268 158.003 88.3226 156.173L31.9715 135.321C28.039 133.866 28.039 128.304 31.9715 126.849L88.3226 105.997C93.268 104.167 97.1672 100.268 98.9971 95.3226L119.849 38.9714C121.304 35.039 126.866 35.039 128.321 38.9715Z" stroke="#F5F6EE" stroke-width="13.5507"/>
</g>
<line x1="33" y1="284.5" x2="229" y2="284.5" stroke="white"/>
<line x1="270" y1="284.543" x2="1298" y2="284.543" stroke="white" stroke-width="0.913463"/>
<g filter="url(#filter2_d_1060_6105)">
<path d="M112.046 324.76C110.126 324.76 109.31 323.968 109.31 323.128C109.31 322.888 109.454 322.648 109.454 322.24C109.454 321.784 109.286 321.256 108.614 321.256C108.014 321.256 107.726 321.736 107.726 322.36C107.726 323.92 109.166 325.36 112.046 325.36C115.046 325.36 116.726 323.8 116.726 322.12C116.726 319.36 113.726 319.12 113.726 319.12V319.048C113.726 319.048 116.198 318.88 116.198 316.72C116.198 314.68 114.206 313.84 112.286 313.84C110.006 313.84 109.046 315.4 109.046 315.4L108.086 313.84V317.8L109.166 316C109.166 316 110.126 314.56 112.046 314.56C113.846 314.56 114.878 315.52 114.878 316.72C114.878 318.04 113.846 318.832 111.926 318.832H110.246V319.552H111.806C114.926 319.552 115.406 320.92 115.406 322.12C115.406 323.68 114.11 324.76 112.046 324.76ZM118.528 325H123.568L121.648 323.92V319.792H127.528V323.92L125.608 325H130.648L128.728 323.92V315.28L130.648 314.2H125.608L127.528 315.28V319.072H121.648V315.28L123.568 314.2H118.528L120.448 315.28V323.92L118.528 325ZM135.548 319.216C133.916 319.792 132.452 320.92 132.452 322.6C132.452 324.304 133.532 325.36 135.188 325.36C136.148 325.36 136.964 324.88 137.516 324.52L139.292 323.344C139.292 324.616 139.292 325.36 140.132 325.36C140.972 325.36 142.652 323.32 142.652 323.32L140.492 324.16V317.32C140.492 315.28 139.628 313.84 137.012 313.84C135.572 313.84 132.86 315.16 132.86 316.648C132.86 317.344 133.268 317.656 133.724 317.656C134.18 317.656 134.588 317.392 134.588 316.648C134.588 316.312 134.54 316.072 134.54 315.88C134.54 315.28 135.308 314.56 136.772 314.56C138.092 314.56 139.292 315.184 139.292 317.32V317.92L135.548 319.216ZM137.804 323.56C137.108 324.016 136.508 324.472 135.572 324.472C134.372 324.472 133.724 323.512 133.724 322.48C133.724 321.16 134.324 320.344 136.412 319.6L139.292 318.592V322.576L137.804 323.56ZM152.558 325H154.886L153.182 323.92L148.094 318.928L151.958 315.28L154.646 314.2H149.606L151.046 315.16L146.726 319.264V315.28L148.646 314.2H143.606L145.526 315.28V323.92L143.606 325H148.646L146.726 323.92V319.264L152.558 325Z" fill="white"/>
</g>
<g filter="url(#filter3_d_1060_6105)">
<path d="M761.32 325H766.36L764.44 323.92V319.792H770.32V323.92L768.4 325H773.44L771.52 323.92V315.28L773.44 314.2H768.4L770.32 315.28V319.072H764.44V315.28L766.36 314.2H761.32L763.24 315.28V323.92L761.32 325ZM778.341 319.216C776.709 319.792 775.245 320.92 775.245 322.6C775.245 324.304 776.325 325.36 777.981 325.36C778.941 325.36 779.757 324.88 780.309 324.52L782.085 323.344C782.085 324.616 782.085 325.36 782.925 325.36C783.765 325.36 785.445 323.32 785.445 323.32L783.285 324.16V317.32C783.285 315.28 782.421 313.84 779.805 313.84C778.365 313.84 775.653 315.16 775.653 316.648C775.653 317.344 776.061 317.656 776.517 317.656C776.973 317.656 777.381 317.392 777.381 316.648C777.381 316.312 777.333 316.072 777.333 315.88C777.333 315.28 778.101 314.56 779.565 314.56C780.885 314.56 782.085 315.184 782.085 317.32V317.92L778.341 319.216ZM780.597 323.56C779.901 324.016 779.301 324.472 778.365 324.472C777.165 324.472 776.517 323.512 776.517 322.48C776.517 321.16 777.117 320.344 779.205 319.6L782.085 318.592V322.576L780.597 323.56ZM790.839 324.76C788.919 324.76 788.103 323.968 788.103 323.128C788.103 322.888 788.247 322.648 788.247 322.24C788.247 321.784 788.079 321.256 787.407 321.256C786.807 321.256 786.519 321.736 786.519 322.36C786.519 323.92 787.959 325.36 790.839 325.36C793.839 325.36 795.519 323.8 795.519 322.12C795.519 319.36 792.519 319.12 792.519 319.12V319.048C792.519 319.048 794.991 318.88 794.991 316.72C794.991 314.68 792.999 313.84 791.079 313.84C788.799 313.84 787.839 315.4 787.839 315.4L786.879 313.84V317.8L787.959 316C787.959 316 788.919 314.56 790.839 314.56C792.639 314.56 793.671 315.52 793.671 316.72C793.671 318.04 792.639 318.832 790.719 318.832H789.039V319.552H790.599C793.719 319.552 794.199 320.92 794.199 322.12C794.199 323.68 792.903 324.76 790.839 324.76ZM802.72 319.792C804.4 319.792 805.84 320.32 805.84 322C805.84 323.68 804.28 324.28 802.84 324.28H801.088L800.44 323.92V319.792H802.72ZM800.44 319.072V315.28L801.088 314.92H802.36C803.8 314.92 805.36 315.352 805.36 316.888C805.36 318.496 803.92 319.072 802.24 319.072H800.44ZM806.68 316.84C806.68 314.608 804.16 314.2 802.24 314.2H797.32L799.24 315.28V323.92L797.32 325H802.84C804.76 325 807.16 324.28 807.16 322C807.16 319.48 804.28 319.312 804.28 319.312V319.24C804.28 319.24 806.68 318.88 806.68 316.84ZM812.185 319.216C810.553 319.792 809.089 320.92 809.089 322.6C809.089 324.304 810.169 325.36 811.825 325.36C812.785 325.36 813.601 324.88 814.153 324.52L815.929 323.344C815.929 324.616 815.929 325.36 816.769 325.36C817.609 325.36 819.289 323.32 819.289 323.32L817.129 324.16V317.32C817.129 315.28 816.265 313.84 813.649 313.84C812.209 313.84 809.497 315.16 809.497 316.648C809.497 317.344 809.905 317.656 810.361 317.656C810.817 317.656 811.225 317.392 811.225 316.648C811.225 316.312 811.177 316.072 811.177 315.88C811.177 315.28 811.945 314.56 813.409 314.56C814.729 314.56 815.929 315.184 815.929 317.32V317.92L812.185 319.216ZM814.441 323.56C813.745 324.016 813.145 324.472 812.209 324.472C811.009 324.472 810.361 323.512 810.361 322.48C810.361 321.16 810.961 320.344 813.049 319.6L815.929 318.592V322.576L814.441 323.56ZM820.242 325H825.282L823.362 323.92V319.792H829.242V323.92L827.322 325H832.362L830.442 323.92V315.28L832.362 314.2H827.322L829.242 315.28V319.072H823.362V315.28L825.282 314.2H820.242L822.162 315.28V323.92L820.242 325ZM841.367 325H846.407L844.487 323.92V315.28L846.407 314.2H841.367L843.287 315.28V315.52L837.167 322.576V315.28L839.087 314.2H834.047L835.967 315.28V323.92L834.047 325H839.087L837.167 323.92V323.68L843.287 316.624V323.92L841.367 325ZM857.446 318.52C857.446 315.88 856.366 313.84 853.318 313.84C850.462 313.84 848.086 316.096 848.086 319.6C848.086 322.84 850.006 325.36 853.126 325.36C856.726 325.36 857.446 321.88 857.446 321.88C857.446 321.88 856.366 324.28 853.726 324.28C851.326 324.28 849.286 322.792 849.286 319.216C849.286 318.976 849.286 318.76 849.31 318.52H857.446ZM853.27 314.416C854.95 314.416 856.126 315.52 856.126 316.72C856.126 317.68 855.286 317.8 854.086 317.8H849.43C849.958 315.496 851.758 314.416 853.27 314.416Z" fill="white"/>
</g>
<defs>
<filter id="filter0_d_1060_6105" x="282.68" y="0.740908" width="1033.9" height="261.459" filterUnits="userSpaceOnUse" color-interpolation-filters="sRGB">
<feFlood flood-opacity="0" result="BackgroundImageFix"/>
<feColorMatrix in="SourceAlpha" type="matrix" values="0 0 0 0 0 0 0 0 0 0 0 0 0 0 0 0 0 0 127 0" result="hardAlpha"/>
<feOffset/>
<feGaussianBlur stdDeviation="10.9093"/>
<feComposite in2="hardAlpha" operator="out"/>
<feColorMatrix type="matrix" values="0 0 0 0 0.972549 0 0 0 0 0.964706 0 0 0 0 0.941176 0 0 0 1 0"/>
<feBlend mode="normal" in2="BackgroundImageFix" result="effect1_dropShadow_1060_6105"/>
<feBlend mode="normal" in="SourceGraphic" in2="effect1_dropShadow_1060_6105" result="shape"/>
</filter>
<filter id="filter1_d_1060_6105" x="0.427919" y="7.42841" width="247.314" height="247.314" filterUnits="userSpaceOnUse" color-interpolation-filters="sRGB">
<feFlood flood-opacity="0" result="BackgroundImageFix"/>
<feColorMatrix in="SourceAlpha" type="matrix" values="0 0 0 0 0 0 0 0 0 0 0 0 0 0 0 0 0 0 127 0" result="hardAlpha"/>
<feOffset/>
<feGaussianBlur stdDeviation="10.9093"/>
<feColorMatrix type="matrix" values="0 0 0 0 0.972549 0 0 0 0 0.964706 0 0 0 0 0.941176 0 0 0 1 0"/>
<feBlend mode="normal" in2="BackgroundImageFix" result="effect1_dropShadow_1060_6105"/>
<feBlend mode="normal" in="SourceGraphic" in2="effect1_dropShadow_1060_6105" result="shape"/>
</filter>
<filter id="filter2_d_1060_6105" x="95.5981" y="301.712" width="71.4151" height="35.7754" filterUnits="userSpaceOnUse" color-interpolation-filters="sRGB">
<feFlood flood-opacity="0" result="BackgroundImageFix"/>
<feColorMatrix in="SourceAlpha" type="matrix" values="0 0 0 0 0 0 0 0 0 0 0 0 0 0 0 0 0 0 127 0" result="hardAlpha"/>
<feOffset/>
<feGaussianBlur stdDeviation="6.06373"/>
<feComposite in2="hardAlpha" operator="out"/>
<feColorMatrix type="matrix" values="0 0 0 0 0.972549 0 0 0 0 0.964706 0 0 0 0 0.941176 0 0 0 1 0"/>
<feBlend mode="normal" in2="BackgroundImageFix" result="effect1_dropShadow_1060_6105"/>
<feBlend mode="normal" in="SourceGraphic" in2="effect1_dropShadow_1060_6105" result="shape"/>
</filter>
<filter id="filter3_d_1060_6105" x="749.193" y="301.712" width="120.381" height="35.7754" filterUnits="userSpaceOnUse" color-interpolation-filters="sRGB">
<feFlood flood-opacity="0" result="BackgroundImageFix"/>
<feColorMatrix in="SourceAlpha" type="matrix" values="0 0 0 0 0 0 0 0 0 0 0 0 0 0 0 0 0 0 127 0" result="hardAlpha"/>
<feOffset/>
<feGaussianBlur stdDeviation="6.06373"/>
<feComposite in2="hardAlpha" operator="out"/>
<feColorMatrix type="matrix" values="0 0 0 0 0.972549 0 0 0 0 0.964706 0 0 0 0 0.941176 0 0 0 1 0"/>
<feBlend mode="normal" in2="BackgroundImageFix" result="effect1_dropShadow_1060_6105"/>
<feBlend mode="normal" in="SourceGraphic" in2="effect1_dropShadow_1060_6105" result="shape"/>
</filter>
</defs>
</svg>
