<svg width="797" height="440" viewBox="0 0 797 440" fill="none" xmlns="http://www.w3.org/2000/svg">
<g filter="url(#filter0_d_1060_6106)">
<path d="M248.001 341.567H257.236V315.493C257.236 315.493 262.668 326.9 275.705 326.9C293.088 326.9 300.693 313.32 300.693 298.11C300.693 282.9 293.088 269.319 275.705 269.319C262.668 269.319 257.236 280.727 257.236 280.727V270.949H248.001V341.567ZM274.076 275.838C283.31 275.838 290.915 282.356 290.915 298.11C290.915 313.863 283.31 320.382 274.076 320.382C264.841 320.382 257.236 312.777 257.236 298.11C257.236 283.443 264.841 275.838 274.076 275.838ZM324.586 326.9C338.167 326.9 343.599 316.036 343.599 316.036V317.665C343.599 324.727 347.945 325.814 353.377 325.814C355.767 325.814 358.266 325.271 358.266 325.271V318.752C352.834 319.295 352.834 316.579 352.834 312.233V287.245C352.834 274.751 344.685 269.319 330.019 269.319C316.438 269.319 306.66 274.751 306.66 287.245H315.895C315.895 279.64 320.784 275.838 330.019 275.838C338.71 275.838 343.599 278.554 343.599 285.072C343.599 289.418 342.513 293.764 330.019 293.764C311.549 293.764 305.574 301.369 305.574 310.604C305.574 319.838 312.092 326.9 324.586 326.9ZM328.932 299.196C341.1 299.196 343.49 295.176 343.599 294.959V298.653C343.599 314.949 334.364 320.382 326.759 320.382C319.697 320.382 315.352 316.036 315.352 309.517C315.352 301.369 322.957 299.196 328.932 299.196ZM388.648 326.9C404.401 326.9 412.549 317.122 413.093 306.258H403.315C402.228 314.949 397.339 320.382 388.648 320.382C379.413 320.382 371.808 313.863 371.808 298.11C371.808 282.356 379.413 275.838 388.648 275.838C397.339 275.838 402.228 281.27 403.315 289.961H413.093C412.549 279.097 404.401 269.319 388.648 269.319C370.722 269.319 362.03 282.356 362.03 298.11C362.03 313.863 370.722 326.9 388.648 326.9ZM444.005 295.502C444.005 301.297 443.426 306.982 442.267 312.559C441.18 318.136 439.442 323.424 437.052 328.421C434.734 333.491 431.728 338.163 428.034 342.436H419.126C422.457 337.873 425.246 333.02 427.491 327.878C429.736 322.808 431.439 317.521 432.597 312.016C433.756 306.511 434.336 300.971 434.336 295.394C434.336 289.672 433.756 284.022 432.597 278.445C431.439 272.868 429.736 267.472 427.491 262.257C425.246 257.042 422.421 252.19 419.017 247.699H428.034C431.728 252.045 434.734 256.789 437.052 261.931C439.442 267.074 441.18 272.47 442.267 278.119C443.426 283.769 444.005 289.563 444.005 295.502ZM461.367 325.271V309.517L471.362 299.087L488.528 325.271H499.392L477.337 292.786L498.305 270.949H487.984L461.367 299.196V270.949H452.132V325.271H461.367ZM501.603 325.271C501.603 325.271 503.233 325.814 505.949 325.814C518.443 325.814 523.332 316.036 523.332 289.961V278.011H545.06V325.271H554.295V270.949H514.64V288.875C514.64 314.406 510.512 317.883 503.45 317.883C502.363 317.883 501.603 317.665 501.603 317.665V325.271ZM579.325 326.9C592.906 326.9 598.338 316.036 598.338 316.036V317.665C598.338 324.727 602.684 325.814 608.116 325.814C610.506 325.814 613.005 325.271 613.005 325.271V318.752C607.573 319.295 607.573 316.579 607.573 312.233V287.245C607.573 274.751 599.424 269.319 584.758 269.319C571.177 269.319 561.399 274.751 561.399 287.245H570.634C570.634 279.64 575.523 275.838 584.758 275.838C593.449 275.838 598.338 278.554 598.338 285.072C598.338 289.418 597.252 293.764 584.758 293.764C566.288 293.764 560.313 301.369 560.313 310.604C560.313 319.838 566.831 326.9 579.325 326.9ZM583.671 299.196C595.839 299.196 598.229 295.176 598.338 294.959V298.653C598.338 314.949 589.103 320.382 581.498 320.382C574.436 320.382 570.091 316.036 570.091 309.517C570.091 301.369 577.696 299.196 583.671 299.196ZM624.374 341.567V325.271H669.461V341.567H678.696V318.209H668.918V270.949H629.263V283.443C629.263 308.974 624.917 318.209 617.312 318.209H615.14V341.567H624.374ZM630.35 318.209C636.325 313.32 637.955 300.608 637.955 284.529V278.011H659.683V318.209H630.35Z" fill="#F8F6F0"/>
</g>
<g filter="url(#filter1_d_1060_6106)">
<path d="M174.842 252.47L184.308 278.05C185.104 280.201 186.799 281.896 188.95 282.692L214.53 292.158C216.24 292.79 216.24 295.21 214.53 295.842L188.95 305.308C186.799 306.104 185.104 307.799 184.308 309.95L174.842 335.53C174.21 337.24 171.79 337.24 171.158 335.53L161.692 309.95C160.896 307.799 159.201 306.104 157.05 305.308L131.47 295.842C129.76 295.21 129.76 292.79 131.47 292.158L157.05 282.692C159.201 281.896 160.896 280.201 161.692 278.05L171.158 252.47C171.79 250.76 174.21 250.76 174.842 252.47Z" stroke="#F5F6EE" stroke-width="5.8936"/>
</g>
<g opacity="0.2" filter="url(#filter2_d_1060_6106)">
<path d="M399.376 161.47L408.445 185.979C409.241 188.13 410.937 189.826 413.088 190.622L437.597 199.691C439.307 200.324 439.307 202.743 437.597 203.376L413.088 212.445C410.937 213.241 409.241 214.937 408.445 217.088L399.376 241.597C398.743 243.307 396.324 243.307 395.691 241.597L386.622 217.088C385.826 214.937 384.13 213.241 381.979 212.445L357.47 203.376C355.76 202.743 355.76 200.324 357.47 199.691L381.979 190.622C384.13 189.826 385.826 188.13 386.622 185.979L395.691 161.47C396.324 159.76 398.743 159.76 399.376 161.47Z" stroke="#F5F6EE" stroke-width="5.8936"/>
</g>
<g opacity="0.2" filter="url(#filter3_d_1060_6106)">
<path d="M399.376 345.47L408.445 369.979C409.241 372.13 410.937 373.826 413.088 374.622L437.597 383.691C439.307 384.324 439.307 386.743 437.597 387.376L413.088 396.445C410.937 397.241 409.241 398.937 408.445 401.088L399.376 425.597C398.743 427.307 396.324 427.307 395.691 425.597L386.622 401.088C385.826 398.937 384.13 397.241 381.979 396.445L357.47 387.376C355.76 386.743 355.76 384.324 357.47 383.691L381.979 374.622C384.13 373.826 385.826 372.13 386.622 369.979L395.691 345.47C396.324 343.76 398.743 343.76 399.376 345.47Z" stroke="#F5F6EE" stroke-width="5.8936"/>
</g>
<g opacity="0.2" filter="url(#filter4_d_1060_6106)">
<path d="M728.376 251.47L737.445 275.979C738.241 278.13 739.937 279.826 742.088 280.622L766.597 289.691C768.307 290.324 768.307 292.743 766.597 293.376L742.088 302.445C739.937 303.241 738.241 304.937 737.445 307.088L728.376 331.597C727.743 333.307 725.324 333.307 724.691 331.597L715.622 307.088C714.826 304.937 713.13 303.241 710.979 302.445L686.47 293.376C684.76 292.743 684.76 290.324 686.47 289.691L710.979 280.622C713.13 279.826 714.826 278.13 715.622 275.979L724.691 251.47C725.324 249.76 727.743 249.76 728.376 251.47Z" stroke="#F5F6EE" stroke-width="5.8936"/>
</g>
<g opacity="0.2" filter="url(#filter5_d_1060_6106)">
<path d="M85.376 251.47L94.4451 275.979C95.241 278.13 96.9369 279.826 99.0878 280.622L123.597 289.691C125.307 290.324 125.307 292.743 123.597 293.376L99.0878 302.445C96.9369 303.241 95.241 304.937 94.4451 307.088L85.376 331.597C84.7431 333.307 82.324 333.307 81.6911 331.597L72.622 307.088C71.8261 304.937 70.1302 303.241 67.9793 302.445L43.4705 293.376C41.7601 292.743 41.7601 290.324 43.4705 289.691L67.9793 280.622C70.1302 279.826 71.8261 278.13 72.622 275.979L81.6911 251.47C82.324 249.76 84.7431 249.76 85.376 251.47Z" stroke="#F5F6EE" stroke-width="5.8936"/>
</g>
<g filter="url(#filter6_d_1060_6106)">
<path d="M253.843 14.28L254.491 13.92H259.075L259.723 14.28V22.92L257.803 24H262.843L260.923 22.92V14.28L262.843 13.2H250.723L252.643 14.28V22.92L250.723 24H255.763L253.843 22.92V14.28ZM269.328 13.488C271.32 13.488 273.48 15.24 273.48 19.224C273.48 22.056 271.776 23.712 270 23.712C268.032 23.712 265.848 21.96 265.848 17.976C265.848 15.096 267.576 13.488 269.328 13.488ZM264.528 18.6C264.528 21.84 266.328 24.36 269.664 24.36C272.76 24.36 274.8 21.84 274.8 18.6C274.8 15.36 273 12.84 269.664 12.84C266.568 12.84 264.528 15.36 264.528 18.6ZM281.665 13.416C283.705 13.416 283.921 14.64 283.921 14.88C283.921 15.264 283.705 15.336 283.705 15.864C283.705 16.392 284.041 16.752 284.617 16.752C285.217 16.752 285.529 16.272 285.529 15.648C285.529 14.328 284.113 12.84 281.713 12.84C278.857 12.84 276.481 15.12 276.481 18.6C276.481 21.84 278.401 24.36 281.521 24.36C285.121 24.36 285.841 20.88 285.841 20.88C285.841 20.88 284.761 23.28 282.121 23.28C279.721 23.28 277.681 21.792 277.681 18.216C277.681 14.928 279.985 13.416 281.665 13.416ZM289.68 24H295.2L293.04 22.92V13.92H295.68L297.12 16.56V13.2H287.76V16.56L289.2 13.92H291.84V22.92L289.68 24ZM300.611 27.96L298.691 29.04H303.731L301.811 27.96V22.464C301.883 22.632 302.771 24.36 305.171 24.36C307.331 24.36 309.851 22.68 309.851 18.6C309.851 14.16 307.571 12.84 305.411 12.84C302.891 12.84 301.811 15.12 301.811 15.12V12.84L298.691 13.8L300.611 14.4V27.96ZM301.811 16.32C301.811 16.32 302.651 13.56 305.051 13.56C306.875 13.56 308.531 15 308.531 18.6C308.531 21.96 306.875 23.64 305.051 23.64C303.011 23.64 301.811 22.08 301.811 20.28V16.32ZM316.46 13.488C318.452 13.488 320.612 15.24 320.612 19.224C320.612 22.056 318.908 23.712 317.132 23.712C315.164 23.712 312.98 21.96 312.98 17.976C312.98 15.096 314.708 13.488 316.46 13.488ZM311.66 18.6C311.66 21.84 313.46 24.36 316.796 24.36C319.892 24.36 321.932 21.84 321.932 18.6C321.932 15.36 320.132 12.84 316.796 12.84C313.7 12.84 311.66 15.36 311.66 18.6ZM332.973 17.52C332.973 14.88 331.893 12.84 328.845 12.84C325.989 12.84 323.613 15.096 323.613 18.6C323.613 21.84 325.533 24.36 328.653 24.36C332.253 24.36 332.973 20.88 332.973 20.88C332.973 20.88 331.893 23.28 329.253 23.28C326.853 23.28 324.813 21.792 324.813 18.216C324.813 17.976 324.813 17.76 324.837 17.52H332.973ZM328.797 13.416C330.477 13.416 331.653 14.52 331.653 15.72C331.653 16.68 330.813 16.8 329.613 16.8H324.957C325.485 14.496 327.285 13.416 328.797 13.416ZM334.887 24H339.927L338.007 22.92V18.792H343.887V22.92L341.967 24H347.007L345.087 22.92V14.28L347.007 13.2H341.967L343.887 14.28V18.072H338.007V14.28L339.927 13.2H334.887L336.807 14.28V22.92L334.887 24ZM356.012 24H361.052L359.132 22.92V14.28L361.052 13.2H356.012L357.932 14.28V14.52L351.812 21.576V14.28L353.732 13.2H348.692L350.612 14.28V22.92L348.692 24H353.732L351.812 22.92V22.68L357.932 15.624V22.92L356.012 24ZM372.091 17.52C372.091 14.88 371.011 12.84 367.963 12.84C365.107 12.84 362.731 15.096 362.731 18.6C362.731 21.84 364.651 24.36 367.771 24.36C371.371 24.36 372.091 20.88 372.091 20.88C372.091 20.88 371.011 23.28 368.371 23.28C365.971 23.28 363.931 21.792 363.931 18.216C363.931 17.976 363.931 17.76 363.955 17.52H372.091ZM367.915 13.416C369.595 13.416 370.771 14.52 370.771 15.72C370.771 16.68 369.931 16.8 368.731 16.8H364.075C364.603 14.496 366.403 13.416 367.915 13.416ZM385.038 13.488C387.03 13.488 389.19 15.24 389.19 19.224C389.19 22.056 387.486 23.712 385.71 23.712C383.742 23.712 381.558 21.96 381.558 17.976C381.558 15.096 383.286 13.488 385.038 13.488ZM380.238 18.6C380.238 21.84 382.038 24.36 385.374 24.36C388.47 24.36 390.51 21.84 390.51 18.6C390.51 15.36 388.71 12.84 385.374 12.84C382.278 12.84 380.238 15.36 380.238 18.6ZM395.005 14.16L396.685 13.2H391.357L393.637 14.28L396.757 18.36L393.397 22.92L391.117 24H395.893L394.213 23.04L397.213 18.96L400.357 23.04L398.677 24H403.981L401.701 22.92L397.909 17.976L400.621 14.28L402.997 13.2H398.149L399.829 14.16L397.453 17.376L395.005 14.16ZM406.384 27.96L404.464 29.04H409.504L407.584 27.96V22.464C407.656 22.632 408.544 24.36 410.944 24.36C413.104 24.36 415.624 22.68 415.624 18.6C415.624 14.16 413.344 12.84 411.184 12.84C408.664 12.84 407.584 15.12 407.584 15.12V12.84L404.464 13.8L406.384 14.4V27.96ZM407.584 16.32C407.584 16.32 408.424 13.56 410.824 13.56C412.648 13.56 414.304 15 414.304 18.6C414.304 21.96 412.648 23.64 410.824 23.64C408.784 23.64 407.584 22.08 407.584 20.28V16.32ZM420.65 18.216C419.018 18.792 417.554 19.92 417.554 21.6C417.554 23.304 418.634 24.36 420.29 24.36C421.25 24.36 422.066 23.88 422.618 23.52L424.394 22.344C424.394 23.616 424.394 24.36 425.234 24.36C426.074 24.36 427.754 22.32 427.754 22.32L425.594 23.16V16.32C425.594 14.28 424.73 12.84 422.114 12.84C420.674 12.84 417.962 14.16 417.962 15.648C417.962 16.344 418.37 16.656 418.826 16.656C419.282 16.656 419.69 16.392 419.69 15.648C419.69 15.312 419.642 15.072 419.642 14.88C419.642 14.28 420.41 13.56 421.874 13.56C423.194 13.56 424.394 14.184 424.394 16.32V16.92L420.65 18.216ZM422.906 22.56C422.21 23.016 421.61 23.472 420.674 23.472C419.474 23.472 418.826 22.512 418.826 21.48C418.826 20.16 419.426 19.344 421.514 18.6L424.394 17.592V21.576L422.906 22.56ZM428.707 24H433.747L431.827 22.92V18.792H437.707V22.92L435.787 24H440.827L438.907 22.92V14.28L440.827 13.2H435.787L437.707 14.28V18.072H431.827V14.28L433.747 13.2H428.707L430.627 14.28V22.92L428.707 24ZM442.512 24H447.552L445.632 22.92V18.792H451.512V22.92L449.592 24H454.632L452.712 22.92V14.28L454.632 13.2H449.592L451.512 14.28V18.072H445.632V14.28L447.552 13.2H442.512L444.432 14.28V22.92L442.512 24ZM461.117 13.488C463.109 13.488 465.269 15.24 465.269 19.224C465.269 22.056 463.565 23.712 461.789 23.712C459.821 23.712 457.637 21.96 457.637 17.976C457.637 15.096 459.365 13.488 461.117 13.488ZM456.317 18.6C456.317 21.84 458.117 24.36 461.453 24.36C464.549 24.36 466.589 21.84 466.589 18.6C466.589 15.36 464.789 12.84 461.453 12.84C458.357 12.84 456.317 15.36 456.317 18.6ZM471.39 14.28L472.038 13.92H475.326L476.79 16.56V13.2H468.27L470.19 14.28V22.92L468.27 24H473.79L471.39 22.68V14.28ZM483.499 13.488C485.491 13.488 487.651 15.24 487.651 19.224C487.651 22.056 485.947 23.712 484.171 23.712C482.203 23.712 480.019 21.96 480.019 17.976C480.019 15.096 481.747 13.488 483.499 13.488ZM478.699 18.6C478.699 21.84 480.499 24.36 483.835 24.36C486.931 24.36 488.971 21.84 488.971 18.6C488.971 15.36 487.171 12.84 483.835 12.84C480.739 12.84 478.699 15.36 478.699 18.6ZM500.007 14.28L500.655 13.92H505.239L505.887 14.28V22.92L503.967 24H509.007L507.087 22.92V14.28L509.007 13.2H496.887L498.807 14.28V22.92L496.887 24H501.927L500.007 22.92V14.28ZM515.492 13.488C517.484 13.488 519.644 15.24 519.644 19.224C519.644 22.056 517.94 23.712 516.164 23.712C514.196 23.712 512.012 21.96 512.012 17.976C512.012 15.096 513.74 13.488 515.492 13.488ZM510.692 18.6C510.692 21.84 512.492 24.36 515.828 24.36C518.924 24.36 520.964 21.84 520.964 18.6C520.964 15.36 519.164 12.84 515.828 12.84C512.732 12.84 510.692 15.36 510.692 18.6ZM528.885 24H533.925L532.005 22.92V14.28L533.925 13.2H524.085L526.005 14.28V15.72C526.005 20.4 525.141 22.776 524.205 22.776C523.653 22.776 523.725 22.176 523.053 22.176C522.573 22.176 522.165 22.56 522.165 23.136C522.165 23.976 522.909 24.24 523.437 24.24C526.245 24.24 526.845 19.68 526.845 15.72V14.28L527.493 13.92H530.157L530.805 14.28V22.92L528.885 24ZM546.286 13.2H540.886C538.966 13.2 536.566 13.92 536.566 16.2C536.566 17.88 537.862 18.672 539.302 18.984L536.686 22.92L535.006 24H537.382L540.574 19.128H543.166V22.92L541.246 24H546.286L544.366 22.92V14.28L546.286 13.2ZM541.006 18.408C539.326 18.408 537.886 17.88 537.886 16.2C537.886 14.52 539.446 13.92 540.886 13.92H542.518L543.166 14.28V18.408H541.006Z" fill="white"/>
</g>
<rect x="126.5" y="247.5" width="553" height="94" stroke="white" stroke-opacity="0.2"/>
<rect x="126.5" y="160.5" width="553" height="270" stroke="white" stroke-opacity="0.2"/>
<rect x="39.5" y="160.5" width="732" height="270" stroke="white" stroke-opacity="0.2"/>
<defs>
<filter id="filter0_d_1060_6106" x="238.512" y="238.21" width="449.674" height="113.717" filterUnits="userSpaceOnUse" color-interpolation-filters="sRGB">
<feFlood flood-opacity="0" result="BackgroundImageFix"/>
<feColorMatrix in="SourceAlpha" type="matrix" values="0 0 0 0 0 0 0 0 0 0 0 0 0 0 0 0 0 0 127 0" result="hardAlpha"/>
<feOffset/>
<feGaussianBlur stdDeviation="4.74481"/>
<feComposite in2="hardAlpha" operator="out"/>
<feColorMatrix type="matrix" values="0 0 0 0 0.972549 0 0 0 0 0.964706 0 0 0 0 0.941176 0 0 0 1 0"/>
<feBlend mode="normal" in2="BackgroundImageFix" result="effect1_dropShadow_1060_6106"/>
<feBlend mode="normal" in="SourceGraphic" in2="effect1_dropShadow_1060_6106" result="shape"/>
</filter>
<filter id="filter1_d_1060_6106" x="117.751" y="238.752" width="110.498" height="110.497" filterUnits="userSpaceOnUse" color-interpolation-filters="sRGB">
<feFlood flood-opacity="0" result="BackgroundImageFix"/>
<feColorMatrix in="SourceAlpha" type="matrix" values="0 0 0 0 0 0 0 0 0 0 0 0 0 0 0 0 0 0 127 0" result="hardAlpha"/>
<feOffset/>
<feGaussianBlur stdDeviation="4.74481"/>
<feColorMatrix type="matrix" values="0 0 0 0 0.972549 0 0 0 0 0.964706 0 0 0 0 0.941176 0 0 0 1 0"/>
<feBlend mode="normal" in2="BackgroundImageFix" result="effect1_dropShadow_1060_6106"/>
<feBlend mode="normal" in="SourceGraphic" in2="effect1_dropShadow_1060_6106" result="shape"/>
</filter>
<filter id="filter2_d_1060_6106" x="343.751" y="147.752" width="107.565" height="107.564" filterUnits="userSpaceOnUse" color-interpolation-filters="sRGB">
<feFlood flood-opacity="0" result="BackgroundImageFix"/>
<feColorMatrix in="SourceAlpha" type="matrix" values="0 0 0 0 0 0 0 0 0 0 0 0 0 0 0 0 0 0 127 0" result="hardAlpha"/>
<feOffset/>
<feGaussianBlur stdDeviation="4.74481"/>
<feColorMatrix type="matrix" values="0 0 0 0 0.972549 0 0 0 0 0.964706 0 0 0 0 0.941176 0 0 0 1 0"/>
<feBlend mode="normal" in2="BackgroundImageFix" result="effect1_dropShadow_1060_6106"/>
<feBlend mode="normal" in="SourceGraphic" in2="effect1_dropShadow_1060_6106" result="shape"/>
</filter>
<filter id="filter3_d_1060_6106" x="343.751" y="331.752" width="107.565" height="107.564" filterUnits="userSpaceOnUse" color-interpolation-filters="sRGB">
<feFlood flood-opacity="0" result="BackgroundImageFix"/>
<feColorMatrix in="SourceAlpha" type="matrix" values="0 0 0 0 0 0 0 0 0 0 0 0 0 0 0 0 0 0 127 0" result="hardAlpha"/>
<feOffset/>
<feGaussianBlur stdDeviation="4.74481"/>
<feColorMatrix type="matrix" values="0 0 0 0 0.972549 0 0 0 0 0.964706 0 0 0 0 0.941176 0 0 0 1 0"/>
<feBlend mode="normal" in2="BackgroundImageFix" result="effect1_dropShadow_1060_6106"/>
<feBlend mode="normal" in="SourceGraphic" in2="effect1_dropShadow_1060_6106" result="shape"/>
</filter>
<filter id="filter4_d_1060_6106" x="672.751" y="237.752" width="107.565" height="107.564" filterUnits="userSpaceOnUse" color-interpolation-filters="sRGB">
<feFlood flood-opacity="0" result="BackgroundImageFix"/>
<feColorMatrix in="SourceAlpha" type="matrix" values="0 0 0 0 0 0 0 0 0 0 0 0 0 0 0 0 0 0 127 0" result="hardAlpha"/>
<feOffset/>
<feGaussianBlur stdDeviation="4.74481"/>
<feColorMatrix type="matrix" values="0 0 0 0 0.972549 0 0 0 0 0.964706 0 0 0 0 0.941176 0 0 0 1 0"/>
<feBlend mode="normal" in2="BackgroundImageFix" result="effect1_dropShadow_1060_6106"/>
<feBlend mode="normal" in="SourceGraphic" in2="effect1_dropShadow_1060_6106" result="shape"/>
</filter>
<filter id="filter5_d_1060_6106" x="29.7511" y="237.752" width="107.565" height="107.564" filterUnits="userSpaceOnUse" color-interpolation-filters="sRGB">
<feFlood flood-opacity="0" result="BackgroundImageFix"/>
<feColorMatrix in="SourceAlpha" type="matrix" values="0 0 0 0 0 0 0 0 0 0 0 0 0 0 0 0 0 0 127 0" result="hardAlpha"/>
<feOffset/>
<feGaussianBlur stdDeviation="4.74481"/>
<feColorMatrix type="matrix" values="0 0 0 0 0.972549 0 0 0 0 0.964706 0 0 0 0 0.941176 0 0 0 1 0"/>
<feBlend mode="normal" in2="BackgroundImageFix" result="effect1_dropShadow_1060_6106"/>
<feBlend mode="normal" in="SourceGraphic" in2="effect1_dropShadow_1060_6106" result="shape"/>
</filter>
<filter id="filter6_d_1060_6106" x="238.595" y="0.71239" width="319.818" height="40.4551" filterUnits="userSpaceOnUse" color-interpolation-filters="sRGB">
<feFlood flood-opacity="0" result="BackgroundImageFix"/>
<feColorMatrix in="SourceAlpha" type="matrix" values="0 0 0 0 0 0 0 0 0 0 0 0 0 0 0 0 0 0 127 0" result="hardAlpha"/>
<feOffset/>
<feGaussianBlur stdDeviation="6.06373"/>
<feComposite in2="hardAlpha" operator="out"/>
<feColorMatrix type="matrix" values="0 0 0 0 0.972549 0 0 0 0 0.964706 0 0 0 0 0.941176 0 0 0 1 0"/>
<feBlend mode="normal" in2="BackgroundImageFix" result="effect1_dropShadow_1060_6106"/>
<feBlend mode="normal" in="SourceGraphic" in2="effect1_dropShadow_1060_6106" result="shape"/>
</filter>
</defs>
</svg>
