<svg width="250" height="169" viewBox="0 0 250 169" fill="none" xmlns="http://www.w3.org/2000/svg">
<path d="M248.756 97.3699C248.684 96.8223 248.181 96.4366 247.634 96.5085L238.71 97.6798C238.163 97.7516 237.777 98.2538 237.849 98.8014C237.921 99.349 238.423 99.7346 238.971 99.6628L246.903 98.6216L247.944 106.554C248.016 107.101 248.518 107.487 249.065 107.415C249.613 107.343 249.999 106.841 249.927 106.293L248.756 97.3699ZM14.1172 0.5296C-18.4365 61.599 10.5041 124.788 62.3642 153.252C114.304 181.759 189.151 175.466 248.557 98.1091L246.971 96.8909C188.113 173.534 114.328 179.491 63.3265 151.498C12.2453 123.462 -16.0645 61.401 15.8821 1.4704L14.1172 0.5296Z" fill="#FB58E0"/>
</svg>
