<svg width="128" height="26" viewBox="0 0 128 26" fill="none" xmlns="http://www.w3.org/2000/svg">
<path d="M2.58327 24.424C2.15393 23.6587 1.78993 22.8467 1.49127 21.988C1.1926 21.1293 0.959266 20.224 0.791266 19.272C0.641932 18.3013 0.567266 17.3027 0.567266 16.276C0.567266 14.6147 0.716599 13.0467 1.01527 11.572C1.3326 10.0787 1.7806 8.66933 2.35927 7.344C2.9566 6.01867 3.67527 4.74933 4.51527 3.536C5.37393 2.32267 6.35393 1.14667 7.45527 0.0079987H9.72327C8.73393 1.10933 7.81927 2.276 6.97927 3.508C6.15793 4.72133 5.43927 6.00933 4.82327 7.372C4.22593 8.716 3.75927 10.1253 3.42327 11.6C3.08727 13.0747 2.91927 14.624 2.91927 16.248C2.91927 17.3307 2.97527 18.348 3.08727 19.3C3.21793 20.252 3.39527 21.148 3.61927 21.988C3.86193 22.8467 4.15127 23.6587 4.48727 24.424H2.58327ZM11.6284 13.14C12.4684 10.424 14.9044 7.26 17.9004 7.26C19.9164 7.26 20.7564 8.772 20.7564 10.592C20.7564 14.54 17.9564 19.02 14.3164 19.02C12.1604 19.02 11.2644 17.368 11.2644 15.408C11.2644 14.68 11.4044 13.896 11.6284 13.14ZM9.89236 18.88L10.1444 17.06H10.4244C10.4244 17.06 10.6204 20.56 14.2604 20.56C17.9564 20.56 22.7164 16.22 22.7164 10.2C22.7164 7.54 21.1764 5.72 18.6564 5.72C15.0164 5.72 12.8324 9.22 12.8324 9.22H12.5524L13.4484 6.28H11.7684L6.02836 25.04H7.98836L9.89236 18.88ZM35.4925 13.14C34.6525 15.856 32.2165 19.02 29.2205 19.02C27.2045 19.02 26.3645 17.508 26.3645 15.688C26.3645 11.74 29.1645 7.26 32.8045 7.26C34.9605 7.26 35.8565 8.912 35.8565 10.872C35.8565 11.6 35.7165 12.384 35.4925 13.14ZM33.5325 20H35.3525L39.5525 6.28H37.8725L36.9765 9.22H36.6965C36.6965 9.22 36.5005 5.72 32.8605 5.72C29.1645 5.72 24.4045 10.06 24.4045 16.08C24.4045 18.74 25.9445 20.56 28.4645 20.56C32.1045 20.56 34.2885 17.06 34.2885 17.06H34.5685L33.8685 18.88L33.5325 20ZM50.8445 15.1C50.2005 17.172 48.1285 19.02 45.5525 19.02C43.1445 19.02 42.3325 17.508 42.3325 15.492C42.3325 12.748 44.4605 7.26 49.1645 7.26C51.2085 7.26 52.2445 8.24 52.2445 9.948C52.2445 10.34 52.1885 10.76 52.0485 11.18H54.0085C54.1765 10.592 54.2325 10.144 54.2325 9.64C54.2325 7.204 52.4685 5.72 49.6405 5.72C44.4885 5.72 40.4005 10.648 40.4005 15.744C40.4005 18.544 42.1645 20.56 45.3565 20.56C48.4925 20.56 51.6845 18.768 52.8045 15.1H50.8445ZM52.9085 24.424C53.8978 23.3227 54.8031 22.156 55.6245 20.924C56.4645 19.7107 57.1831 18.432 57.7805 17.088C58.3965 15.7253 58.8631 14.3067 59.1805 12.832C59.5165 11.3573 59.6845 9.808 59.6845 8.184C59.6845 7.10133 59.6285 6.084 59.5165 5.132C59.4045 4.18 59.2271 3.284 58.9845 2.444C58.7605 1.58533 58.4805 0.773332 58.1445 0.0079987H60.0485C60.4778 0.773332 60.8325 1.59467 61.1125 2.472C61.4111 3.33067 61.6351 4.236 61.7845 5.188C61.9525 6.14 62.0365 7.13867 62.0365 8.184C62.0365 9.84533 61.8871 11.4227 61.5885 12.916C61.2898 14.3907 60.8418 15.7907 60.2445 17.116C59.6658 18.4413 58.9471 19.7107 58.0885 20.924C57.2298 22.1373 56.2498 23.304 55.1485 24.424H52.9085ZM74.2455 18.04C74.2455 19.72 74.6655 20 76.2055 20H77.4655V18.46H76.7655C76.2055 18.46 76.2055 18.18 76.2055 17.62V15.52C76.2055 12.916 74.2455 12.916 74.2455 12.916V12.636C74.2455 12.636 76.0655 12.636 76.0655 9.78V8.52C76.0655 7.68 76.2055 7.54 76.9055 7.54H77.3255V6H76.3455C74.6655 6 74.2455 6.56 74.2455 8.52V9.22C74.2455 10.844 74.2735 12.216 72.0895 12.216H67.1055V6.28H65.1455V20H67.1055V13.756H72.0895C74.2735 13.756 74.2455 14.876 74.2455 16.22V18.04ZM90.0535 7.82V20H92.0135V6.28H84.0335V9.08C84.0335 17.2 81.7935 18.6 79.8335 18.6C79.5535 18.6 79.2735 18.516 79.2735 18.516V20C79.2735 20 79.5535 20.14 80.1415 20.14C82.3535 20.14 85.7135 19.16 85.7135 9.64V7.82H90.0535ZM106.295 20H110.075V19.02H109.655C108.675 19.02 108.255 18.88 108.255 17.06V13.14C108.255 9.052 107.555 5.72 101.815 5.72C98.3146 5.72 95.3746 7.68 95.3746 11.18H97.3346C97.3346 9.108 98.7346 7.4 101.815 7.4C105.455 7.4 106.267 9.332 106.295 11.488C104.363 11.628 95.7946 12.216 95.7946 17.2C95.7946 19.16 97.0546 20.56 99.7146 20.56C102.907 20.56 105.427 17.872 106.295 16.78V20ZM106.295 15.24C105.371 16.388 102.795 18.88 100.275 18.88C98.5946 18.88 97.7546 18.32 97.7546 17.06C97.7546 13.728 104.531 13.196 106.295 13.028V15.24ZM124.484 6.28H115.804V9.08C115.804 13.84 114.824 16.78 113.284 18.46H111.044V23.5H112.724V20H125.464V23.5H127.144V18.46H124.484V6.28ZM122.524 7.82V18.46H115.244C116.644 16.5 117.484 13.56 117.484 9.64V7.82H122.524Z" fill="#313131"/>
</svg>
