<svg width="446" height="672" viewBox="0 0 446 672" fill="none" xmlns="http://www.w3.org/2000/svg">
<g filter="url(#filter0_di_935_6048)">
<rect x="6.72266" y="3" width="431.908" height="657.829" rx="22" fill="#F5F6EE"/>
<rect x="6.72266" y="3" width="431.908" height="657.829" rx="22" fill="url(#paint0_radial_935_6048)"/>
</g>
<g filter="url(#filter1_di_935_6048)">
<path fill-rule="evenodd" clip-rule="evenodd" d="M171.723 47.8828C171.723 42.36 176.2 37.8828 181.723 37.8828H261.723C267.245 37.8828 271.723 42.36 271.723 47.8828V108.883C271.723 114.406 267.245 118.883 261.723 118.883H235.723C230.2 118.883 225.723 123.36 225.723 128.883V219C225.723 224.523 230.2 229 235.723 229H330C335.523 229 340 233.477 340 239V261C340 266.523 344.477 271 350 271H402C407.523 271 412 275.477 412 281V310C412 315.523 407.523 320 402 320H380C374.477 320 370 324.477 370 330V355C370 358.314 367.314 361 364 361C360.686 361 358 363.686 358 367V424C358 429.523 353.523 434 348 434H97C91.4771 434 87 429.523 87 424L87 368C87 364.134 83.866 361 80 361C76.134 361 73 357.866 73 354V330C73 324.477 68.5228 320 63 320H51C45.4772 320 41 315.523 41 310V281C41 275.477 45.4772 271 51 271H96C101.523 271 106 266.523 106 261V239C106 233.477 110.477 229 116 229H207.723C213.245 229 217.723 224.523 217.723 219V128.883C217.723 123.36 213.245 118.883 207.723 118.883H181.723C176.2 118.883 171.723 114.406 171.723 108.883V47.8828Z" fill="#D9D9D9" fill-opacity="0.01"/>
</g>
<g filter="url(#filter2_d_935_6048)">
<path d="M114.621 270.883H118.701V250.003H131.181V270.883H135.261V246.883H114.621V270.883ZM149.901 271.603C157.821 271.603 161.661 265.843 161.661 258.883C161.661 251.923 157.821 246.163 149.901 246.163C141.981 246.163 138.141 251.923 138.141 258.883C138.141 265.843 141.981 271.603 149.901 271.603ZM142.461 258.883C142.461 251.923 145.821 249.043 149.901 249.043C153.981 249.043 157.341 251.923 157.341 258.883C157.341 265.843 153.981 268.723 149.901 268.723C145.821 268.723 142.461 265.843 142.461 258.883ZM163.103 270.883C163.103 270.883 163.823 271.123 165.023 271.123C170.543 271.123 172.703 266.803 172.703 255.283V250.003H182.303V270.883H186.383V246.883H168.863V254.803C168.863 266.083 167.039 267.619 163.919 267.619C163.439 267.619 163.103 267.523 163.103 267.523V270.883ZM200.322 270.883C205.362 270.883 209.682 269.203 209.682 263.683C209.682 258.163 205.362 256.723 200.322 256.723H193.842V246.883H189.762V270.883H200.322ZM193.842 267.763V259.843H200.082C202.962 259.843 205.362 260.563 205.362 263.683C205.362 267.043 202.962 267.763 200.082 267.763H193.842ZM211.589 262.963C211.589 268.003 214.949 271.603 222.389 271.603C229.589 271.603 233.429 268.243 233.429 263.683C233.429 258.883 227.429 258.163 227.429 258.163V257.923C227.429 257.923 232.469 257.203 232.469 252.643C232.469 249.523 230.069 246.163 222.389 246.163C214.469 246.163 212.069 250.963 212.069 254.083H216.149C216.149 252.163 217.589 249.043 222.389 249.043C226.709 249.043 228.389 250.963 228.389 253.123C228.389 255.763 226.229 256.963 223.109 256.963H218.789V259.843H223.109C225.989 259.843 229.109 260.563 229.109 263.683C229.109 266.323 227.429 268.723 222.389 268.723C217.589 268.723 215.669 266.323 215.669 262.963H211.589ZM245.435 270.883L244.955 272.083C243.995 274.531 242.795 275.203 241.115 275.203C240.155 275.203 238.715 275.059 238.715 275.059V278.083C238.715 278.083 240.395 278.323 241.835 278.323C245.915 278.323 247.355 276.307 249.035 272.083L258.875 246.883H254.555L247.403 266.611L239.435 246.883H234.875L245.435 270.883ZM261.012 270.883H265.092L278.052 252.163V270.883H282.132V246.883H278.052L265.092 265.603V246.883H261.012V270.883ZM263.892 239.683C263.892 241.843 265.092 245.443 271.572 245.443C278.052 245.443 279.252 241.843 279.252 239.683H275.412C275.412 241.603 274.356 243.043 271.572 243.043C268.788 243.043 267.732 241.603 267.732 239.683H263.892ZM296.761 271.603C303.721 271.603 307.321 267.283 307.561 262.483H303.241C302.761 266.323 300.601 268.723 296.761 268.723C292.681 268.723 289.321 265.843 289.321 258.883C289.321 251.923 292.681 249.043 296.761 249.043C300.601 249.043 302.761 251.443 303.241 255.283H307.561C307.321 250.483 303.721 246.163 296.761 246.163C288.841 246.163 285.001 251.923 285.001 258.883C285.001 265.843 288.841 271.603 296.761 271.603ZM314.258 270.883L320.498 261.043H326.738V270.883H330.818V246.883H319.778C314.978 246.883 310.418 248.563 310.418 254.083C310.418 258.259 313.01 260.083 316.322 260.755L309.698 270.883H314.258ZM314.738 254.083C314.738 250.723 317.138 250.003 320.018 250.003H326.738V257.923H320.018C317.138 257.923 314.738 257.203 314.738 254.083ZM57.1273 286.003V306.883H61.2073V286.003H70.0873V282.883H48.2473V286.003H57.1273ZM83.7842 307.603C89.7842 307.603 93.3842 304.243 94.3442 299.683H90.2642C89.5442 303.043 86.9042 304.723 83.7842 304.723C79.8962 304.723 76.6322 302.131 76.3442 295.843H94.5842V293.923C94.5842 288.163 91.4642 282.163 83.5442 282.163C75.8642 282.163 72.0242 287.923 72.0242 294.883C72.0242 301.843 75.8642 307.603 83.7842 307.603ZM83.5442 285.043C87.1922 285.043 90.2642 287.443 90.2642 292.963H76.4402C76.9682 287.395 79.8482 285.043 83.5442 285.043ZM96.0017 306.883C96.0017 306.883 96.7217 307.123 97.9217 307.123C103.442 307.123 105.602 302.803 105.602 291.283V286.003H115.202V306.883H119.282V282.883H101.762V290.803C101.762 302.083 99.9377 303.619 96.8177 303.619C96.3377 303.619 96.0017 303.523 96.0017 303.523V306.883ZM133.94 307.603C139.94 307.603 143.54 304.243 144.5 299.683H140.42C139.7 303.043 137.06 304.723 133.94 304.723C130.052 304.723 126.788 302.131 126.5 295.843H144.74V293.923C144.74 288.163 141.62 282.163 133.7 282.163C126.02 282.163 122.18 287.923 122.18 294.883C122.18 301.843 126.02 307.603 133.94 307.603ZM133.7 285.043C137.348 285.043 140.42 287.443 140.42 292.963H126.596C127.124 287.395 130.004 285.043 133.7 285.043ZM151.678 306.883V286.003H164.638V282.883H147.598V306.883H151.678ZM167.051 314.083H171.131V302.563C171.131 302.563 173.531 307.603 179.291 307.603C186.971 307.603 190.331 301.603 190.331 294.883C190.331 288.163 186.971 282.163 179.291 282.163C173.531 282.163 171.131 287.203 171.131 287.203V282.883H167.051V314.083ZM178.571 285.043C182.651 285.043 186.011 287.923 186.011 294.883C186.011 301.843 182.651 304.723 178.571 304.723C174.491 304.723 171.131 301.363 171.131 294.883C171.131 288.403 174.491 285.043 178.571 285.043ZM200.887 307.603C206.887 307.603 209.287 302.803 209.287 302.803V303.523C209.287 306.643 211.207 307.123 213.607 307.123C214.663 307.123 215.767 306.883 215.767 306.883V304.003C213.367 304.243 213.367 303.043 213.367 301.123V290.083C213.367 284.563 209.767 282.163 203.287 282.163C197.287 282.163 192.967 284.563 192.967 290.083H197.047C197.047 286.723 199.207 285.043 203.287 285.043C207.127 285.043 209.287 286.243 209.287 289.123C209.287 291.043 208.807 292.963 203.287 292.963C195.127 292.963 192.487 296.323 192.487 300.403C192.487 304.483 195.367 307.603 200.887 307.603ZM202.807 295.363C208.183 295.363 209.239 293.587 209.287 293.491V295.123C209.287 302.323 205.207 304.723 201.847 304.723C198.727 304.723 196.807 302.803 196.807 299.923C196.807 296.323 200.167 295.363 202.807 295.363ZM217.91 306.883H221.99V286.723L229.67 306.883H233.51L241.19 286.723V306.883H245.27V282.883H239.03L231.59 302.563L224.15 282.883H217.91V306.883ZM266.134 289.843H246.934V292.723H266.134V289.843ZM279.112 307.603C287.032 307.603 290.872 301.843 290.872 295.363C290.872 289.123 287.512 283.123 279.592 283.123C272.392 283.123 270.712 290.083 270.712 290.083H270.472C270.952 282.403 274.6 279.523 279.592 279.523H283.672C289.192 279.523 289.432 275.443 289.432 273.283H287.032C287.032 275.203 285.832 275.683 283.672 275.683H281.032C270.712 275.683 267.352 283.123 267.352 293.443C267.352 301.843 270.952 307.603 279.112 307.603ZM279.112 286.003C283.192 286.003 286.552 288.883 286.552 295.363C286.552 301.843 283.192 304.723 279.112 304.723C275.032 304.723 271.672 301.843 271.672 295.363C271.672 289.363 275.032 286.003 279.112 286.003ZM305.034 307.603C312.954 307.603 316.794 301.843 316.794 294.883C316.794 287.923 312.954 282.163 305.034 282.163C297.114 282.163 293.274 287.923 293.274 294.883C293.274 301.843 297.114 307.603 305.034 307.603ZM297.594 294.883C297.594 287.923 300.954 285.043 305.034 285.043C309.114 285.043 312.474 287.923 312.474 294.883C312.474 301.843 309.114 304.723 305.034 304.723C300.954 304.723 297.594 301.843 297.594 294.883ZM327.596 286.003V306.883H331.676V286.003H340.556V282.883H318.716V286.003H327.596ZM354.253 307.603C362.173 307.603 366.013 301.843 366.013 294.883C366.013 287.923 362.173 282.163 354.253 282.163C346.333 282.163 342.493 287.923 342.493 294.883C342.493 301.843 346.333 307.603 354.253 307.603ZM346.813 294.883C346.813 287.923 350.173 285.043 354.253 285.043C358.333 285.043 361.693 287.923 361.693 294.883C361.693 301.843 358.333 304.723 354.253 304.723C350.173 304.723 346.813 301.843 346.813 294.883ZM368.895 306.883H372.975V286.723L380.655 306.883H384.495L392.175 286.723V306.883H396.255V282.883H390.015L382.575 302.563L375.135 282.883H368.895V306.883ZM92.0483 350.083V342.883H111.968V350.083H116.048V339.763H111.728V318.883H94.2083V324.403C94.2083 335.683 92.2883 339.763 88.9283 339.763H87.9683V350.083H92.0483ZM94.6883 339.763C97.3283 337.603 98.0483 331.987 98.0483 324.883V322.003H107.648V339.763H94.6883ZM116.791 342.883C116.791 342.883 117.511 343.123 118.711 343.123C124.231 343.123 126.391 338.803 126.391 327.283V322.003H135.991V342.883H140.071V318.883H122.551V326.803C122.551 338.083 120.727 339.619 117.607 339.619C117.127 339.619 116.791 339.523 116.791 339.523V342.883ZM147.29 342.883L153.53 333.043H159.77V342.883H163.85V318.883H152.81C148.01 318.883 143.45 320.563 143.45 326.083C143.45 330.259 146.042 332.083 149.354 332.755L142.73 342.883H147.29ZM147.77 326.083C147.77 322.723 150.17 322.003 153.05 322.003H159.77V329.923H153.05C150.17 329.923 147.77 329.203 147.77 326.083ZM188.105 343.603C196.025 343.603 199.865 337.843 199.865 331.363C199.865 325.123 196.505 319.123 188.585 319.123C181.385 319.123 179.705 326.083 179.705 326.083H179.465C179.945 318.403 183.593 315.523 188.585 315.523H192.665C198.185 315.523 198.425 311.443 198.425 309.283H196.025C196.025 311.203 194.825 311.683 192.665 311.683H190.025C179.705 311.683 176.345 319.123 176.345 329.443C176.345 337.843 179.945 343.603 188.105 343.603ZM188.105 322.003C192.185 322.003 195.545 324.883 195.545 331.363C195.545 337.843 192.185 340.723 188.105 340.723C184.025 340.723 180.665 337.843 180.665 331.363C180.665 325.363 184.025 322.003 188.105 322.003ZM202.746 318.883V342.883H212.346C217.386 342.883 221.706 341.203 221.706 335.683C221.706 330.163 217.386 328.723 212.346 328.723H206.826V318.883H202.746ZM224.106 318.883V342.883H228.186V318.883H224.106ZM206.826 339.763V331.843H212.106C214.986 331.843 217.386 332.563 217.386 335.683C217.386 339.043 214.986 339.763 212.106 339.763H206.826ZM242.808 343.603C249.768 343.603 253.368 339.283 253.608 334.483H249.288C248.808 338.323 246.648 340.723 242.808 340.723C238.728 340.723 235.368 337.843 235.368 330.883C235.368 323.923 238.728 321.043 242.808 321.043C246.648 321.043 248.808 323.443 249.288 327.283H253.608C253.368 322.483 249.768 318.163 242.808 318.163C234.888 318.163 231.048 323.923 231.048 330.883C231.048 337.843 234.888 343.603 242.808 343.603ZM264.385 322.003V342.883H268.465V322.003H277.345V318.883H255.505V322.003H264.385ZM279.762 350.083H283.842V338.563C283.842 338.563 286.242 343.603 292.002 343.603C299.682 343.603 303.042 337.603 303.042 330.883C303.042 324.163 299.682 318.163 292.002 318.163C286.242 318.163 283.842 323.203 283.842 323.203V318.883H279.762V350.083ZM291.282 321.043C295.362 321.043 298.722 323.923 298.722 330.883C298.722 337.843 295.362 340.723 291.282 340.723C287.202 340.723 283.842 337.363 283.842 330.883C283.842 324.403 287.202 321.043 291.282 321.043ZM305.918 318.883V342.883H315.518C320.558 342.883 324.878 341.203 324.878 335.683C324.878 330.163 320.558 328.723 315.518 328.723H309.998V318.883H305.918ZM327.278 318.883V342.883H331.358V318.883H327.278ZM309.998 339.763V331.843H315.278C318.158 331.843 320.558 332.563 320.558 335.683C320.558 339.043 318.158 339.763 315.278 339.763H309.998ZM333.74 342.883H338.54L345.5 333.043L352.46 342.883H357.26L347.9 330.403L356.78 318.883H351.98L345.5 327.763L339.02 318.883H334.22L343.1 330.403L333.74 342.883ZM111.394 379.603C118.354 379.603 121.954 375.283 122.194 370.483H117.874C117.394 374.323 115.234 376.723 111.394 376.723C107.314 376.723 103.954 373.843 103.954 366.883C103.954 359.923 107.314 357.043 111.394 357.043C115.234 357.043 117.394 359.443 117.874 363.283H122.194C121.954 358.483 118.354 354.163 111.394 354.163C103.474 354.163 99.6336 359.923 99.6336 366.883C99.6336 373.843 103.474 379.603 111.394 379.603ZM125.051 378.883H129.131V358.003H141.611V378.883H145.691V354.883H125.051V378.883ZM160.331 379.603C168.251 379.603 172.091 373.843 172.091 366.883C172.091 359.923 168.251 354.163 160.331 354.163C152.411 354.163 148.571 359.923 148.571 366.883C148.571 373.843 152.411 379.603 160.331 379.603ZM152.891 366.883C152.891 359.923 156.251 357.043 160.331 357.043C164.411 357.043 167.771 359.923 167.771 366.883C167.771 373.843 164.411 376.723 160.331 376.723C156.251 376.723 152.891 373.843 152.891 366.883ZM179.053 378.883V367.843H191.533V378.883H195.613V354.883H191.533V364.963H179.053V354.883H174.973V378.883H179.053ZM206.893 358.003V378.883H210.973V358.003H219.853V354.883H198.013V358.003H206.893ZM229.95 379.603C235.95 379.603 238.35 374.803 238.35 374.803V375.523C238.35 378.643 240.27 379.123 242.67 379.123C243.726 379.123 244.83 378.883 244.83 378.883V376.003C242.43 376.243 242.43 375.043 242.43 373.123V362.083C242.43 356.563 238.83 354.163 232.35 354.163C226.35 354.163 222.03 356.563 222.03 362.083H226.11C226.11 358.723 228.27 357.043 232.35 357.043C236.19 357.043 238.35 358.243 238.35 361.123C238.35 363.043 237.87 364.963 232.35 364.963C224.19 364.963 221.55 368.323 221.55 372.403C221.55 376.483 224.43 379.603 229.95 379.603ZM231.87 367.363C237.246 367.363 238.302 365.587 238.35 365.491V367.123C238.35 374.323 234.27 376.723 230.91 376.723C227.79 376.723 225.87 374.803 225.87 371.923C225.87 368.323 229.23 367.363 231.87 367.363ZM251.053 378.883V367.843H263.533V378.883H267.613V354.883H263.533V364.963H251.053V354.883H246.973V378.883H251.053ZM275.053 378.883V367.843H287.533V378.883H291.613V354.883H287.533V364.963H275.053V354.883H270.973V378.883H275.053ZM294.973 354.883V378.883H304.573C309.613 378.883 313.933 377.203 313.933 371.683C313.933 366.163 309.613 364.723 304.573 364.723H299.053V354.883H294.973ZM316.333 354.883V378.883H320.413V354.883H316.333ZM299.053 375.763V367.843H304.333C307.213 367.843 309.613 368.563 309.613 371.683C309.613 375.043 307.213 375.763 304.333 375.763H299.053ZM322.794 378.883H327.594L334.554 369.043L341.514 378.883H346.314L336.954 366.403L345.834 354.883H341.034L334.554 363.763L328.074 354.883H323.274L332.154 366.403L322.794 378.883Z" fill="#313131"/>
</g>
<g filter="url(#filter3_d_935_6048)">
<path d="M110.743 426.58L106.583 428.92H117.503L113.343 426.58V414.672C113.499 415.036 115.423 418.78 120.623 418.78C125.303 418.78 130.763 415.14 130.763 406.3C130.763 396.68 125.823 393.82 121.143 393.82C115.683 393.82 113.343 398.76 113.343 398.76V393.82L106.583 395.9L110.743 397.2V426.58ZM113.343 401.36C113.343 401.36 115.163 395.38 120.363 395.38C124.315 395.38 127.903 398.5 127.903 406.3C127.903 413.58 124.315 417.22 120.363 417.22C115.943 417.22 113.343 413.84 113.343 409.94V401.36ZM141.651 405.468C138.115 406.716 134.943 409.16 134.943 412.8C134.943 416.492 137.283 418.78 140.871 418.78C142.951 418.78 144.719 417.74 145.915 416.96L149.763 414.412C149.763 417.168 149.763 418.78 151.583 418.78C153.403 418.78 157.043 414.36 157.043 414.36L152.363 416.18V401.36C152.363 396.94 150.491 393.82 144.823 393.82C141.703 393.82 135.827 396.68 135.827 399.904C135.827 401.412 136.711 402.088 137.699 402.088C138.687 402.088 139.571 401.516 139.571 399.904C139.571 399.176 139.467 398.656 139.467 398.24C139.467 396.94 141.131 395.38 144.303 395.38C147.163 395.38 149.763 396.732 149.763 401.36V402.66L141.651 405.468ZM146.539 414.88C145.031 415.868 143.731 416.856 141.703 416.856C139.103 416.856 137.699 414.776 137.699 412.54C137.699 409.68 138.999 407.912 143.523 406.3L149.763 404.116V412.748L146.539 414.88ZM170.341 395.068C174.761 395.068 175.229 397.72 175.229 398.24C175.229 399.072 174.761 399.228 174.761 400.372C174.761 401.516 175.489 402.296 176.737 402.296C178.037 402.296 178.713 401.256 178.713 399.904C178.713 397.044 175.645 393.82 170.445 393.82C164.257 393.82 159.109 398.76 159.109 406.3C159.109 413.32 163.269 418.78 170.029 418.78C177.829 418.78 179.389 411.24 179.389 411.24C179.389 411.24 177.049 416.44 171.329 416.44C166.129 416.44 161.709 413.216 161.709 405.468C161.709 398.344 166.701 395.068 170.341 395.068ZM202.423 418H207.467L203.775 415.66L192.751 404.844L201.123 396.94L206.947 394.6H196.027L199.147 396.68L189.787 405.572V396.94L193.947 394.6H183.027L187.187 396.94V415.66L183.027 418H193.947L189.787 415.66V405.572L202.423 418ZM223.563 418H234.483L230.323 415.66V396.94L234.483 394.6H213.163L217.323 396.94V400.06C217.323 410.2 215.451 415.348 213.423 415.348C212.227 415.348 212.383 414.048 210.927 414.048C209.887 414.048 209.003 414.88 209.003 416.128C209.003 417.948 210.615 418.52 211.759 418.52C217.843 418.52 219.143 408.64 219.143 400.06V396.94L220.547 396.16H226.319L227.723 396.94V415.66L223.563 418ZM245.093 405.468C241.557 406.716 238.385 409.16 238.385 412.8C238.385 416.492 240.725 418.78 244.313 418.78C246.393 418.78 248.161 417.74 249.357 416.96L253.205 414.412C253.205 417.168 253.205 418.78 255.025 418.78C256.845 418.78 260.485 414.36 260.485 414.36L255.805 416.18V401.36C255.805 396.94 253.933 393.82 248.265 393.82C245.145 393.82 239.269 396.68 239.269 399.904C239.269 401.412 240.153 402.088 241.141 402.088C242.129 402.088 243.013 401.516 243.013 399.904C243.013 399.176 242.909 398.656 242.909 398.24C242.909 396.94 244.573 395.38 247.745 395.38C250.605 395.38 253.205 396.732 253.205 401.36V402.66L245.093 405.468ZM249.981 414.88C248.473 415.868 247.173 416.856 245.145 416.856C242.545 416.856 241.141 414.776 241.141 412.54C241.141 409.68 242.441 407.912 246.965 406.3L253.205 404.116V412.748L249.981 414.88ZM261.25 416.44L264.11 427.88V418H285.43V427.88L288.29 416.44H284.494L283.09 415.66V396.94L287.25 394.6H265.93L270.09 396.94V400.06C270.09 408.64 267.854 416.44 263.746 416.44H261.25ZM280.49 415.66L279.086 416.44H267.49C267.49 416.44 271.91 413.84 271.91 400.06V396.94L273.314 396.16H279.086L280.49 396.94V415.66ZM301.54 395.224C305.856 395.224 310.536 399.02 310.536 407.652C310.536 413.788 306.844 417.376 302.996 417.376C298.732 417.376 294 413.58 294 404.948C294 398.708 297.744 395.224 301.54 395.224ZM291.14 406.3C291.14 413.32 295.04 418.78 302.268 418.78C308.976 418.78 313.396 413.32 313.396 406.3C313.396 399.28 309.496 393.82 302.268 393.82C295.56 393.82 291.14 399.28 291.14 406.3ZM328.739 406.716C332.379 406.716 335.499 407.86 335.499 411.5C335.499 415.14 332.119 416.44 328.999 416.44H325.203L323.799 415.66V406.716H328.739ZM323.799 405.156V396.94L325.203 396.16H327.959C331.079 396.16 334.459 397.096 334.459 400.424C334.459 403.908 331.339 405.156 327.699 405.156H323.799ZM337.319 400.32C337.319 395.484 331.859 394.6 327.699 394.6H317.039L321.199 396.94V415.66L317.039 418H328.999C333.159 418 338.359 416.44 338.359 411.5C338.359 406.04 332.119 405.676 332.119 405.676V405.52C332.119 405.52 337.319 404.74 337.319 400.32Z" fill="#313131"/>
</g>
<g filter="url(#filter4_d_935_6048)">
<path d="M235.816 100.336C233.895 100.336 232.074 99.7734 230.355 98.6484C228.637 97.5391 227.113 96.0156 225.785 94.0781C224.457 92.1406 223.41 89.9219 222.645 87.4219C221.895 84.9062 221.52 82.2578 221.52 79.4766C221.52 76.6953 221.895 74.0547 222.645 71.5547C223.41 69.0391 224.457 66.8125 225.785 64.875C227.113 62.9375 228.637 61.4141 230.355 60.3047C232.074 59.1797 233.895 58.6172 235.816 58.6172C237.738 58.6172 239.559 59.1797 241.277 60.3047C242.996 61.4141 244.52 62.9375 245.848 64.875C247.176 66.8125 248.215 69.0391 248.965 71.5547C249.73 74.0547 250.113 76.6953 250.113 79.4766C250.113 82.2578 249.73 84.9062 248.965 87.4219C248.215 89.9219 247.176 92.1406 245.848 94.0781C244.52 96.0156 242.996 97.5391 241.277 98.6484C239.559 99.7734 237.738 100.336 235.816 100.336ZM204.41 87.0703C203.441 87.0703 202.551 86.75 201.738 86.1094C200.926 85.4531 200.277 84.5781 199.793 83.4844C199.324 82.375 199.09 81.1562 199.09 79.8281C199.09 78.4844 199.324 77.2656 199.793 76.1719C200.277 75.0781 200.926 74.2109 201.738 73.5703C202.551 72.9141 203.441 72.5859 204.41 72.5859C205.066 72.5859 205.707 72.75 206.332 73.0781C205.91 73.375 205.574 73.7812 205.324 74.2969C205.09 74.7969 204.973 75.3203 204.973 75.8672C204.973 76.6328 205.184 77.2734 205.605 77.7891C206.043 78.2891 206.598 78.5391 207.27 78.5391C208.082 78.5391 208.801 78.1562 209.426 77.3906C209.629 78.1094 209.73 78.9219 209.73 79.8281C209.73 81.1562 209.488 82.375 209.004 83.4844C208.535 84.5781 207.895 85.4531 207.082 86.1094C206.285 86.75 205.395 87.0703 204.41 87.0703ZM208.629 100.336C206.707 100.336 204.887 99.7734 203.168 98.6484C201.449 97.5391 199.926 96.0156 198.598 94.0781C197.27 92.1406 196.223 89.9219 195.457 87.4219C194.707 84.9062 194.332 82.2578 194.332 79.4766C194.332 76.6953 194.707 74.0547 195.457 71.5547C196.223 69.0391 197.27 66.8125 198.598 64.875C199.926 62.9375 201.449 61.4141 203.168 60.3047C204.887 59.1797 206.707 58.6172 208.629 58.6172C210.551 58.6172 212.371 59.1797 214.09 60.3047C215.809 61.4141 217.332 62.9375 218.66 64.875C219.988 66.8125 221.027 69.0391 221.777 71.5547C222.543 74.0547 222.926 76.6953 222.926 79.4766C222.926 82.2578 222.543 84.9062 221.777 87.4219C221.027 89.9219 219.988 92.1406 218.66 94.0781C217.332 96.0156 215.809 97.5391 214.09 98.6484C212.371 99.7734 210.551 100.336 208.629 100.336ZM208.629 98.4609C210.27 98.4609 211.832 97.9531 213.316 96.9375C214.816 95.9219 216.145 94.5312 217.301 92.7656C218.457 90.9844 219.371 88.9531 220.043 86.6719C220.715 84.3906 221.051 81.9922 221.051 79.4766C221.051 76.9609 220.715 74.5625 220.043 72.2812C219.371 70 218.457 67.9766 217.301 66.2109C216.145 64.4297 214.816 63.0312 213.316 62.0156C211.832 61 210.27 60.4922 208.629 60.4922C206.988 60.4922 205.418 61 203.918 62.0156C202.434 63.0312 201.113 64.4297 199.957 66.2109C198.801 67.9766 197.887 70 197.215 72.2812C196.543 74.5625 196.207 76.9609 196.207 79.4766C196.207 81.9922 196.543 84.3906 197.215 86.6719C197.887 88.9531 198.801 90.9844 199.957 92.7656C201.113 94.5312 202.434 95.9219 203.918 96.9375C205.418 97.9531 206.988 98.4609 208.629 98.4609ZM231.598 87.0703C230.629 87.0703 229.738 86.75 228.926 86.1094C228.113 85.4531 227.465 84.5781 226.98 83.4844C226.512 82.375 226.277 81.1562 226.277 79.8281C226.277 78.4844 226.512 77.2656 226.98 76.1719C227.465 75.0781 228.113 74.2109 228.926 73.5703C229.738 72.9141 230.629 72.5859 231.598 72.5859C232.254 72.5859 232.895 72.75 233.52 73.0781C233.098 73.375 232.762 73.7812 232.512 74.2969C232.277 74.7969 232.16 75.3203 232.16 75.8672C232.16 76.6328 232.371 77.2734 232.793 77.7891C233.23 78.2891 233.785 78.5391 234.457 78.5391C235.27 78.5391 235.988 78.1562 236.613 77.3906C236.816 78.1094 236.918 78.9219 236.918 79.8281C236.918 81.1562 236.676 82.375 236.191 83.4844C235.723 84.5781 235.082 85.4531 234.27 86.1094C233.473 86.75 232.582 87.0703 231.598 87.0703ZM235.816 98.4609C237.457 98.4609 239.02 97.9531 240.504 96.9375C242.004 95.9219 243.332 94.5312 244.488 92.7656C245.645 90.9844 246.559 88.9531 247.23 86.6719C247.902 84.3906 248.238 81.9922 248.238 79.4766C248.238 76.9609 247.902 74.5625 247.23 72.2812C246.559 70 245.645 67.9766 244.488 66.2109C243.332 64.4297 242.004 63.0312 240.504 62.0156C239.02 61 237.457 60.4922 235.816 60.4922C234.176 60.4922 232.605 61 231.105 62.0156C229.621 63.0312 228.301 64.4297 227.145 66.2109C225.988 67.9766 225.074 70 224.402 72.2812C223.73 74.5625 223.395 76.9609 223.395 79.4766C223.395 81.9922 223.73 84.3906 224.402 86.6719C225.074 88.9531 225.988 90.9844 227.145 92.7656C228.301 94.5312 229.621 95.9219 231.105 96.9375C232.605 97.9531 234.176 98.4609 235.816 98.4609Z" fill="#313131"/>
</g>
<g filter="url(#filter5_d_935_6048)">
<path d="M116.287 533.123L110.479 528.275L109.927 528.923L114.991 533.123L109.927 537.323L110.479 537.971L116.287 533.123ZM134.398 536.003L133.438 537.683H127.534L130.39 535.259C132.814 533.195 133.918 532.523 133.918 530.843C133.918 529.763 133.078 527.723 129.718 527.723C126.718 527.723 125.518 529.523 125.518 530.963C125.518 531.923 126.118 532.355 126.67 532.355C127.174 532.355 127.534 531.971 127.534 531.539C127.534 530.699 126.718 530.843 126.718 530.243C126.718 529.163 127.918 528.323 129.718 528.323C131.518 528.323 132.718 529.403 132.718 530.843C132.718 532.283 131.758 533.171 129.694 534.923L125.038 538.883H134.398V536.003ZM137.445 532.835C137.445 530.555 139.077 528.491 141.549 528.491C144.045 528.491 146.709 530.483 146.709 534.131C146.709 536.387 145.053 538.475 142.581 538.475C140.085 538.475 137.445 536.483 137.445 532.835ZM136.317 533.483C136.317 536.651 138.669 539.243 142.077 539.243C145.485 539.243 147.837 536.651 147.837 533.483C147.837 530.315 145.485 527.723 142.077 527.723C138.669 527.723 136.317 530.315 136.317 533.483ZM150.64 532.835C150.64 530.555 152.272 528.491 154.744 528.491C157.24 528.491 159.904 530.483 159.904 534.131C159.904 536.387 158.248 538.475 155.776 538.475C153.28 538.475 150.64 536.483 150.64 532.835ZM149.512 533.483C149.512 536.651 151.864 539.243 155.272 539.243C158.68 539.243 161.032 536.651 161.032 533.483C161.032 530.315 158.68 527.723 155.272 527.723C151.864 527.723 149.512 530.315 149.512 533.483ZM170.502 542.843L168.582 543.923H173.622L171.702 542.843V537.347C171.774 537.515 172.662 539.243 175.062 539.243C177.222 539.243 179.742 537.563 179.742 533.483C179.742 529.043 177.462 527.723 175.302 527.723C172.782 527.723 171.702 530.003 171.702 530.003V527.723L168.582 528.683L170.502 529.283V542.843ZM171.702 531.203C171.702 531.203 172.542 528.443 174.942 528.443C176.766 528.443 178.422 529.883 178.422 533.483C178.422 536.843 176.766 538.523 174.942 538.523C172.902 538.523 171.702 536.963 171.702 535.163V531.203ZM184.767 533.099C183.135 533.675 181.671 534.803 181.671 536.483C181.671 538.187 182.751 539.243 184.407 539.243C185.367 539.243 186.183 538.763 186.735 538.403L188.511 537.227C188.511 538.499 188.511 539.243 189.351 539.243C190.191 539.243 191.871 537.203 191.871 537.203L189.711 538.043V531.203C189.711 529.163 188.847 527.723 186.231 527.723C184.791 527.723 182.079 529.043 182.079 530.531C182.079 531.227 182.487 531.539 182.943 531.539C183.399 531.539 183.807 531.275 183.807 530.531C183.807 530.195 183.759 529.955 183.759 529.763C183.759 529.163 184.527 528.443 185.991 528.443C187.311 528.443 188.511 529.067 188.511 531.203V531.803L184.767 533.099ZM187.023 537.443C186.327 537.899 185.727 538.355 184.791 538.355C183.591 538.355 182.943 537.395 182.943 536.363C182.943 535.043 183.543 534.227 185.631 533.483L188.511 532.475V536.459L187.023 537.443ZM198.008 528.299C200.048 528.299 200.264 529.523 200.264 529.763C200.264 530.147 200.048 530.219 200.048 530.747C200.048 531.275 200.384 531.635 200.96 531.635C201.56 531.635 201.872 531.155 201.872 530.531C201.872 529.211 200.456 527.723 198.056 527.723C195.2 527.723 192.824 530.003 192.824 533.483C192.824 536.723 194.744 539.243 197.864 539.243C201.464 539.243 202.184 535.763 202.184 535.763C202.184 535.763 201.104 538.163 198.464 538.163C196.064 538.163 194.024 536.675 194.024 533.099C194.024 529.811 196.328 528.299 198.008 528.299ZM212.815 538.883H215.143L213.439 537.803L208.351 532.811L212.215 529.163L214.903 528.083H209.863L211.303 529.043L206.983 533.147V529.163L208.903 528.083H203.863L205.783 529.163V537.803L203.863 538.883H208.903L206.983 537.803V533.147L212.815 538.883ZM222.572 538.883H227.612L225.692 537.803V529.163L227.612 528.083H217.772L219.692 529.163V530.603C219.692 535.283 218.828 537.659 217.892 537.659C217.34 537.659 217.412 537.059 216.74 537.059C216.26 537.059 215.852 537.443 215.852 538.019C215.852 538.859 216.596 539.123 217.124 539.123C219.932 539.123 220.532 534.563 220.532 530.603V529.163L221.18 528.803H223.844L224.492 529.163V537.803L222.572 538.883ZM232.509 533.099C230.877 533.675 229.413 534.803 229.413 536.483C229.413 538.187 230.493 539.243 232.149 539.243C233.109 539.243 233.925 538.763 234.477 538.403L236.253 537.227C236.253 538.499 236.253 539.243 237.093 539.243C237.933 539.243 239.613 537.203 239.613 537.203L237.453 538.043V531.203C237.453 529.163 236.589 527.723 233.973 527.723C232.533 527.723 229.821 529.043 229.821 530.531C229.821 531.227 230.229 531.539 230.685 531.539C231.141 531.539 231.549 531.275 231.549 530.531C231.549 530.195 231.501 529.955 231.501 529.763C231.501 529.163 232.269 528.443 233.733 528.443C235.053 528.443 236.253 529.067 236.253 531.203V531.803L232.509 533.099ZM234.765 537.443C234.069 537.899 233.469 538.355 232.533 538.355C231.333 538.355 230.685 537.395 230.685 536.363C230.685 535.043 231.285 534.227 233.373 533.483L236.253 532.475V536.459L234.765 537.443ZM239.967 538.163L241.287 543.443V538.883H251.127V543.443L252.447 538.163H250.695L250.047 537.803V529.163L251.967 528.083H242.127L244.047 529.163V530.603C244.047 534.563 243.015 538.163 241.119 538.163H239.967ZM248.847 537.803L248.199 538.163H242.847C242.847 538.163 244.887 536.963 244.887 530.603V529.163L245.535 528.803H248.199L248.847 529.163V537.803ZM258.562 528.371C260.554 528.371 262.714 530.123 262.714 534.107C262.714 536.939 261.01 538.595 259.234 538.595C257.266 538.595 255.082 536.843 255.082 532.859C255.082 529.979 256.81 528.371 258.562 528.371ZM253.762 533.483C253.762 536.723 255.562 539.243 258.898 539.243C261.994 539.243 264.034 536.723 264.034 533.483C264.034 530.243 262.234 527.723 258.898 527.723C255.802 527.723 253.762 530.243 253.762 533.483ZM271.115 533.675C272.795 533.675 274.235 534.203 274.235 535.883C274.235 537.563 272.675 538.163 271.235 538.163H269.483L268.835 537.803V533.675H271.115ZM268.835 532.955V529.163L269.483 528.803H270.755C272.195 528.803 273.755 529.235 273.755 530.771C273.755 532.379 272.315 532.955 270.635 532.955H268.835ZM275.075 530.723C275.075 528.491 272.555 528.083 270.635 528.083H265.715L267.635 529.163V537.803L265.715 538.883H271.235C273.155 538.883 275.555 538.163 275.555 535.883C275.555 533.363 272.675 533.195 272.675 533.195V533.123C272.675 533.123 275.075 532.763 275.075 530.723ZM286.718 529.163L287.366 528.803H291.95L292.598 529.163V537.803L290.678 538.883H295.718L293.798 537.803V529.163L295.718 528.083H283.598L285.518 529.163V537.803L283.598 538.883H288.638L286.718 537.803V529.163ZM302.203 528.371C304.195 528.371 306.355 530.123 306.355 534.107C306.355 536.939 304.651 538.595 302.875 538.595C300.907 538.595 298.723 536.843 298.723 532.859C298.723 529.979 300.451 528.371 302.203 528.371ZM297.403 533.483C297.403 536.723 299.203 539.243 302.539 539.243C305.635 539.243 307.675 536.723 307.675 533.483C307.675 530.243 305.875 527.723 302.539 527.723C299.443 527.723 297.403 530.243 297.403 533.483ZM324.71 536.003L323.75 537.683H317.846L320.702 535.259C323.126 533.195 324.23 532.523 324.23 530.843C324.23 529.763 323.39 527.723 320.03 527.723C317.03 527.723 315.83 529.523 315.83 530.963C315.83 531.923 316.43 532.355 316.982 532.355C317.486 532.355 317.846 531.971 317.846 531.539C317.846 530.699 317.03 530.843 317.03 530.243C317.03 529.163 318.23 528.323 320.03 528.323C321.83 528.323 323.03 529.403 323.03 530.843C323.03 532.283 322.07 533.171 320.006 534.923L315.35 538.883H324.71V536.003ZM331.429 542.483H336.469L334.549 541.403V538.883H337.909V538.163H334.549V527.723L326.269 538.883H333.349V541.403L331.429 542.483ZM333.349 538.163H327.709L333.349 530.555V538.163ZM76.3789 564.883H81.8989L79.7389 563.803V554.803H82.3789L83.8189 557.443V554.083H74.4589V557.443L75.8989 554.803H78.5389V563.803L76.3789 564.883ZM95.1102 558.403C95.1102 555.763 94.0302 553.723 90.9822 553.723C88.1262 553.723 85.7502 555.979 85.7502 559.483C85.7502 562.723 87.6702 565.243 90.7902 565.243C94.3902 565.243 95.1102 561.763 95.1102 561.763C95.1102 561.763 94.0302 564.163 91.3902 564.163C88.9902 564.163 86.9502 562.675 86.9502 559.099C86.9502 558.859 86.9502 558.643 86.9742 558.403H95.1102ZM90.9342 554.299C92.6142 554.299 93.7902 555.403 93.7902 556.603C93.7902 557.563 92.9502 557.683 91.7502 557.683H87.0942C87.6222 555.379 89.4222 554.299 90.9342 554.299ZM99.7836 563.803V555.643L104.224 565.243L108.664 555.331V563.803L106.744 564.883H111.784L109.864 563.803V555.163L111.784 554.083H108.424L104.488 562.939L100.384 554.083H97.0236L98.9436 555.163V563.803L97.0236 564.883H101.704L99.7836 563.803ZM116.669 559.099C115.037 559.675 113.573 560.803 113.573 562.483C113.573 564.187 114.653 565.243 116.309 565.243C117.269 565.243 118.085 564.763 118.637 564.403L120.413 563.227C120.413 564.499 120.413 565.243 121.253 565.243C122.093 565.243 123.773 563.203 123.773 563.203L121.613 564.043V557.203C121.613 555.163 120.749 553.723 118.133 553.723C116.693 553.723 113.981 555.043 113.981 556.531C113.981 557.227 114.389 557.539 114.845 557.539C115.301 557.539 115.709 557.275 115.709 556.531C115.709 556.195 115.661 555.955 115.661 555.763C115.661 555.163 116.429 554.443 117.893 554.443C119.213 554.443 120.413 555.067 120.413 557.203V557.803L116.669 559.099ZM118.925 563.443C118.229 563.899 117.629 564.355 116.693 564.355C115.493 564.355 114.845 563.395 114.845 562.363C114.845 561.043 115.445 560.227 117.533 559.483L120.413 558.475V562.459L118.925 563.443ZM126.418 564.883H131.938L129.778 563.803V554.803H132.418L133.858 557.443V554.083H124.498V557.443L125.938 554.803H128.578V563.803L126.418 564.883ZM143.109 564.883H148.149L146.229 563.803V555.163L148.149 554.083H143.109L145.029 555.163V555.403L138.909 562.459V555.163L140.829 554.083H135.789L137.709 555.163V563.803L135.789 564.883H140.829L138.909 563.803V563.563L145.029 556.507V563.803L143.109 564.883ZM158.78 564.883H161.108L159.404 563.803L154.316 558.811L158.18 555.163L160.868 554.083H155.828L157.268 555.043L152.948 559.147V555.163L154.868 554.083H149.828L151.748 555.163V563.803L149.828 564.883H154.868L152.948 563.803V559.147L158.78 564.883ZM165.513 559.099C163.881 559.675 162.417 560.803 162.417 562.483C162.417 564.187 163.497 565.243 165.153 565.243C166.113 565.243 166.929 564.763 167.481 564.403L169.257 563.227C169.257 564.499 169.257 565.243 170.097 565.243C170.937 565.243 172.617 563.203 172.617 563.203L170.457 564.043V557.203C170.457 555.163 169.593 553.723 166.977 553.723C165.537 553.723 162.825 555.043 162.825 556.531C162.825 557.227 163.233 557.539 163.689 557.539C164.145 557.539 164.553 557.275 164.553 556.531C164.553 556.195 164.505 555.955 164.505 555.763C164.505 555.163 165.273 554.443 166.737 554.443C168.057 554.443 169.257 555.067 169.257 557.203V557.803L165.513 559.099ZM167.769 563.443C167.073 563.899 166.473 564.355 165.537 564.355C164.337 564.355 163.689 563.395 163.689 562.363C163.689 561.043 164.289 560.227 166.377 559.483L169.257 558.475V562.459L167.769 563.443ZM176.33 563.803V555.643L180.77 565.243L185.21 555.331V563.803L183.29 564.883H188.33L186.41 563.803V555.163L188.33 554.083H184.97L181.034 562.939L176.93 554.083H173.57L175.49 555.163V563.803L173.57 564.883H178.25L176.33 563.803ZM190.6 563.803C190.6 564.475 191.128 565.003 191.8 565.003H191.92L190.72 567.763C192.88 565.123 193 564.643 193 563.803C193 563.131 192.472 562.603 191.8 562.603C191.128 562.603 190.6 563.131 190.6 563.803ZM206.908 559.675C208.588 559.675 210.028 560.203 210.028 561.883C210.028 563.563 208.468 564.163 207.028 564.163H205.276L204.628 563.803V559.675H206.908ZM204.628 558.955V555.163L205.276 554.803H206.548C207.988 554.803 209.548 555.235 209.548 556.771C209.548 558.379 208.108 558.955 206.428 558.955H204.628ZM210.868 556.723C210.868 554.491 208.348 554.083 206.428 554.083H201.508L203.428 555.163V563.803L201.508 564.883H207.028C208.948 564.883 211.348 564.163 211.348 561.883C211.348 559.363 208.468 559.195 208.468 559.195V559.123C208.468 559.123 210.868 558.763 210.868 556.723ZM228.343 564.883H230.671L228.967 563.803L223.879 558.811L227.743 555.163L230.431 554.083H225.391L226.831 555.043L222.511 559.147V555.163L224.431 554.083H219.391L221.311 555.163V563.803L219.391 564.883H224.431L222.511 563.803V559.147L228.343 564.883ZM238.1 564.883H243.14L241.22 563.803V555.163L243.14 554.083H233.3L235.22 555.163V556.603C235.22 561.283 234.356 563.659 233.42 563.659C232.868 563.659 232.94 563.059 232.268 563.059C231.788 563.059 231.38 563.443 231.38 564.019C231.38 564.859 232.124 565.123 232.652 565.123C235.46 565.123 236.06 560.563 236.06 556.603V555.163L236.708 554.803H239.372L240.02 555.163V563.803L238.1 564.883ZM248.036 559.099C246.404 559.675 244.94 560.803 244.94 562.483C244.94 564.187 246.02 565.243 247.676 565.243C248.636 565.243 249.452 564.763 250.004 564.403L251.78 563.227C251.78 564.499 251.78 565.243 252.62 565.243C253.46 565.243 255.14 563.203 255.14 563.203L252.98 564.043V557.203C252.98 555.163 252.116 553.723 249.5 553.723C248.06 553.723 245.348 555.043 245.348 556.531C245.348 557.227 245.756 557.539 246.212 557.539C246.668 557.539 247.076 557.275 247.076 556.531C247.076 556.195 247.028 555.955 247.028 555.763C247.028 555.163 247.796 554.443 249.26 554.443C250.58 554.443 251.78 555.067 251.78 557.203V557.803L248.036 559.099ZM250.292 563.443C249.596 563.899 248.996 564.355 248.06 564.355C246.86 564.355 246.212 563.395 246.212 562.363C246.212 561.043 246.812 560.227 248.9 559.483L251.78 558.475V562.459L250.292 563.443ZM261.278 554.299C263.318 554.299 263.534 555.523 263.534 555.763C263.534 556.147 263.318 556.219 263.318 556.747C263.318 557.275 263.654 557.635 264.23 557.635C264.83 557.635 265.142 557.155 265.142 556.531C265.142 555.211 263.726 553.723 261.326 553.723C258.47 553.723 256.094 556.003 256.094 559.483C256.094 562.723 258.014 565.243 261.134 565.243C264.734 565.243 265.454 561.763 265.454 561.763C265.454 561.763 264.374 564.163 261.734 564.163C259.334 564.163 257.294 562.675 257.294 559.099C257.294 555.811 259.598 554.299 261.278 554.299ZM272.317 554.299C274.357 554.299 274.573 555.523 274.573 555.763C274.573 556.147 274.357 556.219 274.357 556.747C274.357 557.275 274.693 557.635 275.269 557.635C275.869 557.635 276.181 557.155 276.181 556.531C276.181 555.211 274.765 553.723 272.365 553.723C269.509 553.723 267.133 556.003 267.133 559.483C267.133 562.723 269.053 565.243 272.173 565.243C275.773 565.243 276.493 561.763 276.493 561.763C276.493 561.763 275.413 564.163 272.773 564.163C270.373 564.163 268.333 562.675 268.333 559.099C268.333 555.811 270.637 554.299 272.317 554.299ZM285.492 564.883H290.532L288.612 563.803V555.163L290.532 554.083H285.492L287.412 555.163V555.403L281.292 562.459V555.163L283.212 554.083H278.172L280.092 555.163V563.803L278.172 564.883H283.212L281.292 563.803V563.563L287.412 556.507V563.803L285.492 564.883ZM300.131 563.803L297.731 564.883H303.251L301.331 563.803V555.163L303.251 554.083H298.211L300.131 555.163V558.763C300.131 558.763 298.931 559.843 297.131 559.843C295.691 559.843 294.731 559.003 294.731 557.323V555.163L296.651 554.083H291.611L293.531 555.163V557.323C293.531 559.723 294.971 560.563 296.771 560.563C298.691 560.563 300.131 559.363 300.131 559.363V563.803ZM314.298 558.403C314.298 555.763 313.218 553.723 310.17 553.723C307.314 553.723 304.938 555.979 304.938 559.483C304.938 562.723 306.858 565.243 309.978 565.243C313.578 565.243 314.298 561.763 314.298 561.763C314.298 561.763 313.218 564.163 310.578 564.163C308.178 564.163 306.138 562.675 306.138 559.099C306.138 558.859 306.138 558.643 306.162 558.403H314.298ZM310.122 554.299C311.802 554.299 312.978 555.403 312.978 556.603C312.978 557.563 312.138 557.683 310.938 557.683H306.282C306.81 555.379 308.61 554.299 310.122 554.299ZM321.395 554.299C323.435 554.299 323.651 555.523 323.651 555.763C323.651 556.147 323.435 556.219 323.435 556.747C323.435 557.275 323.771 557.635 324.347 557.635C324.947 557.635 325.259 557.155 325.259 556.531C325.259 555.211 323.843 553.723 321.443 553.723C318.587 553.723 316.211 556.003 316.211 559.483C316.211 562.723 318.131 565.243 321.251 565.243C324.851 565.243 325.571 561.763 325.571 561.763C325.571 561.763 324.491 564.163 321.851 564.163C319.451 564.163 317.411 562.675 317.411 559.099C317.411 555.811 319.715 554.299 321.395 554.299ZM336.202 564.883H338.53L336.826 563.803L331.738 558.811L335.602 555.163L338.29 554.083H333.25L334.69 555.043L330.37 559.147V555.163L332.29 554.083H327.25L329.17 555.163V563.803L327.25 564.883H332.29L330.37 563.803V559.147L336.202 564.883ZM344.05 554.371C346.042 554.371 348.202 556.123 348.202 560.107C348.202 562.939 346.498 564.595 344.722 564.595C342.754 564.595 340.57 562.843 340.57 558.859C340.57 555.979 342.298 554.371 344.05 554.371ZM339.25 559.483C339.25 562.723 341.05 565.243 344.386 565.243C347.482 565.243 349.522 562.723 349.522 559.483C349.522 556.243 347.722 553.723 344.386 553.723C341.29 553.723 339.25 556.243 339.25 559.483ZM353.963 563.803V555.643L358.403 565.243L362.843 555.331V563.803L360.923 564.883H365.963L364.043 563.803V555.163L365.963 554.083H362.603L358.667 562.939L354.563 554.083H351.203L353.123 555.163V563.803L351.203 564.883H355.883L353.963 563.803ZM368.233 563.803C368.233 564.475 368.761 565.003 369.433 565.003H369.553L368.353 567.763C370.513 565.123 370.633 564.643 370.633 563.803C370.633 563.131 370.105 562.603 369.433 562.603C368.761 562.603 368.233 563.131 368.233 563.803ZM87.9509 585.675C89.6309 585.675 91.0709 586.203 91.0709 587.883C91.0709 589.563 89.5109 590.163 88.0709 590.163H86.3189L85.6709 589.803V585.675H87.9509ZM85.6709 584.955V581.163L86.3189 580.803H87.5909C89.0309 580.803 90.5909 581.235 90.5909 582.771C90.5909 584.379 89.1509 584.955 87.4709 584.955H85.6709ZM91.9109 582.723C91.9109 580.491 89.3909 580.083 87.4709 580.083H82.5509L84.4709 581.163V589.803L82.5509 590.883H88.0709C89.9909 590.883 92.3909 590.163 92.3909 587.883C92.3909 585.363 89.5109 585.195 89.5109 585.195V585.123C89.5109 585.123 91.9109 584.763 91.9109 582.723ZM101.519 590.883H106.559L104.639 589.803V581.163L106.559 580.083H101.519L103.439 581.163V581.403L97.3194 588.459V581.163L99.2394 580.083H94.1994L96.1194 581.163V589.803L94.1994 590.883H99.2394L97.3194 589.803V589.563L103.439 582.507V589.803L101.519 590.883ZM107.638 590.163L108.958 595.443V590.883H118.798V595.443L120.118 590.163H118.366L117.718 589.803V581.163L119.638 580.083H109.798L111.718 581.163V582.603C111.718 586.563 110.686 590.163 108.79 590.163H107.638ZM116.518 589.803L115.87 590.163H110.518C110.518 590.163 112.558 588.963 112.558 582.603V581.163L113.206 580.803H115.87L116.518 581.163V589.803ZM130.794 584.403C130.794 581.763 129.714 579.723 126.666 579.723C123.81 579.723 121.434 581.979 121.434 585.483C121.434 588.723 123.354 591.243 126.474 591.243C130.074 591.243 130.794 587.763 130.794 587.763C130.794 587.763 129.714 590.163 127.074 590.163C124.674 590.163 122.634 588.675 122.634 585.099C122.634 584.859 122.634 584.643 122.658 584.403H130.794ZM126.618 580.299C128.298 580.299 129.474 581.403 129.474 582.603C129.474 583.563 128.634 583.683 127.434 583.683H122.778C123.306 581.379 125.106 580.299 126.618 580.299ZM137.507 580.371C139.499 580.371 141.659 582.123 141.659 586.107C141.659 588.939 139.955 590.595 138.179 590.595C136.211 590.595 134.027 588.843 134.027 584.859C134.027 581.979 135.755 580.371 137.507 580.371ZM132.707 585.483C132.707 588.723 134.507 591.243 137.843 591.243C140.939 591.243 142.979 588.723 142.979 585.483C142.979 582.243 141.179 579.723 137.843 579.723C134.747 579.723 132.707 582.243 132.707 585.483ZM158.215 590.883H163.255L161.335 589.803V581.163L163.255 580.083H158.215L160.135 581.163V581.403L154.015 588.459V581.163L155.935 580.083H150.895L152.815 581.163V589.803L150.895 590.883H155.935L154.015 589.803V589.563L160.135 582.507V589.803L158.215 590.883ZM171.174 590.883H176.214L174.294 589.803V581.163L176.214 580.083H166.374L168.294 581.163V582.603C168.294 587.283 167.43 589.659 166.494 589.659C165.942 589.659 166.014 589.059 165.342 589.059C164.862 589.059 164.454 589.443 164.454 590.019C164.454 590.859 165.198 591.123 165.726 591.123C168.534 591.123 169.134 586.563 169.134 582.603V581.163L169.782 580.803H172.446L173.094 581.163V589.803L171.174 590.883ZM185.215 590.883H190.255L188.335 589.803V581.163L190.255 580.083H185.215L187.135 581.163V581.403L181.015 588.459V581.163L182.935 580.083H177.895L179.815 581.163V589.803L177.895 590.883H182.935L181.015 589.803V589.563L187.135 582.507V589.803L185.215 590.883ZM205.488 590.883H210.528L208.608 589.803V581.163L210.528 580.083H205.488L207.408 581.163V581.403L201.288 588.459V581.163L203.208 580.083H198.168L200.088 581.163V589.803L198.168 590.883H203.208L201.288 589.803V589.563L207.408 582.507V589.803L205.488 590.883ZM212.207 590.883H217.247L215.327 589.803V585.675H221.207V589.803L219.287 590.883H224.327L222.407 589.803V581.163L224.327 580.083H219.287L221.207 581.163V584.955H215.327V581.163L217.247 580.083H212.207L214.127 581.163V589.803L212.207 590.883ZM228.172 590.883H233.692L231.532 589.803V580.803H234.172L235.612 583.443V580.083H226.252V583.443L227.692 580.803H230.332V589.803L228.172 590.883ZM246.903 584.403C246.903 581.763 245.823 579.723 242.775 579.723C239.919 579.723 237.543 581.979 237.543 585.483C237.543 588.723 239.463 591.243 242.583 591.243C246.183 591.243 246.903 587.763 246.903 587.763C246.903 587.763 245.823 590.163 243.183 590.163C240.783 590.163 238.743 588.675 238.743 585.099C238.743 584.859 238.743 584.643 238.767 584.403H246.903ZM242.727 580.299C244.407 580.299 245.583 581.403 245.583 582.603C245.583 583.563 244.743 583.683 243.543 583.683H238.887C239.415 581.379 241.215 580.299 242.727 580.299ZM250.377 594.843L248.457 595.923H253.497L251.577 594.843V589.347C251.649 589.515 252.537 591.243 254.937 591.243C257.097 591.243 259.617 589.563 259.617 585.483C259.617 581.043 257.337 579.723 255.177 579.723C252.657 579.723 251.577 582.003 251.577 582.003V579.723L248.457 580.683L250.377 581.283V594.843ZM251.577 583.203C251.577 583.203 252.417 580.443 254.817 580.443C256.641 580.443 258.297 581.883 258.297 585.483C258.297 588.843 256.641 590.523 254.817 590.523C252.777 590.523 251.577 588.963 251.577 587.163V583.203ZM264.642 585.099C263.01 585.675 261.546 586.803 261.546 588.483C261.546 590.187 262.626 591.243 264.282 591.243C265.242 591.243 266.058 590.763 266.61 590.403L268.386 589.227C268.386 590.499 268.386 591.243 269.226 591.243C270.066 591.243 271.746 589.203 271.746 589.203L269.586 590.043V583.203C269.586 581.163 268.722 579.723 266.106 579.723C264.666 579.723 261.954 581.043 261.954 582.531C261.954 583.227 262.362 583.539 262.818 583.539C263.274 583.539 263.682 583.275 263.682 582.531C263.682 582.195 263.634 581.955 263.634 581.763C263.634 581.163 264.402 580.443 265.866 580.443C267.186 580.443 268.386 581.067 268.386 583.203V583.803L264.642 585.099ZM266.898 589.443C266.202 589.899 265.602 590.355 264.666 590.355C263.466 590.355 262.818 589.395 262.818 588.363C262.818 587.043 263.418 586.227 265.506 585.483L268.386 584.475V588.459L266.898 589.443ZM281.651 590.883H283.979L282.275 589.803L277.187 584.811L281.051 581.163L283.739 580.083H278.699L280.139 581.043L275.819 585.147V581.163L277.739 580.083H272.699L274.619 581.163V589.803L272.699 590.883H277.739L275.819 589.803V585.147L281.651 590.883ZM287.328 590.883H292.848L290.688 589.803V580.803H293.328L294.768 583.443V580.083H285.408V583.443L286.848 580.803H289.488V589.803L287.328 590.883ZM304.019 590.883H309.059L307.139 589.803V581.163L309.059 580.083H304.019L305.939 581.163V581.403L299.819 588.459V581.163L301.739 580.083H296.699L298.619 581.163V589.803L296.699 590.883H301.739L299.819 589.803V589.563L305.939 582.507V589.803L304.019 590.883ZM316.138 585.675C317.818 585.675 319.258 586.203 319.258 587.883C319.258 589.563 317.698 590.163 316.258 590.163H314.506L313.858 589.803V585.675H316.138ZM313.858 584.955V581.163L314.506 580.803H315.778C317.218 580.803 318.778 581.235 318.778 582.771C318.778 584.379 317.338 584.955 315.658 584.955H313.858ZM320.098 582.723C320.098 580.491 317.578 580.083 315.658 580.083H310.738L312.658 581.163V589.803L310.738 590.883H316.258C318.178 590.883 320.578 590.163 320.578 587.883C320.578 585.363 317.698 585.195 317.698 585.195V585.123C317.698 585.123 320.098 584.763 320.098 582.723ZM322.387 590.883H327.427L325.507 589.803V585.675H331.387V589.803L329.467 590.883H334.507L332.587 589.803V581.163L334.507 580.083H329.467L331.387 581.163V584.955H325.507V581.163L327.427 580.083H322.387L324.307 581.163V589.803L322.387 590.883ZM340.992 580.371C342.984 580.371 345.144 582.123 345.144 586.107C345.144 588.939 343.44 590.595 341.664 590.595C339.696 590.595 337.512 588.843 337.512 584.859C337.512 581.979 339.24 580.371 340.992 580.371ZM336.192 585.483C336.192 588.723 337.992 591.243 341.328 591.243C344.424 591.243 346.464 588.723 346.464 585.483C346.464 582.243 344.664 579.723 341.328 579.723C338.232 579.723 336.192 582.243 336.192 585.483ZM350.905 589.803V581.643L355.345 591.243L359.785 581.331V589.803L357.865 590.883H362.905L360.985 589.803V581.163L362.905 580.083H359.545L355.609 588.939L351.505 580.083H348.145L350.065 581.163V589.803L348.145 590.883H352.825L350.905 589.803ZM188.426 606.443C190.226 606.443 191.426 608.243 191.426 611.483C191.426 614.723 190.226 616.523 188.426 616.523C186.65 616.523 186.05 614.939 186.026 614.867V608.123C186.026 608.123 186.626 606.443 188.426 606.443ZM184.826 614.843C184.826 614.843 184.226 616.523 182.426 616.523C180.626 616.523 179.426 614.723 179.426 611.483C179.426 608.243 180.626 606.443 182.426 606.443C184.226 606.443 184.826 608.123 184.826 608.123V614.843ZM184.826 601.283V607.283C184.754 607.139 184.01 605.723 182.186 605.723C179.906 605.723 178.106 607.643 178.106 611.483C178.106 615.323 179.906 617.243 182.186 617.243C184.058 617.243 184.778 615.779 184.826 615.707V620.843L182.906 621.923H187.946L186.026 620.843V615.707C186.098 615.851 186.842 617.243 188.666 617.243C190.946 617.243 192.746 615.323 192.746 611.483C192.746 607.643 190.946 605.723 188.666 605.723C186.89 605.723 186.098 607.067 186.026 607.283V599.723L182.906 600.683L184.826 601.283ZM199.218 606.371C201.21 606.371 203.37 608.123 203.37 612.107C203.37 614.939 201.666 616.595 199.89 616.595C197.922 616.595 195.738 614.843 195.738 610.859C195.738 607.979 197.466 606.371 199.218 606.371ZM194.418 611.483C194.418 614.723 196.218 617.243 199.554 617.243C202.65 617.243 204.69 614.723 204.69 611.483C204.69 608.243 202.89 605.723 199.554 605.723C196.458 605.723 194.418 608.243 194.418 611.483ZM207.931 620.843L206.011 621.923H211.051L209.131 620.843V615.347C209.203 615.515 210.091 617.243 212.491 617.243C214.651 617.243 217.171 615.563 217.171 611.483C217.171 607.043 214.891 605.723 212.731 605.723C210.211 605.723 209.131 608.003 209.131 608.003V605.723L206.011 606.683L207.931 607.283V620.843ZM209.131 609.203C209.131 609.203 209.971 606.443 212.371 606.443C214.195 606.443 215.851 607.883 215.851 611.483C215.851 614.843 214.195 616.523 212.371 616.523C210.331 616.523 209.131 614.963 209.131 613.163V609.203ZM221.741 615.803V607.643L226.181 617.243L230.621 607.331V615.803L228.701 616.883H233.741L231.821 615.803V607.163L233.741 606.083H230.381L226.445 614.939L222.341 606.083H218.981L220.901 607.163V615.803L218.981 616.883H223.661L221.741 615.803ZM238.626 611.099C236.994 611.675 235.53 612.803 235.53 614.483C235.53 616.187 236.61 617.243 238.266 617.243C239.226 617.243 240.042 616.763 240.594 616.403L242.37 615.227C242.37 616.499 242.37 617.243 243.21 617.243C244.05 617.243 245.73 615.203 245.73 615.203L243.57 616.043V609.203C243.57 607.163 242.706 605.723 240.09 605.723C238.65 605.723 235.938 607.043 235.938 608.531C235.938 609.227 236.346 609.539 236.802 609.539C237.258 609.539 237.666 609.275 237.666 608.531C237.666 608.195 237.618 607.955 237.618 607.763C237.618 607.163 238.386 606.443 239.85 606.443C241.17 606.443 242.37 607.067 242.37 609.203V609.803L238.626 611.099ZM240.882 615.443C240.186 615.899 239.586 616.355 238.65 616.355C237.45 616.355 236.802 615.395 236.802 614.363C236.802 613.043 237.402 612.227 239.49 611.483L242.37 610.475V614.459L240.882 615.443ZM248.375 616.883H253.895L251.735 615.803V606.803H254.375L255.815 609.443V606.083H246.455V609.443L247.895 606.803H250.535V615.803L248.375 616.883ZM267.106 610.403C267.106 607.763 266.026 605.723 262.978 605.723C260.122 605.723 257.746 607.979 257.746 611.483C257.746 614.723 259.666 617.243 262.786 617.243C266.386 617.243 267.106 613.763 267.106 613.763C267.106 613.763 266.026 616.163 263.386 616.163C260.986 616.163 258.946 614.675 258.946 611.099C258.946 610.859 258.946 610.643 258.97 610.403H267.106ZM262.93 606.299C264.61 606.299 265.786 607.403 265.786 608.603C265.786 609.563 264.946 609.683 263.746 609.683H259.09C259.618 607.379 261.418 606.299 262.93 606.299Z" fill="#313131"/>
</g>
<defs>
<filter id="filter0_di_935_6048" x="0.0408378" y="0.360756" width="445.271" height="671.192" filterUnits="userSpaceOnUse" color-interpolation-filters="sRGB">
<feFlood flood-opacity="0" result="BackgroundImageFix"/>
<feColorMatrix in="SourceAlpha" type="matrix" values="0 0 0 0 0 0 0 0 0 0 0 0 0 0 0 0 0 0 127 0" result="hardAlpha"/>
<feOffset dy="4.04257"/>
<feGaussianBlur stdDeviation="3.34091"/>
<feComposite in2="hardAlpha" operator="out"/>
<feColorMatrix type="matrix" values="0 0 0 0 0 0 0 0 0 0 0 0 0 0 0 0 0 0 0.25 0"/>
<feBlend mode="normal" in2="BackgroundImageFix" result="effect1_dropShadow_935_6048"/>
<feBlend mode="normal" in="SourceGraphic" in2="effect1_dropShadow_935_6048" result="shape"/>
<feColorMatrix in="SourceAlpha" type="matrix" values="0 0 0 0 0 0 0 0 0 0 0 0 0 0 0 0 0 0 127 0" result="hardAlpha"/>
<feOffset dy="4.04257"/>
<feGaussianBlur stdDeviation="5.05322"/>
<feComposite in2="hardAlpha" operator="arithmetic" k2="-1" k3="1"/>
<feColorMatrix type="matrix" values="0 0 0 0 0.972549 0 0 0 0 0.964706 0 0 0 0 0.941176 0 0 0 1 0"/>
<feBlend mode="normal" in2="shape" result="effect2_innerShadow_935_6048"/>
</filter>
<filter id="filter1_di_935_6048" x="34.3182" y="35.2436" width="384.364" height="409.481" filterUnits="userSpaceOnUse" color-interpolation-filters="sRGB">
<feFlood flood-opacity="0" result="BackgroundImageFix"/>
<feColorMatrix in="SourceAlpha" type="matrix" values="0 0 0 0 0 0 0 0 0 0 0 0 0 0 0 0 0 0 127 0" result="hardAlpha"/>
<feOffset dy="4.04257"/>
<feGaussianBlur stdDeviation="3.34091"/>
<feComposite in2="hardAlpha" operator="out"/>
<feColorMatrix type="matrix" values="0 0 0 0 0 0 0 0 0 0 0 0 0 0 0 0 0 0 0.25 0"/>
<feBlend mode="normal" in2="BackgroundImageFix" result="effect1_dropShadow_935_6048"/>
<feBlend mode="normal" in="SourceGraphic" in2="effect1_dropShadow_935_6048" result="shape"/>
<feColorMatrix in="SourceAlpha" type="matrix" values="0 0 0 0 0 0 0 0 0 0 0 0 0 0 0 0 0 0 127 0" result="hardAlpha"/>
<feOffset dy="4.04257"/>
<feGaussianBlur stdDeviation="5.05322"/>
<feComposite in2="hardAlpha" operator="arithmetic" k2="-1" k3="1"/>
<feColorMatrix type="matrix" values="0 0 0 0 0.972549 0 0 0 0 0.964706 0 0 0 0 0.941176 0 0 0 1 0"/>
<feBlend mode="normal" in2="shape" result="effect2_innerShadow_935_6048"/>
</filter>
<filter id="filter2_d_935_6048" x="36.1196" y="227.556" width="372.263" height="164.175" filterUnits="userSpaceOnUse" color-interpolation-filters="sRGB">
<feFlood flood-opacity="0" result="BackgroundImageFix"/>
<feColorMatrix in="SourceAlpha" type="matrix" values="0 0 0 0 0 0 0 0 0 0 0 0 0 0 0 0 0 0 127 0" result="hardAlpha"/>
<feOffset/>
<feGaussianBlur stdDeviation="6.06373"/>
<feComposite in2="hardAlpha" operator="out"/>
<feColorMatrix type="matrix" values="0 0 0 0 0.972549 0 0 0 0 0.964706 0 0 0 0 0.941176 0 0 0 1 0"/>
<feBlend mode="normal" in2="BackgroundImageFix" result="effect1_dropShadow_935_6048"/>
<feBlend mode="normal" in="SourceGraphic" in2="effect1_dropShadow_935_6048" result="shape"/>
</filter>
<filter id="filter3_d_935_6048" x="94.4556" y="381.693" width="256.031" height="59.3545" filterUnits="userSpaceOnUse" color-interpolation-filters="sRGB">
<feFlood flood-opacity="0" result="BackgroundImageFix"/>
<feColorMatrix in="SourceAlpha" type="matrix" values="0 0 0 0 0 0 0 0 0 0 0 0 0 0 0 0 0 0 127 0" result="hardAlpha"/>
<feOffset/>
<feGaussianBlur stdDeviation="6.06373"/>
<feComposite in2="hardAlpha" operator="out"/>
<feColorMatrix type="matrix" values="0 0 0 0 0.972549 0 0 0 0 0.964706 0 0 0 0 0.941176 0 0 0 1 0"/>
<feBlend mode="normal" in2="BackgroundImageFix" result="effect1_dropShadow_935_6048"/>
<feBlend mode="normal" in="SourceGraphic" in2="effect1_dropShadow_935_6048" result="shape"/>
</filter>
<filter id="filter4_d_935_6048" x="182.205" y="46.4897" width="80.0362" height="65.9737" filterUnits="userSpaceOnUse" color-interpolation-filters="sRGB">
<feFlood flood-opacity="0" result="BackgroundImageFix"/>
<feColorMatrix in="SourceAlpha" type="matrix" values="0 0 0 0 0 0 0 0 0 0 0 0 0 0 0 0 0 0 127 0" result="hardAlpha"/>
<feOffset/>
<feGaussianBlur stdDeviation="6.06373"/>
<feComposite in2="hardAlpha" operator="out"/>
<feColorMatrix type="matrix" values="0 0 0 0 0.972549 0 0 0 0 0.964706 0 0 0 0 0.941176 0 0 0 1 0"/>
<feBlend mode="normal" in2="BackgroundImageFix" result="effect1_dropShadow_935_6048"/>
<feBlend mode="normal" in="SourceGraphic" in2="effect1_dropShadow_935_6048" result="shape"/>
</filter>
<filter id="filter5_d_935_6048" x="62.3315" y="515.595" width="320.429" height="118.454" filterUnits="userSpaceOnUse" color-interpolation-filters="sRGB">
<feFlood flood-opacity="0" result="BackgroundImageFix"/>
<feColorMatrix in="SourceAlpha" type="matrix" values="0 0 0 0 0 0 0 0 0 0 0 0 0 0 0 0 0 0 127 0" result="hardAlpha"/>
<feOffset/>
<feGaussianBlur stdDeviation="6.06373"/>
<feComposite in2="hardAlpha" operator="out"/>
<feColorMatrix type="matrix" values="0 0 0 0 0.972549 0 0 0 0 0.964706 0 0 0 0 0.941176 0 0 0 1 0"/>
<feBlend mode="normal" in2="BackgroundImageFix" result="effect1_dropShadow_935_6048"/>
<feBlend mode="normal" in="SourceGraphic" in2="effect1_dropShadow_935_6048" result="shape"/>
</filter>
<radialGradient id="paint0_radial_935_6048" cx="0" cy="0" r="1" gradientUnits="userSpaceOnUse" gradientTransform="translate(235.374 2.54252) rotate(91.9713) scale(378.499 425.537)">
<stop stop-color="#FFAFE9"/>
<stop offset="0.776042" stop-color="#FF94E1" stop-opacity="0"/>
</radialGradient>
</defs>
</svg>
