<svg width="81" height="67" viewBox="0 0 81 67" fill="none" xmlns="http://www.w3.org/2000/svg">
<g filter="url(#filter0_d_2738_44348)">
<path d="M54.0919 54.3359C52.17 54.3359 50.3497 53.7734 48.631 52.6484C46.9122 51.5391 45.3888 50.0156 44.0607 48.0781C42.7325 46.1406 41.6857 43.9219 40.92 41.4219C40.17 38.9063 39.795 36.2578 39.795 33.4766C39.795 30.6953 40.17 28.0547 40.92 25.5547C41.6857 23.0391 42.7325 20.8125 44.0607 18.875C45.3888 16.9375 46.9122 15.4141 48.631 14.3047C50.3497 13.1797 52.17 12.6172 54.0919 12.6172C56.0138 12.6172 57.8341 13.1797 59.5529 14.3047C61.2716 15.4141 62.795 16.9375 64.1232 18.875C65.4513 20.8125 66.4904 23.0391 67.2404 25.5547C68.006 28.0547 68.3888 30.6953 68.3888 33.4766C68.3888 36.2578 68.006 38.9063 67.2404 41.4219C66.4904 43.9219 65.4513 46.1406 64.1232 48.0781C62.795 50.0156 61.2716 51.5391 59.5529 52.6484C57.8341 53.7734 56.0138 54.3359 54.0919 54.3359ZM22.6857 41.0703C21.7169 41.0703 20.8263 40.75 20.0138 40.1094C19.2013 39.4531 18.5529 38.5781 18.0685 37.4844C17.5997 36.375 17.3654 35.1563 17.3654 33.8281C17.3654 32.4844 17.5997 31.2656 18.0685 30.1719C18.5529 29.0781 19.2013 28.2109 20.0138 27.5703C20.8263 26.9141 21.7169 26.5859 22.6857 26.5859C23.3419 26.5859 23.9825 26.75 24.6075 27.0781C24.1857 27.375 23.8497 27.7813 23.5997 28.2969C23.3654 28.7969 23.2482 29.3203 23.2482 29.8672C23.2482 30.6328 23.4591 31.2734 23.881 31.7891C24.3185 32.2891 24.8732 32.5391 25.545 32.5391C26.3575 32.5391 27.0763 32.1563 27.7013 31.3906C27.9044 32.1094 28.006 32.9219 28.006 33.8281C28.006 35.1563 27.7638 36.375 27.2794 37.4844C26.8107 38.5781 26.17 39.4531 25.3575 40.1094C24.5607 40.75 23.67 41.0703 22.6857 41.0703ZM26.9044 54.3359C24.9825 54.3359 23.1622 53.7734 21.4435 52.6484C19.7247 51.5391 18.2013 50.0156 16.8732 48.0781C15.545 46.1406 14.4982 43.9219 13.7325 41.4219C12.9825 38.9063 12.6075 36.2578 12.6075 33.4766C12.6075 30.6953 12.9825 28.0547 13.7325 25.5547C14.4982 23.0391 15.545 20.8125 16.8732 18.875C18.2013 16.9375 19.7247 15.4141 21.4435 14.3047C23.1622 13.1797 24.9825 12.6172 26.9044 12.6172C28.8263 12.6172 30.6466 13.1797 32.3654 14.3047C34.0841 15.4141 35.6075 16.9375 36.9357 18.875C38.2638 20.8125 39.3029 23.0391 40.0529 25.5547C40.8185 28.0547 41.2013 30.6953 41.2013 33.4766C41.2013 36.2578 40.8185 38.9063 40.0529 41.4219C39.3029 43.9219 38.2638 46.1406 36.9357 48.0781C35.6075 50.0156 34.0841 51.5391 32.3654 52.6484C30.6466 53.7734 28.8263 54.3359 26.9044 54.3359ZM26.9044 52.4609C28.545 52.4609 30.1075 51.9531 31.5919 50.9375C33.0919 49.9219 34.42 48.5313 35.5763 46.7656C36.7325 44.9844 37.6466 42.9531 38.3185 40.6719C38.9904 38.3906 39.3263 35.9922 39.3263 33.4766C39.3263 30.9609 38.9904 28.5625 38.3185 26.2813C37.6466 24 36.7325 21.9766 35.5763 20.2109C34.42 18.4297 33.0919 17.0313 31.5919 16.0156C30.1075 15 28.545 14.4922 26.9044 14.4922C25.2638 14.4922 23.6935 15 22.1935 16.0156C20.7091 17.0313 19.3888 18.4297 18.2325 20.2109C17.0763 21.9766 16.1622 24 15.4904 26.2813C14.8185 28.5625 14.4825 30.9609 14.4825 33.4766C14.4825 35.9922 14.8185 38.3906 15.4904 40.6719C16.1622 42.9531 17.0763 44.9844 18.2325 46.7656C19.3888 48.5313 20.7091 49.9219 22.1935 50.9375C23.6935 51.9531 25.2638 52.4609 26.9044 52.4609ZM49.8732 41.0703C48.9044 41.0703 48.0138 40.75 47.2013 40.1094C46.3888 39.4531 45.7404 38.5781 45.256 37.4844C44.7872 36.375 44.5529 35.1563 44.5529 33.8281C44.5529 32.4844 44.7872 31.2656 45.256 30.1719C45.7404 29.0781 46.3888 28.2109 47.2013 27.5703C48.0138 26.9141 48.9044 26.5859 49.8732 26.5859C50.5294 26.5859 51.17 26.75 51.795 27.0781C51.3732 27.375 51.0372 27.7813 50.7872 28.2969C50.5529 28.7969 50.4357 29.3203 50.4357 29.8672C50.4357 30.6328 50.6466 31.2734 51.0685 31.7891C51.506 32.2891 52.0607 32.5391 52.7325 32.5391C53.545 32.5391 54.2638 32.1563 54.8888 31.3906C55.0919 32.1094 55.1935 32.9219 55.1935 33.8281C55.1935 35.1563 54.9513 36.375 54.4669 37.4844C53.9982 38.5781 53.3575 39.4531 52.545 40.1094C51.7482 40.75 50.8575 41.0703 49.8732 41.0703ZM54.0919 52.4609C55.7325 52.4609 57.295 51.9531 58.7794 50.9375C60.2794 49.9219 61.6075 48.5313 62.7638 46.7656C63.9201 44.9844 64.8341 42.9531 65.506 40.6719C66.1779 38.3906 66.5138 35.9922 66.5138 33.4766C66.5138 30.9609 66.1779 28.5625 65.506 26.2813C64.8341 24 63.9201 21.9766 62.7638 20.2109C61.6075 18.4297 60.2794 17.0313 58.7794 16.0156C57.295 15 55.7325 14.4922 54.0919 14.4922C52.4513 14.4922 50.881 15 49.381 16.0156C47.8966 17.0313 46.5763 18.4297 45.42 20.2109C44.2638 21.9766 43.3497 24 42.6779 26.2813C42.006 28.5625 41.67 30.9609 41.67 33.4766C41.67 35.9922 42.006 38.3906 42.6779 40.6719C43.3497 42.9531 44.2638 44.9844 45.42 46.7656C46.5763 48.5313 47.8966 49.9219 49.381 50.9375C50.881 51.9531 52.4513 52.4609 54.0919 52.4609Z" fill="#313131"/>
</g>
<defs>
<filter id="filter0_d_2738_44348" x="0.48009" y="0.489734" width="80.0362" height="65.9737" filterUnits="userSpaceOnUse" color-interpolation-filters="sRGB">
<feFlood flood-opacity="0" result="BackgroundImageFix"/>
<feColorMatrix in="SourceAlpha" type="matrix" values="0 0 0 0 0 0 0 0 0 0 0 0 0 0 0 0 0 0 127 0" result="hardAlpha"/>
<feOffset/>
<feGaussianBlur stdDeviation="6.06373"/>
<feComposite in2="hardAlpha" operator="out"/>
<feColorMatrix type="matrix" values="0 0 0 0 0.972549 0 0 0 0 0.964706 0 0 0 0 0.941176 0 0 0 1 0"/>
<feBlend mode="normal" in2="BackgroundImageFix" result="effect1_dropShadow_2738_44348"/>
<feBlend mode="normal" in="SourceGraphic" in2="effect1_dropShadow_2738_44348" result="shape"/>
</filter>
</defs>
</svg>
