<svg width="22" height="24" viewBox="0 0 22 24" fill="none" xmlns="http://www.w3.org/2000/svg">
<path fill-rule="evenodd" clip-rule="evenodd" d="M8.1774 14.007C10.869 16.7755 15.2328 16.7755 17.9244 14.007C20.616 11.2385 20.616 6.74991 17.9244 3.98141C15.2328 1.21291 10.869 1.21291 8.1774 3.98141C5.48583 6.74991 5.48583 11.2385 8.1774 14.007ZM6.86777 15.3541C10.2826 18.8665 15.8192 18.8665 19.234 15.3541C22.6489 11.8416 22.6489 6.14681 19.234 2.63435C15.8192 -0.878115 10.2826 -0.878115 6.86777 2.63435C3.45292 6.14681 3.45292 11.8416 6.86777 15.3541Z" fill="#313131"/>
<path d="M7.26486 15.9983C7.6265 15.6263 8.21284 15.6263 8.57448 15.9983C8.93613 16.3703 8.93613 16.9734 8.57448 17.3454L2.37602 23.721C2.01438 24.093 1.42804 24.093 1.0664 23.721C0.704755 23.349 0.704755 22.7459 1.0664 22.374L7.26486 15.9983Z" fill="#313131"/>
</svg>
