<svg width="1581" height="1096" viewBox="0 0 1581 1096" fill="none" xmlns="http://www.w3.org/2000/svg">
<g filter="url(#filter0_d_1127_37110)">
<path d="M61.2652 14.9V102H72.6552V61.8H119.555V102H130.945V14.9H119.555V53.09H72.6552V14.9H61.2652ZM163.754 102V14.9H157.054C155.714 21.6 150.354 28.97 136.954 28.97H136.284V35H152.364V102H163.754ZM199.976 102H241.516C256.926 102 268.986 94.63 268.986 77.21C268.986 59.79 256.926 53.09 241.516 53.09H211.366V23.61H264.966V14.9H199.976V102ZM211.366 93.29V61.8H240.846C250.226 61.8 256.926 67.16 256.926 77.21C256.926 87.93 250.226 93.29 240.846 93.29H211.366ZM309.197 104.01C325.947 104.01 335.997 94.63 338.677 81.9H327.287C325.277 91.28 317.907 95.97 309.197 95.97C298.343 95.97 289.231 88.734 288.427 71.18H339.347V65.82C339.347 49.74 330.637 32.99 308.527 32.99C287.087 32.99 276.367 49.07 276.367 68.5C276.367 87.93 287.087 104.01 309.197 104.01ZM308.527 41.03C318.711 41.03 327.287 47.73 327.287 63.14H288.695C290.169 47.596 298.209 41.03 308.527 41.03ZM347.324 102H358.714L394.894 49.74V102H406.284V35H394.894L358.714 87.26V35H347.324V102ZM355.364 14.9C355.364 20.93 358.714 30.98 376.804 30.98C394.894 30.98 398.244 20.93 398.244 14.9H387.524C387.524 20.26 384.576 24.28 376.804 24.28C369.032 24.28 366.084 20.26 366.084 14.9H355.364ZM447.122 104.01C466.552 104.01 476.602 91.95 477.272 78.55H465.212C463.872 89.27 457.842 95.97 447.122 95.97C435.732 95.97 426.352 87.93 426.352 68.5C426.352 49.07 435.732 41.03 447.122 41.03C457.842 41.03 463.872 47.73 465.212 58.45H477.272C476.602 45.05 466.552 32.99 447.122 32.99C425.012 32.99 414.292 49.07 414.292 68.5C414.292 87.93 425.012 104.01 447.122 104.01ZM485.25 35V102H496.64L532.82 49.74V102H544.21V35H532.82L496.64 87.26V35H485.25ZM564.948 102V82.57L577.276 69.706L598.448 102H611.848L584.646 61.934L610.508 35H597.778L564.948 69.84V35H553.558V102H564.948ZM644.081 58.45C644.081 85.25 658.151 104.01 684.951 104.01C709.071 104.01 713.359 82.302 713.761 80.158V102H722.471V54.43H678.251V63.14H711.751C711.751 75.2 707.061 95.97 684.951 95.97C668.201 95.97 656.141 83.24 656.141 58.45C656.141 33.66 668.201 20.93 684.951 20.93C699.691 20.93 709.741 28.97 711.081 43.71H722.471C721.131 28.97 712.421 12.89 684.951 12.89C658.151 12.89 644.081 31.65 644.081 58.45ZM743.179 102V73.86C743.179 53.76 752.559 45.05 765.959 45.05H769.979V34.33H766.629C750.013 34.33 743.715 51.214 743.179 52.956V35H731.789V102H743.179ZM798.768 104.01C815.518 104.01 822.218 90.61 822.218 90.61V92.62C822.218 101.33 827.578 102.67 834.278 102.67C837.226 102.67 840.308 102 840.308 102V93.96C833.608 94.63 833.608 91.28 833.608 85.92V55.1C833.608 39.69 823.558 32.99 805.468 32.99C788.718 32.99 776.658 39.69 776.658 55.1H788.048C788.048 45.72 794.078 41.03 805.468 41.03C816.188 41.03 822.218 44.38 822.218 52.42C822.218 57.78 820.878 63.14 805.468 63.14C782.688 63.14 775.318 72.52 775.318 83.91C775.318 95.3 783.358 104.01 798.768 104.01ZM804.128 69.84C819.136 69.84 822.084 64.882 822.218 64.614V69.17C822.218 89.27 810.828 95.97 801.448 95.97C792.738 95.97 787.378 90.61 787.378 82.57C787.378 72.52 796.758 69.84 804.128 69.84ZM846.291 35V102H857.681V62.47C857.681 49.07 865.721 41.7 874.431 41.7C881.801 41.7 885.821 47.06 885.821 59.12V102H897.211V61.532C897.613 48.668 905.385 41.7 913.961 41.7C922.001 41.7 926.021 47.06 926.021 59.12V102H937.411V56.44C937.411 40.494 930.041 32.99 917.311 32.99C903.777 32.99 896.809 46.524 896.273 47.73C893.861 37.814 887.295 32.99 877.781 32.99C864.381 32.99 857.681 47.06 857.681 47.06V35H846.291ZM946.791 35V102H958.181V62.47C958.181 49.07 966.221 41.7 974.931 41.7C982.301 41.7 986.321 47.06 986.321 59.12V102H997.711V61.532C998.113 48.668 1005.88 41.7 1014.46 41.7C1022.5 41.7 1026.52 47.06 1026.52 59.12V102H1037.91V56.44C1037.91 40.494 1030.54 32.99 1017.81 32.99C1004.28 32.99 997.309 46.524 996.773 47.73C994.361 37.814 987.795 32.99 978.281 32.99C964.881 32.99 958.181 47.06 958.181 47.06V35H946.791ZM1068.73 104.01C1085.48 104.01 1092.18 90.61 1092.18 90.61V92.62C1092.18 101.33 1097.54 102.67 1104.24 102.67C1107.19 102.67 1110.27 102 1110.27 102V93.96C1103.57 94.63 1103.57 91.28 1103.57 85.92V55.1C1103.57 39.69 1093.52 32.99 1075.43 32.99C1058.68 32.99 1046.62 39.69 1046.62 55.1H1058.01C1058.01 45.72 1064.04 41.03 1075.43 41.03C1086.15 41.03 1092.18 44.38 1092.18 52.42C1092.18 57.78 1090.84 63.14 1075.43 63.14C1052.65 63.14 1045.28 72.52 1045.28 83.91C1045.28 95.3 1053.32 104.01 1068.73 104.01ZM1074.09 69.84C1089.1 69.84 1092.05 64.882 1092.18 64.614V69.17C1092.18 89.27 1080.79 95.97 1071.41 95.97C1062.7 95.97 1057.34 90.61 1057.34 82.57C1057.34 72.52 1066.72 69.84 1074.09 69.84ZM1113.57 43.71H1126.97V85.25C1126.97 97.98 1130.32 103.34 1141.71 103.34C1148.41 103.34 1153.1 102 1153.1 102V94.094C1153.1 94.094 1147.74 94.63 1145.06 94.63C1140.37 94.63 1138.36 92.62 1138.36 85.25V43.71H1153.1V35H1138.36V14.9H1126.97V35H1113.57V43.71ZM1160.48 35V102H1171.87V35H1160.48ZM1171.87 27.63V14.9H1160.48V27.63H1171.87ZM1181.29 14.9V102H1192.68V82.57L1205.01 69.706L1226.18 102H1239.58L1212.38 61.934L1238.24 35H1225.51L1192.68 69.84V14.9H1181.29ZM1267.77 104.01C1284.52 104.01 1291.22 90.61 1291.22 90.61V92.62C1291.22 101.33 1296.58 102.67 1303.28 102.67C1306.23 102.67 1309.31 102 1309.31 102V93.96C1302.61 94.63 1302.61 91.28 1302.61 85.92V55.1C1302.61 39.69 1292.56 32.99 1274.47 32.99C1257.72 32.99 1245.66 39.69 1245.66 55.1H1257.05C1257.05 45.72 1263.08 41.03 1274.47 41.03C1285.19 41.03 1291.22 44.38 1291.22 52.42C1291.22 57.78 1289.88 63.14 1274.47 63.14C1251.69 63.14 1244.32 72.52 1244.32 83.91C1244.32 95.3 1252.36 104.01 1267.77 104.01ZM1273.13 69.84C1288.14 69.84 1291.08 64.882 1291.22 64.614V69.17C1291.22 89.27 1279.83 95.97 1270.45 95.97C1261.74 95.97 1256.38 90.61 1256.38 82.57C1256.38 72.52 1265.76 69.84 1273.13 69.84ZM1365.57 102V14.9H1358.87C1357.53 21.6 1352.17 28.97 1338.77 28.97H1338.1V35H1354.18V102H1365.57ZM1374.29 14.9V23.61H1429.23L1397.07 49.07V56.44H1407.12C1420.52 56.44 1431.24 61.13 1431.24 75.2C1431.24 85.25 1425.21 95.97 1407.79 95.97C1390.37 95.97 1384.34 83.91 1384.34 73.19H1372.95C1372.95 87.93 1382.33 104.01 1407.79 104.01C1431.91 104.01 1443.3 90.61 1443.3 75.2C1443.3 57.244 1429.77 49.204 1410.47 48.534L1441.96 23.61V14.9H1374.29ZM1495.62 79.89V102H1507.01V79.89H1522.42V71.18H1507.01V14.9H1493.61L1448.72 72.52V79.89H1495.62ZM1495.62 25.888V71.18H1460.38L1495.62 25.888Z" fill="#313131"/>
</g>
<g filter="url(#filter1_d_1127_37110)">
<path d="M355.409 677.6H316.409L332.009 686.18V723.62H270.389V686.18L285.989 677.6H246.989L262.589 686.18V770.42L246.989 779H285.989L270.389 770.42V729.08H332.009V770.42L316.409 779H355.409L339.809 770.42V686.18L355.409 677.6ZM381.874 718.16V771.98L364.714 779H406.834L389.674 771.98V706.46L367.834 718.16H381.874ZM466.925 686.18L495.941 781.34L524.957 695.696L554.909 781.34L583.925 686.18L600.305 677.6H564.269L578.309 685.4L555.689 760.124L526.049 675.26L497.501 759.656L474.881 685.4L488.921 677.6H450.545L466.925 686.18ZM607.27 716.6V771.98L594.79 779H627.55L615.07 771.98V727.52C622.09 719.72 628.018 714.884 631.138 714.884C636.286 714.884 635.506 719.72 640.966 719.72C644.71 719.72 647.05 717.068 647.05 713.792C647.05 709.112 643.93 706.46 638.47 706.46C634.102 706.46 630.358 708.176 625.522 712.856L615.07 722.84V706.46L594.79 712.7L607.27 716.6ZM718.853 736.88C718.853 719.72 711.833 706.46 692.021 706.46C673.457 706.46 658.013 721.124 658.013 743.9C658.013 764.96 670.493 781.34 690.773 781.34C714.173 781.34 718.853 758.72 718.853 758.72C718.853 758.72 711.833 774.32 694.673 774.32C679.073 774.32 665.813 764.648 665.813 741.404C665.813 739.844 665.813 738.44 665.969 736.88H718.853ZM691.709 710.204C702.629 710.204 710.273 717.38 710.273 725.18C710.273 731.42 704.813 732.2 697.013 732.2H666.749C670.181 717.224 681.881 710.204 691.709 710.204ZM797.59 725.648C802.27 719.876 811.63 712.388 820.99 712.388C831.13 712.388 835.81 719.72 835.81 732.2V771.98L823.33 779H856.09L843.61 771.98V729.86C843.61 712.7 835.03 706.46 824.11 706.46C813.19 706.46 803.05 715.04 796.81 721.904C794.314 710.672 786.826 706.46 778.09 706.46C767.17 706.46 757.03 715.04 751.57 720.968V706.46L731.29 712.7L743.77 716.6V771.98L731.29 779H764.05L751.57 771.98V725.648C756.25 719.876 765.61 712.388 774.97 712.388C785.11 712.388 789.79 719.72 789.79 732.2V771.98L777.31 779H810.07L797.59 771.98V725.648ZM924.669 736.88C924.669 719.72 917.649 706.46 897.837 706.46C879.273 706.46 863.829 721.124 863.829 743.9C863.829 764.96 876.309 781.34 896.589 781.34C919.989 781.34 924.669 758.72 924.669 758.72C924.669 758.72 917.649 774.32 900.489 774.32C884.889 774.32 871.629 764.648 871.629 741.404C871.629 739.844 871.629 738.44 871.785 736.88H924.669ZM897.525 710.204C908.445 710.204 916.089 717.38 916.089 725.18C916.089 731.42 910.629 732.2 902.829 732.2H872.565C875.997 717.224 887.697 710.204 897.525 710.204ZM949.586 716.6V771.98L937.106 779H969.866L957.386 771.98V725.648C962.066 719.876 971.426 712.388 980.786 712.388C990.926 712.388 995.606 719.72 995.606 732.2V771.98L983.126 779H1015.89L1003.41 771.98V729.86C1003.41 712.7 994.826 706.46 983.906 706.46C972.986 706.46 962.846 715.04 957.386 720.968V706.46L937.106 712.7L949.586 716.6ZM1044.54 741.404C1033.93 745.148 1024.42 752.48 1024.42 763.4C1024.42 774.476 1031.44 781.34 1042.2 781.34C1048.44 781.34 1053.75 778.22 1057.33 775.88L1068.88 768.236C1068.88 776.504 1068.88 781.34 1074.34 781.34C1079.8 781.34 1090.72 768.08 1090.72 768.08L1076.68 773.54V729.08C1076.68 715.82 1071.06 706.46 1054.06 706.46C1044.7 706.46 1027.07 715.04 1027.07 724.712C1027.07 729.236 1029.72 731.264 1032.69 731.264C1035.65 731.264 1038.3 729.548 1038.3 724.712C1038.3 722.528 1037.99 720.968 1037.99 719.72C1037.99 715.82 1042.98 711.14 1052.5 711.14C1061.08 711.14 1068.88 715.196 1068.88 729.08V732.98L1044.54 741.404ZM1059.21 769.64C1054.68 772.604 1050.78 775.568 1044.7 775.568C1036.9 775.568 1032.69 769.328 1032.69 762.62C1032.69 754.04 1036.59 748.736 1050.16 743.9L1068.88 737.348V763.244L1059.21 769.64ZM1153.04 718.16V771.98L1135.88 779H1178L1160.84 771.98V706.46L1139 718.16H1153.04ZM1244.99 716.6L1249.98 708.8H1196.63L1190.55 759.5C1195.23 753.26 1206.15 743.9 1217.07 743.9C1230.33 743.9 1243.59 752.48 1243.59 771.98C1243.59 794.6 1228.77 800.84 1217.07 800.84C1206.15 800.84 1198.03 795.692 1198.03 788.672C1198.03 787.112 1199.44 785.552 1199.44 782.9C1199.44 779.936 1198.35 776.504 1193.98 776.504C1190.08 776.504 1188.21 779.624 1188.21 783.68C1188.21 793.82 1199.13 804.74 1217.07 804.74C1238.13 804.74 1252.17 791.48 1252.17 771.98C1252.17 751.7 1238.91 739.22 1218.63 739.22C1206.15 739.22 1196.63 748.268 1196.63 748.268L1200.53 716.6H1244.99ZM1333.13 667.46C1331.57 667.772 1264.65 678.38 1264.65 739.22C1264.65 764.18 1279.47 781.34 1302.09 781.34C1318.47 781.34 1334.07 767.3 1334.07 747.8C1334.07 725.96 1317.69 715.04 1302.09 715.04C1286.02 715.04 1277.59 725.024 1273.54 732.512C1277.75 680.408 1330.48 668.084 1333.13 667.46ZM1298.97 719.72C1315.35 719.72 1326.27 733.76 1326.27 751.7C1326.27 768.08 1315.35 776.66 1302.87 776.66C1291.95 776.66 1273.23 768.08 1273.23 739.376C1275.88 732.044 1282.9 719.72 1298.97 719.72Z" fill="#313131"/>
</g>
<g filter="url(#filter2_d_1127_37110)">
<path d="M264.266 165.6V228H272.426V199.2H306.026V228H314.186V165.6H306.026V192.96H272.426V165.6H264.266ZM367.931 228V221.76H329.051C348.251 207.36 367.931 198.24 367.931 183.36C367.931 169.92 356.411 164.16 343.931 164.16C330.491 164.16 319.931 170.88 319.931 186.24H328.091C328.091 176.16 333.851 169.92 343.931 169.92C354.971 169.92 359.291 176.16 359.291 183.36C359.291 195.84 343.451 203.52 319.931 221.76V228H367.931ZM392.891 228H422.651C433.691 228 442.331 222.72 442.331 210.24C442.331 197.76 433.691 192.96 422.651 192.96H401.051V171.84H439.451V165.6H392.891V228ZM401.051 221.76V199.2H422.171C428.891 199.2 433.691 203.04 433.691 210.24C433.691 217.92 428.891 221.76 422.171 221.76H401.051ZM471.139 229.44C483.139 229.44 490.339 222.72 492.259 213.6H484.099C482.659 220.32 477.379 223.68 471.139 223.68C463.363 223.68 456.835 218.496 456.259 205.92H492.739V202.08C492.739 190.56 486.499 178.56 470.659 178.56C455.299 178.56 447.619 190.08 447.619 204C447.619 217.92 455.299 229.44 471.139 229.44ZM470.659 184.32C477.955 184.32 484.099 189.12 484.099 200.16H456.451C457.507 189.024 463.267 184.32 470.659 184.32ZM498.454 228H506.614L532.534 190.56V228H540.694V180H532.534L506.614 217.44V180H498.454V228ZM504.214 165.6C504.214 169.92 506.614 177.12 519.574 177.12C532.534 177.12 534.934 169.92 534.934 165.6H527.254C527.254 169.44 525.142 172.32 519.574 172.32C514.006 172.32 511.894 169.44 511.894 165.6H504.214ZM569.951 229.44C583.871 229.44 591.071 220.8 591.551 211.2H582.911C581.951 218.88 577.631 223.68 569.951 223.68C561.791 223.68 555.071 217.92 555.071 204C555.071 190.08 561.791 184.32 569.951 184.32C577.631 184.32 581.951 189.12 582.911 196.8H591.551C591.071 187.2 583.871 178.56 569.951 178.56C554.111 178.56 546.431 190.08 546.431 204C546.431 217.92 554.111 229.44 569.951 229.44ZM597.266 180V228H605.426L631.346 190.56V228H639.506V180H631.346L605.426 217.44V180H597.266ZM654.364 228V214.08L663.196 204.864L678.364 228H687.964L668.476 199.296L687.004 180H677.884L654.364 204.96V180H646.204V228H654.364ZM711.056 196.8C711.056 216 721.136 229.44 740.336 229.44C757.616 229.44 760.688 213.888 760.976 212.352V228H767.216V193.92H735.536V200.16H759.536C759.536 208.8 756.176 223.68 740.336 223.68C728.336 223.68 719.696 214.56 719.696 196.8C719.696 179.04 728.336 169.92 740.336 169.92C750.896 169.92 758.096 175.68 759.056 186.24H767.216C766.256 175.68 760.016 164.16 740.336 164.16C721.136 164.16 711.056 177.6 711.056 196.8ZM782.051 228V207.84C782.051 193.44 788.771 187.2 798.371 187.2H801.251V179.52H798.851C786.947 179.52 782.435 191.616 782.051 192.864V180H773.891V228H782.051ZM821.876 229.44C833.876 229.44 838.676 219.84 838.676 219.84V221.28C838.676 227.52 842.516 228.48 847.316 228.48C849.428 228.48 851.636 228 851.636 228V222.24C846.836 222.72 846.836 220.32 846.836 216.48V194.4C846.836 183.36 839.636 178.56 826.676 178.56C814.676 178.56 806.036 183.36 806.036 194.4H814.196C814.196 187.68 818.516 184.32 826.676 184.32C834.356 184.32 838.676 186.72 838.676 192.48C838.676 196.32 837.716 200.16 826.676 200.16C810.356 200.16 805.076 206.88 805.076 215.04C805.076 223.2 810.836 229.44 821.876 229.44ZM825.716 204.96C836.468 204.96 838.58 201.408 838.676 201.216V204.48C838.676 218.88 830.516 223.68 823.796 223.68C817.556 223.68 813.716 219.84 813.716 214.08C813.716 206.88 820.436 204.96 825.716 204.96ZM855.923 180V228H864.083V199.68C864.083 190.08 869.843 184.8 876.083 184.8C881.363 184.8 884.243 188.64 884.243 197.28V228H892.403V199.008C892.691 189.792 898.259 184.8 904.403 184.8C910.163 184.8 913.043 188.64 913.043 197.28V228H921.203V195.36C921.203 183.936 915.923 178.56 906.802 178.56C897.107 178.56 892.115 188.256 891.731 189.12C890.003 182.016 885.299 178.56 878.483 178.56C868.883 178.56 864.083 188.64 864.083 188.64V180H855.923ZM927.923 180V228H936.083V199.68C936.083 190.08 941.843 184.8 948.083 184.8C953.363 184.8 956.243 188.64 956.243 197.28V228H964.403V199.008C964.691 189.792 970.259 184.8 976.403 184.8C982.163 184.8 985.043 188.64 985.043 197.28V228H993.203V195.36C993.203 183.936 987.923 178.56 978.802 178.56C969.107 178.56 964.115 188.256 963.731 189.12C962.003 182.016 957.299 178.56 950.483 178.56C940.883 178.56 936.083 188.64 936.083 188.64V180H927.923ZM1015.28 229.44C1027.28 229.44 1032.08 219.84 1032.08 219.84V221.28C1032.08 227.52 1035.92 228.48 1040.72 228.48C1042.83 228.48 1045.04 228 1045.04 228V222.24C1040.24 222.72 1040.24 220.32 1040.24 216.48V194.4C1040.24 183.36 1033.04 178.56 1020.08 178.56C1008.08 178.56 999.443 183.36 999.443 194.4H1007.6C1007.6 187.68 1011.92 184.32 1020.08 184.32C1027.76 184.32 1032.08 186.72 1032.08 192.48C1032.08 196.32 1031.12 200.16 1020.08 200.16C1003.76 200.16 998.483 206.88 998.483 215.04C998.483 223.2 1004.24 229.44 1015.28 229.44ZM1019.12 204.96C1029.87 204.96 1031.99 201.408 1032.08 201.216V204.48C1032.08 218.88 1023.92 223.68 1017.2 223.68C1010.96 223.68 1007.12 219.84 1007.12 214.08C1007.12 206.88 1013.84 204.96 1019.12 204.96ZM1047.41 186.24H1057.01V216C1057.01 225.12 1059.41 228.96 1067.57 228.96C1072.37 228.96 1075.73 228 1075.73 228V222.336C1075.73 222.336 1071.89 222.72 1069.97 222.72C1066.61 222.72 1065.17 221.28 1065.17 216V186.24H1075.73V180H1065.17V165.6H1057.01V180H1047.41V186.24ZM1081.02 180V228H1089.18V180H1081.02ZM1089.18 174.72V165.6H1081.02V174.72H1089.18ZM1095.92 165.6V228H1104.08V214.08L1112.91 204.864L1128.08 228H1137.68L1118.19 199.296L1136.72 180H1127.6L1104.08 204.96V165.6H1095.92ZM1157.88 229.44C1169.88 229.44 1174.68 219.84 1174.68 219.84V221.28C1174.68 227.52 1178.52 228.48 1183.32 228.48C1185.43 228.48 1187.64 228 1187.64 228V222.24C1182.84 222.72 1182.84 220.32 1182.84 216.48V194.4C1182.84 183.36 1175.64 178.56 1162.68 178.56C1150.68 178.56 1142.04 183.36 1142.04 194.4H1150.2C1150.2 187.68 1154.52 184.32 1162.68 184.32C1170.36 184.32 1174.68 186.72 1174.68 192.48C1174.68 196.32 1173.72 200.16 1162.68 200.16C1146.36 200.16 1141.08 206.88 1141.08 215.04C1141.08 223.2 1146.84 229.44 1157.88 229.44ZM1161.72 204.96C1172.47 204.96 1174.58 201.408 1174.68 201.216V204.48C1174.68 218.88 1166.52 223.68 1159.8 223.68C1153.56 223.68 1149.72 219.84 1149.72 214.08C1149.72 206.88 1156.44 204.96 1161.72 204.96ZM1235.14 164.16C1221.22 164.16 1210.18 173.28 1210.18 186.72C1210.18 198.72 1219.3 208.32 1234.18 208.32C1247.62 208.32 1253.38 198.24 1253.38 198.24H1253.86C1253.38 213.6 1247.05 223.68 1235.14 223.68C1224.58 223.68 1220.26 216.48 1220.26 210.72H1212.1C1212.1 218.88 1218.34 229.44 1235.14 229.44C1252.9 229.44 1261.54 216.48 1261.54 193.92C1261.54 173.28 1250.98 164.16 1235.14 164.16ZM1235.62 202.56C1226.98 202.56 1218.82 197.28 1218.82 186.24C1218.82 175.2 1226.98 169.92 1235.62 169.92C1244.26 169.92 1252.42 175.2 1252.42 186.24C1252.42 197.28 1244.26 202.56 1235.62 202.56ZM1292.74 229.44C1306.66 229.44 1317.7 220.32 1317.7 206.88C1317.7 194.88 1308.58 185.28 1293.7 185.28C1280.26 185.28 1274.5 195.36 1274.5 195.36H1274.02C1274.5 180 1280.83 169.92 1292.74 169.92C1303.3 169.92 1307.62 177.12 1307.62 182.88H1315.78C1315.78 174.72 1309.54 164.16 1292.74 164.16C1274.98 164.16 1266.34 177.12 1266.34 199.68C1266.34 220.32 1276.9 229.44 1292.74 229.44ZM1292.26 191.04C1300.9 191.04 1309.06 196.32 1309.06 207.36C1309.06 218.4 1300.9 223.68 1292.26 223.68C1283.62 223.68 1275.46 218.4 1275.46 207.36C1275.46 196.32 1283.62 191.04 1292.26 191.04Z" fill="#313131"/>
</g>
<g filter="url(#filter3_d_1127_37110)">
<path d="M500.121 820H475.121L485.121 825.5V849.5H445.621V825.5L455.621 820H430.621L440.621 825.5V879.5L430.621 885H455.621L445.621 879.5V853H485.121V879.5L475.121 885H500.121L490.121 879.5V825.5L500.121 820ZM545.086 873L541.086 880H516.486L528.386 869.9C538.486 861.3 543.086 858.5 543.086 851.5C543.086 847 539.586 838.5 525.586 838.5C513.086 838.5 508.086 846 508.086 852C508.086 856 510.586 857.8 512.886 857.8C514.986 857.8 516.486 856.2 516.486 854.4C516.486 850.9 513.086 851.5 513.086 849C513.086 844.5 518.086 841 525.586 841C533.086 841 538.086 845.5 538.086 851.5C538.086 857.5 534.086 861.2 525.486 868.5L506.086 885H545.086V873ZM586.059 825.5L604.659 886.5L623.259 831.6L642.459 886.5L661.059 825.5L671.559 820H648.459L657.459 825L642.959 872.9L623.959 818.5L605.659 872.6L591.159 825L600.159 820H575.559L586.059 825.5ZM676.023 845V880.5L668.023 885H689.023L681.023 880.5V852C685.523 847 689.323 843.9 691.323 843.9C694.623 843.9 694.123 847 697.623 847C700.023 847 701.523 845.3 701.523 843.2C701.523 840.2 699.523 838.5 696.023 838.5C693.223 838.5 690.823 839.6 687.723 842.6L681.023 849V838.5L668.023 842.5L676.023 845ZM747.551 858C747.551 847 743.051 838.5 730.351 838.5C718.451 838.5 708.551 847.9 708.551 862.5C708.551 876 716.551 886.5 729.551 886.5C744.551 886.5 747.551 872 747.551 872C747.551 872 743.051 882 732.051 882C722.051 882 713.551 875.8 713.551 860.9C713.551 859.9 713.551 859 713.651 858H747.551ZM730.151 840.9C737.151 840.9 742.051 845.5 742.051 850.5C742.051 854.5 738.551 855 733.551 855H714.151C716.351 845.4 723.851 840.9 730.151 840.9ZM798.023 850.8C801.023 847.1 807.023 842.3 813.023 842.3C819.523 842.3 822.523 847 822.523 855V880.5L814.523 885H835.523L827.523 880.5V853.5C827.523 842.5 822.023 838.5 815.023 838.5C808.023 838.5 801.523 844 797.523 848.4C795.923 841.2 791.123 838.5 785.523 838.5C778.523 838.5 772.023 844 768.523 847.8V838.5L755.523 842.5L763.523 845V880.5L755.523 885H776.523L768.523 880.5V850.8C771.523 847.1 777.523 842.3 783.523 842.3C790.023 842.3 793.023 847 793.023 855V880.5L785.023 885H806.023L798.023 880.5V850.8ZM879.484 858C879.484 847 874.984 838.5 862.284 838.5C850.384 838.5 840.484 847.9 840.484 862.5C840.484 876 848.484 886.5 861.484 886.5C876.484 886.5 879.484 872 879.484 872C879.484 872 874.984 882 863.984 882C853.984 882 845.484 875.8 845.484 860.9C845.484 859.9 845.484 859 845.584 858H879.484ZM862.084 840.9C869.084 840.9 873.984 845.5 873.984 850.5C873.984 854.5 870.484 855 865.484 855H846.084C848.284 845.4 855.784 840.9 862.084 840.9ZM895.457 845V880.5L887.457 885H908.457L900.457 880.5V850.8C903.457 847.1 909.457 842.3 915.457 842.3C921.957 842.3 924.957 847 924.957 855V880.5L916.957 885H937.957L929.957 880.5V853.5C929.957 842.5 924.457 838.5 917.457 838.5C910.457 838.5 903.957 844 900.457 847.8V838.5L887.457 842.5L895.457 845ZM956.326 860.9C949.526 863.3 943.426 868 943.426 875C943.426 882.1 947.926 886.5 954.826 886.5C958.826 886.5 962.226 884.5 964.526 883L971.926 878.1C971.926 883.4 971.926 886.5 975.426 886.5C978.926 886.5 985.926 878 985.926 878L976.926 881.5V853C976.926 844.5 973.326 838.5 962.426 838.5C956.426 838.5 945.126 844 945.126 850.2C945.126 853.1 946.826 854.4 948.726 854.4C950.626 854.4 952.326 853.3 952.326 850.2C952.326 848.8 952.126 847.8 952.126 847C952.126 844.5 955.326 841.5 961.426 841.5C966.926 841.5 971.926 844.1 971.926 853V855.5L956.326 860.9ZM965.726 879C962.826 880.9 960.326 882.8 956.426 882.8C951.426 882.8 948.726 878.8 948.726 874.5C948.726 869 951.226 865.6 959.926 862.5L971.926 858.3V874.9L965.726 879ZM1025.88 846V880.5L1014.88 885H1041.88L1030.88 880.5V838.5L1016.88 846H1025.88ZM1052.12 859.8C1052.12 850.3 1058.92 841.7 1069.22 841.7C1079.62 841.7 1090.72 850 1090.72 865.2C1090.72 874.6 1083.82 883.3 1073.52 883.3C1063.12 883.3 1052.12 875 1052.12 859.8ZM1047.42 862.5C1047.42 875.7 1057.22 886.5 1071.42 886.5C1085.62 886.5 1095.42 875.7 1095.42 862.5C1095.42 849.3 1085.62 838.5 1071.42 838.5C1057.22 838.5 1047.42 849.3 1047.42 862.5ZM1107.1 859.8C1107.1 850.3 1113.9 841.7 1124.2 841.7C1134.6 841.7 1145.7 850 1145.7 865.2C1145.7 874.6 1138.8 883.3 1128.5 883.3C1118.1 883.3 1107.1 875 1107.1 859.8ZM1102.4 862.5C1102.4 875.7 1112.2 886.5 1126.4 886.5C1140.6 886.5 1150.4 875.7 1150.4 862.5C1150.4 849.3 1140.6 838.5 1126.4 838.5C1112.2 838.5 1102.4 849.3 1102.4 862.5Z" fill="#313131"/>
</g>
<g filter="url(#filter4_d_1127_37110)">
<path d="M473.105 293.3V331H478.035V313.6H498.335V331H503.265V293.3H498.335V309.83H478.035V293.3H473.105ZM507.026 293.3V297.07H530.806L516.886 308.09V311.28H521.236C527.036 311.28 531.676 313.31 531.676 319.4C531.676 323.75 529.066 328.39 521.526 328.39C513.986 328.39 511.376 323.17 511.376 318.53H506.446C506.446 324.91 510.506 331.87 521.526 331.87C531.966 331.87 536.896 326.07 536.896 319.4C536.896 311.628 531.038 308.148 522.686 307.858L536.316 297.07V293.3H507.026ZM551.722 331H569.702C576.372 331 581.592 327.81 581.592 320.27C581.592 312.73 576.372 309.83 569.702 309.83H556.652V297.07H579.852V293.3H551.722V331ZM556.652 327.23V313.6H569.412C573.472 313.6 576.372 315.92 576.372 320.27C576.372 324.91 573.472 327.23 569.412 327.23H556.652ZM598.997 331.87C606.247 331.87 610.597 327.81 611.757 322.3H606.827C605.957 326.36 602.767 328.39 598.997 328.39C594.299 328.39 590.355 325.258 590.007 317.66H612.047V315.34C612.047 308.38 608.277 301.13 598.707 301.13C589.427 301.13 584.787 308.09 584.787 316.5C584.787 324.91 589.427 331.87 598.997 331.87ZM598.707 304.61C603.115 304.61 606.827 307.51 606.827 314.18H590.123C590.761 307.452 594.241 304.61 598.707 304.61ZM615.5 331H620.43L636.09 308.38V331H641.02V302H636.09L620.43 324.62V302H615.5V331ZM618.98 293.3C618.98 295.91 620.43 300.26 628.26 300.26C636.09 300.26 637.54 295.91 637.54 293.3H632.9C632.9 295.62 631.624 297.36 628.26 297.36C624.896 297.36 623.62 295.62 623.62 293.3H618.98ZM658.696 331.87C667.106 331.87 671.456 326.65 671.746 320.85H666.526C665.946 325.49 663.336 328.39 658.696 328.39C653.766 328.39 649.706 324.91 649.706 316.5C649.706 308.09 653.766 304.61 658.696 304.61C663.336 304.61 665.946 307.51 666.526 312.15H671.746C671.456 306.35 667.106 301.13 658.696 301.13C649.126 301.13 644.486 308.09 644.486 316.5C644.486 324.91 649.126 331.87 658.696 331.87ZM675.199 302V331H680.129L695.789 308.38V331H700.719V302H695.789L680.129 324.62V302H675.199ZM709.695 331V322.59L715.031 317.022L724.195 331H729.995L718.221 313.658L729.415 302H723.905L709.695 317.08V302H704.765V331H709.695ZM743.947 312.15C743.947 323.75 750.037 331.87 761.637 331.87C772.077 331.87 773.933 322.474 774.107 321.546V331H777.877V310.41H758.737V314.18H773.237C773.237 319.4 771.207 328.39 761.637 328.39C754.387 328.39 749.167 322.88 749.167 312.15C749.167 301.42 754.387 295.91 761.637 295.91C768.017 295.91 772.367 299.39 772.947 305.77H777.877C777.297 299.39 773.527 292.43 761.637 292.43C750.037 292.43 743.947 300.55 743.947 312.15ZM786.84 331V318.82C786.84 310.12 790.9 306.35 796.7 306.35H798.44V301.71H796.99C789.798 301.71 787.072 309.018 786.84 309.772V302H781.91V331H786.84ZM810.901 331.87C818.151 331.87 821.051 326.07 821.051 326.07V326.94C821.051 330.71 823.371 331.29 826.271 331.29C827.547 331.29 828.881 331 828.881 331V327.52C825.981 327.81 825.981 326.36 825.981 324.04V310.7C825.981 304.03 821.631 301.13 813.801 301.13C806.551 301.13 801.331 304.03 801.331 310.7H806.261C806.261 306.64 808.871 304.61 813.801 304.61C818.441 304.61 821.051 306.06 821.051 309.54C821.051 311.86 820.471 314.18 813.801 314.18C803.941 314.18 800.751 318.24 800.751 323.17C800.751 328.1 804.231 331.87 810.901 331.87ZM813.221 317.08C819.717 317.08 820.993 314.934 821.051 314.818V316.79C821.051 325.49 816.121 328.39 812.061 328.39C808.291 328.39 805.971 326.07 805.971 322.59C805.971 318.24 810.031 317.08 813.221 317.08ZM831.47 302V331H836.4V313.89C836.4 308.09 839.88 304.9 843.65 304.9C846.84 304.9 848.58 307.22 848.58 312.44V331H853.51V313.484C853.684 307.916 857.048 304.9 860.76 304.9C864.24 304.9 865.98 307.22 865.98 312.44V331H870.91V311.28C870.91 304.378 867.72 301.13 862.21 301.13C856.352 301.13 853.336 306.988 853.104 307.51C852.06 303.218 849.218 301.13 845.1 301.13C839.3 301.13 836.4 307.22 836.4 307.22V302H831.47ZM874.97 302V331H879.9V313.89C879.9 308.09 883.38 304.9 887.15 304.9C890.34 304.9 892.08 307.22 892.08 312.44V331H897.01V313.484C897.184 307.916 900.548 304.9 904.26 304.9C907.74 304.9 909.48 307.22 909.48 312.44V331H914.41V311.28C914.41 304.378 911.22 301.13 905.71 301.13C899.852 301.13 896.836 306.988 896.604 307.51C895.56 303.218 892.718 301.13 888.6 301.13C882.8 301.13 879.9 307.22 879.9 307.22V302H874.97ZM927.75 331.87C935 331.87 937.9 326.07 937.9 326.07V326.94C937.9 330.71 940.22 331.29 943.12 331.29C944.396 331.29 945.73 331 945.73 331V327.52C942.83 327.81 942.83 326.36 942.83 324.04V310.7C942.83 304.03 938.48 301.13 930.65 301.13C923.4 301.13 918.18 304.03 918.18 310.7H923.11C923.11 306.64 925.72 304.61 930.65 304.61C935.29 304.61 937.9 306.06 937.9 309.54C937.9 311.86 937.32 314.18 930.65 314.18C920.79 314.18 917.6 318.24 917.6 323.17C917.6 328.1 921.08 331.87 927.75 331.87ZM930.07 317.08C936.566 317.08 937.842 314.934 937.9 314.818V316.79C937.9 325.49 932.97 328.39 928.91 328.39C925.14 328.39 922.82 326.07 922.82 322.59C922.82 318.24 926.88 317.08 930.07 317.08ZM947.16 305.77H952.96V323.75C952.96 329.26 954.41 331.58 959.34 331.58C962.24 331.58 964.27 331 964.27 331V327.578C964.27 327.578 961.95 327.81 960.79 327.81C958.76 327.81 957.89 326.94 957.89 323.75V305.77H964.27V302H957.89V293.3H952.96V302H947.16V305.77ZM967.465 302V331H972.395V302H967.465ZM972.395 298.81V293.3H967.465V298.81H972.395ZM976.47 293.3V331H981.4V322.59L986.736 317.022L995.9 331H1001.7L989.926 313.658L1001.12 302H995.61L981.4 317.08V293.3H976.47ZM1013.9 331.87C1021.15 331.87 1024.05 326.07 1024.05 326.07V326.94C1024.05 330.71 1026.37 331.29 1029.27 331.29C1030.55 331.29 1031.88 331 1031.88 331V327.52C1028.98 327.81 1028.98 326.36 1028.98 324.04V310.7C1028.98 304.03 1024.63 301.13 1016.8 301.13C1009.55 301.13 1004.33 304.03 1004.33 310.7H1009.26C1009.26 306.64 1011.87 304.61 1016.8 304.61C1021.44 304.61 1024.05 306.06 1024.05 309.54C1024.05 311.86 1023.47 314.18 1016.8 314.18C1006.94 314.18 1003.75 318.24 1003.75 323.17C1003.75 328.1 1007.23 331.87 1013.9 331.87ZM1016.22 317.08C1022.72 317.08 1023.99 314.934 1024.05 314.818V316.79C1024.05 325.49 1019.12 328.39 1015.06 328.39C1011.29 328.39 1008.97 326.07 1008.97 322.59C1008.97 318.24 1013.03 317.08 1016.22 317.08ZM1045.21 318.53C1045.21 324.91 1049.85 331.87 1060.29 331.87C1069.86 331.87 1075.66 326.36 1075.66 318.24C1075.66 310.99 1070.73 305.19 1061.16 305.19C1054.49 305.19 1050.78 308.67 1050.78 308.67L1052.46 297.07H1073.92V293.3H1048.69L1046.08 311.57L1049.85 312.73C1049.85 312.73 1053.33 308.67 1060.29 308.67C1066.09 308.67 1070.44 311.86 1070.44 318.53C1070.44 325.2 1066.09 328.39 1060.29 328.39C1052.75 328.39 1050.14 323.17 1050.14 318.53H1045.21ZM1106.72 302.29C1106.72 297.36 1102.66 292.43 1093.38 292.43C1084.1 292.43 1080.04 297.36 1080.04 302.29C1080.04 308.96 1086.71 310.7 1086.71 310.7V310.99C1086.71 310.99 1078.01 312.44 1078.01 320.56C1078.01 327.23 1083.52 331.87 1093.38 331.87C1103.24 331.87 1108.75 327.23 1108.75 320.56C1108.75 312.44 1100.05 310.99 1100.05 310.99V310.7C1100.05 310.7 1106.72 308.96 1106.72 302.29ZM1084.97 302.58C1084.97 298.81 1087.87 295.91 1093.38 295.91C1098.89 295.91 1101.79 298.81 1101.79 302.58C1101.79 306.35 1098.89 309.25 1093.38 309.25C1087.87 309.25 1084.97 306.35 1084.97 302.58ZM1083.23 320.734C1083.23 316.5 1086.42 313.02 1093.38 313.02C1100.34 313.02 1103.53 316.5 1103.53 320.734C1103.53 324.91 1100.34 328.39 1093.38 328.39C1086.42 328.39 1083.23 324.91 1083.23 320.734Z" fill="#313131"/>
</g>
<g filter="url(#filter5_d_1127_37110)">
<path d="M613.783 919.4H597.783L604.183 922.92V938.28H578.903V922.92L585.303 919.4H569.303L575.703 922.92V957.48L569.303 961H585.303L578.903 957.48V940.52H604.183V957.48L597.783 961H613.783L607.383 957.48V922.92L613.783 919.4ZM626.88 935.976C628.352 935.4 630.016 935.08 631.68 935.08C637.76 935.08 643.52 939.24 643.52 947.24C643.52 956.52 637.248 960.04 631.808 960.04C626.688 960.04 623.232 957.672 623.232 954.92C623.232 954.28 624.128 953.192 624.128 952.104C624.128 950.888 623.488 949.608 621.824 949.608C620.224 949.608 619.2 950.888 619.2 953C619.2 956.968 623.808 961.96 631.808 961.96C641.088 961.96 647.04 955.24 647.04 947.24C647.04 938.408 641.408 933.288 632.64 933.16L647.04 919.4H619.84V927.08L622.4 922.6H640.896L626.88 935.976ZM673.595 922.92L685.499 961.96L697.403 926.824L709.691 961.96L721.595 922.92L728.315 919.4H713.531L719.291 922.6L710.011 953.256L697.851 918.44L686.139 953.064L676.859 922.6L682.619 919.4H666.875L673.595 922.92ZM731.173 935.4V958.12L726.053 961H739.493L734.373 958.12V939.88C737.253 936.68 739.685 934.696 740.965 934.696C743.077 934.696 742.757 936.68 744.997 936.68C746.533 936.68 747.493 935.592 747.493 934.248C747.493 932.328 746.213 931.24 743.973 931.24C742.181 931.24 740.645 931.944 738.661 933.864L734.373 937.96V931.24L726.053 933.8L731.173 935.4ZM776.95 943.72C776.95 936.68 774.07 931.24 765.942 931.24C758.326 931.24 751.99 937.256 751.99 946.6C751.99 955.24 757.11 961.96 765.43 961.96C775.03 961.96 776.95 952.68 776.95 952.68C776.95 952.68 774.07 959.08 767.03 959.08C760.63 959.08 755.19 955.112 755.19 945.576C755.19 944.936 755.19 944.36 755.254 943.72H776.95ZM765.814 932.776C770.294 932.776 773.43 935.72 773.43 938.92C773.43 941.48 771.19 941.8 767.99 941.8H755.574C756.982 935.656 761.782 932.776 765.814 932.776ZM809.253 939.112C811.173 936.744 815.013 933.672 818.853 933.672C823.013 933.672 824.933 936.68 824.933 941.8V958.12L819.812 961H833.253L828.133 958.12V940.84C828.133 933.8 824.613 931.24 820.133 931.24C815.653 931.24 811.493 934.76 808.933 937.576C807.909 932.968 804.837 931.24 801.253 931.24C796.773 931.24 792.613 934.76 790.373 937.192V931.24L782.053 933.8L787.173 935.4V958.12L782.053 961H795.493L790.373 958.12V939.112C792.293 936.744 796.133 933.672 799.973 933.672C804.133 933.672 806.053 936.68 806.053 941.8V958.12L800.933 961H814.373L809.253 958.12V939.112ZM861.388 943.72C861.388 936.68 858.508 931.24 850.38 931.24C842.764 931.24 836.428 937.256 836.428 946.6C836.428 955.24 841.548 961.96 849.868 961.96C859.468 961.96 861.388 952.68 861.388 952.68C861.388 952.68 858.508 959.08 851.468 959.08C845.068 959.08 839.628 955.112 839.628 945.576C839.628 944.936 839.628 944.36 839.692 943.72H861.388ZM850.252 932.776C854.732 932.776 857.868 935.72 857.868 938.92C857.868 941.48 855.628 941.8 852.428 941.8H840.012C841.42 935.656 846.22 932.776 850.252 932.776ZM871.61 935.4V958.12L866.49 961H879.93L874.81 958.12V939.112C876.73 936.744 880.57 933.672 884.41 933.672C888.57 933.672 890.49 936.68 890.49 941.8V958.12L885.37 961H898.81L893.69 958.12V940.84C893.69 933.8 890.17 931.24 885.69 931.24C881.21 931.24 877.05 934.76 874.81 937.192V931.24L866.49 933.8L871.61 935.4ZM910.566 945.576C906.214 947.112 902.31 950.12 902.31 954.6C902.31 959.144 905.19 961.96 909.606 961.96C912.166 961.96 914.342 960.68 915.814 959.72L920.55 956.584C920.55 959.976 920.55 961.96 922.79 961.96C925.03 961.96 929.51 956.52 929.51 956.52L923.75 958.76V940.52C923.75 935.08 921.446 931.24 914.47 931.24C910.63 931.24 903.398 934.76 903.398 938.728C903.398 940.584 904.486 941.416 905.702 941.416C906.918 941.416 908.006 940.712 908.006 938.728C908.006 937.832 907.878 937.192 907.878 936.68C907.878 935.08 909.926 933.16 913.83 933.16C917.35 933.16 920.55 934.824 920.55 940.52V942.12L910.566 945.576ZM916.582 957.16C914.726 958.376 913.126 959.592 910.63 959.592C907.43 959.592 905.702 957.032 905.702 954.28C905.702 950.76 907.302 948.584 912.87 946.6L920.55 943.912V954.536L916.582 957.16ZM976.774 915.24C976.134 915.368 948.678 919.72 948.678 944.68C948.678 954.92 954.758 961.96 964.038 961.96C970.758 961.96 977.158 956.2 977.158 948.2C977.158 939.24 970.438 934.76 964.038 934.76C957.446 934.76 953.99 938.856 952.326 941.928C954.054 920.552 975.686 915.496 976.774 915.24ZM962.758 936.68C969.478 936.68 973.638 942.44 973.638 949.8C973.638 956.52 969.158 960.04 964.358 960.04C959.878 960.04 952.198 956.52 952.198 944.744C953.286 941.736 956.166 936.68 962.758 936.68ZM999.215 957.48L992.815 961H1008.82L1002.42 957.48V948.2H1012.02V945.96H1002.42V918.44L980.015 948.2H999.215V957.48ZM984.175 945.96L999.215 925.992V945.96H984.175Z" fill="#313131"/>
</g>
<g filter="url(#filter6_d_1127_37110)">
<path d="M649.634 991.2H636.634L641.834 994.06V1006.54H621.294V994.06L626.494 991.2H613.494L618.694 994.06V1022.14L613.494 1025H626.494L621.294 1022.14V1008.36H641.834V1022.14L636.634 1025H649.634L644.434 1022.14V994.06L649.634 991.2ZM663.656 1032.8H674.576L670.416 1030.46V1025H677.696V1023.44H670.416V1000.82L652.476 1025H667.816V1030.46L663.656 1032.8ZM667.816 1023.44H655.596L667.816 1006.96V1023.44ZM697.724 994.06L707.396 1025.78L717.068 997.232L727.052 1025.78L736.724 994.06L742.184 991.2H730.172L734.852 993.8L727.312 1018.71L717.432 990.42L707.916 1018.55L700.376 993.8L705.056 991.2H692.264L697.724 994.06ZM744.505 1004.2V1022.66L740.345 1025H751.265L747.105 1022.66V1007.84C749.445 1005.24 751.421 1003.63 752.461 1003.63C754.177 1003.63 753.917 1005.24 755.737 1005.24C756.985 1005.24 757.765 1004.36 757.765 1003.26C757.765 1001.7 756.725 1000.82 754.905 1000.82C753.449 1000.82 752.201 1001.39 750.589 1002.95L747.105 1006.28V1000.82L740.345 1002.9L744.505 1004.2ZM781.7 1010.96C781.7 1005.24 779.36 1000.82 772.756 1000.82C766.568 1000.82 761.42 1005.71 761.42 1013.3C761.42 1020.32 765.58 1025.78 772.34 1025.78C780.14 1025.78 781.7 1018.24 781.7 1018.24C781.7 1018.24 779.36 1023.44 773.64 1023.44C768.44 1023.44 764.02 1020.22 764.02 1012.47C764.02 1011.95 764.02 1011.48 764.072 1010.96H781.7ZM772.652 1002.07C776.292 1002.07 778.84 1004.46 778.84 1007.06C778.84 1009.14 777.02 1009.4 774.42 1009.4H764.332C765.476 1004.41 769.376 1002.07 772.652 1002.07ZM807.945 1007.22C809.505 1005.29 812.625 1002.8 815.745 1002.8C819.125 1002.8 820.685 1005.24 820.685 1009.4V1022.66L816.525 1025H827.445L823.285 1022.66V1008.62C823.285 1002.9 820.425 1000.82 816.785 1000.82C813.145 1000.82 809.765 1003.68 807.685 1005.97C806.853 1002.22 804.357 1000.82 801.445 1000.82C797.805 1000.82 794.425 1003.68 792.605 1005.66V1000.82L785.845 1002.9L790.005 1004.2V1022.66L785.845 1025H796.765L792.605 1022.66V1007.22C794.165 1005.29 797.285 1002.8 800.405 1002.8C803.785 1002.8 805.345 1005.24 805.345 1009.4V1022.66L801.185 1025H812.105L807.945 1022.66V1007.22ZM850.305 1010.96C850.305 1005.24 847.965 1000.82 841.361 1000.82C835.173 1000.82 830.025 1005.71 830.025 1013.3C830.025 1020.32 834.185 1025.78 840.945 1025.78C848.745 1025.78 850.305 1018.24 850.305 1018.24C850.305 1018.24 847.965 1023.44 842.245 1023.44C837.045 1023.44 832.625 1020.22 832.625 1012.47C832.625 1011.95 832.625 1011.48 832.677 1010.96H850.305ZM841.257 1002.07C844.897 1002.07 847.445 1004.46 847.445 1007.06C847.445 1009.14 845.625 1009.4 843.025 1009.4H832.937C834.081 1004.41 837.981 1002.07 841.257 1002.07ZM858.611 1004.2V1022.66L854.451 1025H865.371L861.211 1022.66V1007.22C862.771 1005.29 865.891 1002.8 869.011 1002.8C872.391 1002.8 873.951 1005.24 873.951 1009.4V1022.66L869.791 1025H880.711L876.551 1022.66V1008.62C876.551 1002.9 873.691 1000.82 870.051 1000.82C866.411 1000.82 863.031 1003.68 861.211 1005.66V1000.82L854.451 1002.9L858.611 1004.2ZM890.263 1012.47C886.727 1013.72 883.555 1016.16 883.555 1019.8C883.555 1023.49 885.895 1025.78 889.483 1025.78C891.563 1025.78 893.331 1024.74 894.527 1023.96L898.375 1021.41C898.375 1024.17 898.375 1025.78 900.195 1025.78C902.015 1025.78 905.655 1021.36 905.655 1021.36L900.975 1023.18V1008.36C900.975 1003.94 899.103 1000.82 893.435 1000.82C890.315 1000.82 884.439 1003.68 884.439 1006.9C884.439 1008.41 885.323 1009.09 886.311 1009.09C887.299 1009.09 888.183 1008.52 888.183 1006.9C888.183 1006.18 888.079 1005.66 888.079 1005.24C888.079 1003.94 889.743 1002.38 892.915 1002.38C895.775 1002.38 898.375 1003.73 898.375 1008.36V1009.66L890.263 1012.47ZM895.151 1021.88C893.643 1022.87 892.343 1023.86 890.315 1023.86C887.715 1023.86 886.311 1021.78 886.311 1019.54C886.311 1016.68 887.611 1014.91 892.135 1013.3L898.375 1011.12V1019.75L895.151 1021.88ZM940.676 1004.2L942.34 1001.6H924.556L922.528 1018.5C924.088 1016.42 927.728 1013.3 931.368 1013.3C935.788 1013.3 940.208 1016.16 940.208 1022.66C940.208 1030.2 935.268 1032.28 931.368 1032.28C927.728 1032.28 925.024 1030.56 925.024 1028.22C925.024 1027.7 925.492 1027.18 925.492 1026.3C925.492 1025.31 925.128 1024.17 923.672 1024.17C922.372 1024.17 921.748 1025.21 921.748 1026.56C921.748 1029.94 925.388 1033.58 931.368 1033.58C938.388 1033.58 943.068 1029.16 943.068 1022.66C943.068 1015.9 938.648 1011.74 931.888 1011.74C927.728 1011.74 924.556 1014.76 924.556 1014.76L925.856 1004.2H940.676ZM966.988 1018.76L964.908 1022.4H952.116L958.304 1017.15C963.556 1012.68 965.948 1011.22 965.948 1007.58C965.948 1005.24 964.128 1000.82 956.848 1000.82C950.348 1000.82 947.748 1004.72 947.748 1007.84C947.748 1009.92 949.048 1010.86 950.244 1010.86C951.336 1010.86 952.116 1010.02 952.116 1009.09C952.116 1007.27 950.348 1007.58 950.348 1006.28C950.348 1003.94 952.948 1002.12 956.848 1002.12C960.748 1002.12 963.348 1004.46 963.348 1007.58C963.348 1010.7 961.268 1012.62 956.796 1016.42L946.708 1025H966.988V1018.76Z" fill="#313131"/>
</g>
<g filter="url(#filter7_d_1127_37110)">
<path d="M525.891 374.8V406H529.971V391.6H546.771V406H550.851V374.8H546.771V388.48H529.971V374.8H525.891ZM570.283 398.08V406H574.363V398.08H579.883V394.96H574.363V374.8H569.563L553.483 395.44V398.08H570.283ZM570.283 378.736V394.96H557.659L570.283 378.736ZM591.891 406H606.771C612.291 406 616.611 403.36 616.611 397.12C616.611 390.88 612.291 388.48 606.771 388.48H595.971V377.92H615.171V374.8H591.891V406ZM595.971 402.88V391.6H606.531C609.891 391.6 612.291 393.52 612.291 397.12C612.291 400.96 609.891 402.88 606.531 402.88H595.971ZM631.015 406.72C637.015 406.72 640.615 403.36 641.575 398.8H637.495C636.775 402.16 634.135 403.84 631.015 403.84C627.127 403.84 623.863 401.248 623.575 394.96H641.815V393.04C641.815 387.28 638.695 381.28 630.775 381.28C623.095 381.28 619.255 387.04 619.255 394C619.255 400.96 623.095 406.72 631.015 406.72ZM630.775 384.16C634.423 384.16 637.495 386.56 637.495 392.08H623.671C624.199 386.512 627.079 384.16 630.775 384.16ZM644.672 406H648.752L661.712 387.28V406H665.792V382H661.712L648.752 400.72V382H644.672V406ZM647.552 374.8C647.552 376.96 648.752 380.56 655.232 380.56C661.712 380.56 662.912 376.96 662.912 374.8H659.072C659.072 376.72 658.016 378.16 655.232 378.16C652.448 378.16 651.392 376.72 651.392 374.8H647.552ZM680.421 406.72C687.381 406.72 690.981 402.4 691.221 397.6H686.901C686.421 401.44 684.261 403.84 680.421 403.84C676.341 403.84 672.981 400.96 672.981 394C672.981 387.04 676.341 384.16 680.421 384.16C684.261 384.16 686.421 386.56 686.901 390.4H691.221C690.981 385.6 687.381 381.28 680.421 381.28C672.501 381.28 668.661 387.04 668.661 394C668.661 400.96 672.501 406.72 680.421 406.72ZM694.078 382V406H698.158L711.118 387.28V406H715.198V382H711.118L698.158 400.72V382H694.078ZM722.627 406V399.04L727.043 394.432L734.627 406H739.427L729.683 391.648L738.947 382H734.387L722.627 394.48V382H718.547V406H722.627ZM750.973 390.4C750.973 400 756.013 406.72 765.613 406.72C774.253 406.72 775.789 398.944 775.933 398.176V406H779.053V388.96H763.213V392.08H775.213C775.213 396.4 773.533 403.84 765.613 403.84C759.613 403.84 755.293 399.28 755.293 390.4C755.293 381.52 759.613 376.96 765.613 376.96C770.893 376.96 774.493 379.84 774.973 385.12H779.053C778.573 379.84 775.453 374.08 765.613 374.08C756.013 374.08 750.973 380.8 750.973 390.4ZM786.471 406V395.92C786.471 388.72 789.831 385.6 794.631 385.6H796.071V381.76H794.871C788.919 381.76 786.663 387.808 786.471 388.432V382H782.391V406H786.471ZM806.383 406.72C812.383 406.72 814.783 401.92 814.783 401.92V402.64C814.783 405.76 816.703 406.24 819.103 406.24C820.159 406.24 821.263 406 821.263 406V403.12C818.863 403.36 818.863 402.16 818.863 400.24V389.2C818.863 383.68 815.263 381.28 808.783 381.28C802.783 381.28 798.463 383.68 798.463 389.2H802.543C802.543 385.84 804.703 384.16 808.783 384.16C812.623 384.16 814.783 385.36 814.783 388.24C814.783 390.16 814.303 392.08 808.783 392.08C800.623 392.08 797.983 395.44 797.983 399.52C797.983 403.6 800.863 406.72 806.383 406.72ZM808.303 394.48C813.679 394.48 814.735 392.704 814.783 392.608V394.24C814.783 401.44 810.703 403.84 807.343 403.84C804.223 403.84 802.303 401.92 802.303 399.04C802.303 395.44 805.663 394.48 808.303 394.48ZM823.407 382V406H827.487V391.84C827.487 387.04 830.367 384.4 833.487 384.4C836.127 384.4 837.567 386.32 837.567 390.64V406H841.647V391.504C841.791 386.896 844.575 384.4 847.647 384.4C850.527 384.4 851.967 386.32 851.967 390.64V406H856.047V389.68C856.047 383.968 853.407 381.28 848.847 381.28C843.999 381.28 841.503 386.128 841.311 386.56C840.447 383.008 838.095 381.28 834.687 381.28C829.887 381.28 827.487 386.32 827.487 386.32V382H823.407ZM859.407 382V406H863.487V391.84C863.487 387.04 866.367 384.4 869.487 384.4C872.127 384.4 873.567 386.32 873.567 390.64V406H877.647V391.504C877.791 386.896 880.575 384.4 883.647 384.4C886.527 384.4 887.967 386.32 887.967 390.64V406H892.047V389.68C892.047 383.968 889.407 381.28 884.847 381.28C879.999 381.28 877.503 386.128 877.311 386.56C876.447 383.008 874.095 381.28 870.687 381.28C865.887 381.28 863.487 386.32 863.487 386.32V382H859.407ZM903.087 406.72C909.087 406.72 911.487 401.92 911.487 401.92V402.64C911.487 405.76 913.407 406.24 915.807 406.24C916.863 406.24 917.967 406 917.967 406V403.12C915.567 403.36 915.567 402.16 915.567 400.24V389.2C915.567 383.68 911.967 381.28 905.487 381.28C899.487 381.28 895.167 383.68 895.167 389.2H899.247C899.247 385.84 901.407 384.16 905.487 384.16C909.327 384.16 911.487 385.36 911.487 388.24C911.487 390.16 911.007 392.08 905.487 392.08C897.327 392.08 894.687 395.44 894.687 399.52C894.687 403.6 897.567 406.72 903.087 406.72ZM905.007 394.48C910.383 394.48 911.439 392.704 911.487 392.608V394.24C911.487 401.44 907.407 403.84 904.047 403.84C900.927 403.84 899.007 401.92 899.007 399.04C899.007 395.44 902.367 394.48 905.007 394.48ZM919.15 385.12H923.95V400C923.95 404.56 925.15 406.48 929.23 406.48C931.63 406.48 933.31 406 933.31 406V403.168C933.31 403.168 931.39 403.36 930.43 403.36C928.75 403.36 928.03 402.64 928.03 400V385.12H933.31V382H928.03V374.8H923.95V382H919.15V385.12ZM935.953 382V406H940.033V382H935.953ZM940.033 379.36V374.8H935.953V379.36H940.033ZM943.407 374.8V406H947.487V399.04L951.903 394.432L959.487 406H964.287L954.543 391.648L963.807 382H959.247L947.487 394.48V374.8H943.407ZM974.383 406.72C980.383 406.72 982.783 401.92 982.783 401.92V402.64C982.783 405.76 984.703 406.24 987.103 406.24C988.159 406.24 989.263 406 989.263 406V403.12C986.863 403.36 986.863 402.16 986.863 400.24V389.2C986.863 383.68 983.263 381.28 976.783 381.28C970.783 381.28 966.463 383.68 966.463 389.2H970.543C970.543 385.84 972.703 384.16 976.783 384.16C980.623 384.16 982.783 385.36 982.783 388.24C982.783 390.16 982.303 392.08 976.783 392.08C968.623 392.08 965.983 395.44 965.983 399.52C965.983 403.6 968.863 406.72 974.383 406.72ZM976.303 394.48C981.679 394.48 982.735 392.704 982.783 392.608V394.24C982.783 401.44 978.703 403.84 975.343 403.84C972.223 403.84 970.303 401.92 970.303 399.04C970.303 395.44 973.663 394.48 976.303 394.48ZM1017.1 398.08V406H1021.18V398.08H1026.7V394.96H1021.18V374.8H1016.38L1000.3 395.44V398.08H1017.1ZM1017.1 378.736V394.96H1004.47L1017.1 378.736ZM1052.13 382.24C1052.13 378.16 1048.77 374.08 1041.09 374.08C1033.41 374.08 1030.05 378.16 1030.05 382.24C1030.05 387.76 1035.57 389.2 1035.57 389.2V389.44C1035.57 389.44 1028.37 390.64 1028.37 397.36C1028.37 402.88 1032.93 406.72 1041.09 406.72C1049.25 406.72 1053.81 402.88 1053.81 397.36C1053.81 390.64 1046.61 389.44 1046.61 389.44V389.2C1046.61 389.2 1052.13 387.76 1052.13 382.24ZM1034.13 382.48C1034.13 379.36 1036.53 376.96 1041.09 376.96C1045.65 376.96 1048.05 379.36 1048.05 382.48C1048.05 385.6 1045.65 388 1041.09 388C1036.53 388 1034.13 385.6 1034.13 382.48ZM1032.69 397.504C1032.69 394 1035.33 391.12 1041.09 391.12C1046.85 391.12 1049.49 394 1049.49 397.504C1049.49 400.96 1046.85 403.84 1041.09 403.84C1035.33 403.84 1032.69 400.96 1032.69 397.504Z" fill="#313131"/>
</g>
<g filter="url(#filter8_d_1127_37110)">
<path d="M614.714 447.2V468H617.434V458.4H628.634V468H631.354V447.2H628.634V456.32H617.434V447.2H614.714ZM633.109 461.12C633.109 464.64 635.669 468.48 641.429 468.48C646.709 468.48 649.909 465.44 649.909 460.96C649.909 456.96 647.189 453.76 641.909 453.76C638.229 453.76 636.181 455.68 636.181 455.68L637.109 449.28H648.949V447.2H635.029L633.589 457.28L635.669 457.92C635.669 457.92 637.589 455.68 641.429 455.68C644.629 455.68 647.029 457.44 647.029 461.12C647.029 464.8 644.629 466.56 641.429 466.56C637.269 466.56 635.829 463.68 635.829 461.12H633.109ZM658.089 468H668.009C671.689 468 674.569 466.24 674.569 462.08C674.569 457.92 671.689 456.32 668.009 456.32H660.809V449.28H673.609V447.2H658.089V468ZM660.809 465.92V458.4H667.849C670.089 458.4 671.689 459.68 671.689 462.08C671.689 464.64 670.089 465.92 667.849 465.92H660.809ZM684.171 468.48C688.171 468.48 690.571 466.24 691.211 463.2H688.491C688.011 465.44 686.251 466.56 684.171 466.56C681.579 466.56 679.403 464.832 679.211 460.64H691.371V459.36C691.371 455.52 689.291 451.52 684.011 451.52C678.891 451.52 676.331 455.36 676.331 460C676.331 464.64 678.891 468.48 684.171 468.48ZM684.011 453.44C686.443 453.44 688.491 455.04 688.491 458.72H679.275C679.627 455.008 681.547 453.44 684.011 453.44ZM693.276 468H695.996L704.636 455.52V468H707.356V452H704.636L695.996 464.48V452H693.276V468ZM695.196 447.2C695.196 448.64 695.996 451.04 700.316 451.04C704.636 451.04 705.436 448.64 705.436 447.2H702.876C702.876 448.48 702.172 449.44 700.316 449.44C698.46 449.44 697.756 448.48 697.756 447.2H695.196ZM717.109 468.48C721.749 468.48 724.149 465.6 724.309 462.4H721.429C721.109 464.96 719.669 466.56 717.109 466.56C714.389 466.56 712.149 464.64 712.149 460C712.149 455.36 714.389 453.44 717.109 453.44C719.669 453.44 721.109 455.04 721.429 457.6H724.309C724.149 454.4 721.749 451.52 717.109 451.52C711.829 451.52 709.269 455.36 709.269 460C709.269 464.64 711.829 468.48 717.109 468.48ZM726.214 452V468H728.934L737.574 455.52V468H740.294V452H737.574L728.934 464.48V452H726.214ZM745.246 468V463.36L748.19 460.288L753.246 468H756.446L749.95 458.432L756.126 452H753.086L745.246 460.32V452H742.526V468H745.246ZM764.144 457.6C764.144 464 767.504 468.48 773.904 468.48C779.664 468.48 780.688 463.296 780.784 462.784V468H782.864V456.64H772.304V458.72H780.304C780.304 461.6 779.184 466.56 773.904 466.56C769.904 466.56 767.024 463.52 767.024 457.6C767.024 451.68 769.904 448.64 773.904 448.64C777.424 448.64 779.824 450.56 780.144 454.08H782.864C782.544 450.56 780.464 446.72 773.904 446.72C767.504 446.72 764.144 451.2 764.144 457.6ZM787.809 468V461.28C787.809 456.48 790.049 454.4 793.249 454.4H794.209V451.84H793.409C789.441 451.84 787.937 455.872 787.809 456.288V452H785.089V468H787.809ZM801.084 468.48C805.084 468.48 806.684 465.28 806.684 465.28V465.76C806.684 467.84 807.964 468.16 809.564 468.16C810.268 468.16 811.004 468 811.004 468V466.08C809.404 466.24 809.404 465.44 809.404 464.16V456.8C809.404 453.12 807.004 451.52 802.684 451.52C798.684 451.52 795.804 453.12 795.804 456.8H798.524C798.524 454.56 799.964 453.44 802.684 453.44C805.244 453.44 806.684 454.24 806.684 456.16C806.684 457.44 806.364 458.72 802.684 458.72C797.244 458.72 795.484 460.96 795.484 463.68C795.484 466.4 797.404 468.48 801.084 468.48ZM802.364 460.32C805.948 460.32 806.652 459.136 806.684 459.072V460.16C806.684 464.96 803.964 466.56 801.724 466.56C799.644 466.56 798.364 465.28 798.364 463.36C798.364 460.96 800.604 460.32 802.364 460.32ZM812.433 452V468H815.153V458.56C815.153 455.36 817.073 453.6 819.153 453.6C820.913 453.6 821.873 454.88 821.873 457.76V468H824.593V458.336C824.689 455.264 826.545 453.6 828.593 453.6C830.513 453.6 831.473 454.88 831.473 457.76V468H834.193V457.12C834.193 453.312 832.433 451.52 829.392 451.52C826.161 451.52 824.497 454.752 824.369 455.04C823.793 452.672 822.225 451.52 819.953 451.52C816.753 451.52 815.153 454.88 815.153 454.88V452H812.433ZM836.433 452V468H839.153V458.56C839.153 455.36 841.073 453.6 843.153 453.6C844.913 453.6 845.873 454.88 845.873 457.76V468H848.593V458.336C848.689 455.264 850.545 453.6 852.593 453.6C854.513 453.6 855.473 454.88 855.473 457.76V468H858.193V457.12C858.193 453.312 856.433 451.52 853.392 451.52C850.161 451.52 848.497 454.752 848.369 455.04C847.793 452.672 846.225 451.52 843.953 451.52C840.753 451.52 839.153 454.88 839.153 454.88V452H836.433ZM865.553 468.48C869.553 468.48 871.153 465.28 871.153 465.28V465.76C871.153 467.84 872.433 468.16 874.033 468.16C874.737 468.16 875.472 468 875.472 468V466.08C873.873 466.24 873.873 465.44 873.873 464.16V456.8C873.873 453.12 871.473 451.52 867.153 451.52C863.153 451.52 860.273 453.12 860.273 456.8H862.993C862.993 454.56 864.433 453.44 867.153 453.44C869.713 453.44 871.153 454.24 871.153 456.16C871.153 457.44 870.833 458.72 867.153 458.72C861.713 458.72 859.953 460.96 859.953 463.68C859.953 466.4 861.873 468.48 865.553 468.48ZM866.833 460.32C870.417 460.32 871.121 459.136 871.153 459.072V460.16C871.153 464.96 868.433 466.56 866.193 466.56C864.113 466.56 862.833 465.28 862.833 463.36C862.833 460.96 865.073 460.32 866.833 460.32ZM876.261 454.08H879.461V464C879.461 467.04 880.261 468.32 882.981 468.32C884.581 468.32 885.701 468 885.701 468V466.112C885.701 466.112 884.421 466.24 883.781 466.24C882.661 466.24 882.181 465.76 882.181 464V454.08H885.701V452H882.181V447.2H879.461V452H876.261V454.08ZM887.464 452V468H890.184V452H887.464ZM890.184 450.24V447.2H887.464V450.24H890.184ZM892.433 447.2V468H895.153V463.36L898.097 460.288L903.153 468H906.353L899.857 458.432L906.033 452H902.993L895.153 460.32V447.2H892.433ZM913.084 468.48C917.084 468.48 918.684 465.28 918.684 465.28V465.76C918.684 467.84 919.964 468.16 921.564 468.16C922.268 468.16 923.004 468 923.004 468V466.08C921.404 466.24 921.404 465.44 921.404 464.16V456.8C921.404 453.12 919.004 451.52 914.684 451.52C910.684 451.52 907.804 453.12 907.804 456.8H910.524C910.524 454.56 911.964 453.44 914.684 453.44C917.244 453.44 918.684 454.24 918.684 456.16C918.684 457.44 918.364 458.72 914.684 458.72C909.244 458.72 907.484 460.96 907.484 463.68C907.484 466.4 909.404 468.48 913.084 468.48ZM914.364 460.32C917.948 460.32 918.652 459.136 918.684 459.072V460.16C918.684 464.96 915.964 466.56 913.724 466.56C911.644 466.56 910.364 465.28 910.364 463.36C910.364 460.96 912.604 460.32 914.364 460.32ZM930.679 447.2V449.28H943.799L936.119 455.36V457.12H938.519C941.719 457.12 944.279 458.24 944.279 461.6C944.279 464 942.839 466.56 938.679 466.56C934.519 466.56 933.079 463.68 933.079 461.12H930.359C930.359 464.64 932.599 468.48 938.679 468.48C944.439 468.48 947.159 465.28 947.159 461.6C947.159 457.312 943.927 455.392 939.319 455.232L946.839 449.28V447.2H930.679ZM964.613 468V465.92H951.653C958.053 461.12 964.613 458.08 964.613 453.12C964.613 448.64 960.773 446.72 956.613 446.72C952.133 446.72 948.613 448.96 948.613 454.08H951.333C951.333 450.72 953.253 448.64 956.613 448.64C960.293 448.64 961.733 450.72 961.733 453.12C961.733 457.28 956.453 459.84 948.613 465.92V468H964.613Z" fill="#313131"/>
</g>
<g filter="url(#filter9_d_1127_37110)">
<path d="M708.236 1081.96L706.316 1083.04H711.356L709.436 1081.96V1076.46C709.508 1076.63 710.396 1078.36 712.796 1078.36C714.956 1078.36 717.476 1076.68 717.476 1072.6C717.476 1068.16 715.196 1066.84 713.036 1066.84C710.516 1066.84 709.436 1069.12 709.436 1069.12V1066.84L706.316 1067.8L708.236 1068.4V1081.96ZM709.436 1070.32C709.436 1070.32 710.276 1067.56 712.676 1067.56C714.5 1067.56 716.156 1069 716.156 1072.6C716.156 1075.96 714.5 1077.64 712.676 1077.64C710.636 1077.64 709.436 1076.08 709.436 1074.28V1070.32ZM727.2 1063.72L731.664 1078.36L736.128 1065.18L740.736 1078.36L745.2 1063.72L747.72 1062.4H742.176L744.336 1063.6L740.856 1075.1L736.296 1062.04L731.904 1075.02L728.424 1063.6L730.584 1062.4H724.68L727.2 1063.72ZM748.791 1068.4V1076.92L746.871 1078H751.911L749.991 1076.92V1070.08C751.071 1068.88 751.983 1068.14 752.463 1068.14C753.255 1068.14 753.135 1068.88 753.975 1068.88C754.551 1068.88 754.911 1068.47 754.911 1067.97C754.911 1067.25 754.431 1066.84 753.591 1066.84C752.919 1066.84 752.343 1067.1 751.599 1067.82L749.991 1069.36V1066.84L746.871 1067.8L748.791 1068.4ZM765.958 1071.52C765.958 1068.88 764.878 1066.84 761.83 1066.84C758.974 1066.84 756.598 1069.1 756.598 1072.6C756.598 1075.84 758.518 1078.36 761.638 1078.36C765.238 1078.36 765.958 1074.88 765.958 1074.88C765.958 1074.88 764.878 1077.28 762.238 1077.28C759.838 1077.28 757.798 1075.79 757.798 1072.22C757.798 1071.98 757.798 1071.76 757.822 1071.52H765.958ZM761.782 1067.42C763.462 1067.42 764.638 1068.52 764.638 1069.72C764.638 1070.68 763.798 1070.8 762.598 1070.8H757.942C758.47 1068.5 760.27 1067.42 761.782 1067.42ZM778.071 1069.79C778.791 1068.9 780.231 1067.75 781.671 1067.75C783.231 1067.75 783.951 1068.88 783.951 1070.8V1076.92L782.031 1078H787.071L785.151 1076.92V1070.44C785.151 1067.8 783.831 1066.84 782.151 1066.84C780.471 1066.84 778.911 1068.16 777.951 1069.22C777.567 1067.49 776.415 1066.84 775.071 1066.84C773.391 1066.84 771.831 1068.16 770.991 1069.07V1066.84L767.871 1067.8L769.791 1068.4V1076.92L767.871 1078H772.911L770.991 1076.92V1069.79C771.711 1068.9 773.151 1067.75 774.591 1067.75C776.151 1067.75 776.871 1068.88 776.871 1070.8V1076.92L774.951 1078H779.991L778.071 1076.92V1069.79ZM797.622 1071.52C797.622 1068.88 796.542 1066.84 793.494 1066.84C790.638 1066.84 788.262 1069.1 788.262 1072.6C788.262 1075.84 790.182 1078.36 793.302 1078.36C796.902 1078.36 797.622 1074.88 797.622 1074.88C797.622 1074.88 796.542 1077.28 793.902 1077.28C791.502 1077.28 789.462 1075.79 789.462 1072.22C789.462 1071.98 789.462 1071.76 789.486 1071.52H797.622ZM793.446 1067.42C795.126 1067.42 796.302 1068.52 796.302 1069.72C796.302 1070.68 795.462 1070.8 794.262 1070.8H789.606C790.134 1068.5 791.934 1067.42 793.446 1067.42ZM801.455 1068.4V1076.92L799.535 1078H804.575L802.655 1076.92V1069.79C803.375 1068.9 804.815 1067.75 806.255 1067.75C807.815 1067.75 808.535 1068.88 808.535 1070.8V1076.92L806.615 1078H811.655L809.735 1076.92V1070.44C809.735 1067.8 808.415 1066.84 806.735 1066.84C805.055 1066.84 803.495 1068.16 802.655 1069.07V1066.84L799.535 1067.8L801.455 1068.4ZM816.064 1072.22C814.432 1072.79 812.968 1073.92 812.968 1075.6C812.968 1077.3 814.048 1078.36 815.704 1078.36C816.664 1078.36 817.48 1077.88 818.032 1077.52L819.808 1076.34C819.808 1077.62 819.808 1078.36 820.648 1078.36C821.488 1078.36 823.168 1076.32 823.168 1076.32L821.008 1077.16V1070.32C821.008 1068.28 820.144 1066.84 817.528 1066.84C816.088 1066.84 813.376 1068.16 813.376 1069.65C813.376 1070.34 813.784 1070.66 814.24 1070.66C814.696 1070.66 815.104 1070.39 815.104 1069.65C815.104 1069.31 815.056 1069.07 815.056 1068.88C815.056 1068.28 815.824 1067.56 817.288 1067.56C818.608 1067.56 819.808 1068.18 819.808 1070.32V1070.92L816.064 1072.22ZM818.32 1076.56C817.624 1077.02 817.024 1077.47 816.088 1077.47C814.888 1077.47 814.24 1076.51 814.24 1075.48C814.24 1074.16 814.84 1073.34 816.928 1072.6L819.808 1071.59V1075.58L818.32 1076.56ZM839.476 1075.12L838.516 1076.8H832.612L835.468 1074.38C837.892 1072.31 838.996 1071.64 838.996 1069.96C838.996 1068.88 838.156 1066.84 834.796 1066.84C831.796 1066.84 830.596 1068.64 830.596 1070.08C830.596 1071.04 831.196 1071.47 831.748 1071.47C832.252 1071.47 832.612 1071.09 832.612 1070.66C832.612 1069.82 831.796 1069.96 831.796 1069.36C831.796 1068.28 832.996 1067.44 834.796 1067.44C836.596 1067.44 837.796 1068.52 837.796 1069.96C837.796 1071.4 836.836 1072.29 834.772 1074.04L830.116 1078H839.476V1075.12ZM846.195 1081.6H851.235L849.315 1080.52V1078H852.675V1077.28H849.315V1066.84L841.035 1078H848.115V1080.52L846.195 1081.6ZM848.115 1077.28H842.475L848.115 1069.67V1077.28Z" fill="#313131"/>
</g>
<defs>
<filter id="filter0_d_1127_37110" x="49.1377" y="0.762195" width="1485.41" height="115.375" filterUnits="userSpaceOnUse" color-interpolation-filters="sRGB">
<feFlood flood-opacity="0" result="BackgroundImageFix"/>
<feColorMatrix in="SourceAlpha" type="matrix" values="0 0 0 0 0 0 0 0 0 0 0 0 0 0 0 0 0 0 127 0" result="hardAlpha"/>
<feOffset/>
<feGaussianBlur stdDeviation="6.06373"/>
<feComposite in2="hardAlpha" operator="out"/>
<feColorMatrix type="matrix" values="0 0 0 0 0.972549 0 0 0 0 0.964706 0 0 0 0 0.941176 0 0 0 1 0"/>
<feBlend mode="normal" in2="BackgroundImageFix" result="effect1_dropShadow_1127_37110"/>
<feBlend mode="normal" in="SourceGraphic" in2="effect1_dropShadow_1127_37110" result="shape"/>
</filter>
<filter id="filter1_d_1127_37110" x="234.862" y="655.333" width="1111.33" height="161.535" filterUnits="userSpaceOnUse" color-interpolation-filters="sRGB">
<feFlood flood-opacity="0" result="BackgroundImageFix"/>
<feColorMatrix in="SourceAlpha" type="matrix" values="0 0 0 0 0 0 0 0 0 0 0 0 0 0 0 0 0 0 127 0" result="hardAlpha"/>
<feOffset/>
<feGaussianBlur stdDeviation="6.06373"/>
<feComposite in2="hardAlpha" operator="out"/>
<feColorMatrix type="matrix" values="0 0 0 0 0.972549 0 0 0 0 0.964706 0 0 0 0 0.941176 0 0 0 1 0"/>
<feBlend mode="normal" in2="BackgroundImageFix" result="effect1_dropShadow_1127_37110"/>
<feBlend mode="normal" in="SourceGraphic" in2="effect1_dropShadow_1127_37110" result="shape"/>
</filter>
<filter id="filter2_d_1127_37110" x="252.139" y="152.033" width="1077.69" height="89.5352" filterUnits="userSpaceOnUse" color-interpolation-filters="sRGB">
<feFlood flood-opacity="0" result="BackgroundImageFix"/>
<feColorMatrix in="SourceAlpha" type="matrix" values="0 0 0 0 0 0 0 0 0 0 0 0 0 0 0 0 0 0 127 0" result="hardAlpha"/>
<feOffset/>
<feGaussianBlur stdDeviation="6.06373"/>
<feComposite in2="hardAlpha" operator="out"/>
<feColorMatrix type="matrix" values="0 0 0 0 0.972549 0 0 0 0 0.964706 0 0 0 0 0.941176 0 0 0 1 0"/>
<feBlend mode="normal" in2="BackgroundImageFix" result="effect1_dropShadow_1127_37110"/>
<feBlend mode="normal" in="SourceGraphic" in2="effect1_dropShadow_1127_37110" result="shape"/>
</filter>
<filter id="filter3_d_1127_37110" x="418.494" y="806.373" width="744.032" height="92.2549" filterUnits="userSpaceOnUse" color-interpolation-filters="sRGB">
<feFlood flood-opacity="0" result="BackgroundImageFix"/>
<feColorMatrix in="SourceAlpha" type="matrix" values="0 0 0 0 0 0 0 0 0 0 0 0 0 0 0 0 0 0 127 0" result="hardAlpha"/>
<feOffset/>
<feGaussianBlur stdDeviation="6.06373"/>
<feComposite in2="hardAlpha" operator="out"/>
<feColorMatrix type="matrix" values="0 0 0 0 0.972549 0 0 0 0 0.964706 0 0 0 0 0.941176 0 0 0 1 0"/>
<feBlend mode="normal" in2="BackgroundImageFix" result="effect1_dropShadow_1127_37110"/>
<feBlend mode="normal" in="SourceGraphic" in2="effect1_dropShadow_1127_37110" result="shape"/>
</filter>
<filter id="filter4_d_1127_37110" x="460.978" y="280.302" width="659.897" height="63.6953" filterUnits="userSpaceOnUse" color-interpolation-filters="sRGB">
<feFlood flood-opacity="0" result="BackgroundImageFix"/>
<feColorMatrix in="SourceAlpha" type="matrix" values="0 0 0 0 0 0 0 0 0 0 0 0 0 0 0 0 0 0 127 0" result="hardAlpha"/>
<feOffset/>
<feGaussianBlur stdDeviation="6.06373"/>
<feComposite in2="hardAlpha" operator="out"/>
<feColorMatrix type="matrix" values="0 0 0 0 0.972549 0 0 0 0 0.964706 0 0 0 0 0.941176 0 0 0 1 0"/>
<feBlend mode="normal" in2="BackgroundImageFix" result="effect1_dropShadow_1127_37110"/>
<feBlend mode="normal" in="SourceGraphic" in2="effect1_dropShadow_1127_37110" result="shape"/>
</filter>
<filter id="filter5_d_1127_37110" x="557.175" y="903.113" width="466.967" height="70.9746" filterUnits="userSpaceOnUse" color-interpolation-filters="sRGB">
<feFlood flood-opacity="0" result="BackgroundImageFix"/>
<feColorMatrix in="SourceAlpha" type="matrix" values="0 0 0 0 0 0 0 0 0 0 0 0 0 0 0 0 0 0 127 0" result="hardAlpha"/>
<feOffset/>
<feGaussianBlur stdDeviation="6.06373"/>
<feComposite in2="hardAlpha" operator="out"/>
<feColorMatrix type="matrix" values="0 0 0 0 0.972549 0 0 0 0 0.964706 0 0 0 0 0.941176 0 0 0 1 0"/>
<feBlend mode="normal" in2="BackgroundImageFix" result="effect1_dropShadow_1127_37110"/>
<feBlend mode="normal" in="SourceGraphic" in2="effect1_dropShadow_1127_37110" result="shape"/>
</filter>
<filter id="filter6_d_1127_37110" x="601.366" y="978.292" width="377.75" height="67.4151" filterUnits="userSpaceOnUse" color-interpolation-filters="sRGB">
<feFlood flood-opacity="0" result="BackgroundImageFix"/>
<feColorMatrix in="SourceAlpha" type="matrix" values="0 0 0 0 0 0 0 0 0 0 0 0 0 0 0 0 0 0 127 0" result="hardAlpha"/>
<feOffset/>
<feGaussianBlur stdDeviation="6.06373"/>
<feComposite in2="hardAlpha" operator="out"/>
<feColorMatrix type="matrix" values="0 0 0 0 0.972549 0 0 0 0 0.964706 0 0 0 0 0.941176 0 0 0 1 0"/>
<feBlend mode="normal" in2="BackgroundImageFix" result="effect1_dropShadow_1127_37110"/>
<feBlend mode="normal" in="SourceGraphic" in2="effect1_dropShadow_1127_37110" result="shape"/>
</filter>
<filter id="filter7_d_1127_37110" x="513.764" y="361.953" width="552.178" height="56.8946" filterUnits="userSpaceOnUse" color-interpolation-filters="sRGB">
<feFlood flood-opacity="0" result="BackgroundImageFix"/>
<feColorMatrix in="SourceAlpha" type="matrix" values="0 0 0 0 0 0 0 0 0 0 0 0 0 0 0 0 0 0 127 0" result="hardAlpha"/>
<feOffset/>
<feGaussianBlur stdDeviation="6.06373"/>
<feComposite in2="hardAlpha" operator="out"/>
<feColorMatrix type="matrix" values="0 0 0 0 0.972549 0 0 0 0 0.964706 0 0 0 0 0.941176 0 0 0 1 0"/>
<feBlend mode="normal" in2="BackgroundImageFix" result="effect1_dropShadow_1127_37110"/>
<feBlend mode="normal" in="SourceGraphic" in2="effect1_dropShadow_1127_37110" result="shape"/>
</filter>
<filter id="filter8_d_1127_37110" x="602.586" y="434.592" width="374.153" height="46.0156" filterUnits="userSpaceOnUse" color-interpolation-filters="sRGB">
<feFlood flood-opacity="0" result="BackgroundImageFix"/>
<feColorMatrix in="SourceAlpha" type="matrix" values="0 0 0 0 0 0 0 0 0 0 0 0 0 0 0 0 0 0 127 0" result="hardAlpha"/>
<feOffset/>
<feGaussianBlur stdDeviation="6.06373"/>
<feComposite in2="hardAlpha" operator="out"/>
<feColorMatrix type="matrix" values="0 0 0 0 0.972549 0 0 0 0 0.964706 0 0 0 0 0.941176 0 0 0 1 0"/>
<feBlend mode="normal" in2="BackgroundImageFix" result="effect1_dropShadow_1127_37110"/>
<feBlend mode="normal" in="SourceGraphic" in2="effect1_dropShadow_1127_37110" result="shape"/>
</filter>
<filter id="filter9_d_1127_37110" x="694.188" y="1049.91" width="170.614" height="45.2549" filterUnits="userSpaceOnUse" color-interpolation-filters="sRGB">
<feFlood flood-opacity="0" result="BackgroundImageFix"/>
<feColorMatrix in="SourceAlpha" type="matrix" values="0 0 0 0 0 0 0 0 0 0 0 0 0 0 0 0 0 0 127 0" result="hardAlpha"/>
<feOffset/>
<feGaussianBlur stdDeviation="6.06373"/>
<feComposite in2="hardAlpha" operator="out"/>
<feColorMatrix type="matrix" values="0 0 0 0 0.972549 0 0 0 0 0.964706 0 0 0 0 0.941176 0 0 0 1 0"/>
<feBlend mode="normal" in2="BackgroundImageFix" result="effect1_dropShadow_1127_37110"/>
<feBlend mode="normal" in="SourceGraphic" in2="effect1_dropShadow_1127_37110" result="shape"/>
</filter>
</defs>
</svg>
