<svg width="270" height="473" viewBox="0 0 270 473" fill="none" xmlns="http://www.w3.org/2000/svg">
<g filter="url(#filter0_i_438_4173)">
<rect width="270" height="472.5" rx="16.875" fill="#313131"/>
</g>
<path d="M135.844 109.688L143.533 196.586L193.641 125.174L156.85 204.275L235.951 167.484L164.539 217.592L251.438 225.281L164.539 232.97L235.951 283.078L156.85 246.288L193.641 325.388L143.533 253.977L135.844 340.875L128.155 253.977L78.0469 325.388L114.837 246.288L35.7366 283.078L107.148 232.97L20.25 225.281L107.148 217.592L35.7366 167.484L114.837 204.275L78.0469 125.174L128.155 196.586L135.844 109.688Z" fill="#F5F6EE"/>
<path d="M126.86 40.1875C126.86 47.2075 130.235 52.675 136.31 52.675C142.385 52.675 145.76 47.2075 145.76 40.1875C145.76 33.1675 142.385 27.7 136.31 27.7C130.235 27.7 126.86 33.1675 126.86 40.1875ZM129.391 40.1875C129.391 34.2812 131.754 29.8937 136.31 29.8937C140.866 29.8937 143.229 34.2812 143.229 40.1875C143.229 46.0937 140.866 50.4812 136.31 50.4812C131.754 50.4812 129.391 46.0937 129.391 40.1875Z" fill="#F5F6EE"/>
<path d="M105.291 421.9H94.8281V425.275C94.8281 431.012 93.6468 434.556 91.7906 436.581H89.0906V442.656H91.1156V438.438H106.472V442.656H108.497V436.581H105.291V421.9ZM102.928 423.756V436.581H94.1531C95.8406 434.219 96.8531 430.675 96.8531 425.95V423.756H102.928ZM112.466 442.488V444.513H114.491C116.887 444.513 117.596 444.006 118.71 441.306L126.81 421.9H124.279L118.575 435.805L112.095 421.9H109.496L117.461 438.471L116.55 440.699C115.909 442.218 115.402 442.488 113.816 442.488H112.466ZM132.04 430.169C132.04 426.895 134.166 423.25 138.115 423.25C142.064 423.25 143.853 426.895 143.853 430.169C143.853 433.442 142.064 437.087 138.115 437.087C134.166 437.087 132.04 433.442 132.04 430.169ZM132.04 437.087L131.703 434.894H132.04C132.04 434.894 133.559 439.113 138.453 439.113C143.043 439.113 146.215 435.096 146.215 430.169C146.215 425.241 143.211 421.225 138.284 421.225C133.559 421.225 132.04 425.444 132.04 425.444H131.703V421.9H129.678V444.513H132.04V437.087ZM162.6 438.438H167.156V437.256H166.65C165.468 437.256 164.962 437.087 164.962 434.894V430.169C164.962 425.241 164.118 421.225 157.2 421.225C152.981 421.225 149.437 423.587 149.437 427.806H151.8C151.8 425.309 153.487 423.25 157.2 423.25C161.587 423.25 162.566 425.579 162.6 428.177C160.271 428.346 149.943 429.055 149.943 435.062C149.943 437.425 151.462 439.113 154.668 439.113C158.516 439.113 161.553 435.872 162.6 434.556V438.438ZM162.6 432.7C161.486 434.084 158.381 437.087 155.343 437.087C153.318 437.087 152.306 436.412 152.306 434.894C152.306 430.877 160.473 430.236 162.6 430.034V432.7ZM181.318 436.075C181.318 438.1 181.824 438.438 183.68 438.438H185.199V436.581H184.355C183.68 436.581 183.68 436.244 183.68 435.569V433.037C183.68 429.899 181.318 429.899 181.318 429.899V429.561C181.318 429.561 183.511 429.561 183.511 426.119V424.6C183.511 423.587 183.68 423.419 184.524 423.419H185.03V421.562H183.849C181.824 421.562 181.318 422.237 181.318 424.6V425.444C181.318 427.401 181.351 429.055 178.719 429.055H172.711V421.9H170.349V438.438H172.711V430.911H178.719C181.351 430.911 181.318 432.261 181.318 433.881V436.075Z" fill="#F5F6EE"/>
<defs>
<filter id="filter0_i_438_4173" x="0" y="0" width="270" height="476.5" filterUnits="userSpaceOnUse" color-interpolation-filters="sRGB">
<feFlood flood-opacity="0" result="BackgroundImageFix"/>
<feBlend mode="normal" in="SourceGraphic" in2="BackgroundImageFix" result="shape"/>
<feColorMatrix in="SourceAlpha" type="matrix" values="0 0 0 0 0 0 0 0 0 0 0 0 0 0 0 0 0 0 127 0" result="hardAlpha"/>
<feOffset dy="4"/>
<feGaussianBlur stdDeviation="31.5"/>
<feComposite in2="hardAlpha" operator="arithmetic" k2="-1" k3="1"/>
<feColorMatrix type="matrix" values="0 0 0 0 1 0 0 0 0 0.545098 0 0 0 0 0.92549 0 0 0 0.6 0"/>
<feBlend mode="normal" in2="shape" result="effect1_innerShadow_438_4173"/>
</filter>
</defs>
</svg>
