<svg width="37" height="38" viewBox="0 0 37 38" fill="none" xmlns="http://www.w3.org/2000/svg">
<g filter="url(#filter0_d_976_5880)">
<path d="M18.8235 4.05751L20.2916 10.5567C20.5852 11.8565 22.0768 12.4743 23.2035 11.7629L28.8372 8.20531C28.9308 8.14618 29.0028 8.14093 29.0566 8.14897C29.1192 8.15832 29.1892 8.1916 29.2488 8.25122C29.3084 8.31084 29.3417 8.3808 29.351 8.4434C29.3591 8.49725 29.3538 8.56918 29.2947 8.66282L25.7371 14.2965C25.0257 15.4232 25.6435 16.9148 26.9433 17.2084L33.4425 18.6765C33.5505 18.7009 33.6051 18.748 33.6375 18.7918C33.6751 18.8427 33.7011 18.9157 33.7011 19C33.7011 19.0843 33.6751 19.1573 33.6375 19.2082C33.6051 19.252 33.5505 19.2991 33.4425 19.3235L26.9433 20.7916C25.6435 21.0852 25.0257 22.5768 25.7371 23.7035L29.2947 29.3372C29.3538 29.4308 29.3591 29.5028 29.351 29.5566C29.3417 29.6192 29.3084 29.6892 29.2488 29.7488C29.1892 29.8084 29.1192 29.8417 29.0566 29.851C29.0028 29.8591 28.9308 29.8538 28.8372 29.7947L23.2035 26.2371C22.0768 25.5257 20.5852 26.1435 20.2916 27.4433L18.8235 33.9425C18.7991 34.0505 18.752 34.1051 18.7082 34.1375C18.6573 34.1751 18.5843 34.2011 18.5 34.2011C18.4157 34.2011 18.3427 34.1751 18.2918 34.1375C18.248 34.1051 18.2009 34.0505 18.1765 33.9425L16.7084 27.4433C16.4148 26.1435 14.9232 25.5257 13.7965 26.2371L8.16282 29.7947C8.06918 29.8538 7.99725 29.8591 7.9434 29.851C7.8808 29.8417 7.81084 29.8084 7.75122 29.7488C7.69159 29.6892 7.65832 29.6192 7.64897 29.5566C7.64093 29.5028 7.64618 29.4308 7.70531 29.3372L11.2629 23.7035C11.9743 22.5768 11.3565 21.0852 10.0567 20.7916L3.55751 19.3235C3.44949 19.2991 3.39492 19.252 3.36252 19.2082C3.32487 19.1573 3.29893 19.0843 3.29893 19C3.29893 18.9157 3.32487 18.8427 3.36252 18.7918C3.39491 18.748 3.44948 18.7009 3.55751 18.6765L10.0567 17.2084C11.3565 16.9148 11.9743 15.4232 11.2629 14.2965L7.70531 8.66282C7.64618 8.56918 7.64093 8.49725 7.64897 8.4434C7.65832 8.3808 7.6916 8.31084 7.75122 8.25122C7.81084 8.19159 7.8808 8.15832 7.9434 8.14897C7.99725 8.14093 8.06918 8.14618 8.16282 8.20531L13.7965 11.7629C14.9232 12.4743 16.4148 11.8565 16.7084 10.5567L18.1765 4.05751C18.2009 3.94949 18.248 3.89492 18.2918 3.86252C18.3427 3.82487 18.4157 3.79893 18.5 3.79893C18.5843 3.79893 18.6573 3.82487 18.7082 3.86252C18.752 3.89491 18.7991 3.94948 18.8235 4.05751Z" stroke="#313131" stroke-width="1.59756"/>
</g>
<defs>
<filter id="filter0_d_976_5880" x="0.315781" y="0.815781" width="36.3684" height="36.3684" filterUnits="userSpaceOnUse" color-interpolation-filters="sRGB">
<feFlood flood-opacity="0" result="BackgroundImageFix"/>
<feColorMatrix in="SourceAlpha" type="matrix" values="0 0 0 0 0 0 0 0 0 0 0 0 0 0 0 0 0 0 127 0" result="hardAlpha"/>
<feOffset/>
<feGaussianBlur stdDeviation="1.09211"/>
<feColorMatrix type="matrix" values="0 0 0 0 0.972549 0 0 0 0 0.964706 0 0 0 0 0.941176 0 0 0 1 0"/>
<feBlend mode="normal" in2="BackgroundImageFix" result="effect1_dropShadow_976_5880"/>
<feBlend mode="normal" in="SourceGraphic" in2="effect1_dropShadow_976_5880" result="shape"/>
</filter>
</defs>
</svg>
