<svg width="914" height="652" viewBox="0 0 914 652" fill="none" xmlns="http://www.w3.org/2000/svg">
<g filter="url(#filter0_di_1048_6032)">
<rect x="7" y="3" width="900" height="638" rx="22" fill="#F5F6EE"/>
<rect x="7" y="3" width="900" height="638" rx="22" fill="url(#paint0_radial_1048_6032)"/>
</g>
<g filter="url(#filter1_di_1048_6032)">
<path fill-rule="evenodd" clip-rule="evenodd" d="M675 213C675 207.477 670.523 203 665 203L253 203C247.477 203 243 207.477 243 213V286C243 291.523 247.477 296 253 296H287C292.523 296 297 300.477 297 306V343C297 348.523 292.523 353 287 353H50C44.4772 353 40 357.477 40 363V431C40 436.523 44.4772 441 50 441H864C869.523 441 874 436.523 874 431V363C874 357.477 869.523 353 864 353H626C620.477 353 616 348.523 616 343V306C616 300.477 620.477 296 626 296H665C670.523 296 675 291.523 675 286V213Z" fill="#D9D9D9" fill-opacity="0.01"/>
</g>
<g filter="url(#filter2_d_1048_6032)">
<path d="M267.657 233V281H275.817L301.737 243.56V281H309.897V233H301.737L275.817 270.44V233H267.657ZM315.154 265.16C315.154 275.24 321.874 282.44 336.754 282.44C351.154 282.44 358.834 275.72 358.834 266.6C358.834 257 346.834 255.56 346.834 255.56V255.08C346.834 255.08 356.914 253.64 356.914 244.52C356.914 238.28 352.114 231.56 336.754 231.56C320.914 231.56 316.114 241.16 316.114 247.4H324.274C324.274 243.56 327.154 237.32 336.754 237.32C345.394 237.32 348.754 241.16 348.754 245.48C348.754 250.76 344.434 253.16 338.194 253.16H329.554V258.92H338.194C343.954 258.92 350.194 260.36 350.194 266.6C350.194 271.88 346.834 276.68 336.754 276.68C327.154 276.68 323.314 271.88 323.314 265.16H315.154ZM386.686 282.44C402.526 282.44 410.206 270.92 410.206 257.96C410.206 245.48 403.486 233.48 387.646 233.48C373.246 233.48 369.886 247.4 369.886 247.4H369.406C370.366 232.04 377.662 226.28 387.646 226.28H395.806C406.846 226.28 407.326 218.12 407.326 213.8H402.526C402.526 217.64 400.126 218.6 395.806 218.6H390.526C369.886 218.6 363.166 233.48 363.166 254.12C363.166 270.92 370.366 282.44 386.686 282.44ZM386.686 239.24C394.846 239.24 401.566 245 401.566 257.96C401.566 270.92 394.846 276.68 386.686 276.68C378.526 276.68 371.806 270.92 371.806 257.96C371.806 245.96 378.526 239.24 386.686 239.24ZM431.329 282.44C443.329 282.44 448.129 272.84 448.129 272.84V274.28C448.129 280.52 451.969 281.48 456.769 281.48C458.881 281.48 461.089 281 461.089 281V275.24C456.289 275.72 456.289 273.32 456.289 269.48V247.4C456.289 236.36 449.089 231.56 436.129 231.56C424.129 231.56 415.489 236.36 415.489 247.4H423.649C423.649 240.68 427.969 237.32 436.129 237.32C443.809 237.32 448.129 239.72 448.129 245.48C448.129 249.32 447.169 253.16 436.129 253.16C419.809 253.16 414.529 259.88 414.529 268.04C414.529 276.2 420.289 282.44 431.329 282.44ZM435.169 257.96C445.921 257.96 448.033 254.408 448.129 254.216V257.48C448.129 271.88 439.969 276.68 433.249 276.68C427.009 276.68 423.169 272.84 423.169 267.08C423.169 259.88 429.889 257.96 435.169 257.96ZM465.376 233V281H488.416C498.496 281 507.136 277.64 507.136 267.08C507.136 257 496.096 255.56 496.096 255.56V255.08C496.096 255.08 505.216 253.64 505.216 244.52C505.216 235.88 497.056 233 487.936 233H465.376ZM487.936 258.92C493.696 258.92 498.496 260.36 498.496 266.6C498.496 273.32 493.696 274.76 487.936 274.76H473.536V258.92H487.936ZM473.536 239.24H487.456C492.256 239.24 497.056 240.2 497.056 245.96C497.056 251.24 492.736 253.16 486.496 253.16H473.536V239.24ZM512.438 233V281H520.598L546.518 243.56V281H554.678V233H546.518L520.598 270.44V233H512.438ZM577.216 239.24V281H585.376V239.24H603.136V233H559.456V239.24H577.216ZM629.089 281C639.169 281 647.809 277.64 647.809 266.6C647.809 255.56 639.169 252.68 629.089 252.68H616.129V233H607.969V281H629.089ZM616.129 274.76V258.92H628.609C634.369 258.92 639.169 260.36 639.169 266.6C639.169 273.32 634.369 274.76 628.609 274.76H616.129ZM320.204 352H328.364V311.68L343.724 352H351.404L366.764 311.68V352H374.924V304H362.444L347.564 343.36L332.684 304H320.204V352ZM381.61 304V352H389.77L415.69 314.56V352H423.85V304H415.69L389.77 341.44V304H381.61ZM430.548 366.4H438.708V343.36C438.708 343.36 443.508 353.44 455.028 353.44C470.388 353.44 477.108 341.44 477.108 328C477.108 314.56 470.388 302.56 455.028 302.56C443.508 302.56 438.708 312.64 438.708 312.64V304H430.548V366.4ZM453.588 308.32C461.748 308.32 468.468 314.08 468.468 328C468.468 341.92 461.748 347.68 453.588 347.68C445.428 347.68 438.708 340.96 438.708 328C438.708 315.04 445.428 308.32 453.588 308.32ZM524.639 353.44C540.479 353.44 548.159 341.92 548.159 328C548.159 314.08 540.479 302.56 524.639 302.56C508.799 302.56 501.119 314.08 501.119 328C501.119 341.92 508.799 353.44 524.639 353.44ZM509.759 328C509.759 314.08 516.479 308.32 524.639 308.32C532.799 308.32 539.519 314.08 539.519 328C539.519 341.92 532.799 347.68 524.639 347.68C516.479 347.68 509.759 341.92 509.759 328ZM569.763 310.24V352H577.923V310.24H595.683V304H552.003V310.24H569.763ZM67.7856 423V400.92H92.7456V423H100.906V375H92.7456V395.16H67.7856V375H59.6256V423H67.7856ZM130.186 424.44C142.186 424.44 149.386 417.72 151.306 408.6H143.146C141.706 415.32 136.426 418.68 130.186 418.68C122.41 418.68 115.882 413.496 115.306 400.92H151.786V397.08C151.786 385.56 145.546 373.56 129.706 373.56C114.346 373.56 106.666 385.08 106.666 399C106.666 412.92 114.346 424.44 130.186 424.44ZM129.706 379.32C137.002 379.32 143.146 384.12 143.146 395.16H115.498C116.554 384.024 122.314 379.32 129.706 379.32ZM180.061 424.44C195.901 424.44 203.581 412.92 203.581 399C203.581 385.08 195.901 373.56 180.061 373.56C164.221 373.56 156.541 385.08 156.541 399C156.541 412.92 164.221 424.44 180.061 424.44ZM165.181 399C165.181 385.08 171.901 379.32 180.061 379.32C188.221 379.32 194.941 385.08 194.941 399C194.941 412.92 188.221 418.68 180.061 418.68C171.901 418.68 165.181 412.92 165.181 399ZM209.344 423H217.504V381.24H242.464V423H250.624V375H209.344V423ZM257.344 437.4H265.504V414.36C265.504 414.36 270.304 424.44 281.824 424.44C297.184 424.44 303.904 412.44 303.904 399C303.904 385.56 297.184 373.56 281.824 373.56C270.304 373.56 265.504 383.64 265.504 383.64V375H257.344V437.4ZM280.384 379.32C288.544 379.32 295.264 385.08 295.264 399C295.264 412.92 288.544 418.68 280.384 418.68C272.224 418.68 265.504 411.96 265.504 399C265.504 386.04 272.224 379.32 280.384 379.32ZM332.217 424.44C344.217 424.44 351.417 417.72 353.337 408.6H345.177C343.737 415.32 338.457 418.68 332.217 418.68C324.441 418.68 317.913 413.496 317.337 400.92H353.817V397.08C353.817 385.56 347.577 373.56 331.737 373.56C316.377 373.56 308.697 385.08 308.697 399C308.697 412.92 316.377 424.44 332.217 424.44ZM331.737 379.32C339.033 379.32 345.177 384.12 345.177 395.16H317.529C318.585 384.024 324.345 379.32 331.737 379.32ZM365.292 437.4V423H405.132V437.4H413.292V416.76H404.652V375H369.612V386.04C369.612 408.6 365.772 416.76 359.052 416.76H357.132V437.4H365.292ZM370.572 416.76C375.852 412.44 377.292 401.208 377.292 387V381.24H396.492V416.76H370.572ZM440.217 424.44C452.217 424.44 459.417 417.72 461.337 408.6H453.177C451.737 415.32 446.457 418.68 440.217 418.68C432.441 418.68 425.913 413.496 425.337 400.92H461.817V397.08C461.817 385.56 455.577 373.56 439.737 373.56C424.377 373.56 416.697 385.08 416.697 399C416.697 412.92 424.377 424.44 440.217 424.44ZM439.737 379.32C447.033 379.32 453.177 384.12 453.177 395.16H425.529C426.585 384.024 432.345 379.32 439.737 379.32ZM464.652 423C464.652 423 466.092 423.48 468.492 423.48C479.532 423.48 483.852 414.84 483.852 391.8V381.24H503.052V423H511.212V375H476.172V390.84C476.172 413.4 472.524 416.472 466.284 416.472C465.324 416.472 464.652 416.28 464.652 416.28V423ZM540.529 424.44C552.529 424.44 559.729 417.72 561.649 408.6H553.489C552.049 415.32 546.769 418.68 540.529 418.68C532.753 418.68 526.225 413.496 525.649 400.92H562.129V397.08C562.129 385.56 555.889 373.56 540.049 373.56C524.689 373.56 517.009 385.08 517.009 399C517.009 412.92 524.689 424.44 540.529 424.44ZM540.049 379.32C547.345 379.32 553.489 384.12 553.489 395.16H525.841C526.897 384.024 532.657 379.32 540.049 379.32ZM576.004 423V400.92H600.964V423H609.124V375H600.964V395.16H576.004V375H567.844V423H576.004ZM624.004 423V400.92H648.964V423H657.124V375H648.964V395.16H624.004V375H615.844V423H624.004ZM686.404 424.44C702.244 424.44 709.924 412.92 709.924 399C709.924 385.08 702.244 373.56 686.404 373.56C670.564 373.56 662.884 385.08 662.884 399C662.884 412.92 670.564 424.44 686.404 424.44ZM671.524 399C671.524 385.08 678.244 379.32 686.404 379.32C694.564 379.32 701.284 385.08 701.284 399C701.284 412.92 694.564 418.68 686.404 418.68C678.244 418.68 671.524 412.92 671.524 399ZM738.248 424.44C752.168 424.44 759.368 415.8 759.848 406.2H751.208C750.248 413.88 745.928 418.68 738.248 418.68C730.088 418.68 723.368 412.92 723.368 399C723.368 385.08 730.088 379.32 738.248 379.32C745.928 379.32 750.248 384.12 751.208 391.8H759.848C759.368 382.2 752.168 373.56 738.248 373.56C722.408 373.56 714.728 385.08 714.728 399C714.728 412.92 722.408 424.44 738.248 424.44ZM781.403 381.24V423H789.563V381.24H807.323V375H763.643V381.24H781.403ZM812.157 375V423H820.317L846.237 385.56V423H854.397V375H846.237L820.317 412.44V375H812.157Z" fill="black" fill-opacity="0.8" shape-rendering="crispEdges"/>
</g>
<defs>
<filter id="filter0_di_1048_6032" x="0.318182" y="0.360756" width="913.364" height="651.364" filterUnits="userSpaceOnUse" color-interpolation-filters="sRGB">
<feFlood flood-opacity="0" result="BackgroundImageFix"/>
<feColorMatrix in="SourceAlpha" type="matrix" values="0 0 0 0 0 0 0 0 0 0 0 0 0 0 0 0 0 0 127 0" result="hardAlpha"/>
<feOffset dy="4.04257"/>
<feGaussianBlur stdDeviation="3.34091"/>
<feComposite in2="hardAlpha" operator="out"/>
<feColorMatrix type="matrix" values="0 0 0 0 0 0 0 0 0 0 0 0 0 0 0 0 0 0 0.25 0"/>
<feBlend mode="normal" in2="BackgroundImageFix" result="effect1_dropShadow_1048_6032"/>
<feBlend mode="normal" in="SourceGraphic" in2="effect1_dropShadow_1048_6032" result="shape"/>
<feColorMatrix in="SourceAlpha" type="matrix" values="0 0 0 0 0 0 0 0 0 0 0 0 0 0 0 0 0 0 127 0" result="hardAlpha"/>
<feOffset dy="4.04257"/>
<feGaussianBlur stdDeviation="5.05322"/>
<feComposite in2="hardAlpha" operator="arithmetic" k2="-1" k3="1"/>
<feColorMatrix type="matrix" values="0 0 0 0 0.972549 0 0 0 0 0.964706 0 0 0 0 0.941176 0 0 0 1 0"/>
<feBlend mode="normal" in2="shape" result="effect2_innerShadow_1048_6032"/>
</filter>
<filter id="filter1_di_1048_6032" x="33.3182" y="200.361" width="847.364" height="251.364" filterUnits="userSpaceOnUse" color-interpolation-filters="sRGB">
<feFlood flood-opacity="0" result="BackgroundImageFix"/>
<feColorMatrix in="SourceAlpha" type="matrix" values="0 0 0 0 0 0 0 0 0 0 0 0 0 0 0 0 0 0 127 0" result="hardAlpha"/>
<feOffset dy="4.04257"/>
<feGaussianBlur stdDeviation="3.34091"/>
<feComposite in2="hardAlpha" operator="out"/>
<feColorMatrix type="matrix" values="0 0 0 0 0 0 0 0 0 0 0 0 0 0 0 0 0 0 0.25 0"/>
<feBlend mode="normal" in2="BackgroundImageFix" result="effect1_dropShadow_1048_6032"/>
<feBlend mode="normal" in="SourceGraphic" in2="effect1_dropShadow_1048_6032" result="shape"/>
<feColorMatrix in="SourceAlpha" type="matrix" values="0 0 0 0 0 0 0 0 0 0 0 0 0 0 0 0 0 0 127 0" result="hardAlpha"/>
<feOffset dy="4.04257"/>
<feGaussianBlur stdDeviation="5.05322"/>
<feComposite in2="hardAlpha" operator="arithmetic" k2="-1" k3="1"/>
<feColorMatrix type="matrix" values="0 0 0 0 0.972549 0 0 0 0 0.964706 0 0 0 0 0.941176 0 0 0 1 0"/>
<feBlend mode="normal" in2="shape" result="effect2_innerShadow_1048_6032"/>
</filter>
<filter id="filter2_d_1048_6032" x="47.498" y="201.672" width="819.026" height="247.855" filterUnits="userSpaceOnUse" color-interpolation-filters="sRGB">
<feFlood flood-opacity="0" result="BackgroundImageFix"/>
<feColorMatrix in="SourceAlpha" type="matrix" values="0 0 0 0 0 0 0 0 0 0 0 0 0 0 0 0 0 0 127 0" result="hardAlpha"/>
<feOffset/>
<feGaussianBlur stdDeviation="6.06373"/>
<feComposite in2="hardAlpha" operator="out"/>
<feColorMatrix type="matrix" values="0 0 0 0 0.972549 0 0 0 0 0.964706 0 0 0 0 0.941176 0 0 0 1 0"/>
<feBlend mode="normal" in2="BackgroundImageFix" result="effect1_dropShadow_1048_6032"/>
<feBlend mode="normal" in="SourceGraphic" in2="effect1_dropShadow_1048_6032" result="shape"/>
</filter>
<radialGradient id="paint0_radial_1048_6032" cx="0" cy="0" r="1" gradientUnits="userSpaceOnUse" gradientTransform="translate(483.459 2.55631) rotate(94.2294) scale(367.875 884.834)">
<stop stop-color="#313131"/>
<stop offset="0.776042" stop-color="#FF94E1" stop-opacity="0"/>
</radialGradient>
</defs>
</svg>
