<svg width="129" height="22" viewBox="0 0 129 22" fill="none" xmlns="http://www.w3.org/2000/svg">
<mask id="path-1-inside-1_1575_9711" fill="white">
<path d="M29.4392 20.8318H31.5096V15.0452C31.5096 15.0452 32.7275 17.5769 35.6504 17.5769C39.5476 17.5769 41.2526 14.563 41.2526 11.1875C41.2526 7.81194 39.5476 4.79808 35.6504 4.79808C32.7275 4.79808 31.5096 7.32972 31.5096 7.32972V5.15974H29.4392V20.8318ZM35.285 6.24473C37.3554 6.24473 39.0604 7.69139 39.0604 11.1875C39.0604 14.6836 37.3554 16.1302 35.285 16.1302C33.2146 16.1302 31.5096 14.4424 31.5096 11.1875C31.5096 7.9325 33.2146 6.24473 35.285 6.24473Z"/>
<path d="M46.6094 17.5769C49.6541 17.5769 50.872 15.1658 50.872 15.1658V15.5274C50.872 17.0947 51.8463 17.3358 53.0642 17.3358C53.6 17.3358 54.1603 17.2152 54.1603 17.2152V15.7685C52.9424 15.8891 52.9424 15.2863 52.9424 14.3219V8.77638C52.9424 6.00362 51.1156 4.79808 47.8273 4.79808C44.7826 4.79808 42.5904 6.00362 42.5904 8.77638H44.6608C44.6608 7.08861 45.7569 6.24473 47.8273 6.24473C49.7759 6.24473 50.872 6.84751 50.872 8.29416C50.872 9.2586 50.6284 10.223 47.8273 10.223C43.6865 10.223 42.3468 11.9108 42.3468 13.9602C42.3468 16.0097 43.8083 17.5769 46.6094 17.5769ZM47.5837 11.4286C50.3118 11.4286 50.8476 10.5365 50.872 10.4883V11.308C50.872 14.9247 48.8016 16.1302 47.0965 16.1302C45.5133 16.1302 44.539 15.1658 44.539 13.7191C44.539 11.9108 46.244 11.4286 47.5837 11.4286Z"/>
<path d="M60.9718 17.5769C64.5037 17.5769 66.3305 15.4069 66.4523 12.9958H64.2601C64.0165 14.9247 62.9204 16.1302 60.9718 16.1302C58.9014 16.1302 57.1964 14.6836 57.1964 11.1875C57.1964 7.69139 58.9014 6.24473 60.9718 6.24473C62.9204 6.24473 64.0165 7.45028 64.2601 9.37915H66.4523C66.3305 6.96806 64.5037 4.79808 60.9718 4.79808C56.9528 4.79808 55.0042 7.69139 55.0042 11.1875C55.0042 14.6836 56.9528 17.5769 60.9718 17.5769Z"/>
<path d="M73.3828 10.6088C73.3828 11.8947 73.2529 13.1565 72.9931 14.3942C72.7495 15.6319 72.3598 16.8053 71.8239 17.9144C71.3043 19.0396 70.6304 20.0764 69.8022 21.0247H67.8049C68.5519 20.0121 69.177 18.9351 69.6804 17.7939C70.1838 16.6687 70.5654 15.4953 70.8252 14.2737C71.0851 13.0521 71.215 11.8224 71.215 10.5847C71.215 9.31486 71.0851 8.06109 70.8252 6.82339C70.5654 5.5857 70.1838 4.38819 69.6804 3.23086C69.177 2.07354 68.5437 0.996586 67.7805 0H69.8022C70.6304 0.964437 71.3043 2.01728 71.8239 3.15853C72.3598 4.29978 72.7495 5.49729 72.9931 6.75106C73.2529 8.00483 73.3828 9.29075 73.3828 10.6088Z"/>
<path d="M80.0704 17.2152V13.7191L82.3113 11.4045L86.1598 17.2152H88.5956L83.651 10.006L88.352 5.15974H86.038L80.0704 11.4286V5.15974H78V17.2152H80.0704Z"/>
<path d="M89.0913 17.2152C89.0913 17.2152 89.4566 17.3358 90.0656 17.3358C92.8667 17.3358 93.9628 15.1658 93.9628 9.37915V6.72695H98.8343V17.2152H100.905V5.15974H92.0142V9.13804C92.0142 14.8041 91.0886 15.5757 89.5054 15.5757C89.2618 15.5757 89.0913 15.5274 89.0913 15.5274V17.2152Z"/>
<path d="M106.516 17.5769C109.561 17.5769 110.779 15.1658 110.779 15.1658V15.5274C110.779 17.0947 111.753 17.3358 112.971 17.3358C113.507 17.3358 114.067 17.2152 114.067 17.2152V15.7685C112.849 15.8891 112.849 15.2863 112.849 14.3219V8.77638C112.849 6.00362 111.023 4.79808 107.734 4.79808C104.69 4.79808 102.497 6.00362 102.497 8.77638H104.568C104.568 7.08861 105.664 6.24473 107.734 6.24473C109.683 6.24473 110.779 6.84751 110.779 8.29416C110.779 9.2586 110.535 10.223 107.734 10.223C103.594 10.223 102.254 11.9108 102.254 13.9602C102.254 16.0097 103.715 17.5769 106.516 17.5769ZM107.491 11.4286C110.219 11.4286 110.755 10.5365 110.779 10.4883V11.308C110.779 14.9247 108.709 16.1302 107.004 16.1302C105.42 16.1302 104.446 15.1658 104.446 13.7191C104.446 11.9108 106.151 11.4286 107.491 11.4286Z"/>
<path d="M116.616 20.8318V17.2152H126.725V20.8318H128.795V15.648H126.603V5.15974H117.712V7.9325C117.712 13.5986 116.738 15.648 115.033 15.648H114.546V20.8318H116.616ZM117.956 15.648C119.296 14.563 119.661 11.742 119.661 8.17361V6.72695H124.533V15.648H117.956Z"/>
<path d="M13.9122 7.51761L11.7603 1.7612C11.3686 0.71329 9.87127 0.713291 9.47954 1.7612L7.32768 7.51761C7.20452 7.84707 6.94211 8.10683 6.60928 8.22874L0.793975 10.3588C-0.264659 10.7466 -0.264658 12.2287 0.793975 12.6165L6.60928 14.7465C6.94211 14.8684 7.20452 15.1282 7.32768 15.4577L9.47954 21.2141C9.87127 22.262 11.3686 22.262 11.7603 21.2141L13.9122 15.4577C14.0353 15.1282 14.2977 14.8684 14.6306 14.7465L20.4459 12.6165C21.5045 12.2287 21.5045 10.7466 20.4459 10.3588L14.6306 8.22874C14.2977 8.10683 14.0353 7.84707 13.9122 7.51761Z"/>
</mask>
<path d="M29.4392 20.8318H31.5096V15.0452C31.5096 15.0452 32.7275 17.5769 35.6504 17.5769C39.5476 17.5769 41.2526 14.563 41.2526 11.1875C41.2526 7.81194 39.5476 4.79808 35.6504 4.79808C32.7275 4.79808 31.5096 7.32972 31.5096 7.32972V5.15974H29.4392V20.8318ZM35.285 6.24473C37.3554 6.24473 39.0604 7.69139 39.0604 11.1875C39.0604 14.6836 37.3554 16.1302 35.285 16.1302C33.2146 16.1302 31.5096 14.4424 31.5096 11.1875C31.5096 7.9325 33.2146 6.24473 35.285 6.24473Z" fill="#313131"/>
<path d="M46.6094 17.5769C49.6541 17.5769 50.872 15.1658 50.872 15.1658V15.5274C50.872 17.0947 51.8463 17.3358 53.0642 17.3358C53.6 17.3358 54.1603 17.2152 54.1603 17.2152V15.7685C52.9424 15.8891 52.9424 15.2863 52.9424 14.3219V8.77638C52.9424 6.00362 51.1156 4.79808 47.8273 4.79808C44.7826 4.79808 42.5904 6.00362 42.5904 8.77638H44.6608C44.6608 7.08861 45.7569 6.24473 47.8273 6.24473C49.7759 6.24473 50.872 6.84751 50.872 8.29416C50.872 9.2586 50.6284 10.223 47.8273 10.223C43.6865 10.223 42.3468 11.9108 42.3468 13.9602C42.3468 16.0097 43.8083 17.5769 46.6094 17.5769ZM47.5837 11.4286C50.3118 11.4286 50.8476 10.5365 50.872 10.4883V11.308C50.872 14.9247 48.8016 16.1302 47.0965 16.1302C45.5133 16.1302 44.539 15.1658 44.539 13.7191C44.539 11.9108 46.244 11.4286 47.5837 11.4286Z" fill="#313131"/>
<path d="M60.9718 17.5769C64.5037 17.5769 66.3305 15.4069 66.4523 12.9958H64.2601C64.0165 14.9247 62.9204 16.1302 60.9718 16.1302C58.9014 16.1302 57.1964 14.6836 57.1964 11.1875C57.1964 7.69139 58.9014 6.24473 60.9718 6.24473C62.9204 6.24473 64.0165 7.45028 64.2601 9.37915H66.4523C66.3305 6.96806 64.5037 4.79808 60.9718 4.79808C56.9528 4.79808 55.0042 7.69139 55.0042 11.1875C55.0042 14.6836 56.9528 17.5769 60.9718 17.5769Z" fill="#313131"/>
<path d="M73.3828 10.6088C73.3828 11.8947 73.2529 13.1565 72.9931 14.3942C72.7495 15.6319 72.3598 16.8053 71.8239 17.9144C71.3043 19.0396 70.6304 20.0764 69.8022 21.0247H67.8049C68.5519 20.0121 69.177 18.9351 69.6804 17.7939C70.1838 16.6687 70.5654 15.4953 70.8252 14.2737C71.0851 13.0521 71.215 11.8224 71.215 10.5847C71.215 9.31486 71.0851 8.06109 70.8252 6.82339C70.5654 5.5857 70.1838 4.38819 69.6804 3.23086C69.177 2.07354 68.5437 0.996586 67.7805 0H69.8022C70.6304 0.964437 71.3043 2.01728 71.8239 3.15853C72.3598 4.29978 72.7495 5.49729 72.9931 6.75106C73.2529 8.00483 73.3828 9.29075 73.3828 10.6088Z" fill="#313131"/>
<path d="M80.0704 17.2152V13.7191L82.3113 11.4045L86.1598 17.2152H88.5956L83.651 10.006L88.352 5.15974H86.038L80.0704 11.4286V5.15974H78V17.2152H80.0704Z" fill="#313131"/>
<path d="M89.0913 17.2152C89.0913 17.2152 89.4566 17.3358 90.0656 17.3358C92.8667 17.3358 93.9628 15.1658 93.9628 9.37915V6.72695H98.8343V17.2152H100.905V5.15974H92.0142V9.13804C92.0142 14.8041 91.0886 15.5757 89.5054 15.5757C89.2618 15.5757 89.0913 15.5274 89.0913 15.5274V17.2152Z" fill="#313131"/>
<path d="M106.516 17.5769C109.561 17.5769 110.779 15.1658 110.779 15.1658V15.5274C110.779 17.0947 111.753 17.3358 112.971 17.3358C113.507 17.3358 114.067 17.2152 114.067 17.2152V15.7685C112.849 15.8891 112.849 15.2863 112.849 14.3219V8.77638C112.849 6.00362 111.023 4.79808 107.734 4.79808C104.69 4.79808 102.497 6.00362 102.497 8.77638H104.568C104.568 7.08861 105.664 6.24473 107.734 6.24473C109.683 6.24473 110.779 6.84751 110.779 8.29416C110.779 9.2586 110.535 10.223 107.734 10.223C103.594 10.223 102.254 11.9108 102.254 13.9602C102.254 16.0097 103.715 17.5769 106.516 17.5769ZM107.491 11.4286C110.219 11.4286 110.755 10.5365 110.779 10.4883V11.308C110.779 14.9247 108.709 16.1302 107.004 16.1302C105.42 16.1302 104.446 15.1658 104.446 13.7191C104.446 11.9108 106.151 11.4286 107.491 11.4286Z" fill="#313131"/>
<path d="M116.616 20.8318V17.2152H126.725V20.8318H128.795V15.648H126.603V5.15974H117.712V7.9325C117.712 13.5986 116.738 15.648 115.033 15.648H114.546V20.8318H116.616ZM117.956 15.648C119.296 14.563 119.661 11.742 119.661 8.17361V6.72695H124.533V15.648H117.956Z" fill="#313131"/>
<path d="M29.4392 20.8318H31.5096V15.0452C31.5096 15.0452 32.7275 17.5769 35.6504 17.5769C39.5476 17.5769 41.2526 14.563 41.2526 11.1875C41.2526 7.81194 39.5476 4.79808 35.6504 4.79808C32.7275 4.79808 31.5096 7.32972 31.5096 7.32972V5.15974H29.4392V20.8318ZM35.285 6.24473C37.3554 6.24473 39.0604 7.69139 39.0604 11.1875C39.0604 14.6836 37.3554 16.1302 35.285 16.1302C33.2146 16.1302 31.5096 14.4424 31.5096 11.1875C31.5096 7.9325 33.2146 6.24473 35.285 6.24473Z" stroke="#313131" stroke-width="3.19512" mask="url(#path-1-inside-1_1575_9711)"/>
<path d="M46.6094 17.5769C49.6541 17.5769 50.872 15.1658 50.872 15.1658V15.5274C50.872 17.0947 51.8463 17.3358 53.0642 17.3358C53.6 17.3358 54.1603 17.2152 54.1603 17.2152V15.7685C52.9424 15.8891 52.9424 15.2863 52.9424 14.3219V8.77638C52.9424 6.00362 51.1156 4.79808 47.8273 4.79808C44.7826 4.79808 42.5904 6.00362 42.5904 8.77638H44.6608C44.6608 7.08861 45.7569 6.24473 47.8273 6.24473C49.7759 6.24473 50.872 6.84751 50.872 8.29416C50.872 9.2586 50.6284 10.223 47.8273 10.223C43.6865 10.223 42.3468 11.9108 42.3468 13.9602C42.3468 16.0097 43.8083 17.5769 46.6094 17.5769ZM47.5837 11.4286C50.3118 11.4286 50.8476 10.5365 50.872 10.4883V11.308C50.872 14.9247 48.8016 16.1302 47.0965 16.1302C45.5133 16.1302 44.539 15.1658 44.539 13.7191C44.539 11.9108 46.244 11.4286 47.5837 11.4286Z" stroke="#313131" stroke-width="3.19512" mask="url(#path-1-inside-1_1575_9711)"/>
<path d="M60.9718 17.5769C64.5037 17.5769 66.3305 15.4069 66.4523 12.9958H64.2601C64.0165 14.9247 62.9204 16.1302 60.9718 16.1302C58.9014 16.1302 57.1964 14.6836 57.1964 11.1875C57.1964 7.69139 58.9014 6.24473 60.9718 6.24473C62.9204 6.24473 64.0165 7.45028 64.2601 9.37915H66.4523C66.3305 6.96806 64.5037 4.79808 60.9718 4.79808C56.9528 4.79808 55.0042 7.69139 55.0042 11.1875C55.0042 14.6836 56.9528 17.5769 60.9718 17.5769Z" stroke="#313131" stroke-width="3.19512" mask="url(#path-1-inside-1_1575_9711)"/>
<path d="M73.3828 10.6088C73.3828 11.8947 73.2529 13.1565 72.9931 14.3942C72.7495 15.6319 72.3598 16.8053 71.8239 17.9144C71.3043 19.0396 70.6304 20.0764 69.8022 21.0247H67.8049C68.5519 20.0121 69.177 18.9351 69.6804 17.7939C70.1838 16.6687 70.5654 15.4953 70.8252 14.2737C71.0851 13.0521 71.215 11.8224 71.215 10.5847C71.215 9.31486 71.0851 8.06109 70.8252 6.82339C70.5654 5.5857 70.1838 4.38819 69.6804 3.23086C69.177 2.07354 68.5437 0.996586 67.7805 0H69.8022C70.6304 0.964437 71.3043 2.01728 71.8239 3.15853C72.3598 4.29978 72.7495 5.49729 72.9931 6.75106C73.2529 8.00483 73.3828 9.29075 73.3828 10.6088Z" stroke="#313131" stroke-width="3.19512" mask="url(#path-1-inside-1_1575_9711)"/>
<path d="M80.0704 17.2152V13.7191L82.3113 11.4045L86.1598 17.2152H88.5956L83.651 10.006L88.352 5.15974H86.038L80.0704 11.4286V5.15974H78V17.2152H80.0704Z" stroke="#313131" stroke-width="3.19512" mask="url(#path-1-inside-1_1575_9711)"/>
<path d="M89.0913 17.2152C89.0913 17.2152 89.4566 17.3358 90.0656 17.3358C92.8667 17.3358 93.9628 15.1658 93.9628 9.37915V6.72695H98.8343V17.2152H100.905V5.15974H92.0142V9.13804C92.0142 14.8041 91.0886 15.5757 89.5054 15.5757C89.2618 15.5757 89.0913 15.5274 89.0913 15.5274V17.2152Z" stroke="#313131" stroke-width="3.19512" mask="url(#path-1-inside-1_1575_9711)"/>
<path d="M106.516 17.5769C109.561 17.5769 110.779 15.1658 110.779 15.1658V15.5274C110.779 17.0947 111.753 17.3358 112.971 17.3358C113.507 17.3358 114.067 17.2152 114.067 17.2152V15.7685C112.849 15.8891 112.849 15.2863 112.849 14.3219V8.77638C112.849 6.00362 111.023 4.79808 107.734 4.79808C104.69 4.79808 102.497 6.00362 102.497 8.77638H104.568C104.568 7.08861 105.664 6.24473 107.734 6.24473C109.683 6.24473 110.779 6.84751 110.779 8.29416C110.779 9.2586 110.535 10.223 107.734 10.223C103.594 10.223 102.254 11.9108 102.254 13.9602C102.254 16.0097 103.715 17.5769 106.516 17.5769ZM107.491 11.4286C110.219 11.4286 110.755 10.5365 110.779 10.4883V11.308C110.779 14.9247 108.709 16.1302 107.004 16.1302C105.42 16.1302 104.446 15.1658 104.446 13.7191C104.446 11.9108 106.151 11.4286 107.491 11.4286Z" stroke="#313131" stroke-width="3.19512" mask="url(#path-1-inside-1_1575_9711)"/>
<path d="M116.616 20.8318V17.2152H126.725V20.8318H128.795V15.648H126.603V5.15974H117.712V7.9325C117.712 13.5986 116.738 15.648 115.033 15.648H114.546V20.8318H116.616ZM117.956 15.648C119.296 14.563 119.661 11.742 119.661 8.17361V6.72695H124.533V15.648H117.956Z" stroke="#313131" stroke-width="3.19512" mask="url(#path-1-inside-1_1575_9711)"/>
<path d="M13.9122 7.51761L11.7603 1.7612C11.3686 0.71329 9.87127 0.713291 9.47954 1.7612L7.32768 7.51761C7.20452 7.84707 6.94211 8.10683 6.60928 8.22874L0.793975 10.3588C-0.264659 10.7466 -0.264658 12.2287 0.793975 12.6165L6.60928 14.7465C6.94211 14.8684 7.20452 15.1282 7.32768 15.4577L9.47954 21.2141C9.87127 22.262 11.3686 22.262 11.7603 21.2141L13.9122 15.4577C14.0353 15.1282 14.2977 14.8684 14.6306 14.7465L20.4459 12.6165C21.5045 12.2287 21.5045 10.7466 20.4459 10.3588L14.6306 8.22874C14.2977 8.10683 14.0353 7.84707 13.9122 7.51761Z" stroke="#313131" stroke-width="3.19512" mask="url(#path-1-inside-1_1575_9711)"/>
</svg>
