<svg width="446" height="672" viewBox="0 0 446 672" fill="none" xmlns="http://www.w3.org/2000/svg">
<g filter="url(#filter0_di_935_6084)">
<rect x="7" y="3" width="431.908" height="657.829" rx="22" fill="#F5F6EE"/>
<rect x="7" y="3" width="431.908" height="657.829" rx="22" fill="url(#paint0_radial_935_6084)"/>
</g>
<g filter="url(#filter1_di_935_6084)">
<path fill-rule="evenodd" clip-rule="evenodd" d="M172 47.8828C172 42.36 176.477 37.8828 182 37.8828L262 37.8828C267.523 37.8828 272 42.36 272 47.8828V108.883C272 114.406 267.523 118.883 262 118.883H236C230.477 118.883 226 123.36 226 128.883V218.883C226 224.406 230.477 228.883 236 228.883H298C303.523 228.883 308 233.36 308 238.883V260.883C308 266.406 312.477 270.883 318 270.883H372C377.523 270.883 382 275.36 382 280.883V309.883C382 315.406 377.523 319.883 372 319.883H357C351.477 319.883 347 324.36 347 329.883V336.883C347 342.406 351.477 346.883 357 346.883H381C386.523 346.883 391 351.36 391 356.883V423.883C391 429.406 386.523 433.883 381 433.883H63C57.4771 433.883 53 429.406 53 423.883L53 356.883C53 351.36 57.4772 346.883 63 346.883H88C93.5229 346.883 98 342.406 98 336.883V329.883C98 324.36 93.5229 319.883 88 319.883H75C69.4772 319.883 65 315.406 65 309.883V280.883C65 275.36 69.4772 270.883 75 270.883H128C133.523 270.883 138 266.406 138 260.883V238.883C138 233.36 142.477 228.883 148 228.883H208C213.523 228.883 218 224.406 218 218.883V128.883C218 123.36 213.523 118.883 208 118.883H182C176.477 118.883 172 114.406 172 108.883V47.8828Z" fill="#D9D9D9" fill-opacity="0.01"/>
</g>
<g filter="url(#filter2_d_935_6084)">
<path d="M151.014 270.883H155.094V250.003H167.574V270.883H171.654V246.883H151.014V270.883ZM186.294 271.603C194.214 271.603 198.054 265.843 198.054 258.883C198.054 251.923 194.214 246.163 186.294 246.163C178.374 246.163 174.534 251.923 174.534 258.883C174.534 265.843 178.374 271.603 186.294 271.603ZM178.854 258.883C178.854 251.923 182.214 249.043 186.294 249.043C190.374 249.043 193.734 251.923 193.734 258.883C193.734 265.843 190.374 268.723 186.294 268.723C182.214 268.723 178.854 265.843 178.854 258.883ZM199.496 270.883C199.496 270.883 200.216 271.123 201.416 271.123C206.936 271.123 209.096 266.803 209.096 255.283V250.003H218.696V270.883H222.776V246.883H205.256V254.803C205.256 266.083 203.432 267.619 200.312 267.619C199.832 267.619 199.496 267.523 199.496 267.523V270.883ZM235.515 270.883L235.035 272.083C234.075 274.531 232.875 275.203 231.195 275.203C230.235 275.203 228.795 275.059 228.795 275.059V278.083C228.795 278.083 230.475 278.323 231.915 278.323C235.995 278.323 237.435 276.307 239.115 272.083L248.955 246.883H244.635L237.483 266.611L229.515 246.883H224.955L235.515 270.883ZM250.852 246.883V254.083C250.852 259.843 254.452 262.483 259.492 262.483C264.292 262.483 266.452 259.603 266.452 259.603V270.883H270.532V246.883H266.452V255.763C266.452 258.163 264.052 259.363 260.692 259.363C256.612 259.363 254.932 257.443 254.932 253.123V246.883H250.852ZM273.873 246.883V270.883H277.953L290.913 252.163V270.883H294.993V246.883H290.913L277.953 265.603V246.883H273.873ZM76.0374 306.883H80.1174V286.003H92.5974V306.883H96.6774V282.883H76.0374V306.883ZM111.317 307.603C117.317 307.603 120.917 304.243 121.877 299.683H117.797C117.077 303.043 114.437 304.723 111.317 304.723C107.429 304.723 104.165 302.131 103.877 295.843H122.117V293.923C122.117 288.163 118.997 282.163 111.077 282.163C103.397 282.163 99.5574 287.923 99.5574 294.883C99.5574 301.843 103.397 307.603 111.317 307.603ZM111.077 285.043C114.725 285.043 117.797 287.443 117.797 292.963H103.973C104.501 287.395 107.381 285.043 111.077 285.043ZM124.975 314.083H129.055V302.563C129.055 302.563 131.455 307.603 137.215 307.603C144.895 307.603 148.255 301.603 148.255 294.883C148.255 288.163 144.895 282.163 137.215 282.163C131.455 282.163 129.055 287.203 129.055 287.203V282.883H124.975V314.083ZM136.495 285.043C140.575 285.043 143.935 287.923 143.935 294.883C143.935 301.843 140.575 304.723 136.495 304.723C132.415 304.723 129.055 301.363 129.055 294.883C129.055 288.403 132.415 285.043 136.495 285.043ZM162.411 307.603C169.371 307.603 172.971 303.283 173.211 298.483H168.891C168.411 302.323 166.251 304.723 162.411 304.723C158.331 304.723 154.971 301.843 154.971 294.883C154.971 287.923 158.331 285.043 162.411 285.043C166.251 285.043 168.411 287.443 168.891 291.283H173.211C172.971 286.483 169.371 282.163 162.411 282.163C154.491 282.163 150.651 287.923 150.651 294.883C150.651 301.843 154.491 307.603 162.411 307.603ZM187.349 307.603C195.269 307.603 199.109 301.843 199.109 294.883C199.109 287.923 195.269 282.163 187.349 282.163C179.429 282.163 175.589 287.923 175.589 294.883C175.589 301.843 179.429 307.603 187.349 307.603ZM179.909 294.883C179.909 287.923 183.269 285.043 187.349 285.043C191.429 285.043 194.789 287.923 194.789 294.883C194.789 301.843 191.429 304.723 187.349 304.723C183.269 304.723 179.909 301.843 179.909 294.883ZM206.071 306.883V295.843H218.551V306.883H222.631V282.883H218.551V292.963H206.071V282.883H201.991V306.883H206.071ZM233.671 307.603C239.671 307.603 242.071 302.803 242.071 302.803V303.523C242.071 306.643 243.991 307.123 246.391 307.123C247.447 307.123 248.551 306.883 248.551 306.883V304.003C246.151 304.243 246.151 303.043 246.151 301.123V290.083C246.151 284.563 242.551 282.163 236.071 282.163C230.071 282.163 225.751 284.563 225.751 290.083H229.831C229.831 286.723 231.991 285.043 236.071 285.043C239.911 285.043 242.071 286.243 242.071 289.123C242.071 291.043 241.591 292.963 236.071 292.963C227.911 292.963 225.271 296.323 225.271 300.403C225.271 304.483 228.151 307.603 233.671 307.603ZM235.591 295.363C240.967 295.363 242.023 293.587 242.071 293.491V295.123C242.071 302.323 237.991 304.723 234.631 304.723C231.511 304.723 229.591 302.803 229.591 299.923C229.591 296.323 232.951 295.363 235.591 295.363ZM249.254 306.883C249.254 306.883 249.974 307.123 251.174 307.123C256.694 307.123 258.854 302.803 258.854 291.283V286.003H268.454V306.883H272.534V282.883H255.014V290.803C255.014 302.083 253.19 303.619 250.07 303.619C249.59 303.619 249.254 303.523 249.254 303.523V306.883ZM286.472 306.883C291.512 306.883 295.832 305.203 295.832 299.683C295.832 294.163 291.512 292.723 286.472 292.723H279.992V282.883H275.912V306.883H286.472ZM279.992 303.763V295.843H286.232C289.112 295.843 291.512 296.563 291.512 299.683C291.512 303.043 289.112 303.763 286.232 303.763H279.992ZM302.539 306.883V295.843H315.019V306.883H319.099V282.883H315.019V292.963H302.539V282.883H298.459V306.883H302.539ZM333.739 307.603C341.659 307.603 345.499 301.843 345.499 294.883C345.499 287.923 341.659 282.163 333.739 282.163C325.819 282.163 321.979 287.923 321.979 294.883C321.979 301.843 325.819 307.603 333.739 307.603ZM326.299 294.883C326.299 287.923 329.659 285.043 333.739 285.043C337.819 285.043 341.179 287.923 341.179 294.883C341.179 301.843 337.819 304.723 333.739 304.723C329.659 304.723 326.299 301.843 326.299 294.883ZM359.661 307.603C365.661 307.603 369.261 304.243 370.221 299.683H366.141C365.421 303.043 362.781 304.723 359.661 304.723C355.773 304.723 352.509 302.131 352.221 295.843H370.461V293.923C370.461 288.163 367.341 282.163 359.421 282.163C351.741 282.163 347.901 287.923 347.901 294.883C347.901 301.843 351.741 307.603 359.661 307.603ZM359.421 285.043C363.069 285.043 366.141 287.443 366.141 292.963H352.317C352.845 287.395 355.725 285.043 359.421 285.043ZM114.547 342.883V335.923L118.963 331.315L126.547 342.883H131.347L121.603 328.531L130.867 318.883H126.307L114.547 331.363V318.883H110.467V342.883H114.547ZM141.444 343.603C147.444 343.603 149.844 338.803 149.844 338.803V339.523C149.844 342.643 151.764 343.123 154.164 343.123C155.22 343.123 156.324 342.883 156.324 342.883V340.003C153.924 340.243 153.924 339.043 153.924 337.123V326.083C153.924 320.563 150.324 318.163 143.844 318.163C137.844 318.163 133.524 320.563 133.524 326.083H137.604C137.604 322.723 139.764 321.043 143.844 321.043C147.684 321.043 149.844 322.243 149.844 325.123C149.844 327.043 149.364 328.963 143.844 328.963C135.684 328.963 133.044 332.323 133.044 336.403C133.044 340.483 135.924 343.603 141.444 343.603ZM143.364 331.363C148.74 331.363 149.796 329.587 149.844 329.491V331.123C149.844 338.323 145.764 340.723 142.404 340.723C139.284 340.723 137.364 338.803 137.364 335.923C137.364 332.323 140.724 331.363 143.364 331.363ZM158.467 350.083H162.547V338.563C162.547 338.563 164.947 343.603 170.707 343.603C178.387 343.603 181.747 337.603 181.747 330.883C181.747 324.163 178.387 318.163 170.707 318.163C164.947 318.163 162.547 323.203 162.547 323.203V318.883H158.467V350.083ZM169.987 321.043C174.067 321.043 177.427 323.923 177.427 330.883C177.427 337.843 174.067 340.723 169.987 340.723C165.907 340.723 162.547 337.363 162.547 330.883C162.547 324.403 165.907 321.043 169.987 321.043ZM184.623 342.883H188.703V322.723L196.383 342.883H200.223L207.903 322.723V342.883H211.983V318.883H205.743L198.303 338.563L190.863 318.883H184.623V342.883ZM223.007 343.603C229.007 343.603 231.407 338.803 231.407 338.803V339.523C231.407 342.643 233.327 343.123 235.727 343.123C236.783 343.123 237.887 342.883 237.887 342.883V340.003C235.487 340.243 235.487 339.043 235.487 337.123V326.083C235.487 320.563 231.887 318.163 225.407 318.163C219.407 318.163 215.087 320.563 215.087 326.083H219.167C219.167 322.723 221.327 321.043 225.407 321.043C229.247 321.043 231.407 322.243 231.407 325.123C231.407 327.043 230.927 328.963 225.407 328.963C217.247 328.963 214.607 332.323 214.607 336.403C214.607 340.483 217.487 343.603 223.007 343.603ZM224.927 331.363C230.303 331.363 231.359 329.587 231.407 329.491V331.123C231.407 338.323 227.327 340.723 223.967 340.723C220.847 340.723 218.927 338.803 218.927 335.923C218.927 332.323 222.287 331.363 224.927 331.363ZM244.11 342.883V331.843H256.59V342.883H260.67V318.883H256.59V328.963H244.11V318.883H240.03V342.883H244.11ZM268.11 342.883V331.843H280.59V342.883H284.67V318.883H280.59V328.963H268.11V318.883H264.03V342.883H268.11ZM299.31 343.603C307.23 343.603 311.07 337.843 311.07 330.883C311.07 323.923 307.23 318.163 299.31 318.163C291.39 318.163 287.55 323.923 287.55 330.883C287.55 337.843 291.39 343.603 299.31 343.603ZM291.87 330.883C291.87 323.923 295.23 321.043 299.31 321.043C303.39 321.043 306.75 323.923 306.75 330.883C306.75 337.843 303.39 340.723 299.31 340.723C295.23 340.723 291.87 337.843 291.87 330.883ZM325.232 343.603C331.232 343.603 334.832 340.243 335.792 335.683H331.712C330.992 339.043 328.352 340.723 325.232 340.723C321.344 340.723 318.08 338.131 317.792 331.843H336.032V329.923C336.032 324.163 332.912 318.163 324.992 318.163C317.312 318.163 313.472 323.923 313.472 330.883C313.472 337.843 317.312 343.603 325.232 343.603ZM324.992 321.043C328.64 321.043 331.712 323.443 331.712 328.963H317.888C318.416 323.395 321.296 321.043 324.992 321.043Z" fill="#313131"/>
</g>
<g filter="url(#filter3_d_935_6084)">
<path d="M70.9768 418.883V407.843H83.4568V418.883H87.5368V394.883H83.4568V404.963H70.9768V394.883H66.8968V418.883H70.9768ZM98.5768 419.603C104.577 419.603 106.977 414.803 106.977 414.803V415.523C106.977 418.643 108.897 419.123 111.297 419.123C112.353 419.123 113.457 418.883 113.457 418.883V416.003C111.057 416.243 111.057 415.043 111.057 413.123V402.083C111.057 396.563 107.457 394.163 100.977 394.163C94.9768 394.163 90.6568 396.563 90.6568 402.083H94.7368C94.7368 398.723 96.8968 397.043 100.977 397.043C104.817 397.043 106.977 398.243 106.977 401.123C106.977 403.043 106.497 404.963 100.977 404.963C92.8168 404.963 90.1768 408.323 90.1768 412.403C90.1768 416.483 93.0568 419.603 98.5768 419.603ZM100.497 407.363C105.873 407.363 106.929 405.587 106.977 405.491V407.123C106.977 414.323 102.897 416.723 99.5368 416.723C96.4168 416.723 94.4968 414.803 94.4968 411.923C94.4968 408.323 97.8568 407.363 100.497 407.363ZM123.769 418.883C123.769 418.883 124.489 419.123 125.689 419.123C131.209 419.123 133.369 414.803 133.369 403.283V398.003H142.969V418.883H147.049V394.883H129.529V402.803C129.529 414.083 127.705 415.619 124.585 415.619C124.105 415.619 123.769 415.523 123.769 415.523V418.883ZM150.428 418.883H154.508V407.843H158.828C159.164 414.371 162.524 419.603 170.108 419.603C178.028 419.603 181.388 413.843 181.388 406.883C181.388 399.923 178.028 394.163 170.108 394.163C162.908 394.163 159.5 398.915 158.924 404.963H154.508V394.883H150.428V418.883ZM170.108 397.043C174.188 397.043 177.068 399.923 177.068 406.883C177.068 413.843 174.188 416.723 170.108 416.723C166.028 416.723 163.148 413.843 163.148 406.883C163.148 399.923 166.028 397.043 170.108 397.043ZM195.552 419.603C203.472 419.603 207.312 413.843 207.312 407.363C207.312 401.123 203.952 395.123 196.032 395.123C188.832 395.123 187.152 402.083 187.152 402.083H186.912C187.392 394.403 191.04 391.523 196.032 391.523H200.112C205.632 391.523 205.872 387.443 205.872 385.283H203.472C203.472 387.203 202.272 387.683 200.112 387.683H197.472C187.152 387.683 183.792 395.123 183.792 405.443C183.792 413.843 187.392 419.603 195.552 419.603ZM195.552 398.003C199.632 398.003 202.992 400.883 202.992 407.363C202.992 413.843 199.632 416.723 195.552 416.723C191.472 416.723 188.112 413.843 188.112 407.363C188.112 401.363 191.472 398.003 195.552 398.003ZM219.554 418.883L219.074 420.083C218.114 422.531 216.914 423.203 215.234 423.203C214.274 423.203 212.834 423.059 212.834 423.059V426.083C212.834 426.083 214.514 426.323 215.954 426.323C220.034 426.323 221.474 424.307 223.154 420.083L232.994 394.883H228.674L221.522 414.611L213.554 394.883H208.994L219.554 418.883ZM235.131 418.883H239.211V407.843H243.531C243.867 414.371 247.227 419.603 254.811 419.603C262.731 419.603 266.091 413.843 266.091 406.883C266.091 399.923 262.731 394.163 254.811 394.163C247.611 394.163 244.203 398.915 243.627 404.963H239.211V394.883H235.131V418.883ZM254.811 397.043C258.891 397.043 261.771 399.923 261.771 406.883C261.771 413.843 258.891 416.723 254.811 416.723C250.731 416.723 247.851 413.843 247.851 406.883C247.851 399.923 250.731 397.043 254.811 397.043ZM286.504 398.003V418.883H290.584V398.003H299.464V394.883H277.624V398.003H286.504ZM313.161 419.603C319.161 419.603 322.761 416.243 323.721 411.683H319.641C318.921 415.043 316.281 416.723 313.161 416.723C309.273 416.723 306.009 414.131 305.721 407.843H323.961V405.923C323.961 400.163 320.841 394.163 312.921 394.163C305.241 394.163 301.401 399.923 301.401 406.883C301.401 413.843 305.241 419.603 313.161 419.603ZM312.921 397.043C316.569 397.043 319.641 399.443 319.641 404.963H305.817C306.345 399.395 309.225 397.043 312.921 397.043ZM326.819 418.883H330.899V398.723L338.579 418.883H342.419L350.099 398.723V418.883H354.179V394.883H347.939L340.499 414.563L333.059 394.883H326.819V418.883ZM366.882 418.883L366.402 420.083C365.442 422.531 364.242 423.203 362.562 423.203C361.602 423.203 360.162 423.059 360.162 423.059V426.083C360.162 426.083 361.842 426.323 363.282 426.323C367.362 426.323 368.802 424.307 370.482 420.083L380.322 394.883H376.002L368.85 414.611L360.882 394.883H356.322L366.882 418.883Z" fill="#313131"/>
</g>
<g filter="url(#filter4_d_935_6084)">
<path d="M72.3534 356.823L73.7574 356.043H83.6894L85.0934 356.823V375.543L80.9334 377.883H91.8534L87.6934 375.543V356.823L91.8534 354.483H65.5934L69.7534 356.823V375.543L65.5934 377.883H76.5134L72.3534 375.543V356.823ZM98.8836 386.463L94.7236 388.803H105.644L101.484 386.463V374.555C101.64 374.919 103.564 378.663 108.764 378.663C113.444 378.663 118.904 375.023 118.904 366.183C118.904 356.563 113.964 353.703 109.284 353.703C103.824 353.703 101.484 358.643 101.484 358.643V353.703L94.7236 355.783L98.8836 357.083V386.463ZM101.484 361.243C101.484 361.243 103.304 355.263 108.504 355.263C112.456 355.263 116.044 358.383 116.044 366.183C116.044 373.463 112.456 377.103 108.504 377.103C104.084 377.103 101.484 373.723 101.484 369.823V361.243ZM143.104 363.843C143.104 358.123 140.764 353.703 134.16 353.703C127.972 353.703 122.824 358.591 122.824 366.183C122.824 373.203 126.984 378.663 133.744 378.663C141.544 378.663 143.104 371.123 143.104 371.123C143.104 371.123 140.764 376.323 135.044 376.323C129.844 376.323 125.424 373.099 125.424 365.351C125.424 364.831 125.424 364.363 125.476 363.843H143.104ZM134.056 354.951C137.696 354.951 140.244 357.343 140.244 359.943C140.244 362.023 138.424 362.283 135.824 362.283H125.736C126.88 357.291 130.78 354.951 134.056 354.951ZM145.95 376.323L148.81 387.763V377.883H170.13V387.763L172.99 376.323H169.194L167.79 375.543V356.823L171.95 354.483H150.63L154.79 356.823V359.943C154.79 368.523 152.554 376.323 148.446 376.323H145.95ZM165.19 375.543L163.786 376.323H152.19C152.19 376.323 156.61 373.723 156.61 359.943V356.823L158.014 356.043H163.786L165.19 356.823V375.543ZM187.072 354.951C191.492 354.951 191.96 357.603 191.96 358.123C191.96 358.955 191.492 359.111 191.492 360.255C191.492 361.399 192.22 362.179 193.468 362.179C194.768 362.179 195.444 361.139 195.444 359.787C195.444 356.927 192.376 353.703 187.176 353.703C180.988 353.703 175.84 358.643 175.84 366.183C175.84 373.203 180 378.663 186.76 378.663C194.56 378.663 196.12 371.123 196.12 371.123C196.12 371.123 193.78 376.323 188.06 376.323C182.86 376.323 178.44 373.099 178.44 365.351C178.44 358.227 183.432 354.951 187.072 354.951ZM219.154 377.883H224.198L220.506 375.543L209.482 364.727L217.854 356.823L223.678 354.483H212.758L215.878 356.563L206.518 365.455V356.823L210.678 354.483H199.758L203.918 356.823V375.543L199.758 377.883H210.678L206.518 375.543V365.455L219.154 377.883ZM233.741 365.351C230.205 366.599 227.033 369.043 227.033 372.683C227.033 376.375 229.373 378.663 232.961 378.663C235.041 378.663 236.809 377.623 238.005 376.843L241.853 374.295C241.853 377.051 241.853 378.663 243.673 378.663C245.493 378.663 249.133 374.243 249.133 374.243L244.453 376.063V361.243C244.453 356.823 242.581 353.703 236.913 353.703C233.793 353.703 227.917 356.563 227.917 359.787C227.917 361.295 228.801 361.971 229.789 361.971C230.777 361.971 231.661 361.399 231.661 359.787C231.661 359.059 231.557 358.539 231.557 358.123C231.557 356.823 233.221 355.263 236.393 355.263C239.253 355.263 241.853 356.615 241.853 361.243V362.543L233.741 365.351ZM238.629 374.763C237.121 375.751 235.821 376.739 233.793 376.739C231.193 376.739 229.789 374.659 229.789 372.423C229.789 369.563 231.089 367.795 235.613 366.183L241.853 363.999V372.631L238.629 374.763ZM260.819 377.363C256.659 377.363 254.891 375.647 254.891 373.827C254.891 373.307 255.203 372.787 255.203 371.903C255.203 370.915 254.839 369.771 253.383 369.771C252.083 369.771 251.459 370.811 251.459 372.163C251.459 375.543 254.579 378.663 260.819 378.663C267.319 378.663 270.959 375.283 270.959 371.643C270.959 365.663 264.459 365.143 264.459 365.143V364.987C264.459 364.987 269.815 364.623 269.815 359.943C269.815 355.523 265.499 353.703 261.339 353.703C256.399 353.703 254.319 357.083 254.319 357.083L252.239 353.703V362.283L254.579 358.383C254.579 358.383 256.659 355.263 260.819 355.263C264.719 355.263 266.955 357.343 266.955 359.943C266.955 362.803 264.719 364.519 260.559 364.519H256.919V366.079H260.299C267.059 366.079 268.099 369.043 268.099 371.643C268.099 375.023 265.291 377.363 260.819 377.363ZM281.831 365.351C278.295 366.599 275.123 369.043 275.123 372.683C275.123 376.375 277.463 378.663 281.051 378.663C283.131 378.663 284.899 377.623 286.095 376.843L289.943 374.295C289.943 377.051 289.943 378.663 291.763 378.663C293.583 378.663 297.223 374.243 297.223 374.243L292.543 376.063V361.243C292.543 356.823 290.671 353.703 285.003 353.703C281.883 353.703 276.007 356.563 276.007 359.787C276.007 361.295 276.891 361.971 277.879 361.971C278.867 361.971 279.751 361.399 279.751 359.787C279.751 359.059 279.647 358.539 279.647 358.123C279.647 356.823 281.311 355.263 284.483 355.263C287.343 355.263 289.943 356.615 289.943 361.243V362.543L281.831 365.351ZM286.719 374.763C285.211 375.751 283.911 376.739 281.883 376.739C279.283 376.739 277.879 374.659 277.879 372.423C277.879 369.563 279.179 367.795 283.703 366.183L289.943 363.999V372.631L286.719 374.763ZM299.289 377.883H310.209L306.049 375.543V366.599H318.789V375.543L314.629 377.883H325.549L321.389 375.543V356.823L325.549 354.483H314.629L318.789 356.823V365.039H306.049V356.823L310.209 354.483H299.289L303.449 356.823V375.543L299.289 377.883ZM345.059 377.883H355.979L351.819 375.543V356.823L355.979 354.483H345.059L349.219 356.823V357.343L335.959 372.631V356.823L340.119 354.483H329.199L333.359 356.823V375.543L329.199 377.883H340.119L335.959 375.543V375.023L349.219 359.735V375.543L345.059 377.883ZM379.897 363.843C379.897 358.123 377.557 353.703 370.953 353.703C364.765 353.703 359.617 358.591 359.617 366.183C359.617 373.203 363.777 378.663 370.537 378.663C378.337 378.663 379.897 371.123 379.897 371.123C379.897 371.123 377.557 376.323 371.837 376.323C366.637 376.323 362.217 373.099 362.217 365.351C362.217 364.831 362.217 364.363 362.269 363.843H379.897ZM370.849 354.951C374.489 354.951 377.037 357.343 377.037 359.943C377.037 362.023 375.217 362.283 372.617 362.283H362.529C363.673 357.291 367.573 354.951 370.849 354.951Z" fill="#313131"/>
</g>
<g filter="url(#filter5_d_935_6084)">
<path d="M236.092 100.336C234.17 100.336 232.35 99.7734 230.631 98.6484C228.912 97.5391 227.389 96.0156 226.061 94.0781C224.732 92.1406 223.686 89.9219 222.92 87.4219C222.17 84.9063 221.795 82.2578 221.795 79.4766C221.795 76.6953 222.17 74.0547 222.92 71.5547C223.686 69.0391 224.732 66.8125 226.061 64.875C227.389 62.9375 228.912 61.4141 230.631 60.3047C232.35 59.1797 234.17 58.6172 236.092 58.6172C238.014 58.6172 239.834 59.1797 241.553 60.3047C243.271 61.4141 244.795 62.9375 246.123 64.875C247.451 66.8125 248.49 69.0391 249.24 71.5547C250.006 74.0547 250.389 76.6953 250.389 79.4766C250.389 82.2578 250.006 84.9063 249.24 87.4219C248.49 89.9219 247.451 92.1406 246.123 94.0781C244.795 96.0156 243.271 97.5391 241.553 98.6484C239.834 99.7734 238.014 100.336 236.092 100.336ZM204.686 87.0703C203.717 87.0703 202.826 86.75 202.014 86.1094C201.201 85.4531 200.553 84.5781 200.068 83.4844C199.6 82.375 199.365 81.1563 199.365 79.8281C199.365 78.4844 199.6 77.2656 200.068 76.1719C200.553 75.0781 201.201 74.2109 202.014 73.5703C202.826 72.9141 203.717 72.5859 204.686 72.5859C205.342 72.5859 205.982 72.75 206.607 73.0781C206.186 73.375 205.85 73.7813 205.6 74.2969C205.365 74.7969 205.248 75.3203 205.248 75.8672C205.248 76.6328 205.459 77.2734 205.881 77.7891C206.318 78.2891 206.873 78.5391 207.545 78.5391C208.357 78.5391 209.076 78.1563 209.701 77.3906C209.904 78.1094 210.006 78.9219 210.006 79.8281C210.006 81.1563 209.764 82.375 209.279 83.4844C208.811 84.5781 208.17 85.4531 207.357 86.1094C206.561 86.75 205.67 87.0703 204.686 87.0703ZM208.904 100.336C206.982 100.336 205.162 99.7734 203.443 98.6484C201.725 97.5391 200.201 96.0156 198.873 94.0781C197.545 92.1406 196.498 89.9219 195.732 87.4219C194.982 84.9063 194.607 82.2578 194.607 79.4766C194.607 76.6953 194.982 74.0547 195.732 71.5547C196.498 69.0391 197.545 66.8125 198.873 64.875C200.201 62.9375 201.725 61.4141 203.443 60.3047C205.162 59.1797 206.982 58.6172 208.904 58.6172C210.826 58.6172 212.646 59.1797 214.365 60.3047C216.084 61.4141 217.607 62.9375 218.936 64.875C220.264 66.8125 221.303 69.0391 222.053 71.5547C222.818 74.0547 223.201 76.6953 223.201 79.4766C223.201 82.2578 222.818 84.9063 222.053 87.4219C221.303 89.9219 220.264 92.1406 218.936 94.0781C217.607 96.0156 216.084 97.5391 214.365 98.6484C212.646 99.7734 210.826 100.336 208.904 100.336ZM208.904 98.4609C210.545 98.4609 212.107 97.9531 213.592 96.9375C215.092 95.9219 216.42 94.5313 217.576 92.7656C218.732 90.9844 219.646 88.9531 220.318 86.6719C220.99 84.3906 221.326 81.9922 221.326 79.4766C221.326 76.9609 220.99 74.5625 220.318 72.2813C219.646 70 218.732 67.9766 217.576 66.2109C216.42 64.4297 215.092 63.0313 213.592 62.0156C212.107 61 210.545 60.4922 208.904 60.4922C207.264 60.4922 205.693 61 204.193 62.0156C202.709 63.0313 201.389 64.4297 200.232 66.2109C199.076 67.9766 198.162 70 197.49 72.2813C196.818 74.5625 196.482 76.9609 196.482 79.4766C196.482 81.9922 196.818 84.3906 197.49 86.6719C198.162 88.9531 199.076 90.9844 200.232 92.7656C201.389 94.5313 202.709 95.9219 204.193 96.9375C205.693 97.9531 207.264 98.4609 208.904 98.4609ZM231.873 87.0703C230.904 87.0703 230.014 86.75 229.201 86.1094C228.389 85.4531 227.74 84.5781 227.256 83.4844C226.787 82.375 226.553 81.1563 226.553 79.8281C226.553 78.4844 226.787 77.2656 227.256 76.1719C227.74 75.0781 228.389 74.2109 229.201 73.5703C230.014 72.9141 230.904 72.5859 231.873 72.5859C232.529 72.5859 233.17 72.75 233.795 73.0781C233.373 73.375 233.037 73.7813 232.787 74.2969C232.553 74.7969 232.436 75.3203 232.436 75.8672C232.436 76.6328 232.646 77.2734 233.068 77.7891C233.506 78.2891 234.061 78.5391 234.732 78.5391C235.545 78.5391 236.264 78.1563 236.889 77.3906C237.092 78.1094 237.193 78.9219 237.193 79.8281C237.193 81.1563 236.951 82.375 236.467 83.4844C235.998 84.5781 235.357 85.4531 234.545 86.1094C233.748 86.75 232.857 87.0703 231.873 87.0703ZM236.092 98.4609C237.732 98.4609 239.295 97.9531 240.779 96.9375C242.279 95.9219 243.607 94.5313 244.764 92.7656C245.92 90.9844 246.834 88.9531 247.506 86.6719C248.178 84.3906 248.514 81.9922 248.514 79.4766C248.514 76.9609 248.178 74.5625 247.506 72.2813C246.834 70 245.92 67.9766 244.764 66.2109C243.607 64.4297 242.279 63.0313 240.779 62.0156C239.295 61 237.732 60.4922 236.092 60.4922C234.451 60.4922 232.881 61 231.381 62.0156C229.896 63.0313 228.576 64.4297 227.42 66.2109C226.264 67.9766 225.35 70 224.678 72.2813C224.006 74.5625 223.67 76.9609 223.67 79.4766C223.67 81.9922 224.006 84.3906 224.678 86.6719C225.35 88.9531 226.264 90.9844 227.42 92.7656C228.576 94.5313 229.896 95.9219 231.381 96.9375C232.881 97.9531 234.451 98.4609 236.092 98.4609Z" fill="#313131"/>
</g>
<g filter="url(#filter6_d_935_6084)">
<path d="M116.564 533.123L110.756 528.275L110.204 528.923L115.268 533.123L110.204 537.323L110.756 537.971L116.564 533.123ZM134.675 536.003L133.715 537.683H127.811L130.667 535.259C133.091 533.195 134.195 532.523 134.195 530.843C134.195 529.763 133.355 527.723 129.995 527.723C126.995 527.723 125.795 529.523 125.795 530.963C125.795 531.923 126.395 532.355 126.947 532.355C127.451 532.355 127.811 531.971 127.811 531.539C127.811 530.699 126.995 530.843 126.995 530.243C126.995 529.163 128.195 528.323 129.995 528.323C131.795 528.323 132.995 529.403 132.995 530.843C132.995 532.283 132.035 533.171 129.971 534.923L125.315 538.883H134.675V536.003ZM137.722 532.835C137.722 530.555 139.354 528.491 141.826 528.491C144.322 528.491 146.986 530.483 146.986 534.131C146.986 536.387 145.33 538.475 142.858 538.475C140.362 538.475 137.722 536.483 137.722 532.835ZM136.594 533.483C136.594 536.651 138.946 539.243 142.354 539.243C145.762 539.243 148.114 536.651 148.114 533.483C148.114 530.315 145.762 527.723 142.354 527.723C138.946 527.723 136.594 530.315 136.594 533.483ZM150.917 532.835C150.917 530.555 152.549 528.491 155.021 528.491C157.517 528.491 160.181 530.483 160.181 534.131C160.181 536.387 158.525 538.475 156.053 538.475C153.557 538.475 150.917 536.483 150.917 532.835ZM149.789 533.483C149.789 536.651 152.141 539.243 155.549 539.243C158.957 539.243 161.309 536.651 161.309 533.483C161.309 530.315 158.957 527.723 155.549 527.723C152.141 527.723 149.789 530.315 149.789 533.483ZM170.779 542.843L168.859 543.923H173.899L171.979 542.843V537.347C172.051 537.515 172.939 539.243 175.339 539.243C177.499 539.243 180.019 537.563 180.019 533.483C180.019 529.043 177.739 527.723 175.579 527.723C173.059 527.723 171.979 530.003 171.979 530.003V527.723L168.859 528.683L170.779 529.283V542.843ZM171.979 531.203C171.979 531.203 172.819 528.443 175.219 528.443C177.043 528.443 178.699 529.883 178.699 533.483C178.699 536.843 177.043 538.523 175.219 538.523C173.179 538.523 171.979 536.963 171.979 535.163V531.203ZM185.044 533.099C183.412 533.675 181.948 534.803 181.948 536.483C181.948 538.187 183.028 539.243 184.684 539.243C185.644 539.243 186.46 538.763 187.012 538.403L188.788 537.227C188.788 538.499 188.788 539.243 189.628 539.243C190.468 539.243 192.148 537.203 192.148 537.203L189.988 538.043V531.203C189.988 529.163 189.124 527.723 186.508 527.723C185.068 527.723 182.356 529.043 182.356 530.531C182.356 531.227 182.764 531.539 183.22 531.539C183.676 531.539 184.084 531.275 184.084 530.531C184.084 530.195 184.036 529.955 184.036 529.763C184.036 529.163 184.804 528.443 186.268 528.443C187.588 528.443 188.788 529.067 188.788 531.203V531.803L185.044 533.099ZM187.3 537.443C186.604 537.899 186.004 538.355 185.068 538.355C183.868 538.355 183.22 537.395 183.22 536.363C183.22 535.043 183.82 534.227 185.908 533.483L188.788 532.475V536.459L187.3 537.443ZM198.286 528.299C200.326 528.299 200.542 529.523 200.542 529.763C200.542 530.147 200.326 530.219 200.326 530.747C200.326 531.275 200.662 531.635 201.238 531.635C201.838 531.635 202.15 531.155 202.15 530.531C202.15 529.211 200.734 527.723 198.334 527.723C195.478 527.723 193.102 530.003 193.102 533.483C193.102 536.723 195.022 539.243 198.142 539.243C201.742 539.243 202.462 535.763 202.462 535.763C202.462 535.763 201.382 538.163 198.742 538.163C196.342 538.163 194.302 536.675 194.302 533.099C194.302 529.811 196.606 528.299 198.286 528.299ZM213.093 538.883H215.421L213.717 537.803L208.629 532.811L212.493 529.163L215.181 528.083H210.141L211.581 529.043L207.261 533.147V529.163L209.181 528.083H204.141L206.061 529.163V537.803L204.141 538.883H209.181L207.261 537.803V533.147L213.093 538.883ZM222.85 538.883H227.89L225.97 537.803V529.163L227.89 528.083H218.05L219.97 529.163V530.603C219.97 535.283 219.106 537.659 218.17 537.659C217.618 537.659 217.69 537.059 217.018 537.059C216.538 537.059 216.13 537.443 216.13 538.019C216.13 538.859 216.874 539.123 217.402 539.123C220.21 539.123 220.81 534.563 220.81 530.603V529.163L221.458 528.803H224.122L224.77 529.163V537.803L222.85 538.883ZM232.786 533.099C231.154 533.675 229.69 534.803 229.69 536.483C229.69 538.187 230.77 539.243 232.426 539.243C233.386 539.243 234.202 538.763 234.754 538.403L236.53 537.227C236.53 538.499 236.53 539.243 237.37 539.243C238.21 539.243 239.89 537.203 239.89 537.203L237.73 538.043V531.203C237.73 529.163 236.866 527.723 234.25 527.723C232.81 527.723 230.098 529.043 230.098 530.531C230.098 531.227 230.506 531.539 230.962 531.539C231.418 531.539 231.826 531.275 231.826 530.531C231.826 530.195 231.778 529.955 231.778 529.763C231.778 529.163 232.546 528.443 234.01 528.443C235.33 528.443 236.53 529.067 236.53 531.203V531.803L232.786 533.099ZM235.042 537.443C234.346 537.899 233.746 538.355 232.81 538.355C231.61 538.355 230.962 537.395 230.962 536.363C230.962 535.043 231.562 534.227 233.65 533.483L236.53 532.475V536.459L235.042 537.443ZM240.244 538.163L241.564 543.443V538.883H251.404V543.443L252.724 538.163H250.972L250.324 537.803V529.163L252.244 528.083H242.404L244.324 529.163V530.603C244.324 534.563 243.292 538.163 241.396 538.163H240.244ZM249.124 537.803L248.476 538.163H243.124C243.124 538.163 245.164 536.963 245.164 530.603V529.163L245.812 528.803H248.476L249.124 529.163V537.803ZM258.839 528.371C260.831 528.371 262.991 530.123 262.991 534.107C262.991 536.939 261.287 538.595 259.511 538.595C257.543 538.595 255.359 536.843 255.359 532.859C255.359 529.979 257.087 528.371 258.839 528.371ZM254.039 533.483C254.039 536.723 255.839 539.243 259.175 539.243C262.271 539.243 264.311 536.723 264.311 533.483C264.311 530.243 262.511 527.723 259.175 527.723C256.079 527.723 254.039 530.243 254.039 533.483ZM271.392 533.675C273.072 533.675 274.512 534.203 274.512 535.883C274.512 537.563 272.952 538.163 271.512 538.163H269.76L269.112 537.803V533.675H271.392ZM269.112 532.955V529.163L269.76 528.803H271.032C272.472 528.803 274.032 529.235 274.032 530.771C274.032 532.379 272.592 532.955 270.912 532.955H269.112ZM275.352 530.723C275.352 528.491 272.832 528.083 270.912 528.083H265.992L267.912 529.163V537.803L265.992 538.883H271.512C273.432 538.883 275.832 538.163 275.832 535.883C275.832 533.363 272.952 533.195 272.952 533.195V533.123C272.952 533.123 275.352 532.763 275.352 530.723ZM286.995 529.163L287.643 528.803H292.227L292.875 529.163V537.803L290.955 538.883H295.995L294.075 537.803V529.163L295.995 528.083H283.875L285.795 529.163V537.803L283.875 538.883H288.915L286.995 537.803V529.163ZM302.48 528.371C304.472 528.371 306.632 530.123 306.632 534.107C306.632 536.939 304.928 538.595 303.152 538.595C301.184 538.595 299 536.843 299 532.859C299 529.979 300.728 528.371 302.48 528.371ZM297.68 533.483C297.68 536.723 299.48 539.243 302.816 539.243C305.912 539.243 307.952 536.723 307.952 533.483C307.952 530.243 306.152 527.723 302.816 527.723C299.72 527.723 297.68 530.243 297.68 533.483ZM324.987 536.003L324.027 537.683H318.123L320.979 535.259C323.403 533.195 324.507 532.523 324.507 530.843C324.507 529.763 323.667 527.723 320.307 527.723C317.307 527.723 316.107 529.523 316.107 530.963C316.107 531.923 316.707 532.355 317.259 532.355C317.763 532.355 318.123 531.971 318.123 531.539C318.123 530.699 317.307 530.843 317.307 530.243C317.307 529.163 318.507 528.323 320.307 528.323C322.107 528.323 323.307 529.403 323.307 530.843C323.307 532.283 322.347 533.171 320.283 534.923L315.627 538.883H324.987V536.003ZM331.706 542.483H336.746L334.826 541.403V538.883H338.186V538.163H334.826V527.723L326.546 538.883H333.626V541.403L331.706 542.483ZM333.626 538.163H327.986L333.626 530.555V538.163ZM76.6563 564.883H82.1763L80.0163 563.803V554.803H82.6563L84.0963 557.443V554.083H74.7363V557.443L76.1763 554.803H78.8163V563.803L76.6563 564.883ZM95.3875 558.403C95.3875 555.763 94.3075 553.723 91.2595 553.723C88.4035 553.723 86.0275 555.979 86.0275 559.483C86.0275 562.723 87.9475 565.243 91.0675 565.243C94.6675 565.243 95.3875 561.763 95.3875 561.763C95.3875 561.763 94.3075 564.163 91.6675 564.163C89.2675 564.163 87.2275 562.675 87.2275 559.099C87.2275 558.859 87.2275 558.643 87.2515 558.403H95.3875ZM91.2115 554.299C92.8915 554.299 94.0675 555.403 94.0675 556.603C94.0675 557.563 93.2275 557.683 92.0275 557.683H87.3715C87.8995 555.379 89.6995 554.299 91.2115 554.299ZM100.061 563.803V555.643L104.501 565.243L108.941 555.331V563.803L107.021 564.883H112.061L110.141 563.803V555.163L112.061 554.083H108.701L104.765 562.939L100.661 554.083H97.3009L99.2209 555.163V563.803L97.3009 564.883H101.981L100.061 563.803ZM116.947 559.099C115.315 559.675 113.851 560.803 113.851 562.483C113.851 564.187 114.931 565.243 116.587 565.243C117.547 565.243 118.363 564.763 118.915 564.403L120.691 563.227C120.691 564.499 120.691 565.243 121.531 565.243C122.371 565.243 124.051 563.203 124.051 563.203L121.891 564.043V557.203C121.891 555.163 121.027 553.723 118.411 553.723C116.971 553.723 114.259 555.043 114.259 556.531C114.259 557.227 114.667 557.539 115.123 557.539C115.579 557.539 115.987 557.275 115.987 556.531C115.987 556.195 115.939 555.955 115.939 555.763C115.939 555.163 116.707 554.443 118.171 554.443C119.491 554.443 120.691 555.067 120.691 557.203V557.803L116.947 559.099ZM119.203 563.443C118.507 563.899 117.907 564.355 116.971 564.355C115.771 564.355 115.123 563.395 115.123 562.363C115.123 561.043 115.723 560.227 117.811 559.483L120.691 558.475V562.459L119.203 563.443ZM126.695 564.883H132.215L130.055 563.803V554.803H132.695L134.135 557.443V554.083H124.775V557.443L126.215 554.803H128.855V563.803L126.695 564.883ZM143.387 564.883H148.427L146.507 563.803V555.163L148.427 554.083H143.387L145.307 555.163V555.403L139.187 562.459V555.163L141.107 554.083H136.067L137.987 555.163V563.803L136.067 564.883H141.107L139.187 563.803V563.563L145.307 556.507V563.803L143.387 564.883ZM159.058 564.883H161.386L159.682 563.803L154.594 558.811L158.458 555.163L161.146 554.083H156.106L157.546 555.043L153.226 559.147V555.163L155.146 554.083H150.106L152.026 555.163V563.803L150.106 564.883H155.146L153.226 563.803V559.147L159.058 564.883ZM165.79 559.099C164.158 559.675 162.694 560.803 162.694 562.483C162.694 564.187 163.774 565.243 165.43 565.243C166.39 565.243 167.206 564.763 167.758 564.403L169.534 563.227C169.534 564.499 169.534 565.243 170.374 565.243C171.214 565.243 172.894 563.203 172.894 563.203L170.734 564.043V557.203C170.734 555.163 169.87 553.723 167.254 553.723C165.814 553.723 163.102 555.043 163.102 556.531C163.102 557.227 163.51 557.539 163.966 557.539C164.422 557.539 164.83 557.275 164.83 556.531C164.83 556.195 164.782 555.955 164.782 555.763C164.782 555.163 165.55 554.443 167.014 554.443C168.334 554.443 169.534 555.067 169.534 557.203V557.803L165.79 559.099ZM168.046 563.443C167.35 563.899 166.75 564.355 165.814 564.355C164.614 564.355 163.966 563.395 163.966 562.363C163.966 561.043 164.566 560.227 166.654 559.483L169.534 558.475V562.459L168.046 563.443ZM176.608 563.803V555.643L181.048 565.243L185.488 555.331V563.803L183.568 564.883H188.608L186.688 563.803V555.163L188.608 554.083H185.248L181.312 562.939L177.208 554.083H173.848L175.768 555.163V563.803L173.848 564.883H178.528L176.608 563.803ZM190.878 563.803C190.878 564.475 191.406 565.003 192.078 565.003H192.198L190.998 567.763C193.158 565.123 193.278 564.643 193.278 563.803C193.278 563.131 192.75 562.603 192.078 562.603C191.406 562.603 190.878 563.131 190.878 563.803ZM207.185 559.675C208.865 559.675 210.305 560.203 210.305 561.883C210.305 563.563 208.745 564.163 207.305 564.163H205.553L204.905 563.803V559.675H207.185ZM204.905 558.955V555.163L205.553 554.803H206.825C208.265 554.803 209.825 555.235 209.825 556.771C209.825 558.379 208.385 558.955 206.705 558.955H204.905ZM211.145 556.723C211.145 554.491 208.625 554.083 206.705 554.083H201.785L203.705 555.163V563.803L201.785 564.883H207.305C209.225 564.883 211.625 564.163 211.625 561.883C211.625 559.363 208.745 559.195 208.745 559.195V559.123C208.745 559.123 211.145 558.763 211.145 556.723ZM228.62 564.883H230.948L229.244 563.803L224.156 558.811L228.02 555.163L230.708 554.083H225.668L227.108 555.043L222.788 559.147V555.163L224.708 554.083H219.668L221.588 555.163V563.803L219.668 564.883H224.708L222.788 563.803V559.147L228.62 564.883ZM238.377 564.883H243.417L241.497 563.803V555.163L243.417 554.083H233.577L235.497 555.163V556.603C235.497 561.283 234.633 563.659 233.697 563.659C233.145 563.659 233.217 563.059 232.545 563.059C232.065 563.059 231.657 563.443 231.657 564.019C231.657 564.859 232.401 565.123 232.929 565.123C235.737 565.123 236.337 560.563 236.337 556.603V555.163L236.985 554.803H239.649L240.297 555.163V563.803L238.377 564.883ZM248.314 559.099C246.682 559.675 245.218 560.803 245.218 562.483C245.218 564.187 246.298 565.243 247.954 565.243C248.914 565.243 249.73 564.763 250.282 564.403L252.058 563.227C252.058 564.499 252.058 565.243 252.898 565.243C253.738 565.243 255.418 563.203 255.418 563.203L253.258 564.043V557.203C253.258 555.163 252.394 553.723 249.778 553.723C248.338 553.723 245.626 555.043 245.626 556.531C245.626 557.227 246.034 557.539 246.49 557.539C246.946 557.539 247.354 557.275 247.354 556.531C247.354 556.195 247.306 555.955 247.306 555.763C247.306 555.163 248.074 554.443 249.538 554.443C250.858 554.443 252.058 555.067 252.058 557.203V557.803L248.314 559.099ZM250.57 563.443C249.874 563.899 249.274 564.355 248.338 564.355C247.138 564.355 246.49 563.395 246.49 562.363C246.49 561.043 247.09 560.227 249.178 559.483L252.058 558.475V562.459L250.57 563.443ZM261.555 554.299C263.595 554.299 263.811 555.523 263.811 555.763C263.811 556.147 263.595 556.219 263.595 556.747C263.595 557.275 263.931 557.635 264.507 557.635C265.107 557.635 265.419 557.155 265.419 556.531C265.419 555.211 264.003 553.723 261.603 553.723C258.747 553.723 256.371 556.003 256.371 559.483C256.371 562.723 258.291 565.243 261.411 565.243C265.011 565.243 265.731 561.763 265.731 561.763C265.731 561.763 264.651 564.163 262.011 564.163C259.611 564.163 257.571 562.675 257.571 559.099C257.571 555.811 259.875 554.299 261.555 554.299ZM272.594 554.299C274.634 554.299 274.85 555.523 274.85 555.763C274.85 556.147 274.634 556.219 274.634 556.747C274.634 557.275 274.97 557.635 275.546 557.635C276.146 557.635 276.458 557.155 276.458 556.531C276.458 555.211 275.042 553.723 272.642 553.723C269.786 553.723 267.41 556.003 267.41 559.483C267.41 562.723 269.33 565.243 272.45 565.243C276.05 565.243 276.77 561.763 276.77 561.763C276.77 561.763 275.69 564.163 273.05 564.163C270.65 564.163 268.61 562.675 268.61 559.099C268.61 555.811 270.914 554.299 272.594 554.299ZM285.769 564.883H290.809L288.889 563.803V555.163L290.809 554.083H285.769L287.689 555.163V555.403L281.569 562.459V555.163L283.489 554.083H278.449L280.369 555.163V563.803L278.449 564.883H283.489L281.569 563.803V563.563L287.689 556.507V563.803L285.769 564.883ZM300.408 563.803L298.008 564.883H303.528L301.608 563.803V555.163L303.528 554.083H298.488L300.408 555.163V558.763C300.408 558.763 299.208 559.843 297.408 559.843C295.968 559.843 295.008 559.003 295.008 557.323V555.163L296.928 554.083H291.888L293.808 555.163V557.323C293.808 559.723 295.248 560.563 297.048 560.563C298.968 560.563 300.408 559.363 300.408 559.363V563.803ZM314.575 558.403C314.575 555.763 313.495 553.723 310.447 553.723C307.591 553.723 305.215 555.979 305.215 559.483C305.215 562.723 307.135 565.243 310.255 565.243C313.855 565.243 314.575 561.763 314.575 561.763C314.575 561.763 313.495 564.163 310.855 564.163C308.455 564.163 306.415 562.675 306.415 559.099C306.415 558.859 306.415 558.643 306.439 558.403H314.575ZM310.399 554.299C312.079 554.299 313.255 555.403 313.255 556.603C313.255 557.563 312.415 557.683 311.215 557.683L306.559 557.683C307.087 555.379 308.887 554.299 310.399 554.299ZM321.672 554.299C323.712 554.299 323.928 555.523 323.928 555.763C323.928 556.147 323.712 556.219 323.712 556.747C323.712 557.275 324.048 557.635 324.624 557.635C325.224 557.635 325.536 557.155 325.536 556.531C325.536 555.211 324.12 553.723 321.72 553.723C318.864 553.723 316.488 556.003 316.488 559.483C316.488 562.723 318.408 565.243 321.528 565.243C325.128 565.243 325.848 561.763 325.848 561.763C325.848 561.763 324.768 564.163 322.128 564.163C319.728 564.163 317.688 562.675 317.688 559.099C317.688 555.811 319.992 554.299 321.672 554.299ZM336.48 564.883H338.808L337.104 563.803L332.016 558.811L335.88 555.163L338.568 554.083H333.528L334.968 555.043L330.648 559.147V555.163L332.568 554.083H327.528L329.448 555.163V563.803L327.528 564.883H332.568L330.648 563.803V559.147L336.48 564.883ZM344.328 554.371C346.32 554.371 348.48 556.123 348.48 560.107C348.48 562.939 346.776 564.595 345 564.595C343.032 564.595 340.848 562.843 340.848 558.859C340.848 555.979 342.576 554.371 344.328 554.371ZM339.528 559.483C339.528 562.723 341.328 565.243 344.664 565.243C347.76 565.243 349.8 562.723 349.8 559.483C349.8 556.243 348 553.723 344.664 553.723C341.568 553.723 339.528 556.243 339.528 559.483ZM354.241 563.803V555.643L358.681 565.243L363.121 555.331V563.803L361.201 564.883H366.241L364.321 563.803V555.163L366.241 554.083H362.881L358.945 562.939L354.841 554.083H351.481L353.401 555.163V563.803L351.481 564.883H356.161L354.241 563.803ZM368.51 563.803C368.51 564.475 369.038 565.003 369.71 565.003H369.83L368.63 567.763C370.79 565.123 370.91 564.643 370.91 563.803C370.91 563.131 370.382 562.603 369.71 562.603C369.038 562.603 368.51 563.131 368.51 563.803ZM88.2283 585.675C89.9083 585.675 91.3483 586.203 91.3483 587.883C91.3483 589.563 89.7883 590.163 88.3483 590.163H86.5963L85.9483 589.803V585.675H88.2283ZM85.9483 584.955V581.163L86.5963 580.803H87.8683C89.3083 580.803 90.8683 581.235 90.8683 582.771C90.8683 584.379 89.4283 584.955 87.7483 584.955H85.9483ZM92.1883 582.723C92.1883 580.491 89.6683 580.083 87.7483 580.083H82.8283L84.7483 581.163V589.803L82.8283 590.883H88.3483C90.2683 590.883 92.6683 590.163 92.6683 587.883C92.6683 585.363 89.7883 585.195 89.7883 585.195V585.123C89.7883 585.123 92.1883 584.763 92.1883 582.723ZM101.797 590.883H106.837L104.917 589.803V581.163L106.837 580.083H101.797L103.717 581.163V581.403L97.5967 588.459V581.163L99.5167 580.083H94.4767L96.3967 581.163V589.803L94.4767 590.883H99.5167L97.5967 589.803V589.563L103.717 582.507V589.803L101.797 590.883ZM107.916 590.163L109.236 595.443V590.883H119.076V595.443L120.396 590.163H118.644L117.996 589.803V581.163L119.916 580.083H110.076L111.996 581.163V582.603C111.996 586.563 110.964 590.163 109.068 590.163H107.916ZM116.796 589.803L116.148 590.163H110.796C110.796 590.163 112.836 588.963 112.836 582.603V581.163L113.484 580.803H116.148L116.796 581.163V589.803ZM131.071 584.403C131.071 581.763 129.991 579.723 126.943 579.723C124.087 579.723 121.711 581.979 121.711 585.483C121.711 588.723 123.631 591.243 126.751 591.243C130.351 591.243 131.071 587.763 131.071 587.763C131.071 587.763 129.991 590.163 127.351 590.163C124.951 590.163 122.911 588.675 122.911 585.099C122.911 584.859 122.911 584.643 122.935 584.403H131.071ZM126.895 580.299C128.575 580.299 129.751 581.403 129.751 582.603C129.751 583.563 128.911 583.683 127.711 583.683H123.055C123.583 581.379 125.383 580.299 126.895 580.299ZM137.785 580.371C139.777 580.371 141.937 582.123 141.937 586.107C141.937 588.939 140.233 590.595 138.457 590.595C136.489 590.595 134.305 588.843 134.305 584.859C134.305 581.979 136.033 580.371 137.785 580.371ZM132.985 585.483C132.985 588.723 134.785 591.243 138.121 591.243C141.217 591.243 143.257 588.723 143.257 585.483C143.257 582.243 141.457 579.723 138.121 579.723C135.025 579.723 132.985 582.243 132.985 585.483ZM158.492 590.883H163.532L161.612 589.803V581.163L163.532 580.083H158.492L160.412 581.163V581.403L154.292 588.459V581.163L156.212 580.083H151.172L153.092 581.163V589.803L151.172 590.883H156.212L154.292 589.803V589.563L160.412 582.507V589.803L158.492 590.883ZM171.451 590.883H176.491L174.571 589.803V581.163L176.491 580.083H166.651L168.571 581.163V582.603C168.571 587.283 167.707 589.659 166.771 589.659C166.219 589.659 166.291 589.059 165.619 589.059C165.139 589.059 164.731 589.443 164.731 590.019C164.731 590.859 165.475 591.123 166.003 591.123C168.811 591.123 169.411 586.563 169.411 582.603V581.163L170.059 580.803H172.723L173.371 581.163V589.803L171.451 590.883ZM185.492 590.883H190.532L188.612 589.803V581.163L190.532 580.083H185.492L187.412 581.163V581.403L181.292 588.459V581.163L183.212 580.083H178.172L180.092 581.163V589.803L178.172 590.883H183.212L181.292 589.803V589.563L187.412 582.507V589.803L185.492 590.883ZM205.765 590.883H210.805L208.885 589.803V581.163L210.805 580.083H205.765L207.685 581.163V581.403L201.565 588.459V581.163L203.485 580.083H198.445L200.365 581.163V589.803L198.445 590.883H203.485L201.565 589.803V589.563L207.685 582.507V589.803L205.765 590.883ZM212.485 590.883H217.525L215.605 589.803V585.675H221.485V589.803L219.565 590.883H224.605L222.685 589.803V581.163L224.605 580.083H219.565L221.485 581.163V584.955H215.605V581.163L217.525 580.083H212.485L214.405 581.163V589.803L212.485 590.883ZM228.449 590.883H233.969L231.809 589.803V580.803H234.449L235.889 583.443V580.083H226.529V583.443L227.969 580.803H230.609V589.803L228.449 590.883ZM247.18 584.403C247.18 581.763 246.1 579.723 243.052 579.723C240.196 579.723 237.82 581.979 237.82 585.483C237.82 588.723 239.74 591.243 242.86 591.243C246.46 591.243 247.18 587.763 247.18 587.763C247.18 587.763 246.1 590.163 243.46 590.163C241.06 590.163 239.02 588.675 239.02 585.099C239.02 584.859 239.02 584.643 239.044 584.403H247.18ZM243.004 580.299C244.684 580.299 245.86 581.403 245.86 582.603C245.86 583.563 245.02 583.683 243.82 583.683H239.164C239.692 581.379 241.492 580.299 243.004 580.299ZM250.654 594.843L248.734 595.923H253.774L251.854 594.843V589.347C251.926 589.515 252.814 591.243 255.214 591.243C257.374 591.243 259.894 589.563 259.894 585.483C259.894 581.043 257.614 579.723 255.454 579.723C252.934 579.723 251.854 582.003 251.854 582.003V579.723L248.734 580.683L250.654 581.283V594.843ZM251.854 583.203C251.854 583.203 252.694 580.443 255.094 580.443C256.918 580.443 258.574 581.883 258.574 585.483C258.574 588.843 256.918 590.523 255.094 590.523C253.054 590.523 251.854 588.963 251.854 587.163V583.203ZM264.919 585.099C263.287 585.675 261.823 586.803 261.823 588.483C261.823 590.187 262.903 591.243 264.559 591.243C265.519 591.243 266.335 590.763 266.887 590.403L268.663 589.227C268.663 590.499 268.663 591.243 269.503 591.243C270.343 591.243 272.023 589.203 272.023 589.203L269.863 590.043V583.203C269.863 581.163 268.999 579.723 266.383 579.723C264.943 579.723 262.231 581.043 262.231 582.531C262.231 583.227 262.639 583.539 263.095 583.539C263.551 583.539 263.959 583.275 263.959 582.531C263.959 582.195 263.911 581.955 263.911 581.763C263.911 581.163 264.679 580.443 266.143 580.443C267.463 580.443 268.663 581.067 268.663 583.203V583.803L264.919 585.099ZM267.175 589.443C266.479 589.899 265.879 590.355 264.943 590.355C263.743 590.355 263.095 589.395 263.095 588.363C263.095 587.043 263.695 586.227 265.783 585.483L268.663 584.475V588.459L267.175 589.443ZM281.929 590.883H284.257L282.553 589.803L277.465 584.811L281.329 581.163L284.017 580.083H278.977L280.417 581.043L276.097 585.147V581.163L278.017 580.083H272.977L274.897 581.163V589.803L272.977 590.883H278.017L276.097 589.803V585.147L281.929 590.883ZM287.605 590.883H293.125L290.965 589.803V580.803H293.605L295.045 583.443V580.083H285.685V583.443L287.125 580.803H289.765V589.803L287.605 590.883ZM304.297 590.883H309.337L307.417 589.803V581.163L309.337 580.083H304.297L306.217 581.163V581.403L300.097 588.459V581.163L302.017 580.083H296.977L298.897 581.163V589.803L296.977 590.883H302.017L300.097 589.803V589.563L306.217 582.507V589.803L304.297 590.883ZM316.416 585.675C318.096 585.675 319.536 586.203 319.536 587.883C319.536 589.563 317.976 590.163 316.536 590.163H314.784L314.136 589.803V585.675H316.416ZM314.136 584.955V581.163L314.784 580.803H316.056C317.496 580.803 319.056 581.235 319.056 582.771C319.056 584.379 317.616 584.955 315.936 584.955H314.136ZM320.376 582.723C320.376 580.491 317.856 580.083 315.936 580.083H311.016L312.936 581.163V589.803L311.016 590.883H316.536C318.456 590.883 320.856 590.163 320.856 587.883C320.856 585.363 317.976 585.195 317.976 585.195V585.123C317.976 585.123 320.376 584.763 320.376 582.723ZM322.664 590.883H327.704L325.784 589.803V585.675H331.664V589.803L329.744 590.883H334.784L332.864 589.803V581.163L334.784 580.083H329.744L331.664 581.163V584.955H325.784V581.163L327.704 580.083H322.664L324.584 581.163V589.803L322.664 590.883ZM341.269 580.371C343.261 580.371 345.421 582.123 345.421 586.107C345.421 588.939 343.717 590.595 341.941 590.595C339.973 590.595 337.789 588.843 337.789 584.859C337.789 581.979 339.517 580.371 341.269 580.371ZM336.469 585.483C336.469 588.723 338.269 591.243 341.605 591.243C344.701 591.243 346.741 588.723 346.741 585.483C346.741 582.243 344.941 579.723 341.605 579.723C338.509 579.723 336.469 582.243 336.469 585.483ZM351.182 589.803V581.643L355.622 591.243L360.062 581.331V589.803L358.142 590.883H363.182L361.262 589.803V581.163L363.182 580.083H359.822L355.886 588.939L351.782 580.083H348.422L350.342 581.163V589.803L348.422 590.883H353.102L351.182 589.803ZM188.703 606.443C190.503 606.443 191.703 608.243 191.703 611.483C191.703 614.723 190.503 616.523 188.703 616.523C186.927 616.523 186.327 614.939 186.303 614.867V608.123C186.303 608.123 186.903 606.443 188.703 606.443ZM185.103 614.843C185.103 614.843 184.503 616.523 182.703 616.523C180.903 616.523 179.703 614.723 179.703 611.483C179.703 608.243 180.903 606.443 182.703 606.443C184.503 606.443 185.103 608.123 185.103 608.123V614.843ZM185.103 601.283V607.283C185.031 607.139 184.287 605.723 182.463 605.723C180.183 605.723 178.383 607.643 178.383 611.483C178.383 615.323 180.183 617.243 182.463 617.243C184.335 617.243 185.055 615.779 185.103 615.707V620.843L183.183 621.923H188.223L186.303 620.843V615.707C186.375 615.851 187.119 617.243 188.943 617.243C191.223 617.243 193.023 615.323 193.023 611.483C193.023 607.643 191.223 605.723 188.943 605.723C187.167 605.723 186.375 607.067 186.303 607.283V599.723L183.183 600.683L185.103 601.283ZM199.495 606.371C201.487 606.371 203.647 608.123 203.647 612.107C203.647 614.939 201.943 616.595 200.167 616.595C198.199 616.595 196.015 614.843 196.015 610.859C196.015 607.979 197.743 606.371 199.495 606.371ZM194.695 611.483C194.695 614.723 196.495 617.243 199.831 617.243C202.927 617.243 204.967 614.723 204.967 611.483C204.967 608.243 203.167 605.723 199.831 605.723C196.735 605.723 194.695 608.243 194.695 611.483ZM208.209 620.843L206.289 621.923H211.329L209.409 620.843V615.347C209.481 615.515 210.369 617.243 212.769 617.243C214.929 617.243 217.449 615.563 217.449 611.483C217.449 607.043 215.169 605.723 213.009 605.723C210.489 605.723 209.409 608.003 209.409 608.003V605.723L206.289 606.683L208.209 607.283V620.843ZM209.409 609.203C209.409 609.203 210.249 606.443 212.649 606.443C214.473 606.443 216.129 607.883 216.129 611.483C216.129 614.843 214.473 616.523 212.649 616.523C210.609 616.523 209.409 614.963 209.409 613.163V609.203ZM222.018 615.803V607.643L226.458 617.243L230.898 607.331V615.803L228.978 616.883H234.018L232.098 615.803V607.163L234.018 606.083H230.658L226.722 614.939L222.618 606.083H219.258L221.178 607.163V615.803L219.258 616.883H223.938L222.018 615.803ZM238.904 611.099C237.272 611.675 235.808 612.803 235.808 614.483C235.808 616.187 236.888 617.243 238.544 617.243C239.504 617.243 240.32 616.763 240.872 616.403L242.648 615.227C242.648 616.499 242.648 617.243 243.488 617.243C244.328 617.243 246.008 615.203 246.008 615.203L243.848 616.043V609.203C243.848 607.163 242.984 605.723 240.368 605.723C238.928 605.723 236.216 607.043 236.216 608.531C236.216 609.227 236.624 609.539 237.08 609.539C237.536 609.539 237.944 609.275 237.944 608.531C237.944 608.195 237.896 607.955 237.896 607.763C237.896 607.163 238.664 606.443 240.128 606.443C241.448 606.443 242.648 607.067 242.648 609.203V609.803L238.904 611.099ZM241.16 615.443C240.464 615.899 239.864 616.355 238.928 616.355C237.728 616.355 237.08 615.395 237.08 614.363C237.08 613.043 237.68 612.227 239.768 611.483L242.648 610.475V614.459L241.16 615.443ZM248.652 616.883H254.172L252.012 615.803V606.803H254.652L256.092 609.443V606.083H246.732V609.443L248.172 606.803H250.812V615.803L248.652 616.883ZM267.384 610.403C267.384 607.763 266.304 605.723 263.256 605.723C260.4 605.723 258.024 607.979 258.024 611.483C258.024 614.723 259.944 617.243 263.064 617.243C266.664 617.243 267.384 613.763 267.384 613.763C267.384 613.763 266.304 616.163 263.664 616.163C261.264 616.163 259.224 614.675 259.224 611.099C259.224 610.859 259.224 610.643 259.248 610.403H267.384ZM263.208 606.299C264.888 606.299 266.064 607.403 266.064 608.603C266.064 609.563 265.224 609.683 264.024 609.683H259.368C259.896 607.379 261.696 606.299 263.208 606.299Z" fill="#313131"/>
</g>
<defs>
<filter id="filter0_di_935_6084" x="0.318182" y="0.360756" width="445.272" height="671.192" filterUnits="userSpaceOnUse" color-interpolation-filters="sRGB">
<feFlood flood-opacity="0" result="BackgroundImageFix"/>
<feColorMatrix in="SourceAlpha" type="matrix" values="0 0 0 0 0 0 0 0 0 0 0 0 0 0 0 0 0 0 127 0" result="hardAlpha"/>
<feOffset dy="4.04257"/>
<feGaussianBlur stdDeviation="3.34091"/>
<feComposite in2="hardAlpha" operator="out"/>
<feColorMatrix type="matrix" values="0 0 0 0 0 0 0 0 0 0 0 0 0 0 0 0 0 0 0.25 0"/>
<feBlend mode="normal" in2="BackgroundImageFix" result="effect1_dropShadow_935_6084"/>
<feBlend mode="normal" in="SourceGraphic" in2="effect1_dropShadow_935_6084" result="shape"/>
<feColorMatrix in="SourceAlpha" type="matrix" values="0 0 0 0 0 0 0 0 0 0 0 0 0 0 0 0 0 0 127 0" result="hardAlpha"/>
<feOffset dy="4.04257"/>
<feGaussianBlur stdDeviation="5.05322"/>
<feComposite in2="hardAlpha" operator="arithmetic" k2="-1" k3="1"/>
<feColorMatrix type="matrix" values="0 0 0 0 0.972549 0 0 0 0 0.964706 0 0 0 0 0.941176 0 0 0 1 0"/>
<feBlend mode="normal" in2="shape" result="effect2_innerShadow_935_6084"/>
</filter>
<filter id="filter1_di_935_6084" x="46.3182" y="35.2436" width="351.364" height="409.364" filterUnits="userSpaceOnUse" color-interpolation-filters="sRGB">
<feFlood flood-opacity="0" result="BackgroundImageFix"/>
<feColorMatrix in="SourceAlpha" type="matrix" values="0 0 0 0 0 0 0 0 0 0 0 0 0 0 0 0 0 0 127 0" result="hardAlpha"/>
<feOffset dy="4.04257"/>
<feGaussianBlur stdDeviation="3.34091"/>
<feComposite in2="hardAlpha" operator="out"/>
<feColorMatrix type="matrix" values="0 0 0 0 0 0 0 0 0 0 0 0 0 0 0 0 0 0 0.25 0"/>
<feBlend mode="normal" in2="BackgroundImageFix" result="effect1_dropShadow_935_6084"/>
<feBlend mode="normal" in="SourceGraphic" in2="effect1_dropShadow_935_6084" result="shape"/>
<feColorMatrix in="SourceAlpha" type="matrix" values="0 0 0 0 0 0 0 0 0 0 0 0 0 0 0 0 0 0 127 0" result="hardAlpha"/>
<feOffset dy="4.04257"/>
<feGaussianBlur stdDeviation="5.05322"/>
<feComposite in2="hardAlpha" operator="arithmetic" k2="-1" k3="1"/>
<feColorMatrix type="matrix" values="0 0 0 0 0.972549 0 0 0 0 0.964706 0 0 0 0 0.941176 0 0 0 1 0"/>
<feBlend mode="normal" in2="shape" result="effect2_innerShadow_935_6084"/>
</filter>
<filter id="filter2_d_935_6084" x="63.9097" y="234.035" width="318.679" height="128.175" filterUnits="userSpaceOnUse" color-interpolation-filters="sRGB">
<feFlood flood-opacity="0" result="BackgroundImageFix"/>
<feColorMatrix in="SourceAlpha" type="matrix" values="0 0 0 0 0 0 0 0 0 0 0 0 0 0 0 0 0 0 127 0" result="hardAlpha"/>
<feOffset/>
<feGaussianBlur stdDeviation="6.06373"/>
<feComposite in2="hardAlpha" operator="out"/>
<feColorMatrix type="matrix" values="0 0 0 0 0.972549 0 0 0 0 0.964706 0 0 0 0 0.941176 0 0 0 1 0"/>
<feBlend mode="normal" in2="BackgroundImageFix" result="effect1_dropShadow_935_6084"/>
<feBlend mode="normal" in="SourceGraphic" in2="effect1_dropShadow_935_6084" result="shape"/>
</filter>
<filter id="filter3_d_935_6084" x="54.769" y="373.156" width="337.681" height="65.294" filterUnits="userSpaceOnUse" color-interpolation-filters="sRGB">
<feFlood flood-opacity="0" result="BackgroundImageFix"/>
<feColorMatrix in="SourceAlpha" type="matrix" values="0 0 0 0 0 0 0 0 0 0 0 0 0 0 0 0 0 0 127 0" result="hardAlpha"/>
<feOffset/>
<feGaussianBlur stdDeviation="6.06373"/>
<feComposite in2="hardAlpha" operator="out"/>
<feColorMatrix type="matrix" values="0 0 0 0 0.972549 0 0 0 0 0.964706 0 0 0 0 0.941176 0 0 0 1 0"/>
<feBlend mode="normal" in2="BackgroundImageFix" result="effect1_dropShadow_935_6084"/>
<feBlend mode="normal" in="SourceGraphic" in2="effect1_dropShadow_935_6084" result="shape"/>
</filter>
<filter id="filter4_d_935_6084" x="53.4663" y="341.576" width="338.558" height="59.3545" filterUnits="userSpaceOnUse" color-interpolation-filters="sRGB">
<feFlood flood-opacity="0" result="BackgroundImageFix"/>
<feColorMatrix in="SourceAlpha" type="matrix" values="0 0 0 0 0 0 0 0 0 0 0 0 0 0 0 0 0 0 127 0" result="hardAlpha"/>
<feOffset/>
<feGaussianBlur stdDeviation="6.06373"/>
<feComposite in2="hardAlpha" operator="out"/>
<feColorMatrix type="matrix" values="0 0 0 0 0.972549 0 0 0 0 0.964706 0 0 0 0 0.941176 0 0 0 1 0"/>
<feBlend mode="normal" in2="BackgroundImageFix" result="effect1_dropShadow_935_6084"/>
<feBlend mode="normal" in="SourceGraphic" in2="effect1_dropShadow_935_6084" result="shape"/>
</filter>
<filter id="filter5_d_935_6084" x="182.48" y="46.4897" width="80.0362" height="65.9737" filterUnits="userSpaceOnUse" color-interpolation-filters="sRGB">
<feFlood flood-opacity="0" result="BackgroundImageFix"/>
<feColorMatrix in="SourceAlpha" type="matrix" values="0 0 0 0 0 0 0 0 0 0 0 0 0 0 0 0 0 0 127 0" result="hardAlpha"/>
<feOffset/>
<feGaussianBlur stdDeviation="6.06373"/>
<feComposite in2="hardAlpha" operator="out"/>
<feColorMatrix type="matrix" values="0 0 0 0 0.972549 0 0 0 0 0.964706 0 0 0 0 0.941176 0 0 0 1 0"/>
<feBlend mode="normal" in2="BackgroundImageFix" result="effect1_dropShadow_935_6084"/>
<feBlend mode="normal" in="SourceGraphic" in2="effect1_dropShadow_935_6084" result="shape"/>
</filter>
<filter id="filter6_d_935_6084" x="62.6089" y="515.595" width="320.429" height="118.454" filterUnits="userSpaceOnUse" color-interpolation-filters="sRGB">
<feFlood flood-opacity="0" result="BackgroundImageFix"/>
<feColorMatrix in="SourceAlpha" type="matrix" values="0 0 0 0 0 0 0 0 0 0 0 0 0 0 0 0 0 0 127 0" result="hardAlpha"/>
<feOffset/>
<feGaussianBlur stdDeviation="6.06373"/>
<feComposite in2="hardAlpha" operator="out"/>
<feColorMatrix type="matrix" values="0 0 0 0 0.972549 0 0 0 0 0.964706 0 0 0 0 0.941176 0 0 0 1 0"/>
<feBlend mode="normal" in2="BackgroundImageFix" result="effect1_dropShadow_935_6084"/>
<feBlend mode="normal" in="SourceGraphic" in2="effect1_dropShadow_935_6084" result="shape"/>
</filter>
<radialGradient id="paint0_radial_935_6084" cx="0" cy="0" r="1" gradientUnits="userSpaceOnUse" gradientTransform="translate(235.651 2.54252) rotate(91.9713) scale(378.499 425.537)">
<stop stop-color="#FFAFE9"/>
<stop offset="0.776042" stop-color="#FF94E1" stop-opacity="0"/>
</radialGradient>
</defs>
</svg>
