<svg width="914" height="652" viewBox="0 0 914 652" fill="none" xmlns="http://www.w3.org/2000/svg">
<g filter="url(#filter0_di_1048_6053)">
<rect x="7" y="3" width="900" height="638" rx="22" fill="#F5F6EE"/>
<rect x="7" y="3" width="900" height="638" rx="22" fill="url(#paint0_radial_1048_6053)"/>
</g>
<g filter="url(#filter1_di_1048_6053)">
<path fill-rule="evenodd" clip-rule="evenodd" d="M800 178C800 172.477 795.523 168 790 168L121 168C115.477 168 111 172.477 111 178V251C111 256.523 115.477 261 121 261H287C292.523 261 297 265.477 297 271V308C297 313.523 292.523 318 287 318H50C44.4772 318 40 322.477 40 328V396C40 401.523 44.4772 406 50 406H287C292.523 406 297 410.477 297 416V466C297 471.523 301.477 476 307 476H606C611.523 476 616 471.523 616 466V416C616 410.477 620.477 406 626 406H864C869.523 406 874 401.523 874 396V328C874 322.477 869.523 318 864 318H626C620.477 318 616 313.523 616 308V271C616 265.477 620.477 261 626 261H790C795.523 261 800 256.523 800 251V178Z" fill="#D9D9D9" fill-opacity="0.01"/>
</g>
<g filter="url(#filter2_d_1048_6053)">
<path d="M138.094 260.4H146.254V237.36C146.254 237.36 151.054 247.44 162.574 247.44C177.934 247.44 184.654 235.44 184.654 222C184.654 208.56 177.934 196.56 162.574 196.56C151.054 196.56 146.254 206.64 146.254 206.64V198H138.094V260.4ZM161.134 202.32C169.294 202.32 176.014 208.08 176.014 222C176.014 235.92 169.294 241.68 161.134 241.68C152.974 241.68 146.254 234.96 146.254 222C146.254 209.04 152.974 202.32 161.134 202.32ZM212.967 247.44C224.967 247.44 232.167 240.72 234.087 231.6H225.927C224.487 238.32 219.207 241.68 212.967 241.68C205.191 241.68 198.663 236.496 198.087 223.92H234.567V220.08C234.567 208.56 228.327 196.56 212.487 196.56C197.127 196.56 189.447 208.08 189.447 222C189.447 235.92 197.127 247.44 212.967 247.44ZM212.487 202.32C219.783 202.32 225.927 207.12 225.927 218.16H198.279C199.335 207.024 205.095 202.32 212.487 202.32ZM240.282 246H248.442V204.24H273.402V246H281.562V198H240.282V246ZM288.282 260.4H296.442V237.36C296.442 237.36 301.242 247.44 312.762 247.44C328.122 247.44 334.842 235.44 334.842 222C334.842 208.56 328.122 196.56 312.762 196.56C301.242 196.56 296.442 206.64 296.442 206.64V198H288.282V260.4ZM311.322 202.32C319.482 202.32 326.202 208.08 326.202 222C326.202 235.92 319.482 241.68 311.322 241.68C303.162 241.68 296.442 234.96 296.442 222C296.442 209.04 303.162 202.32 311.322 202.32ZM363.154 247.44C375.154 247.44 382.354 240.72 384.274 231.6H376.114C374.674 238.32 369.394 241.68 363.154 241.68C355.378 241.68 348.85 236.496 348.274 223.92H384.754V220.08C384.754 208.56 378.514 196.56 362.674 196.56C347.314 196.56 339.634 208.08 339.634 222C339.634 235.92 347.314 247.44 363.154 247.44ZM362.674 202.32C369.97 202.32 376.114 207.12 376.114 218.16H348.466C349.522 207.024 355.282 202.32 362.674 202.32ZM389.029 230.16C389.029 240.24 395.749 247.44 410.629 247.44C425.029 247.44 432.709 240.72 432.709 231.6C432.709 222 420.709 220.56 420.709 220.56V220.08C420.709 220.08 430.789 218.64 430.789 209.52C430.789 203.28 425.989 196.56 410.629 196.56C394.789 196.56 389.989 206.16 389.989 212.4H398.149C398.149 208.56 401.029 202.32 410.629 202.32C419.269 202.32 422.629 206.16 422.629 210.48C422.629 215.76 418.309 218.16 412.069 218.16H403.429V223.92H412.069C417.829 223.92 424.069 225.36 424.069 231.6C424.069 236.88 420.709 241.68 410.629 241.68C401.029 241.68 397.189 236.88 397.189 230.16H389.029ZM460.561 247.44C472.561 247.44 479.761 240.72 481.681 231.6H473.521C472.081 238.32 466.801 241.68 460.561 241.68C452.785 241.68 446.257 236.496 445.681 223.92H482.161V220.08C482.161 208.56 475.921 196.56 460.081 196.56C444.721 196.56 437.041 208.08 437.041 222C437.041 235.92 444.721 247.44 460.561 247.44ZM460.081 202.32C467.377 202.32 473.521 207.12 473.521 218.16H445.873C446.929 207.024 452.689 202.32 460.081 202.32ZM496.036 246V223.92H520.996V246H529.156V198H520.996V218.16H496.036V198H487.876V246H496.036ZM551.716 204.24V246H559.876V204.24H577.636V198H533.956V204.24H551.716ZM597.829 247.44C609.829 247.44 614.629 237.84 614.629 237.84V239.28C614.629 245.52 618.469 246.48 623.269 246.48C625.381 246.48 627.589 246 627.589 246V240.24C622.789 240.72 622.789 238.32 622.789 234.48V212.4C622.789 201.36 615.589 196.56 602.629 196.56C590.629 196.56 581.989 201.36 581.989 212.4H590.149C590.149 205.68 594.469 202.32 602.629 202.32C610.309 202.32 614.629 204.72 614.629 210.48C614.629 214.32 613.669 218.16 602.629 218.16C586.309 218.16 581.029 224.88 581.029 233.04C581.029 241.2 586.789 247.44 597.829 247.44ZM601.669 222.96C612.421 222.96 614.533 219.408 614.629 219.216V222.48C614.629 236.88 606.469 241.68 599.749 241.68C593.509 241.68 589.669 237.84 589.669 232.08C589.669 224.88 596.389 222.96 601.669 222.96ZM631.876 246H673.636V260.4H681.796V239.76H673.156V198H664.996V239.76H640.036V198H631.876V246ZM686.157 198V246H694.317L720.237 208.56V246H728.397V198H720.237L694.317 235.44V198H686.157ZM742.774 246L755.254 226.32H767.734V246H775.894V198H753.814C744.214 198 735.094 201.36 735.094 212.4C735.094 220.752 740.278 224.4 746.902 225.744L733.654 246H742.774ZM743.734 212.4C743.734 205.68 748.534 204.24 754.294 204.24H767.734V220.08H754.294C748.534 220.08 743.734 218.64 743.734 212.4ZM376.122 275.24V317H384.282V275.24H402.042V269H358.362V275.24H376.122ZM422.236 318.44C434.236 318.44 439.036 308.84 439.036 308.84V310.28C439.036 316.52 442.876 317.48 447.676 317.48C449.788 317.48 451.996 317 451.996 317V311.24C447.196 311.72 447.196 309.32 447.196 305.48V283.4C447.196 272.36 439.996 267.56 427.036 267.56C415.036 267.56 406.396 272.36 406.396 283.4H414.556C414.556 276.68 418.876 273.32 427.036 273.32C434.716 273.32 439.036 275.72 439.036 281.48C439.036 285.32 438.076 289.16 427.036 289.16C410.716 289.16 405.436 295.88 405.436 304.04C405.436 312.2 411.196 318.44 422.236 318.44ZM426.076 293.96C436.828 293.96 438.94 290.408 439.036 290.216V293.48C439.036 307.88 430.876 312.68 424.156 312.68C417.916 312.68 414.076 308.84 414.076 303.08C414.076 295.88 420.796 293.96 426.076 293.96ZM456.282 331.4H464.442V308.36C464.442 308.36 469.242 318.44 480.762 318.44C496.122 318.44 502.842 306.44 502.842 293C502.842 279.56 496.122 267.56 480.762 267.56C469.242 267.56 464.442 277.64 464.442 277.64V269H456.282V331.4ZM479.322 273.32C487.482 273.32 494.202 279.08 494.202 293C494.202 306.92 487.482 312.68 479.322 312.68C471.162 312.68 464.442 305.96 464.442 293C464.442 280.04 471.162 273.32 479.322 273.32ZM531.154 318.44C546.994 318.44 554.674 306.92 554.674 293C554.674 279.08 546.994 267.56 531.154 267.56C515.314 267.56 507.634 279.08 507.634 293C507.634 306.92 515.314 318.44 531.154 318.44ZM516.274 293C516.274 279.08 522.994 273.32 531.154 273.32C539.314 273.32 546.034 279.08 546.034 293C546.034 306.92 539.314 312.68 531.154 312.68C522.994 312.68 516.274 306.92 516.274 293ZM65.1138 388V374.08L73.9458 364.864L89.1138 388H98.7138L79.2258 359.296L97.7538 340H88.6338L65.1138 364.96V340H56.9538V388H65.1138ZM118.908 389.44C130.908 389.44 135.708 379.84 135.708 379.84V381.28C135.708 387.52 139.548 388.48 144.348 388.48C146.46 388.48 148.667 388 148.667 388V382.24C143.868 382.72 143.868 380.32 143.868 376.48V354.4C143.868 343.36 136.668 338.56 123.708 338.56C111.708 338.56 103.068 343.36 103.068 354.4H111.228C111.228 347.68 115.548 344.32 123.708 344.32C131.388 344.32 135.708 346.72 135.708 352.48C135.708 356.32 134.748 360.16 123.708 360.16C107.388 360.16 102.108 366.88 102.108 375.04C102.108 383.2 107.868 389.44 118.908 389.44ZM122.748 364.96C133.5 364.96 135.612 361.408 135.708 361.216V364.48C135.708 378.88 127.548 383.68 120.828 383.68C114.588 383.68 110.748 379.84 110.748 374.08C110.748 366.88 117.468 364.96 122.748 364.96ZM161.114 388V374.08L169.946 364.864L185.114 388H194.714L175.226 359.296L193.754 340H184.634L161.114 364.96V340H152.954V388H161.114ZM234.126 389.44C246.126 389.44 250.926 379.84 250.926 379.84V381.28C250.926 387.52 254.766 388.48 259.566 388.48C261.678 388.48 263.886 388 263.886 388V382.24C259.086 382.72 259.086 380.32 259.086 376.48V354.4C259.086 343.36 251.886 338.56 238.926 338.56C226.926 338.56 218.286 343.36 218.286 354.4H226.446C226.446 347.68 230.766 344.32 238.926 344.32C246.606 344.32 250.926 346.72 250.926 352.48C250.926 356.32 249.966 360.16 238.926 360.16C222.606 360.16 217.326 366.88 217.326 375.04C217.326 383.2 223.086 389.44 234.126 389.44ZM237.966 364.96C248.718 364.96 250.83 361.408 250.926 361.216V364.48C250.926 378.88 242.766 383.68 236.046 383.68C229.806 383.68 225.966 379.84 225.966 374.08C225.966 366.88 232.686 364.96 237.966 364.96ZM290.733 389.44C304.653 389.44 311.853 380.8 312.333 371.2H303.693C302.733 378.88 298.413 383.68 290.733 383.68C282.573 383.68 275.853 377.92 275.853 364C275.853 350.08 282.573 344.32 290.733 344.32C298.413 344.32 302.733 349.12 303.693 356.8H312.333C311.853 347.2 304.653 338.56 290.733 338.56C274.893 338.56 267.213 350.08 267.213 364C267.213 377.92 274.893 389.44 290.733 389.44ZM340.608 389.44C354.528 389.44 361.728 380.8 362.208 371.2H353.568C352.608 378.88 348.288 383.68 340.608 383.68C332.448 383.68 325.728 377.92 325.728 364C325.728 350.08 332.448 344.32 340.608 344.32C348.288 344.32 352.608 349.12 353.568 356.8H362.208C361.728 347.2 354.528 338.56 340.608 338.56C324.768 338.56 317.088 350.08 317.088 364C317.088 377.92 324.768 389.44 340.608 389.44ZM390.483 389.44C406.323 389.44 414.003 377.92 414.003 364C414.003 350.08 406.323 338.56 390.483 338.56C374.643 338.56 366.963 350.08 366.963 364C366.963 377.92 374.643 389.44 390.483 389.44ZM375.603 364C375.603 350.08 382.323 344.32 390.483 344.32C398.643 344.32 405.363 350.08 405.363 364C405.363 377.92 398.643 383.68 390.483 383.68C382.323 383.68 375.603 377.92 375.603 364ZM419.766 388H461.526V402.4H469.686V381.76H461.046V340H452.886V381.76H427.926V340H419.766V388ZM474.048 340V388H482.208L508.128 350.56V388H516.288V340H508.128L482.208 377.44V340H474.048ZM538.345 389.44C550.345 389.44 555.145 379.84 555.145 379.84V381.28C555.145 387.52 558.985 388.48 563.785 388.48C565.897 388.48 568.105 388 568.105 388V382.24C563.305 382.72 563.305 380.32 563.305 376.48V354.4C563.305 343.36 556.105 338.56 543.145 338.56C531.145 338.56 522.505 343.36 522.505 354.4H530.665C530.665 347.68 534.985 344.32 543.145 344.32C550.825 344.32 555.145 346.72 555.145 352.48C555.145 356.32 554.185 360.16 543.145 360.16C526.825 360.16 521.545 366.88 521.545 375.04C521.545 383.2 527.305 389.44 538.345 389.44ZM542.185 364.96C552.937 364.96 555.049 361.408 555.145 361.216V364.48C555.145 378.88 546.985 383.68 540.265 383.68C534.025 383.68 530.185 379.84 530.185 374.08C530.185 366.88 536.905 364.96 542.185 364.96ZM588.231 346.24V388H596.391V346.24H614.151V340H570.471V346.24H588.231ZM618.985 340V388H627.145L653.065 350.56V388H661.225V340H653.065L627.145 377.44V340H618.985ZM667.923 340V388H690.963C701.043 388 709.683 384.64 709.683 374.08C709.683 364 698.643 362.56 698.643 362.56V362.08C698.643 362.08 707.763 360.64 707.763 351.52C707.763 342.88 699.603 340 690.483 340H667.923ZM690.483 365.92C696.243 365.92 701.043 367.36 701.043 373.6C701.043 380.32 696.243 381.76 690.483 381.76H676.083V365.92H690.483ZM676.083 346.24H690.003C694.803 346.24 699.603 347.2 699.603 352.96C699.603 358.24 695.283 360.16 689.043 360.16H676.083V346.24ZM723.145 388V365.92H748.105V388H756.265V340H748.105V360.16H723.145V340H714.985V388H723.145ZM785.545 389.44C801.385 389.44 809.065 377.92 809.065 364C809.065 350.08 801.385 338.56 785.545 338.56C769.705 338.56 762.025 350.08 762.025 364C762.025 377.92 769.705 389.44 785.545 389.44ZM770.665 364C770.665 350.08 777.385 344.32 785.545 344.32C793.705 344.32 800.425 350.08 800.425 364C800.425 377.92 793.705 383.68 785.545 383.68C777.385 383.68 770.665 377.92 770.665 364ZM814.829 388H822.989L848.909 350.56V388H857.069V340H848.909L822.989 377.44V340H814.829V388ZM820.589 325.6C820.589 329.92 822.989 337.12 835.949 337.12C848.909 337.12 851.309 329.92 851.309 325.6H843.629C843.629 329.44 841.517 332.32 835.949 332.32C830.381 332.32 828.269 329.44 828.269 325.6H820.589ZM361.501 411V459H369.661L395.581 421.56V459H403.741V411H395.581L369.661 448.44V411H361.501ZM418.598 459V417.24H444.518V411H410.438V459H418.598ZM449.344 473.4H457.504V450.36C457.504 450.36 462.304 460.44 473.824 460.44C489.184 460.44 495.904 448.44 495.904 435C495.904 421.56 489.184 409.56 473.824 409.56C462.304 409.56 457.504 419.64 457.504 419.64V411H449.344V473.4ZM472.384 415.32C480.544 415.32 487.264 421.08 487.264 435C487.264 448.92 480.544 454.68 472.384 454.68C464.224 454.68 457.504 447.96 457.504 435C457.504 422.04 464.224 415.32 472.384 415.32ZM501.657 411V459H520.857C530.937 459 539.577 455.64 539.577 444.6C539.577 433.56 530.937 430.68 520.857 430.68H509.817V411H501.657ZM544.377 411V459H552.537V411H544.377ZM509.817 452.76V436.92H520.377C526.137 436.92 530.937 438.36 530.937 444.6C530.937 451.32 526.137 452.76 520.377 452.76H509.817Z" fill="black" fill-opacity="0.8" shape-rendering="crispEdges"/>
</g>
<defs>
<filter id="filter0_di_1048_6053" x="0.318182" y="0.360756" width="913.364" height="651.364" filterUnits="userSpaceOnUse" color-interpolation-filters="sRGB">
<feFlood flood-opacity="0" result="BackgroundImageFix"/>
<feColorMatrix in="SourceAlpha" type="matrix" values="0 0 0 0 0 0 0 0 0 0 0 0 0 0 0 0 0 0 127 0" result="hardAlpha"/>
<feOffset dy="4.04257"/>
<feGaussianBlur stdDeviation="3.34091"/>
<feComposite in2="hardAlpha" operator="out"/>
<feColorMatrix type="matrix" values="0 0 0 0 0 0 0 0 0 0 0 0 0 0 0 0 0 0 0.25 0"/>
<feBlend mode="normal" in2="BackgroundImageFix" result="effect1_dropShadow_1048_6053"/>
<feBlend mode="normal" in="SourceGraphic" in2="effect1_dropShadow_1048_6053" result="shape"/>
<feColorMatrix in="SourceAlpha" type="matrix" values="0 0 0 0 0 0 0 0 0 0 0 0 0 0 0 0 0 0 127 0" result="hardAlpha"/>
<feOffset dy="4.04257"/>
<feGaussianBlur stdDeviation="5.05322"/>
<feComposite in2="hardAlpha" operator="arithmetic" k2="-1" k3="1"/>
<feColorMatrix type="matrix" values="0 0 0 0 0.972549 0 0 0 0 0.964706 0 0 0 0 0.941176 0 0 0 1 0"/>
<feBlend mode="normal" in2="shape" result="effect2_innerShadow_1048_6053"/>
</filter>
<filter id="filter1_di_1048_6053" x="33.3182" y="165.361" width="847.364" height="321.364" filterUnits="userSpaceOnUse" color-interpolation-filters="sRGB">
<feFlood flood-opacity="0" result="BackgroundImageFix"/>
<feColorMatrix in="SourceAlpha" type="matrix" values="0 0 0 0 0 0 0 0 0 0 0 0 0 0 0 0 0 0 127 0" result="hardAlpha"/>
<feOffset dy="4.04257"/>
<feGaussianBlur stdDeviation="3.34091"/>
<feComposite in2="hardAlpha" operator="out"/>
<feColorMatrix type="matrix" values="0 0 0 0 0 0 0 0 0 0 0 0 0 0 0 0 0 0 0.25 0"/>
<feBlend mode="normal" in2="BackgroundImageFix" result="effect1_dropShadow_1048_6053"/>
<feBlend mode="normal" in="SourceGraphic" in2="effect1_dropShadow_1048_6053" result="shape"/>
<feColorMatrix in="SourceAlpha" type="matrix" values="0 0 0 0 0 0 0 0 0 0 0 0 0 0 0 0 0 0 127 0" result="hardAlpha"/>
<feOffset dy="4.04257"/>
<feGaussianBlur stdDeviation="5.05322"/>
<feComposite in2="hardAlpha" operator="arithmetic" k2="-1" k3="1"/>
<feColorMatrix type="matrix" values="0 0 0 0 0.972549 0 0 0 0 0.964706 0 0 0 0 0.941176 0 0 0 1 0"/>
<feBlend mode="normal" in2="shape" result="effect2_innerShadow_1048_6053"/>
</filter>
<filter id="filter2_d_1048_6053" x="44.8262" y="184.432" width="824.37" height="301.096" filterUnits="userSpaceOnUse" color-interpolation-filters="sRGB">
<feFlood flood-opacity="0" result="BackgroundImageFix"/>
<feColorMatrix in="SourceAlpha" type="matrix" values="0 0 0 0 0 0 0 0 0 0 0 0 0 0 0 0 0 0 127 0" result="hardAlpha"/>
<feOffset/>
<feGaussianBlur stdDeviation="6.06373"/>
<feComposite in2="hardAlpha" operator="out"/>
<feColorMatrix type="matrix" values="0 0 0 0 0.972549 0 0 0 0 0.964706 0 0 0 0 0.941176 0 0 0 1 0"/>
<feBlend mode="normal" in2="BackgroundImageFix" result="effect1_dropShadow_1048_6053"/>
<feBlend mode="normal" in="SourceGraphic" in2="effect1_dropShadow_1048_6053" result="shape"/>
</filter>
<radialGradient id="paint0_radial_1048_6053" cx="0" cy="0" r="1" gradientUnits="userSpaceOnUse" gradientTransform="translate(483.459 2.55631) rotate(94.2294) scale(367.875 884.834)">
<stop stop-color="#313131"/>
<stop offset="0.776042" stop-color="#FF94E1" stop-opacity="0"/>
</radialGradient>
</defs>
</svg>
