<svg width="55" height="41" viewBox="0 0 55 41" fill="none" xmlns="http://www.w3.org/2000/svg">
<path d="M40.9034 41C39.0084 41 37.2136 40.4472 35.5189 39.3416C33.8242 38.2513 32.3221 36.7541 31.0126 34.85C29.7031 32.9459 28.6709 30.7654 27.916 28.3084C27.1765 25.8361 26.8067 23.2333 26.8067 20.5C26.8067 17.7667 27.1765 15.1715 27.916 12.7146C28.6709 10.2423 29.7031 8.05412 31.0126 6.15C32.3221 4.24588 33.8242 2.74869 35.5189 1.65843C37.2136 0.552809 39.0084 1.1996e-08 40.9034 0C42.7983 -1.1996e-08 44.5931 0.552809 46.2878 1.65843C47.9825 2.74869 49.4846 4.24588 50.7941 6.15C52.1036 8.05412 53.1282 10.2423 53.8676 12.7146C54.6226 15.1715 55 17.7667 55 20.5C55 23.2333 54.6226 25.8361 53.8676 28.3084C53.1282 30.7654 52.1036 32.9459 50.7941 34.85C49.4846 36.7541 47.9825 38.2513 46.2878 39.3416C44.5931 40.4472 42.7983 41 40.9034 41ZM9.93697 27.9629C8.98179 27.9629 8.10364 27.6481 7.30252 27.0185C6.5014 26.3736 5.86204 25.5137 5.38445 24.4388C4.92227 23.3485 4.69118 22.1507 4.69118 20.8455C4.69118 19.5249 4.92227 18.3272 5.38445 17.2522C5.86204 16.1773 6.5014 15.3251 7.30252 14.6955C8.10364 14.0506 8.98179 13.7281 9.93697 13.7281C10.584 13.7281 11.2157 13.8893 11.8319 14.2118C11.416 14.5036 11.0847 14.9028 10.8382 15.4096C10.6071 15.9009 10.4916 16.4154 10.4916 16.9528C10.4916 17.7052 10.6996 18.3348 11.1155 18.8416C11.5469 19.333 12.0938 19.5787 12.7563 19.5787C13.5574 19.5787 14.2661 19.2024 14.8824 18.45C15.0826 19.1564 15.1828 19.9549 15.1828 20.8455C15.1828 22.1507 14.944 23.3485 14.4664 24.4388C14.0042 25.5137 13.3725 26.3736 12.5714 27.0185C11.7857 27.6481 10.9076 27.9629 9.93697 27.9629ZM14.0966 41C12.2017 41 10.4069 40.4472 8.71218 39.3416C7.01751 38.2513 5.51541 36.7541 4.20588 34.85C2.89636 32.9459 1.86415 30.7654 1.10924 28.3084C0.369748 25.8361 1.7417e-08 23.2333 0 20.5C-1.7417e-08 17.7667 0.369748 15.1715 1.10924 12.7146C1.86415 10.2423 2.89636 8.05412 4.20588 6.15C5.51541 4.24588 7.01751 2.74869 8.71218 1.65843C10.4069 0.552809 12.2017 1.81694e-07 14.0966 1.69698e-07C15.9916 1.57702e-07 17.7864 0.552809 19.4811 1.65843C21.1758 2.74869 22.6779 4.24588 23.9874 6.15C25.2969 8.05412 26.3214 10.2423 27.0609 12.7146C27.8158 15.1715 28.1933 17.7667 28.1933 20.5C28.1933 23.2333 27.8158 25.8361 27.0609 28.3084C26.3214 30.7654 25.2969 32.9459 23.9874 34.85C22.6779 36.7541 21.1758 38.2513 19.4811 39.3416C17.7864 40.4472 15.9916 41 14.0966 41ZM14.0966 39.1573C15.7143 39.1573 17.2549 38.6582 18.7185 37.6601C20.1975 36.662 21.507 35.2953 22.6471 33.5601C23.7871 31.8096 24.6884 29.8133 25.3508 27.5713C26.0133 25.3294 26.3445 22.9723 26.3445 20.5C26.3445 18.0277 26.0133 15.6706 25.3508 13.4287C24.6884 11.1867 23.7871 9.19813 22.6471 7.46292C21.507 5.71236 20.1975 4.33802 18.7185 3.33989C17.2549 2.34176 15.7143 1.8427 14.0966 1.8427C12.479 1.8427 10.9307 2.34176 9.45168 3.33989C7.9881 4.33802 6.68627 5.71236 5.54622 7.46292C4.40616 9.19813 3.5049 11.1867 2.84244 13.4287C2.17997 15.6706 1.84874 18.0277 1.84874 20.5C1.84874 22.9723 2.17997 25.3294 2.84244 27.5713C3.5049 29.8133 4.40616 31.8096 5.54622 33.5601C6.68627 35.2953 7.98809 36.662 9.45168 37.6601C10.9307 38.6582 12.479 39.1573 14.0966 39.1573ZM36.7437 27.9629C35.7885 27.9629 34.9104 27.6481 34.1092 27.0185C33.3081 26.3736 32.6688 25.5137 32.1912 24.4388C31.729 23.3485 31.4979 22.1507 31.4979 20.8455C31.4979 19.5249 31.729 18.3272 32.1912 17.2522C32.6688 16.1773 33.3081 15.3251 34.1092 14.6955C34.9104 14.0506 35.7885 13.7281 36.7437 13.7281C37.3908 13.7281 38.0224 13.8893 38.6387 14.2118C38.2227 14.5036 37.8915 14.9028 37.645 15.4096C37.4139 15.9009 37.2983 16.4154 37.2983 16.9528C37.2983 17.7052 37.5063 18.3348 37.9223 18.8416C38.3536 19.333 38.9006 19.5787 39.563 19.5787C40.3641 19.5787 41.0728 19.2024 41.6891 18.45C41.8894 19.1564 41.9895 19.9549 41.9895 20.8455C41.9895 22.1507 41.7507 23.3485 41.2731 24.4388C40.8109 25.5137 40.1793 26.3736 39.3782 27.0185C38.5924 27.6481 37.7143 27.9629 36.7437 27.9629ZM40.9034 39.1573C42.521 39.1573 44.0616 38.6582 45.5252 37.6601C47.0042 36.662 48.3137 35.2953 49.4538 33.5601C50.5938 31.8096 51.4951 29.8133 52.1576 27.5713C52.82 25.3294 53.1513 22.9723 53.1513 20.5C53.1513 18.0277 52.82 15.6706 52.1576 13.4287C51.4951 11.1867 50.5938 9.19813 49.4538 7.46292C48.3137 5.71236 47.0042 4.33802 45.5252 3.33989C44.0616 2.34176 42.521 1.8427 40.9034 1.8427C39.2857 1.8427 37.7374 2.34176 36.2584 3.33989C34.7948 4.33802 33.493 5.71236 32.3529 7.46292C31.2129 9.19813 30.3116 11.1867 29.6492 13.4287C28.9867 15.6706 28.6555 18.0277 28.6555 20.5C28.6555 22.9723 28.9867 25.3294 29.6492 27.5713C30.3116 29.8133 31.2129 31.8096 32.3529 33.5601C33.493 35.2953 34.7948 36.662 36.2584 37.6601C37.7374 38.6582 39.2857 39.1573 40.9034 39.1573Z" fill="#313131"/>
</svg>
