<svg width="446" height="672" viewBox="0 0 446 672" fill="none" xmlns="http://www.w3.org/2000/svg">
<g filter="url(#filter0_di_935_6066)">
<rect x="6.9082" y="3" width="431.908" height="657.829" rx="22" fill="#F5F6EE"/>
<rect x="6.9082" y="3" width="431.908" height="657.829" rx="22" fill="url(#paint0_radial_935_6066)"/>
</g>
<g filter="url(#filter1_di_935_6066)">
<path fill-rule="evenodd" clip-rule="evenodd" d="M171.908 47.8828C171.908 42.36 176.385 37.8828 181.908 37.8828H261.908C267.431 37.8828 271.908 42.36 271.908 47.8828V108.883C271.908 114.406 267.431 118.883 261.908 118.883H235.908C230.385 118.883 225.908 123.36 225.908 128.883V219C225.908 224.523 230.385 229 235.908 229H319C324.523 229 329 233.477 329 239V261C329 266.523 333.477 271 339 271H342C347.523 271 352 275.477 352 281V314C352 317.314 349.314 320 346 320C342.686 320 340 322.686 340 326V337C340 342.523 344.477 347 350 347H372C377.523 347 382 351.477 382 357V424C382 429.523 377.523 434 372 434H74C68.4771 434 64 429.523 64 424V357C64 351.477 68.4772 347 74 347H97C102.523 347 107 342.523 107 337V328.5C107 323.806 103.194 320 98.5 320C93.8056 320 90 316.194 90 311.5V279.5C90 274.806 93.8056 271 98.5 271C103.194 271 107 267.194 107 262.5V239C107 233.477 111.477 229 117 229H207.908C213.431 229 217.908 224.523 217.908 219V128.883C217.908 123.36 213.431 118.883 207.908 118.883H181.908C176.385 118.883 171.908 114.406 171.908 108.883V47.8828Z" fill="#D9D9D9" fill-opacity="0.01"/>
</g>
<g filter="url(#filter2_d_935_6066)">
<path d="M125.79 270.883L125.31 272.083C124.35 274.531 123.15 275.203 121.47 275.203C120.51 275.203 119.07 275.059 119.07 275.059V278.083C119.07 278.083 120.75 278.323 122.19 278.323C126.27 278.323 127.71 276.307 129.39 272.083L139.23 246.883H134.91L127.758 266.611L119.79 246.883H115.23L125.79 270.883ZM140.648 262.963C140.648 268.003 144.008 271.603 151.448 271.603C158.648 271.603 162.488 268.243 162.488 263.683C162.488 258.883 156.488 258.163 156.488 258.163V257.923C156.488 257.923 161.528 257.203 161.528 252.643C161.528 249.523 159.128 246.163 151.448 246.163C143.528 246.163 141.128 250.963 141.128 254.083H145.208C145.208 252.163 146.648 249.043 151.448 249.043C155.768 249.043 157.448 250.963 157.448 253.123C157.448 255.763 155.288 256.963 152.168 256.963H147.848V259.843H152.168C155.048 259.843 158.168 260.563 158.168 263.683C158.168 266.323 156.488 268.723 151.448 268.723C146.648 268.723 144.728 266.323 144.728 262.963H140.648ZM169.213 270.883V259.843H181.693V270.883H185.773V246.883H181.693V256.963H169.213V246.883H165.133V270.883H169.213ZM196.813 271.603C202.813 271.603 205.213 266.803 205.213 266.803V267.523C205.213 270.643 207.133 271.123 209.533 271.123C210.589 271.123 211.693 270.883 211.693 270.883V268.003C209.293 268.243 209.293 267.043 209.293 265.123V254.083C209.293 248.563 205.693 246.163 199.213 246.163C193.213 246.163 188.893 248.563 188.893 254.083H192.973C192.973 250.723 195.133 249.043 199.213 249.043C203.053 249.043 205.213 250.243 205.213 253.123C205.213 255.043 204.733 256.963 199.213 256.963C191.053 256.963 188.413 260.323 188.413 264.403C188.413 268.483 191.293 271.603 196.813 271.603ZM198.733 259.363C204.109 259.363 205.165 257.587 205.213 257.491V259.123C205.213 266.323 201.133 268.723 197.773 268.723C194.653 268.723 192.733 266.803 192.733 263.923C192.733 260.323 196.093 259.363 198.733 259.363ZM213.836 270.883H217.916L230.876 252.163V270.883H234.956V246.883H230.876L217.916 265.603V246.883H213.836V270.883ZM216.716 239.683C216.716 241.843 217.916 245.443 224.396 245.443C230.876 245.443 232.076 241.843 232.076 239.683H228.236C228.236 241.603 227.18 243.043 224.396 243.043C221.612 243.043 220.556 241.603 220.556 239.683H216.716ZM247.914 246.883V270.883H259.434C264.474 270.883 268.794 269.203 268.794 263.923C268.794 258.883 263.274 258.163 263.274 258.163V257.923C263.274 257.923 267.834 257.203 267.834 252.643C267.834 248.323 263.754 246.883 259.194 246.883H247.914ZM259.194 259.843C262.074 259.843 264.474 260.563 264.474 263.683C264.474 267.043 262.074 267.763 259.194 267.763H251.994V259.843H259.194ZM251.994 250.003H258.954C261.354 250.003 263.754 250.483 263.754 253.363C263.754 256.003 261.594 256.963 258.474 256.963H251.994V250.003ZM282.726 271.603C289.686 271.603 293.286 267.283 293.526 262.483H289.206C288.726 266.323 286.566 268.723 282.726 268.723C278.646 268.723 275.286 265.843 275.286 258.883C275.286 251.923 278.646 249.043 282.726 249.043C286.566 249.043 288.726 251.443 289.206 255.283H293.526C293.286 250.483 289.686 246.163 282.726 246.163C274.806 246.163 270.966 251.923 270.966 258.883C270.966 265.843 274.806 271.603 282.726 271.603ZM307.663 271.603C313.663 271.603 317.263 268.243 318.223 263.683H314.143C313.423 267.043 310.783 268.723 307.663 268.723C303.775 268.723 300.511 266.131 300.223 259.843H318.463V257.923C318.463 252.163 315.343 246.163 307.423 246.163C299.743 246.163 295.903 251.923 295.903 258.883C295.903 265.843 299.743 271.603 307.663 271.603ZM307.423 249.043C311.071 249.043 314.143 251.443 314.143 256.963H300.319C300.847 251.395 303.727 249.043 307.423 249.043ZM117.374 307.603C125.294 307.603 129.134 301.843 129.134 294.883C129.134 287.923 125.294 282.163 117.374 282.163C109.454 282.163 105.614 287.923 105.614 294.883C105.614 301.843 109.454 307.603 117.374 307.603ZM109.934 294.883C109.934 287.923 113.294 285.043 117.374 285.043C121.454 285.043 124.814 287.923 124.814 294.883C124.814 301.843 121.454 304.723 117.374 304.723C113.294 304.723 109.934 301.843 109.934 294.883ZM143.296 307.603C151.216 307.603 155.056 301.843 155.056 295.363C155.056 289.123 151.696 283.123 143.776 283.123C136.576 283.123 134.896 290.083 134.896 290.083H134.656C135.136 282.403 138.784 279.523 143.776 279.523H147.856C153.376 279.523 153.616 275.443 153.616 273.283H151.216C151.216 275.203 150.016 275.683 147.856 275.683H145.216C134.896 275.683 131.536 283.123 131.536 293.443C131.536 301.843 135.136 307.603 143.296 307.603ZM143.296 286.003C147.376 286.003 150.736 288.883 150.736 295.363C150.736 301.843 147.376 304.723 143.296 304.723C139.216 304.723 135.856 301.843 135.856 295.363C135.856 289.363 139.216 286.003 143.296 286.003ZM167.547 282.883V306.883H171.627L184.587 288.163V306.883H188.667V282.883H184.587L171.627 301.603V282.883H167.547ZM203.296 307.603C210.256 307.603 213.856 303.283 214.096 298.483H209.776C209.296 302.323 207.136 304.723 203.296 304.723C199.216 304.723 195.856 301.843 195.856 294.883C195.856 287.923 199.216 285.043 203.296 285.043C207.136 285.043 209.296 287.443 209.776 291.283H214.096C213.856 286.483 210.256 282.163 203.296 282.163C195.376 282.163 191.536 287.923 191.536 294.883C191.536 301.843 195.376 307.603 203.296 307.603ZM224.873 286.003V306.883H228.953V286.003H237.833V282.883H215.993V286.003H224.873ZM251.53 307.603C259.45 307.603 263.29 301.843 263.29 294.883C263.29 287.923 259.45 282.163 251.53 282.163C243.61 282.163 239.77 287.923 239.77 294.883C239.77 301.843 243.61 307.603 251.53 307.603ZM244.09 294.883C244.09 287.923 247.45 285.043 251.53 285.043C255.61 285.043 258.97 287.923 258.97 294.883C258.97 301.843 255.61 304.723 251.53 304.723C247.45 304.723 244.09 301.843 244.09 294.883ZM266.172 314.083H270.252V302.563C270.252 302.563 272.652 307.603 278.412 307.603C286.092 307.603 289.452 301.603 289.452 294.883C289.452 288.163 286.092 282.163 278.412 282.163C272.652 282.163 270.252 287.203 270.252 287.203V282.883H266.172V314.083ZM277.692 285.043C281.772 285.043 285.132 287.923 285.132 294.883C285.132 301.843 281.772 304.723 277.692 304.723C273.612 304.723 270.252 301.363 270.252 294.883C270.252 288.403 273.612 285.043 277.692 285.043ZM292.328 282.883V306.883H296.408L309.368 288.163V306.883H313.448V282.883H309.368L296.408 301.603V282.883H292.328ZM316.797 282.883V306.883H320.877L333.837 288.163V306.883H337.917V282.883H333.837L320.877 301.603V282.883H316.797Z" fill="#313131"/>
</g>
<g filter="url(#filter3_d_935_6066)">
<path d="M74.7288 359V383H78.8088L91.7688 364.28V383H95.8488V359H91.7688L78.8088 377.72V359H74.7288ZM120.087 383.72C128.007 383.72 131.847 377.96 131.847 371C131.847 364.04 128.007 358.28 120.087 358.28C112.167 358.28 108.327 364.04 108.327 371C108.327 377.96 112.167 383.72 120.087 383.72ZM112.647 371C112.647 364.04 116.007 361.16 120.087 361.16C124.167 361.16 127.527 364.04 127.527 371C127.527 377.96 124.167 380.84 120.087 380.84C116.007 380.84 112.647 377.96 112.647 371ZM155.618 383.72C162.578 383.72 166.178 379.4 166.418 374.6H162.098C161.618 378.44 159.458 380.84 155.618 380.84C151.538 380.84 148.178 377.96 148.178 371C148.178 364.04 151.538 361.16 155.618 361.16C159.458 361.16 161.618 363.56 162.098 367.4H166.418C166.178 362.6 162.578 358.28 155.618 358.28C147.698 358.28 143.858 364.04 143.858 371C143.858 377.96 147.698 383.72 155.618 383.72ZM169.276 383H173.356V362.12H185.836V383H189.916V359H169.276V383ZM204.556 383.72C210.556 383.72 214.156 380.36 215.116 375.8H211.036C210.316 379.16 207.676 380.84 204.556 380.84C200.668 380.84 197.404 378.248 197.116 371.96H215.356V370.04C215.356 364.28 212.236 358.28 204.316 358.28C196.636 358.28 192.796 364.04 192.796 371C192.796 377.96 196.636 383.72 204.556 383.72ZM204.316 361.16C207.964 361.16 211.036 363.56 211.036 369.08H197.212C197.74 363.512 200.62 361.16 204.316 361.16ZM218.213 383H239.093V390.2H243.173V379.88H238.853V359H234.773V379.88H222.293V359H218.213V383ZM245.354 359V383H249.434L262.394 364.28V383H266.474V359H262.394L249.434 377.72V359H245.354ZM269.343 371C269.343 378.44 274.143 383.72 282.063 383.72V390.2H286.143V383.72C294.063 383.72 298.863 378.44 298.863 371C298.863 363.56 294.063 358.28 286.143 358.28V351.8H282.063V358.28C274.143 358.28 269.343 363.56 269.343 371ZM286.143 361.16C290.223 361.16 294.543 363.8 294.543 371C294.543 378.2 290.223 380.84 286.143 380.84V361.16ZM273.663 371C273.663 363.8 277.983 361.16 282.063 361.16V380.84C277.983 380.84 273.663 378.2 273.663 371ZM301.744 359V383H305.824L318.784 364.28V383H322.864V359H318.784L305.824 377.72V359H301.744ZM330.293 383V376.04L334.709 371.432L342.293 383H347.093L337.349 368.648L346.613 359H342.053L330.293 371.48V359H326.213V383H330.293ZM360.79 383.72C366.79 383.72 370.39 380.36 371.35 375.8H367.27C366.55 379.16 363.91 380.84 360.79 380.84C356.902 380.84 353.638 378.248 353.35 371.96H371.59V370.04C371.59 364.28 368.47 358.28 360.55 358.28C352.87 358.28 349.03 364.04 349.03 371C349.03 377.96 352.87 383.72 360.79 383.72ZM360.55 361.16C364.198 361.16 367.27 363.56 367.27 369.08H353.446C353.974 363.512 356.854 361.16 360.55 361.16ZM78.9007 426.2H82.9807V414.68C82.9807 414.68 85.3807 419.72 91.1407 419.72C98.8207 419.72 102.181 413.72 102.181 407C102.181 400.28 98.8207 394.28 91.1407 394.28C85.3807 394.28 82.9807 399.32 82.9807 399.32V395H78.9007V426.2ZM90.4207 397.16C94.5007 397.16 97.8607 400.04 97.8607 407C97.8607 413.96 94.5007 416.84 90.4207 416.84C86.3407 416.84 82.9807 413.48 82.9807 407C82.9807 400.52 86.3407 397.16 90.4207 397.16ZM112.737 419.72C118.737 419.72 121.137 414.92 121.137 414.92V415.64C121.137 418.76 123.057 419.24 125.457 419.24C126.513 419.24 127.617 419 127.617 419V416.12C125.217 416.36 125.217 415.16 125.217 413.24V402.2C125.217 396.68 121.617 394.28 115.137 394.28C109.137 394.28 104.817 396.68 104.817 402.2H108.897C108.897 398.84 111.057 397.16 115.137 397.16C118.977 397.16 121.137 398.36 121.137 401.24C121.137 403.16 120.657 405.08 115.137 405.08C106.977 405.08 104.337 408.44 104.337 412.52C104.337 416.6 107.217 419.72 112.737 419.72ZM114.657 407.48C120.033 407.48 121.089 405.704 121.137 405.608V407.24C121.137 414.44 117.057 416.84 113.697 416.84C110.577 416.84 108.657 414.92 108.657 412.04C108.657 408.44 112.017 407.48 114.657 407.48ZM129.04 411.08C129.04 416.12 132.4 419.72 139.84 419.72C147.04 419.72 150.88 416.36 150.88 411.8C150.88 407 144.88 406.28 144.88 406.28V406.04C144.88 406.04 149.92 405.32 149.92 400.76C149.92 397.64 147.52 394.28 139.84 394.28C131.92 394.28 129.52 399.08 129.52 402.2H133.6C133.6 400.28 135.04 397.16 139.84 397.16C144.16 397.16 145.84 399.08 145.84 401.24C145.84 403.88 143.68 405.08 140.56 405.08H136.24V407.96H140.56C143.44 407.96 146.56 408.68 146.56 411.8C146.56 414.44 144.88 416.84 139.84 416.84C135.04 416.84 133.12 414.44 133.12 411.08H129.04ZM157.606 419V407.96H170.086V419H174.166V395H170.086V405.08H157.606V395H153.526V419H157.606ZM177.526 395V419H187.126C192.166 419 196.486 417.32 196.486 411.8C196.486 406.28 192.166 404.84 187.126 404.84H181.606V395H177.526ZM198.886 395V419H202.966V395H198.886ZM181.606 415.88V407.96H186.886C189.766 407.96 192.166 408.68 192.166 411.8C192.166 415.16 189.766 415.88 186.886 415.88H181.606ZM205.347 419H210.147L217.107 409.16L224.067 419H228.867L219.507 406.52L228.387 395H223.587L217.107 403.88L210.627 395H205.827L214.707 406.52L205.347 419ZM244.934 419V412.04L249.35 407.432L256.934 419H261.734L251.99 404.648L261.254 395H256.694L244.934 407.48V395H240.854V419H244.934ZM275.431 419.72C283.351 419.72 287.191 413.96 287.191 407C287.191 400.04 283.351 394.28 275.431 394.28C267.511 394.28 263.671 400.04 263.671 407C263.671 413.96 267.511 419.72 275.431 419.72ZM267.991 407C267.991 400.04 271.351 397.16 275.431 397.16C279.511 397.16 282.871 400.04 282.871 407C282.871 413.96 279.511 416.84 275.431 416.84C271.351 416.84 267.991 413.96 267.991 407ZM288.633 419C288.633 419 289.353 419.24 290.553 419.24C296.073 419.24 298.233 414.92 298.233 403.4V398.12H307.833V419H311.913V395H294.393V402.92C294.393 414.2 292.569 415.736 289.449 415.736C288.969 415.736 288.633 415.64 288.633 415.64V419ZM326.571 419.72C334.491 419.72 338.331 413.96 338.331 407C338.331 400.04 334.491 394.28 326.571 394.28C318.651 394.28 314.811 400.04 314.811 407C314.811 413.96 318.651 419.72 326.571 419.72ZM319.131 407C319.131 400.04 322.491 397.16 326.571 397.16C330.651 397.16 334.011 400.04 334.011 407C334.011 413.96 330.651 416.84 326.571 416.84C322.491 416.84 319.131 413.96 319.131 407ZM344.093 426.2V419H364.013V426.2H368.093V415.88H363.773V395H346.253V400.52C346.253 411.8 344.333 415.88 340.973 415.88H340.013V426.2H344.093ZM346.733 415.88C349.373 413.72 350.093 408.104 350.093 401V398.12H359.693V415.88H346.733Z" fill="#313131"/>
</g>
<g filter="url(#filter4_d_935_6066)">
<path d="M133.275 344H138.319L134.627 341.66L123.603 330.844L131.975 322.94L137.799 320.6H126.879L129.999 322.68L120.639 331.572V322.94L124.799 320.6H113.879L118.039 322.94V341.66L113.879 344H124.799L120.639 341.66V331.572L133.275 344ZM147.862 331.468C144.326 332.716 141.154 335.16 141.154 338.8C141.154 342.492 143.494 344.78 147.082 344.78C149.162 344.78 150.93 343.74 152.126 342.96L155.974 340.412C155.974 343.168 155.974 344.78 157.794 344.78C159.614 344.78 163.254 340.36 163.254 340.36L158.574 342.18V327.36C158.574 322.94 156.702 319.82 151.034 319.82C147.914 319.82 142.038 322.68 142.038 325.904C142.038 327.412 142.922 328.088 143.91 328.088C144.898 328.088 145.782 327.516 145.782 325.904C145.782 325.176 145.678 324.656 145.678 324.24C145.678 322.94 147.342 321.38 150.514 321.38C153.374 321.38 155.974 322.732 155.974 327.36V328.66L147.862 331.468ZM152.75 340.88C151.242 341.868 149.942 342.856 147.914 342.856C145.314 342.856 143.91 340.776 143.91 338.54C143.91 335.68 145.21 333.912 149.734 332.3L155.974 330.116V338.748L152.75 340.88ZM168.7 352.58L164.54 354.92H175.46L171.3 352.58V340.672C171.456 341.036 173.38 344.78 178.58 344.78C183.26 344.78 188.72 341.14 188.72 332.3C188.72 322.68 183.78 319.82 179.1 319.82C173.64 319.82 171.3 324.76 171.3 324.76V319.82L164.54 321.9L168.7 323.2V352.58ZM171.3 327.36C171.3 327.36 173.12 321.38 178.32 321.38C182.272 321.38 185.86 324.5 185.86 332.3C185.86 339.58 182.272 343.22 178.32 343.22C173.9 343.22 171.3 339.84 171.3 335.94V327.36ZM197.32 344H209.28L204.6 341.66V322.16H210.32L213.44 327.88V320.6H193.16V327.88L196.28 322.16H202V341.66L197.32 344ZM235.812 344H247.773L243.093 341.66V322.16H248.813L251.933 327.88V320.6H231.653V327.88L234.773 322.16H240.493V341.66L235.812 344ZM263.085 331.468C259.549 332.716 256.377 335.16 256.377 338.8C256.377 342.492 258.717 344.78 262.305 344.78C264.385 344.78 266.153 343.74 267.349 342.96L271.197 340.412C271.197 343.168 271.197 344.78 273.017 344.78C274.837 344.78 278.477 340.36 278.477 340.36L273.797 342.18V327.36C273.797 322.94 271.925 319.82 266.257 319.82C263.137 319.82 257.261 322.68 257.261 325.904C257.261 327.412 258.145 328.088 259.133 328.088C260.121 328.088 261.005 327.516 261.005 325.904C261.005 325.176 260.901 324.656 260.901 324.24C260.901 322.94 262.565 321.38 265.737 321.38C268.597 321.38 271.197 322.732 271.197 327.36V328.66L263.085 331.468ZM267.973 340.88C266.465 341.868 265.165 342.856 263.137 342.856C260.537 342.856 259.133 340.776 259.133 338.54C259.133 335.68 260.433 333.912 264.957 332.3L271.197 330.116V338.748L267.973 340.88ZM283.923 352.58L279.763 354.92H290.683L286.523 352.58V340.672C286.679 341.036 288.603 344.78 293.803 344.78C298.483 344.78 303.943 341.14 303.943 332.3C303.943 322.68 299.003 319.82 294.323 319.82C288.863 319.82 286.523 324.76 286.523 324.76V319.82L279.763 321.9L283.923 323.2V352.58ZM286.523 327.36C286.523 327.36 288.343 321.38 293.543 321.38C297.495 321.38 301.083 324.5 301.083 332.3C301.083 339.58 297.495 343.22 293.543 343.22C289.123 343.22 286.523 339.84 286.523 335.94V327.36ZM318.263 321.224C322.579 321.224 327.259 325.02 327.259 333.652C327.259 339.788 323.567 343.376 319.719 343.376C315.455 343.376 310.723 339.58 310.723 330.948C310.723 324.708 314.467 321.224 318.263 321.224ZM307.863 332.3C307.863 339.32 311.763 344.78 318.991 344.78C325.699 344.78 330.119 339.32 330.119 332.3C330.119 325.28 326.219 319.82 318.991 319.82C312.283 319.82 307.863 325.28 307.863 332.3Z" fill="#313131"/>
</g>
<g filter="url(#filter5_d_935_6066)">
<path d="M235.094 100.336C233.172 100.336 231.352 99.7734 229.633 98.6484C227.914 97.5391 226.391 96.0156 225.062 94.0781C223.734 92.1406 222.688 89.9219 221.922 87.4219C221.172 84.9062 220.797 82.2578 220.797 79.4766C220.797 76.6953 221.172 74.0547 221.922 71.5547C222.688 69.0391 223.734 66.8125 225.062 64.875C226.391 62.9375 227.914 61.4141 229.633 60.3047C231.352 59.1797 233.172 58.6172 235.094 58.6172C237.016 58.6172 238.836 59.1797 240.555 60.3047C242.273 61.4141 243.797 62.9375 245.125 64.875C246.453 66.8125 247.492 69.0391 248.242 71.5547C249.008 74.0547 249.391 76.6953 249.391 79.4766C249.391 82.2578 249.008 84.9062 248.242 87.4219C247.492 89.9219 246.453 92.1406 245.125 94.0781C243.797 96.0156 242.273 97.5391 240.555 98.6484C238.836 99.7734 237.016 100.336 235.094 100.336ZM203.688 87.0703C202.719 87.0703 201.828 86.75 201.016 86.1094C200.203 85.4531 199.555 84.5781 199.07 83.4844C198.602 82.375 198.367 81.1562 198.367 79.8281C198.367 78.4844 198.602 77.2656 199.07 76.1719C199.555 75.0781 200.203 74.2109 201.016 73.5703C201.828 72.9141 202.719 72.5859 203.688 72.5859C204.344 72.5859 204.984 72.75 205.609 73.0781C205.188 73.375 204.852 73.7812 204.602 74.2969C204.367 74.7969 204.25 75.3203 204.25 75.8672C204.25 76.6328 204.461 77.2734 204.883 77.7891C205.32 78.2891 205.875 78.5391 206.547 78.5391C207.359 78.5391 208.078 78.1562 208.703 77.3906C208.906 78.1094 209.008 78.9219 209.008 79.8281C209.008 81.1562 208.766 82.375 208.281 83.4844C207.812 84.5781 207.172 85.4531 206.359 86.1094C205.562 86.75 204.672 87.0703 203.688 87.0703ZM207.906 100.336C205.984 100.336 204.164 99.7734 202.445 98.6484C200.727 97.5391 199.203 96.0156 197.875 94.0781C196.547 92.1406 195.5 89.9219 194.734 87.4219C193.984 84.9062 193.609 82.2578 193.609 79.4766C193.609 76.6953 193.984 74.0547 194.734 71.5547C195.5 69.0391 196.547 66.8125 197.875 64.875C199.203 62.9375 200.727 61.4141 202.445 60.3047C204.164 59.1797 205.984 58.6172 207.906 58.6172C209.828 58.6172 211.648 59.1797 213.367 60.3047C215.086 61.4141 216.609 62.9375 217.938 64.875C219.266 66.8125 220.305 69.0391 221.055 71.5547C221.82 74.0547 222.203 76.6953 222.203 79.4766C222.203 82.2578 221.82 84.9062 221.055 87.4219C220.305 89.9219 219.266 92.1406 217.938 94.0781C216.609 96.0156 215.086 97.5391 213.367 98.6484C211.648 99.7734 209.828 100.336 207.906 100.336ZM207.906 98.4609C209.547 98.4609 211.109 97.9531 212.594 96.9375C214.094 95.9219 215.422 94.5312 216.578 92.7656C217.734 90.9844 218.648 88.9531 219.32 86.6719C219.992 84.3906 220.328 81.9922 220.328 79.4766C220.328 76.9609 219.992 74.5625 219.32 72.2812C218.648 70 217.734 67.9766 216.578 66.2109C215.422 64.4297 214.094 63.0312 212.594 62.0156C211.109 61 209.547 60.4922 207.906 60.4922C206.266 60.4922 204.695 61 203.195 62.0156C201.711 63.0312 200.391 64.4297 199.234 66.2109C198.078 67.9766 197.164 70 196.492 72.2812C195.82 74.5625 195.484 76.9609 195.484 79.4766C195.484 81.9922 195.82 84.3906 196.492 86.6719C197.164 88.9531 198.078 90.9844 199.234 92.7656C200.391 94.5312 201.711 95.9219 203.195 96.9375C204.695 97.9531 206.266 98.4609 207.906 98.4609ZM230.875 87.0703C229.906 87.0703 229.016 86.75 228.203 86.1094C227.391 85.4531 226.742 84.5781 226.258 83.4844C225.789 82.375 225.555 81.1562 225.555 79.8281C225.555 78.4844 225.789 77.2656 226.258 76.1719C226.742 75.0781 227.391 74.2109 228.203 73.5703C229.016 72.9141 229.906 72.5859 230.875 72.5859C231.531 72.5859 232.172 72.75 232.797 73.0781C232.375 73.375 232.039 73.7812 231.789 74.2969C231.555 74.7969 231.438 75.3203 231.438 75.8672C231.438 76.6328 231.648 77.2734 232.07 77.7891C232.508 78.2891 233.062 78.5391 233.734 78.5391C234.547 78.5391 235.266 78.1562 235.891 77.3906C236.094 78.1094 236.195 78.9219 236.195 79.8281C236.195 81.1562 235.953 82.375 235.469 83.4844C235 84.5781 234.359 85.4531 233.547 86.1094C232.75 86.75 231.859 87.0703 230.875 87.0703ZM235.094 98.4609C236.734 98.4609 238.297 97.9531 239.781 96.9375C241.281 95.9219 242.609 94.5312 243.766 92.7656C244.922 90.9844 245.836 88.9531 246.508 86.6719C247.18 84.3906 247.516 81.9922 247.516 79.4766C247.516 76.9609 247.18 74.5625 246.508 72.2812C245.836 70 244.922 67.9766 243.766 66.2109C242.609 64.4297 241.281 63.0312 239.781 62.0156C238.297 61 236.734 60.4922 235.094 60.4922C233.453 60.4922 231.883 61 230.383 62.0156C228.898 63.0312 227.578 64.4297 226.422 66.2109C225.266 67.9766 224.352 70 223.68 72.2812C223.008 74.5625 222.672 76.9609 222.672 79.4766C222.672 81.9922 223.008 84.3906 223.68 86.6719C224.352 88.9531 225.266 90.9844 226.422 92.7656C227.578 94.5312 228.898 95.9219 230.383 96.9375C231.883 97.9531 233.453 98.4609 235.094 98.4609Z" fill="#313131"/>
</g>
<g filter="url(#filter6_d_935_6066)">
<path d="M84.9556 528.299C86.9956 528.299 87.2116 529.523 87.2116 529.763C87.2116 530.147 86.9956 530.219 86.9956 530.747C86.9956 531.275 87.3316 531.635 87.9076 531.635C88.5076 531.635 88.8196 531.155 88.8196 530.531C88.8196 529.211 87.4036 527.723 85.0036 527.723C82.1476 527.723 79.7716 530.003 79.7716 533.483C79.7716 536.723 81.6916 539.243 84.8116 539.243C88.4116 539.243 89.1316 535.763 89.1316 535.763C89.1316 535.763 88.0516 538.163 85.4116 538.163C83.0116 538.163 80.9716 536.675 80.9716 533.099C80.9716 529.811 83.2756 528.299 84.9556 528.299ZM92.9707 538.883H98.4907L96.3307 537.803V528.803H98.9707L100.411 531.443V528.083H91.0507V531.443L92.4907 528.803H95.1307V537.803L92.9707 538.883ZM105.558 533.099C103.926 533.675 102.462 534.803 102.462 536.483C102.462 538.187 103.542 539.243 105.198 539.243C106.158 539.243 106.974 538.763 107.526 538.403L109.302 537.227C109.302 538.499 109.302 539.243 110.142 539.243C110.982 539.243 112.662 537.203 112.662 537.203L110.502 538.043V531.203C110.502 529.163 109.638 527.723 107.022 527.723C105.582 527.723 102.87 529.043 102.87 530.531C102.87 531.227 103.278 531.539 103.734 531.539C104.19 531.539 104.598 531.275 104.598 530.531C104.598 530.195 104.55 529.955 104.55 529.763C104.55 529.163 105.318 528.443 106.782 528.443C108.102 528.443 109.302 529.067 109.302 531.203V531.803L105.558 533.099ZM107.814 537.443C107.118 537.899 106.518 538.355 105.582 538.355C104.382 538.355 103.734 537.395 103.734 536.363C103.734 535.043 104.334 534.227 106.422 533.483L109.302 532.475V536.459L107.814 537.443ZM115.307 538.883H120.827L118.667 537.803V528.803H121.307L122.747 531.443V528.083H113.387V531.443L114.827 528.803H117.467V537.803L115.307 538.883ZM124.678 538.883H129.838C131.758 538.883 134.158 538.163 134.158 535.883C134.158 533.603 131.758 532.955 129.838 532.955H127.798V529.163L129.718 528.083H124.678L126.598 529.163V537.803L124.678 538.883ZM129.718 533.675C131.398 533.675 132.838 534.203 132.838 535.883C132.838 537.563 131.278 538.163 129.838 538.163H128.446L127.798 537.803V533.675H129.718ZM143.154 538.883H148.194L146.274 537.803V529.163L148.194 528.083H143.154L145.074 529.163V529.403L138.954 536.459V529.163L140.874 528.083H135.834L137.754 529.163V537.803L135.834 538.883H140.874L138.954 537.803V537.563L145.074 530.507V537.803L143.154 538.883ZM160.908 528.371C162.9 528.371 165.06 530.123 165.06 534.107C165.06 536.939 163.356 538.595 161.58 538.595C159.612 538.595 157.428 536.843 157.428 532.859C157.428 529.979 159.156 528.371 160.908 528.371ZM156.108 533.483C156.108 536.723 157.908 539.243 161.244 539.243C164.34 539.243 166.38 536.723 166.38 533.483C166.38 530.243 164.58 527.723 161.244 527.723C158.148 527.723 156.108 530.243 156.108 533.483ZM170.221 538.883H175.741L173.581 537.803V528.803H176.221L177.661 531.443V528.083H168.301V531.443L169.741 528.803H172.381V537.803L170.221 538.883ZM188.946 529.163L189.594 528.803H194.178L194.826 529.163V537.803L192.906 538.883H197.946L196.026 537.803V529.163L197.946 528.083H185.826L187.746 529.163V537.803L185.826 538.883H190.866L188.946 537.803V529.163ZM201.191 542.843L199.271 543.923H204.311L202.391 542.843V537.347C202.463 537.515 203.351 539.243 205.751 539.243C207.911 539.243 210.431 537.563 210.431 533.483C210.431 529.043 208.151 527.723 205.991 527.723C203.471 527.723 202.391 530.003 202.391 530.003V527.723L199.271 528.683L201.191 529.283V542.843ZM202.391 531.203C202.391 531.203 203.231 528.443 205.631 528.443C207.455 528.443 209.111 529.883 209.111 533.483C209.111 536.843 207.455 538.523 205.631 538.523C203.591 538.523 202.391 536.963 202.391 535.163V531.203ZM217.04 528.371C219.032 528.371 221.192 530.123 221.192 534.107C221.192 536.939 219.488 538.595 217.712 538.595C215.744 538.595 213.56 536.843 213.56 532.859C213.56 529.979 215.288 528.371 217.04 528.371ZM212.24 533.483C212.24 536.723 214.04 539.243 217.376 539.243C220.472 539.243 222.512 536.723 222.512 533.483C222.512 530.243 220.712 527.723 217.376 527.723C214.28 527.723 212.24 530.243 212.24 533.483ZM234.514 528.443C236.314 528.443 237.514 530.243 237.514 533.483C237.514 536.723 236.314 538.523 234.514 538.523C232.738 538.523 232.138 536.939 232.114 536.867V530.123C232.114 530.123 232.714 528.443 234.514 528.443ZM230.914 536.843C230.914 536.843 230.314 538.523 228.514 538.523C226.714 538.523 225.514 536.723 225.514 533.483C225.514 530.243 226.714 528.443 228.514 528.443C230.314 528.443 230.914 530.123 230.914 530.123V536.843ZM230.914 523.283V529.283C230.842 529.139 230.098 527.723 228.274 527.723C225.994 527.723 224.194 529.643 224.194 533.483C224.194 537.323 225.994 539.243 228.274 539.243C230.146 539.243 230.866 537.779 230.914 537.707V542.843L228.994 543.923H234.034L232.114 542.843V537.707C232.186 537.851 232.93 539.243 234.754 539.243C237.034 539.243 238.834 537.323 238.834 533.483C238.834 529.643 237.034 527.723 234.754 527.723C232.978 527.723 232.186 529.067 232.114 529.283V521.723L228.994 522.683L230.914 523.283ZM249.866 532.403C249.866 529.763 248.786 527.723 245.738 527.723C242.882 527.723 240.506 529.979 240.506 533.483C240.506 536.723 242.426 539.243 245.546 539.243C249.146 539.243 249.866 535.763 249.866 535.763C249.866 535.763 248.786 538.163 246.146 538.163C243.746 538.163 241.706 536.675 241.706 533.099C241.706 532.859 241.706 532.643 241.73 532.403H249.866ZM245.69 528.299C247.37 528.299 248.546 529.403 248.546 530.603C248.546 531.563 247.706 531.683 246.506 531.683H241.85C242.378 529.379 244.178 528.299 245.69 528.299ZM256.963 528.299C259.003 528.299 259.219 529.523 259.219 529.763C259.219 530.147 259.003 530.219 259.003 530.747C259.003 531.275 259.339 531.635 259.915 531.635C260.515 531.635 260.827 531.155 260.827 530.531C260.827 529.211 259.411 527.723 257.011 527.723C254.155 527.723 251.779 530.003 251.779 533.483C251.779 536.723 253.699 539.243 256.819 539.243C260.419 539.243 261.139 535.763 261.139 535.763C261.139 535.763 260.059 538.163 257.419 538.163C255.019 538.163 252.979 536.675 252.979 533.099C252.979 529.811 255.283 528.299 256.963 528.299ZM268.003 528.299C270.043 528.299 270.259 529.523 270.259 529.763C270.259 530.147 270.043 530.219 270.043 530.747C270.043 531.275 270.379 531.635 270.955 531.635C271.555 531.635 271.867 531.155 271.867 530.531C271.867 529.211 270.451 527.723 268.051 527.723C265.195 527.723 262.819 530.003 262.819 533.483C262.819 536.723 264.739 539.243 267.859 539.243C271.459 539.243 272.179 535.763 272.179 535.763C272.179 535.763 271.099 538.163 268.459 538.163C266.059 538.163 264.019 536.675 264.019 533.099C264.019 529.811 266.323 528.299 268.003 528.299ZM281.178 538.883H286.218L284.298 537.803V529.163L286.218 528.083H281.178L283.098 529.163V529.403L276.978 536.459V529.163L278.898 528.083H273.858L275.778 529.163V537.803L273.858 538.883H278.898L276.978 537.803V537.563L283.098 530.507V537.803L281.178 538.883ZM292.697 528.371C294.689 528.371 296.849 530.123 296.849 534.107C296.849 536.939 295.145 538.595 293.369 538.595C291.401 538.595 289.217 536.843 289.217 532.859C289.217 529.979 290.945 528.371 292.697 528.371ZM287.897 533.483C287.897 536.723 289.697 539.243 293.033 539.243C296.129 539.243 298.169 536.723 298.169 533.483C298.169 530.243 296.369 527.723 293.033 527.723C289.937 527.723 287.897 530.243 287.897 533.483ZM299.85 538.883H304.89L302.97 537.803V533.675H308.85V537.803L306.93 538.883H311.97L310.05 537.803V529.163L311.97 528.083H306.93L308.85 529.163V532.955H302.97V529.163L304.89 528.083H299.85L301.77 529.163V537.803L299.85 538.883ZM316.87 533.099C315.238 533.675 313.774 534.803 313.774 536.483C313.774 538.187 314.854 539.243 316.51 539.243C317.47 539.243 318.286 538.763 318.838 538.403L320.614 537.227C320.614 538.499 320.614 539.243 321.454 539.243C322.294 539.243 323.974 537.203 323.974 537.203L321.814 538.043V531.203C321.814 529.163 320.95 527.723 318.334 527.723C316.894 527.723 314.182 529.043 314.182 530.531C314.182 531.227 314.59 531.539 315.046 531.539C315.502 531.539 315.91 531.275 315.91 530.531C315.91 530.195 315.862 529.955 315.862 529.763C315.862 529.163 316.63 528.443 318.094 528.443C319.414 528.443 320.614 529.067 320.614 531.203V531.803L316.87 533.099ZM319.126 537.443C318.43 537.899 317.83 538.355 316.894 538.355C315.694 538.355 315.046 537.395 315.046 536.363C315.046 535.043 315.646 534.227 317.734 533.483L320.614 532.475V536.459L319.126 537.443ZM331.168 538.883H336.208L334.288 537.803V529.163L336.208 528.083H326.368L328.288 529.163V530.603C328.288 535.283 327.424 537.659 326.488 537.659C325.936 537.659 326.008 537.059 325.336 537.059C324.856 537.059 324.448 537.443 324.448 538.019C324.448 538.859 325.192 539.123 325.72 539.123C328.528 539.123 329.128 534.563 329.128 530.603V529.163L329.776 528.803H332.44L333.088 529.163V537.803L331.168 538.883ZM342.689 528.371C344.681 528.371 346.841 530.123 346.841 534.107C346.841 536.939 345.137 538.595 343.361 538.595C341.393 538.595 339.209 536.843 339.209 532.859C339.209 529.979 340.937 528.371 342.689 528.371ZM337.889 533.483C337.889 536.723 339.689 539.243 343.025 539.243C346.121 539.243 348.161 536.723 348.161 533.483C348.161 530.243 346.361 527.723 343.025 527.723C339.929 527.723 337.889 530.243 337.889 533.483ZM355.242 533.675C356.922 533.675 358.362 534.203 358.362 535.883C358.362 537.563 356.802 538.163 355.362 538.163H353.61L352.962 537.803V533.675H355.242ZM352.962 532.955V529.163L353.61 528.803H354.882C356.322 528.803 357.882 529.235 357.882 530.771C357.882 532.379 356.442 532.955 354.762 532.955H352.962ZM359.202 530.723C359.202 528.491 356.682 528.083 354.762 528.083H349.842L351.762 529.163V537.803L349.842 538.883H355.362C357.282 538.883 359.682 538.163 359.682 535.883C359.682 533.363 356.802 533.195 356.802 533.195V533.123C356.802 533.123 359.202 532.763 359.202 530.723ZM62.5427 559.675C64.2227 559.675 65.6627 560.203 65.6627 561.883C65.6627 563.563 64.1027 564.163 62.6627 564.163H60.9107L60.2627 563.803V559.675H62.5427ZM60.2627 558.955V555.163L60.9107 554.803H62.1827C63.6227 554.803 65.1827 555.235 65.1827 556.771C65.1827 558.379 63.7427 558.955 62.0627 558.955H60.2627ZM66.5027 556.723C66.5027 554.491 63.9827 554.083 62.0627 554.083H57.1427L59.0627 555.163V563.803L57.1427 564.883H62.6627C64.5827 564.883 66.9827 564.163 66.9827 561.883C66.9827 559.363 64.1027 559.195 64.1027 559.195V559.123C64.1027 559.123 66.5027 558.763 66.5027 556.723ZM79.8255 554.371C81.8175 554.371 83.9775 556.123 83.9775 560.107C83.9775 562.939 82.2735 564.595 80.4975 564.595C78.5295 564.595 76.3455 562.843 76.3455 558.859C76.3455 555.979 78.0735 554.371 79.8255 554.371ZM75.0255 559.483C75.0255 562.723 76.8255 565.243 80.1615 565.243C83.2575 565.243 85.2975 562.723 85.2975 559.483C85.2975 556.243 83.4975 553.723 80.1615 553.723C77.0655 553.723 75.0255 556.243 75.0255 559.483ZM87.8187 556.963C88.1787 553.603 89.0187 550.603 92.1387 550.603H94.7787C96.9387 550.603 97.1787 549.523 97.1787 548.683V548.203C97.0827 548.467 96.6987 549.283 95.0187 549.283H92.4987C89.3787 549.283 86.9787 552.163 86.9787 558.043C86.9787 562.363 88.9707 565.243 92.3067 565.243C95.4027 565.243 97.5387 562.843 97.5387 559.723C97.5387 556.603 95.6187 554.203 92.2587 554.203C89.2587 554.203 88.0587 556.963 88.0587 556.963H87.8187ZM91.9947 554.923C93.9867 554.923 96.3147 556.603 96.3147 560.707C96.3147 563.059 94.4187 564.523 92.6427 564.523C90.6747 564.523 88.2987 562.531 88.2987 558.787C88.2987 556.387 90.2427 554.923 91.9947 554.923ZM105.453 564.883H110.493L108.573 563.803V555.163L110.493 554.083H100.653L102.573 555.163V556.603C102.573 561.283 101.709 563.659 100.773 563.659C100.221 563.659 100.293 563.059 99.621 563.059C99.141 563.059 98.733 563.443 98.733 564.019C98.733 564.859 99.477 565.123 100.005 565.123C102.813 565.123 103.413 560.563 103.413 556.603V555.163L104.061 554.803H106.725L107.373 555.163V563.803L105.453 564.883ZM115.39 559.099C113.758 559.675 112.294 560.803 112.294 562.483C112.294 564.187 113.374 565.243 115.03 565.243C115.99 565.243 116.806 564.763 117.358 564.403L119.134 563.227C119.134 564.499 119.134 565.243 119.974 565.243C120.814 565.243 122.494 563.203 122.494 563.203L120.334 564.043V557.203C120.334 555.163 119.47 553.723 116.854 553.723C115.414 553.723 112.702 555.043 112.702 556.531C112.702 557.227 113.11 557.539 113.566 557.539C114.022 557.539 114.43 557.275 114.43 556.531C114.43 556.195 114.382 555.955 114.382 555.763C114.382 555.163 115.15 554.443 116.614 554.443C117.934 554.443 119.134 555.067 119.134 557.203V557.803L115.39 559.099ZM117.646 563.443C116.95 563.899 116.35 564.355 115.414 564.355C114.214 564.355 113.566 563.395 113.566 562.363C113.566 561.043 114.166 560.227 116.254 559.483L119.134 558.475V562.459L117.646 563.443ZM128.631 554.299C130.671 554.299 130.887 555.523 130.887 555.763C130.887 556.147 130.671 556.219 130.671 556.747C130.671 557.275 131.007 557.635 131.583 557.635C132.183 557.635 132.495 557.155 132.495 556.531C132.495 555.211 131.079 553.723 128.679 553.723C125.823 553.723 123.447 556.003 123.447 559.483C123.447 562.723 125.367 565.243 128.487 565.243C132.087 565.243 132.807 561.763 132.807 561.763C132.807 561.763 131.727 564.163 129.087 564.163C126.687 564.163 124.647 562.675 124.647 559.099C124.647 555.811 126.951 554.299 128.631 554.299ZM136.646 564.883H142.166L140.006 563.803V554.803H142.646L144.086 557.443V554.083H134.726V557.443L136.166 554.803H138.806V563.803L136.646 564.883ZM153.338 564.883H158.378L156.458 563.803V555.163L158.378 554.083H153.338L155.258 555.163V555.403L149.138 562.459V555.163L151.058 554.083H146.018L147.938 555.163V563.803L146.018 564.883H151.058L149.138 563.803V563.563L155.258 556.507V563.803L153.338 564.883ZM160.657 563.803C160.657 564.475 161.185 565.003 161.857 565.003H161.977L160.777 567.763C162.937 565.123 163.057 564.643 163.057 563.803C163.057 563.131 162.529 562.603 161.857 562.603C161.185 562.603 160.657 563.131 160.657 563.803ZM174.685 555.163L175.333 554.803H178.621L180.085 557.443V554.083H171.565L173.485 555.163V563.803L171.565 564.883H177.085L174.685 563.563V555.163ZM180.668 564.163L181.988 569.443V564.883H191.828V569.443L193.148 564.163H191.396L190.748 563.803V555.163L192.668 554.083H182.828L184.748 555.163V556.603C184.748 560.563 183.716 564.163 181.82 564.163H180.668ZM189.548 563.803L188.9 564.163H183.548C183.548 564.163 185.588 562.963 185.588 556.603V555.163L186.236 554.803H188.9L189.548 555.163V563.803ZM203.823 558.403C203.823 555.763 202.743 553.723 199.695 553.723C196.839 553.723 194.463 555.979 194.463 559.483C194.463 562.723 196.383 565.243 199.503 565.243C203.103 565.243 203.823 561.763 203.823 561.763C203.823 561.763 202.743 564.163 200.103 564.163C197.703 564.163 195.663 562.675 195.663 559.099C195.663 558.859 195.663 558.643 195.687 558.403H203.823ZM199.647 554.299C201.327 554.299 202.503 555.403 202.503 556.603C202.503 557.563 201.663 557.683 200.463 557.683H195.807C196.335 555.379 198.135 554.299 199.647 554.299ZM214.731 563.803V555.643L219.171 565.243L223.611 555.331V563.803L221.691 564.883H226.731L224.811 563.803V555.163L226.731 554.083H223.371L219.435 562.939L215.331 554.083H211.971L213.891 555.163V563.803L211.971 564.883H216.651L214.731 563.803ZM233.201 554.371C235.193 554.371 237.353 556.123 237.353 560.107C237.353 562.939 235.649 564.595 233.873 564.595C231.905 564.595 229.721 562.843 229.721 558.859C229.721 555.979 231.449 554.371 233.201 554.371ZM228.401 559.483C228.401 562.723 230.201 565.243 233.537 565.243C236.633 565.243 238.673 562.723 238.673 559.483C238.673 556.243 236.873 553.723 233.537 553.723C230.441 553.723 228.401 556.243 228.401 559.483ZM248.285 559.147L253.613 564.883H255.965L254.237 563.803L249.581 558.859L253.277 555.163L255.965 554.083H250.925L252.365 555.043L248.285 559.147V555.163L250.205 554.083H245.165L247.085 555.163V563.803L245.165 564.883H250.205L248.285 563.803V559.147ZM243.005 555.043L244.445 554.083H239.405L242.093 555.163L245.765 558.859L241.133 563.803L239.405 564.883H241.757L247.085 559.147L243.005 555.043ZM257.158 564.883H262.198L260.278 563.803V559.675H266.158V563.803L264.238 564.883H269.278L267.358 563.803V555.163L269.278 554.083H264.238L266.158 555.163V558.955H260.278V555.163L262.198 554.083H257.158L259.078 555.163V563.803L257.158 564.883ZM275.763 554.371C277.755 554.371 279.915 556.123 279.915 560.107C279.915 562.939 278.211 564.595 276.435 564.595C274.467 564.595 272.283 562.843 272.283 558.859C272.283 555.979 274.011 554.371 275.763 554.371ZM270.963 559.483C270.963 562.723 272.763 565.243 276.099 565.243C279.195 565.243 281.235 562.723 281.235 559.483C281.235 556.243 279.435 553.723 276.099 553.723C273.003 553.723 270.963 556.243 270.963 559.483ZM292.271 555.163L292.919 554.803H297.503L298.151 555.163V563.803L296.231 564.883H301.271L299.351 563.803V555.163L301.271 554.083H289.151L291.071 555.163V563.803L289.151 564.883H294.191L292.271 563.803V555.163ZM307.755 554.371C309.747 554.371 311.907 556.123 311.907 560.107C311.907 562.939 310.203 564.595 308.427 564.595C306.459 564.595 304.275 562.843 304.275 558.859C304.275 555.979 306.003 554.371 307.755 554.371ZM302.955 559.483C302.955 562.723 304.755 565.243 308.091 565.243C311.187 565.243 313.227 562.723 313.227 559.483C313.227 556.243 311.427 553.723 308.091 553.723C304.995 553.723 302.955 556.243 302.955 559.483ZM321.148 564.883H326.188L324.268 563.803V555.163L326.188 554.083H316.348L318.268 555.163V556.603C318.268 561.283 317.404 563.659 316.468 563.659C315.916 563.659 315.988 563.059 315.316 563.059C314.836 563.059 314.428 563.443 314.428 564.019C314.428 564.859 315.172 565.123 315.7 565.123C318.508 565.123 319.108 560.563 319.108 556.603V555.163L319.756 554.803H322.42L323.068 555.163V563.803L321.148 564.883ZM340.061 554.083H335.261L337.181 555.043L334.133 562.675L330.485 555.043L332.405 554.083H327.029L329.189 555.163L333.533 564.163L332.213 567.523C331.925 568.219 331.613 568.819 331.301 568.819C330.869 568.819 330.893 568.075 330.077 568.075C329.573 568.075 329.117 568.483 329.117 569.107C329.117 569.803 329.645 570.283 330.437 570.283C331.325 570.283 332.165 569.611 332.933 567.667L337.901 555.163L340.061 554.083ZM348.821 563.803L346.421 564.883H351.941L350.021 563.803V555.163L351.941 554.083H346.901L348.821 555.163V558.763C348.821 558.763 347.621 559.843 345.821 559.843C344.381 559.843 343.421 559.003 343.421 557.323V555.163L345.341 554.083H340.301L342.221 555.163V557.323C342.221 559.723 343.661 560.563 345.461 560.563C347.381 560.563 348.821 559.363 348.821 559.363V563.803ZM360.947 564.883H365.987L364.067 563.803V555.163L365.987 554.083H360.947L362.867 555.163V555.403L356.747 562.459V555.163L358.667 554.083H353.627L355.547 555.163V563.803L353.627 564.883H358.667L356.747 563.803V563.563L362.867 556.507V563.803L360.947 564.883ZM369.826 564.883H375.346L373.186 563.803V554.803H375.826L377.266 557.443V554.083H367.906V557.443L369.346 554.803H371.986V563.803L369.826 564.883ZM379.197 564.883H384.357C386.277 564.883 388.677 564.163 388.677 561.883C388.677 559.603 386.277 558.955 384.357 558.955H382.317V555.163L384.237 554.083H379.197L381.117 555.163V563.803L379.197 564.883ZM384.237 559.675C385.917 559.675 387.357 560.203 387.357 561.883C387.357 563.563 385.797 564.163 384.357 564.163H382.965L382.317 563.803V559.675H384.237ZM105.138 580.371C107.13 580.371 109.29 582.123 109.29 586.107C109.29 588.939 107.586 590.595 105.81 590.595C103.842 590.595 101.658 588.843 101.658 584.859C101.658 581.979 103.386 580.371 105.138 580.371ZM100.338 585.483C100.338 588.723 102.138 591.243 105.474 591.243C108.57 591.243 110.61 588.723 110.61 585.483C110.61 582.243 108.81 579.723 105.474 579.723C102.378 579.723 100.338 582.243 100.338 585.483ZM114.451 590.883H119.971L117.811 589.803V580.803H120.451L121.891 583.443V580.083H112.531V583.443L113.971 580.803H116.611V589.803L114.451 590.883ZM129.222 585.675C130.902 585.675 132.342 586.203 132.342 587.883C132.342 589.563 130.782 590.163 129.342 590.163H127.59L126.942 589.803V585.675H129.222ZM126.942 584.955V581.163L127.59 580.803H128.862C130.302 580.803 131.862 581.235 131.862 582.771C131.862 584.379 130.422 584.955 128.742 584.955H126.942ZM133.182 582.723C133.182 580.491 130.662 580.083 128.742 580.083H123.822L125.742 581.163V589.803L123.822 590.883H129.342C131.262 590.883 133.662 590.163 133.662 587.883C133.662 585.363 130.782 585.195 130.782 585.195V585.123C130.782 585.123 133.182 584.763 133.182 582.723ZM144.831 584.403C144.831 581.763 143.751 579.723 140.703 579.723C137.847 579.723 135.471 581.979 135.471 585.483C135.471 588.723 137.391 591.243 140.511 591.243C144.111 591.243 144.831 587.763 144.831 587.763C144.831 587.763 143.751 590.163 141.111 590.163C138.711 590.163 136.671 588.675 136.671 585.099C136.671 584.859 136.671 584.643 136.695 584.403H144.831ZM140.655 580.299C142.335 580.299 143.511 581.403 143.511 582.603C143.511 583.563 142.671 583.683 141.471 583.683H136.815C137.343 581.379 139.143 580.299 140.655 580.299ZM148.904 590.883H154.424L152.264 589.803V580.803H154.904L156.344 583.443V580.083H146.984V583.443L148.424 580.803H151.064V589.803L148.904 590.883ZM167.996 590.883H173.036L171.116 589.803V581.163L173.036 580.083H167.996L169.916 581.163V589.803L167.996 590.883ZM158.276 590.883H163.196C165.116 590.883 167.516 590.163 167.516 587.883C167.516 585.603 165.116 584.955 163.196 584.955H161.396V581.163L163.316 580.083H158.276L160.196 581.163V589.803L158.276 590.883ZM163.076 585.675C164.756 585.675 166.196 586.203 166.196 587.883C166.196 589.563 164.636 590.163 163.196 590.163H162.044L161.396 589.803V585.675H163.076ZM180.94 590.883H185.98L184.06 589.803V585.675H189.94V589.803L188.02 590.883H193.06L191.14 589.803V581.163L193.06 580.083H188.02L189.94 581.163V584.955H184.06V581.163L185.98 580.083H180.94L182.86 581.163V589.803L180.94 590.883ZM197.96 585.099C196.328 585.675 194.864 586.803 194.864 588.483C194.864 590.187 195.944 591.243 197.6 591.243C198.56 591.243 199.376 590.763 199.928 590.403L201.704 589.227C201.704 590.499 201.704 591.243 202.544 591.243C203.384 591.243 205.064 589.203 205.064 589.203L202.904 590.043V583.203C202.904 581.163 202.04 579.723 199.424 579.723C197.984 579.723 195.272 581.043 195.272 582.531C195.272 583.227 195.68 583.539 196.136 583.539C196.592 583.539 197 583.275 197 582.531C197 582.195 196.952 581.955 196.952 581.763C196.952 581.163 197.72 580.443 199.184 580.443C200.504 580.443 201.704 581.067 201.704 583.203V583.803L197.96 585.099ZM200.216 589.443C199.52 589.899 198.92 590.355 197.984 590.355C196.784 590.355 196.136 589.395 196.136 588.363C196.136 587.043 196.736 586.227 198.824 585.483L201.704 584.475V588.459L200.216 589.443ZM217.652 585.675C219.332 585.675 220.772 586.203 220.772 587.883C220.772 589.563 219.212 590.163 217.772 590.163H216.02L215.372 589.803V585.675H217.652ZM215.372 584.955V581.163L216.02 580.803H217.292C218.732 580.803 220.292 581.235 220.292 582.771C220.292 584.379 218.852 584.955 217.172 584.955H215.372ZM221.612 582.723C221.612 580.491 219.092 580.083 217.172 580.083H212.252L214.172 581.163V589.803L212.252 590.883H217.772C219.692 590.883 222.092 590.163 222.092 587.883C222.092 585.363 219.212 585.195 219.212 585.195V585.123C219.212 585.123 221.612 584.763 221.612 582.723ZM229.085 580.299C231.125 580.299 231.341 581.523 231.341 581.763C231.341 582.147 231.125 582.219 231.125 582.747C231.125 583.275 231.461 583.635 232.037 583.635C232.637 583.635 232.949 583.155 232.949 582.531C232.949 581.211 231.533 579.723 229.133 579.723C226.277 579.723 223.901 582.003 223.901 585.483C223.901 588.723 225.821 591.243 228.941 591.243C232.541 591.243 233.261 587.763 233.261 587.763C233.261 587.763 232.181 590.163 229.541 590.163C227.141 590.163 225.101 588.675 225.101 585.099C225.101 581.811 227.405 580.299 229.085 580.299ZM244.3 584.403C244.3 581.763 243.22 579.723 240.172 579.723C237.316 579.723 234.94 581.979 234.94 585.483C234.94 588.723 236.86 591.243 239.98 591.243C243.58 591.243 244.3 587.763 244.3 587.763C244.3 587.763 243.22 590.163 240.58 590.163C238.18 590.163 236.14 588.675 236.14 585.099C236.14 584.859 236.14 584.643 236.164 584.403H244.3ZM240.124 580.299C241.804 580.299 242.98 581.403 242.98 582.603C242.98 583.563 242.14 583.683 240.94 583.683H236.284C236.812 581.379 238.612 580.299 240.124 580.299ZM257.847 585.675C259.527 585.675 260.967 586.203 260.967 587.883C260.967 589.563 259.407 590.163 257.967 590.163H256.215L255.567 589.803V585.675H257.847ZM255.567 584.955V581.163L256.215 580.803H257.487C258.927 580.803 260.487 581.235 260.487 582.771C260.487 584.379 259.047 584.955 257.367 584.955H255.567ZM261.807 582.723C261.807 580.491 259.287 580.083 257.367 580.083H252.447L254.367 581.163V589.803L252.447 590.883H257.967C259.887 590.883 262.287 590.163 262.287 587.883C262.287 585.363 259.407 585.195 259.407 585.195V585.123C259.407 585.123 261.807 584.763 261.807 582.723ZM268.896 580.371C270.888 580.371 273.048 582.123 273.048 586.107C273.048 588.939 271.344 590.595 269.568 590.595C267.6 590.595 265.416 588.843 265.416 584.859C265.416 581.979 267.144 580.371 268.896 580.371ZM264.096 585.483C264.096 588.723 265.896 591.243 269.232 591.243C272.328 591.243 274.368 588.723 274.368 585.483C274.368 582.243 272.568 579.723 269.232 579.723C266.136 579.723 264.096 582.243 264.096 585.483ZM279.169 581.163L279.817 580.803H284.401L285.049 581.163V589.803L283.129 590.883H288.169L286.249 589.803V581.163L288.169 580.083H276.049L277.969 581.163V589.803L276.049 590.883H281.089L279.169 589.803V581.163ZM291.414 594.843L289.494 595.923H294.534L292.614 594.843V589.347C292.686 589.515 293.574 591.243 295.974 591.243C298.134 591.243 300.654 589.563 300.654 585.483C300.654 581.043 298.374 579.723 296.214 579.723C293.694 579.723 292.614 582.003 292.614 582.003V579.723L289.494 580.683L291.414 581.283V594.843ZM292.614 583.203C292.614 583.203 293.454 580.443 295.854 580.443C297.678 580.443 299.334 581.883 299.334 585.483C299.334 588.843 297.678 590.523 295.854 590.523C293.814 590.523 292.614 588.963 292.614 587.163V583.203ZM307.263 580.371C309.255 580.371 311.415 582.123 311.415 586.107C311.415 588.939 309.711 590.595 307.935 590.595C305.967 590.595 303.783 588.843 303.783 584.859C303.783 581.979 305.511 580.371 307.263 580.371ZM302.463 585.483C302.463 588.723 304.263 591.243 307.599 591.243C310.695 591.243 312.735 588.723 312.735 585.483C312.735 582.243 310.935 579.723 307.599 579.723C304.503 579.723 302.463 582.243 302.463 585.483ZM319.6 580.299C321.64 580.299 321.856 581.523 321.856 581.763C321.856 582.147 321.64 582.219 321.64 582.747C321.64 583.275 321.976 583.635 322.552 583.635C323.152 583.635 323.464 583.155 323.464 582.531C323.464 581.211 322.048 579.723 319.648 579.723C316.792 579.723 314.416 582.003 314.416 585.483C314.416 588.723 316.336 591.243 319.456 591.243C323.056 591.243 323.776 587.763 323.776 587.763C323.776 587.763 322.696 590.163 320.056 590.163C317.656 590.163 315.616 588.675 315.616 585.099C315.616 581.811 317.92 580.299 319.6 580.299ZM335.175 590.883H340.215L338.295 589.803V581.163L340.215 580.083H335.175L337.095 581.163V589.803L335.175 590.883ZM325.455 590.883H330.375C332.295 590.883 334.695 590.163 334.695 587.883C334.695 585.603 332.295 584.955 330.375 584.955H328.575V581.163L330.495 580.083H325.455L327.375 581.163V589.803L325.455 590.883ZM330.255 585.675C331.935 585.675 333.375 586.203 333.375 587.883C333.375 589.563 331.815 590.163 330.375 590.163H329.223L328.575 589.803V585.675H330.255ZM342.485 589.803C342.485 590.475 343.013 591.003 343.685 591.003H343.805L342.605 593.763C344.765 591.123 344.885 590.643 344.885 589.803C344.885 589.131 344.357 588.603 343.685 588.603C343.013 588.603 342.485 589.131 342.485 589.803ZM110.122 616.883H112.45L110.746 615.803L105.658 610.811L109.522 607.163L112.21 606.083H107.17L108.61 607.043L104.29 611.147V607.163L106.21 606.083H101.17L103.09 607.163V615.803L101.17 616.883H106.21L104.29 615.803V611.147L110.122 616.883ZM116.855 611.099C115.223 611.675 113.759 612.803 113.759 614.483C113.759 616.187 114.839 617.243 116.495 617.243C117.455 617.243 118.271 616.763 118.823 616.403L120.599 615.227C120.599 616.499 120.599 617.243 121.439 617.243C122.279 617.243 123.959 615.203 123.959 615.203L121.799 616.043V609.203C121.799 607.163 120.935 605.723 118.319 605.723C116.879 605.723 114.167 607.043 114.167 608.531C114.167 609.227 114.575 609.539 115.031 609.539C115.487 609.539 115.895 609.275 115.895 608.531C115.895 608.195 115.847 607.955 115.847 607.763C115.847 607.163 116.615 606.443 118.079 606.443C119.399 606.443 120.599 607.067 120.599 609.203V609.803L116.855 611.099ZM119.111 615.443C118.415 615.899 117.815 616.355 116.879 616.355C115.679 616.355 115.031 615.395 115.031 614.363C115.031 613.043 115.631 612.227 117.719 611.483L120.599 610.475V614.459L119.111 615.443ZM130.096 606.299C132.136 606.299 132.352 607.523 132.352 607.763C132.352 608.147 132.136 608.219 132.136 608.747C132.136 609.275 132.472 609.635 133.048 609.635C133.648 609.635 133.96 609.155 133.96 608.531C133.96 607.211 132.544 605.723 130.144 605.723C127.288 605.723 124.912 608.003 124.912 611.483C124.912 614.723 126.832 617.243 129.952 617.243C133.552 617.243 134.272 613.763 134.272 613.763C134.272 613.763 133.192 616.163 130.552 616.163C128.152 616.163 126.112 614.675 126.112 611.099C126.112 607.811 128.416 606.299 130.096 606.299ZM139.167 611.099C137.535 611.675 136.071 612.803 136.071 614.483C136.071 616.187 137.151 617.243 138.807 617.243C139.767 617.243 140.583 616.763 141.135 616.403L142.911 615.227C142.911 616.499 142.911 617.243 143.751 617.243C144.591 617.243 146.271 615.203 146.271 615.203L144.111 616.043V609.203C144.111 607.163 143.247 605.723 140.631 605.723C139.191 605.723 136.479 607.043 136.479 608.531C136.479 609.227 136.887 609.539 137.343 609.539C137.799 609.539 138.207 609.275 138.207 608.531C138.207 608.195 138.159 607.955 138.159 607.763C138.159 607.163 138.927 606.443 140.391 606.443C141.711 606.443 142.911 607.067 142.911 609.203V609.803L139.167 611.099ZM141.423 615.443C140.727 615.899 140.127 616.355 139.191 616.355C137.991 616.355 137.343 615.395 137.343 614.363C137.343 613.043 137.943 612.227 140.031 611.483L142.911 610.475V614.459L141.423 615.443ZM147.225 616.883H152.265L150.345 615.803V611.675H153.105C153.177 614.723 154.857 617.243 158.121 617.243C161.217 617.243 163.137 614.603 163.137 611.483C163.137 608.363 161.457 605.723 158.121 605.723C155.193 605.723 153.321 608.075 153.129 610.955H150.345V607.163L152.265 606.083H147.225L149.145 607.163V615.803L147.225 616.883ZM157.785 606.371C159.777 606.371 161.817 608.123 161.817 612.107C161.817 614.939 160.233 616.595 158.457 616.595C156.489 616.595 154.425 614.843 154.425 610.859C154.425 607.979 156.033 606.371 157.785 606.371ZM179.706 607.163L181.626 606.083H176.826L178.506 607.163V615.803L177.858 616.163H173.826V607.163L175.506 606.083H170.946L172.626 607.163V616.163H168.594L167.946 615.803V607.163L169.626 606.083H164.826L166.746 607.163V615.803L164.826 616.883H180.786V621.443L182.106 616.163H180.354L179.706 615.803V607.163ZM190.756 616.883H195.796L193.876 615.803V607.163L195.796 606.083H190.756L192.676 607.163V607.403L186.556 614.459V607.163L188.476 606.083H183.436L185.356 607.163V615.803L183.436 616.883H188.476L186.556 615.803V615.563L192.676 608.507V615.803L190.756 616.883ZM206.835 610.403C206.835 607.763 205.755 605.723 202.707 605.723C199.851 605.723 197.475 607.979 197.475 611.483C197.475 614.723 199.395 617.243 202.515 617.243C206.115 617.243 206.835 613.763 206.835 613.763C206.835 613.763 205.755 616.163 203.115 616.163C200.715 616.163 198.675 614.675 198.675 611.099C198.675 610.859 198.675 610.643 198.699 610.403H206.835ZM202.659 606.299C204.339 606.299 205.515 607.403 205.515 608.603C205.515 609.563 204.675 609.683 203.475 609.683H198.819C199.347 607.379 201.147 606.299 202.659 606.299ZM213.932 606.299C215.972 606.299 216.188 607.523 216.188 607.763C216.188 608.147 215.972 608.219 215.972 608.747C215.972 609.275 216.308 609.635 216.884 609.635C217.484 609.635 217.796 609.155 217.796 608.531C217.796 607.211 216.38 605.723 213.98 605.723C211.124 605.723 208.748 608.003 208.748 611.483C208.748 614.723 210.668 617.243 213.788 617.243C217.388 617.243 218.108 613.763 218.108 613.763C218.108 613.763 217.028 616.163 214.388 616.163C211.988 616.163 209.948 614.675 209.948 611.099C209.948 607.811 212.252 606.299 213.932 606.299ZM230.467 606.083H225.067C223.147 606.083 220.747 606.803 220.747 609.083C220.747 610.763 222.043 611.555 223.483 611.867L220.867 615.803L219.187 616.883H221.563L224.755 612.011H227.347V615.803L225.427 616.883H230.467L228.547 615.803V607.163L230.467 606.083ZM225.187 611.291C223.507 611.291 222.067 610.763 222.067 609.083C222.067 607.403 223.627 606.803 225.067 606.803H226.699L227.347 607.163V611.291H225.187ZM241.133 615.803V607.643L245.573 617.243L250.013 607.331V615.803L248.093 616.883H253.133L251.213 615.803V607.163L253.133 606.083H249.773L245.837 614.939L241.733 606.083H238.373L240.293 607.163V615.803L238.373 616.883H243.053L241.133 615.803ZM262.123 616.883H267.163L265.243 615.803V607.163L267.163 606.083H262.123L264.043 607.163V607.403L257.923 614.459V607.163L259.843 606.083H254.803L256.723 607.163V615.803L254.803 616.883H259.843L257.923 615.803V615.563L264.043 608.507V615.803L262.123 616.883ZM270.402 620.843L268.482 621.923H273.522L271.602 620.843V615.347C271.674 615.515 272.562 617.243 274.962 617.243C277.122 617.243 279.642 615.563 279.642 611.483C279.642 607.043 277.362 605.723 275.202 605.723C272.682 605.723 271.602 608.003 271.602 608.003V605.723L268.482 606.683L270.402 607.283V620.843ZM271.602 609.203C271.602 609.203 272.442 606.443 274.842 606.443C276.666 606.443 278.322 607.883 278.322 611.483C278.322 614.843 276.666 616.523 274.842 616.523C272.802 616.523 271.602 614.963 271.602 613.163V609.203ZM284.667 611.099C283.035 611.675 281.571 612.803 281.571 614.483C281.571 616.187 282.651 617.243 284.307 617.243C285.267 617.243 286.083 616.763 286.635 616.403L288.411 615.227C288.411 616.499 288.411 617.243 289.251 617.243C290.091 617.243 291.771 615.203 291.771 615.203L289.611 616.043V609.203C289.611 607.163 288.747 605.723 286.131 605.723C284.691 605.723 281.979 607.043 281.979 608.531C281.979 609.227 282.387 609.539 282.843 609.539C283.299 609.539 283.707 609.275 283.707 608.531C283.707 608.195 283.659 607.955 283.659 607.763C283.659 607.163 284.427 606.443 285.891 606.443C287.211 606.443 288.411 607.067 288.411 609.203V609.803L284.667 611.099ZM286.923 615.443C286.227 615.899 285.627 616.355 284.691 616.355C283.491 616.355 282.843 615.395 282.843 614.363C282.843 613.043 283.443 612.227 285.531 611.483L288.411 610.475V614.459L286.923 615.443ZM301.119 616.883H306.639L304.479 615.803V606.803H307.119L308.559 609.443V606.083H299.199V609.443L300.639 606.803H303.279V615.803L301.119 616.883ZM313.706 611.099C312.074 611.675 310.61 612.803 310.61 614.483C310.61 616.187 311.69 617.243 313.346 617.243C314.306 617.243 315.122 616.763 315.674 616.403L317.45 615.227C317.45 616.499 317.45 617.243 318.29 617.243C319.13 617.243 320.81 615.203 320.81 615.203L318.65 616.043V609.203C318.65 607.163 317.786 605.723 315.17 605.723C313.73 605.723 311.018 607.043 311.018 608.531C311.018 609.227 311.426 609.539 311.882 609.539C312.338 609.539 312.746 609.275 312.746 608.531C312.746 608.195 312.698 607.955 312.698 607.763C312.698 607.163 313.466 606.443 314.93 606.443C316.25 606.443 317.45 607.067 317.45 609.203V609.803L313.706 611.099ZM315.962 615.443C315.266 615.899 314.666 616.355 313.73 616.355C312.53 616.355 311.882 615.395 311.882 614.363C311.882 613.043 312.482 612.227 314.57 611.483L317.45 610.475V614.459L315.962 615.443ZM323.324 620.843L321.404 621.923H326.444L324.524 620.843V615.347C324.596 615.515 325.484 617.243 327.884 617.243C330.044 617.243 332.564 615.563 332.564 611.483C332.564 607.043 330.284 605.723 328.124 605.723C325.604 605.723 324.524 608.003 324.524 608.003V605.723L321.404 606.683L323.324 607.283V620.843ZM324.524 609.203C324.524 609.203 325.364 606.443 327.764 606.443C329.588 606.443 331.244 607.883 331.244 611.483C331.244 614.843 329.588 616.523 327.764 616.523C325.724 616.523 324.524 614.963 324.524 613.163V609.203ZM339.173 606.371C341.165 606.371 343.325 608.123 343.325 612.107C343.325 614.939 341.621 616.595 339.845 616.595C337.877 616.595 335.693 614.843 335.693 610.859C335.693 607.979 337.421 606.371 339.173 606.371ZM334.373 611.483C334.373 614.723 336.173 617.243 339.509 617.243C342.605 617.243 344.645 614.723 344.645 611.483C344.645 608.243 342.845 605.723 339.509 605.723C336.413 605.723 334.373 608.243 334.373 611.483Z" fill="#313131"/>
</g>
<defs>
<filter id="filter0_di_935_6066" x="0.226385" y="0.360756" width="445.272" height="671.192" filterUnits="userSpaceOnUse" color-interpolation-filters="sRGB">
<feFlood flood-opacity="0" result="BackgroundImageFix"/>
<feColorMatrix in="SourceAlpha" type="matrix" values="0 0 0 0 0 0 0 0 0 0 0 0 0 0 0 0 0 0 127 0" result="hardAlpha"/>
<feOffset dy="4.04257"/>
<feGaussianBlur stdDeviation="3.34091"/>
<feComposite in2="hardAlpha" operator="out"/>
<feColorMatrix type="matrix" values="0 0 0 0 0 0 0 0 0 0 0 0 0 0 0 0 0 0 0.25 0"/>
<feBlend mode="normal" in2="BackgroundImageFix" result="effect1_dropShadow_935_6066"/>
<feBlend mode="normal" in="SourceGraphic" in2="effect1_dropShadow_935_6066" result="shape"/>
<feColorMatrix in="SourceAlpha" type="matrix" values="0 0 0 0 0 0 0 0 0 0 0 0 0 0 0 0 0 0 127 0" result="hardAlpha"/>
<feOffset dy="4.04257"/>
<feGaussianBlur stdDeviation="5.05322"/>
<feComposite in2="hardAlpha" operator="arithmetic" k2="-1" k3="1"/>
<feColorMatrix type="matrix" values="0 0 0 0 0.972549 0 0 0 0 0.964706 0 0 0 0 0.941176 0 0 0 1 0"/>
<feBlend mode="normal" in2="shape" result="effect2_innerShadow_935_6066"/>
</filter>
<filter id="filter1_di_935_6066" x="57.3182" y="35.2436" width="331.364" height="409.481" filterUnits="userSpaceOnUse" color-interpolation-filters="sRGB">
<feFlood flood-opacity="0" result="BackgroundImageFix"/>
<feColorMatrix in="SourceAlpha" type="matrix" values="0 0 0 0 0 0 0 0 0 0 0 0 0 0 0 0 0 0 127 0" result="hardAlpha"/>
<feOffset dy="4.04257"/>
<feGaussianBlur stdDeviation="3.34091"/>
<feComposite in2="hardAlpha" operator="out"/>
<feColorMatrix type="matrix" values="0 0 0 0 0 0 0 0 0 0 0 0 0 0 0 0 0 0 0.25 0"/>
<feBlend mode="normal" in2="BackgroundImageFix" result="effect1_dropShadow_935_6066"/>
<feBlend mode="normal" in="SourceGraphic" in2="effect1_dropShadow_935_6066" result="shape"/>
<feColorMatrix in="SourceAlpha" type="matrix" values="0 0 0 0 0 0 0 0 0 0 0 0 0 0 0 0 0 0 127 0" result="hardAlpha"/>
<feOffset dy="4.04257"/>
<feGaussianBlur stdDeviation="5.05322"/>
<feComposite in2="hardAlpha" operator="arithmetic" k2="-1" k3="1"/>
<feColorMatrix type="matrix" values="0 0 0 0 0.972549 0 0 0 0 0.964706 0 0 0 0 0.941176 0 0 0 1 0"/>
<feBlend mode="normal" in2="shape" result="effect2_innerShadow_935_6066"/>
</filter>
<filter id="filter2_d_935_6066" x="93.4868" y="227.556" width="256.558" height="98.6533" filterUnits="userSpaceOnUse" color-interpolation-filters="sRGB">
<feFlood flood-opacity="0" result="BackgroundImageFix"/>
<feColorMatrix in="SourceAlpha" type="matrix" values="0 0 0 0 0 0 0 0 0 0 0 0 0 0 0 0 0 0 127 0" result="hardAlpha"/>
<feOffset/>
<feGaussianBlur stdDeviation="6.06373"/>
<feComposite in2="hardAlpha" operator="out"/>
<feColorMatrix type="matrix" values="0 0 0 0 0.972549 0 0 0 0 0.964706 0 0 0 0 0.941176 0 0 0 1 0"/>
<feBlend mode="normal" in2="BackgroundImageFix" result="effect1_dropShadow_935_6066"/>
<feBlend mode="normal" in="SourceGraphic" in2="effect1_dropShadow_935_6066" result="shape"/>
</filter>
<filter id="filter3_d_935_6066" x="62.6011" y="339.673" width="321.116" height="98.6533" filterUnits="userSpaceOnUse" color-interpolation-filters="sRGB">
<feFlood flood-opacity="0" result="BackgroundImageFix"/>
<feColorMatrix in="SourceAlpha" type="matrix" values="0 0 0 0 0 0 0 0 0 0 0 0 0 0 0 0 0 0 127 0" result="hardAlpha"/>
<feOffset/>
<feGaussianBlur stdDeviation="6.06373"/>
<feComposite in2="hardAlpha" operator="out"/>
<feColorMatrix type="matrix" values="0 0 0 0 0.972549 0 0 0 0 0.964706 0 0 0 0 0.941176 0 0 0 1 0"/>
<feBlend mode="normal" in2="BackgroundImageFix" result="effect1_dropShadow_935_6066"/>
<feBlend mode="normal" in="SourceGraphic" in2="effect1_dropShadow_935_6066" result="shape"/>
</filter>
<filter id="filter4_d_935_6066" x="101.751" y="307.693" width="240.495" height="59.3545" filterUnits="userSpaceOnUse" color-interpolation-filters="sRGB">
<feFlood flood-opacity="0" result="BackgroundImageFix"/>
<feColorMatrix in="SourceAlpha" type="matrix" values="0 0 0 0 0 0 0 0 0 0 0 0 0 0 0 0 0 0 127 0" result="hardAlpha"/>
<feOffset/>
<feGaussianBlur stdDeviation="6.06373"/>
<feComposite in2="hardAlpha" operator="out"/>
<feColorMatrix type="matrix" values="0 0 0 0 0.972549 0 0 0 0 0.964706 0 0 0 0 0.941176 0 0 0 1 0"/>
<feBlend mode="normal" in2="BackgroundImageFix" result="effect1_dropShadow_935_6066"/>
<feBlend mode="normal" in="SourceGraphic" in2="effect1_dropShadow_935_6066" result="shape"/>
</filter>
<filter id="filter5_d_935_6066" x="181.482" y="46.4897" width="80.0362" height="65.9737" filterUnits="userSpaceOnUse" color-interpolation-filters="sRGB">
<feFlood flood-opacity="0" result="BackgroundImageFix"/>
<feColorMatrix in="SourceAlpha" type="matrix" values="0 0 0 0 0 0 0 0 0 0 0 0 0 0 0 0 0 0 127 0" result="hardAlpha"/>
<feOffset/>
<feGaussianBlur stdDeviation="6.06373"/>
<feComposite in2="hardAlpha" operator="out"/>
<feColorMatrix type="matrix" values="0 0 0 0 0.972549 0 0 0 0 0.964706 0 0 0 0 0.941176 0 0 0 1 0"/>
<feBlend mode="normal" in2="BackgroundImageFix" result="effect1_dropShadow_935_6066"/>
<feBlend mode="normal" in="SourceGraphic" in2="effect1_dropShadow_935_6066" result="shape"/>
</filter>
<filter id="filter6_d_935_6066" x="45.0151" y="509.595" width="355.79" height="124.454" filterUnits="userSpaceOnUse" color-interpolation-filters="sRGB">
<feFlood flood-opacity="0" result="BackgroundImageFix"/>
<feColorMatrix in="SourceAlpha" type="matrix" values="0 0 0 0 0 0 0 0 0 0 0 0 0 0 0 0 0 0 127 0" result="hardAlpha"/>
<feOffset/>
<feGaussianBlur stdDeviation="6.06373"/>
<feComposite in2="hardAlpha" operator="out"/>
<feColorMatrix type="matrix" values="0 0 0 0 0.972549 0 0 0 0 0.964706 0 0 0 0 0.941176 0 0 0 1 0"/>
<feBlend mode="normal" in2="BackgroundImageFix" result="effect1_dropShadow_935_6066"/>
<feBlend mode="normal" in="SourceGraphic" in2="effect1_dropShadow_935_6066" result="shape"/>
</filter>
<radialGradient id="paint0_radial_935_6066" cx="0" cy="0" r="1" gradientUnits="userSpaceOnUse" gradientTransform="translate(235.559 2.54252) rotate(91.9713) scale(378.499 425.537)">
<stop stop-color="#FFAFE9"/>
<stop offset="0.776042" stop-color="#FF94E1" stop-opacity="0"/>
</radialGradient>
</defs>
</svg>
