<svg width="46" height="46" viewBox="0 0 46 46" fill="none" xmlns="http://www.w3.org/2000/svg">
<g filter="url(#filter0_d_483_1884)">
<path fill-rule="evenodd" clip-rule="evenodd" d="M23 5.77118L18.8338 17.0302C18.5246 17.8658 17.8658 18.5246 17.0302 18.8338L5.77118 23L17.0302 27.1662C17.8658 27.4754 18.5246 28.1342 18.8338 28.9698L23 40.2288L27.1662 28.9698C27.4754 28.1342 28.1342 27.4754 28.9698 27.1662L40.2288 23L28.9698 18.8338C28.1342 18.5246 27.4754 17.8658 27.1662 17.0302L23 5.77118ZM24.1864 3.82598C23.7788 2.72467 22.2212 2.72468 21.8137 3.82598L17.1572 16.4098C17.0291 16.7561 16.7561 17.0291 16.4098 17.1572L3.82598 21.8137C2.72467 22.2212 2.72468 23.7788 3.82598 24.1864L16.4098 28.8428C16.7561 28.9709 17.0291 29.2439 17.1572 29.5902L21.8137 42.174C22.2212 43.2753 23.7788 43.2753 24.1864 42.174L28.8428 29.5902C28.9709 29.2439 29.2439 28.9709 29.5902 28.8428L42.174 24.1864C43.2753 23.7788 43.2753 22.2212 42.174 21.8137L29.5902 17.1572C29.2439 17.0291 28.9709 16.7561 28.8428 16.4098L24.1864 3.82598Z" fill="#313131"/>
</g>
<defs>
<filter id="filter0_d_483_1884" x="0.815781" y="0.815781" width="44.3684" height="44.3684" filterUnits="userSpaceOnUse" color-interpolation-filters="sRGB">
<feFlood flood-opacity="0" result="BackgroundImageFix"/>
<feColorMatrix in="SourceAlpha" type="matrix" values="0 0 0 0 0 0 0 0 0 0 0 0 0 0 0 0 0 0 127 0" result="hardAlpha"/>
<feOffset/>
<feGaussianBlur stdDeviation="1.09211"/>
<feColorMatrix type="matrix" values="0 0 0 0 0.972549 0 0 0 0 0.964706 0 0 0 0 0.941176 0 0 0 1 0"/>
<feBlend mode="normal" in2="BackgroundImageFix" result="effect1_dropShadow_483_1884"/>
<feBlend mode="normal" in="SourceGraphic" in2="effect1_dropShadow_483_1884" result="shape"/>
</filter>
</defs>
</svg>
