<svg width="446" height="672" viewBox="0 0 446 672" fill="none" xmlns="http://www.w3.org/2000/svg">
<g filter="url(#filter0_di_935_6030)">
<rect x="6.81543" y="3" width="431.908" height="657.829" rx="22" fill="#F5F6EE"/>
<rect x="6.81543" y="3" width="431.908" height="657.829" rx="22" fill="url(#paint0_radial_935_6030)"/>
</g>
<g filter="url(#filter1_di_935_6030)">
<path fill-rule="evenodd" clip-rule="evenodd" d="M171.815 47.8828C171.815 42.36 176.293 37.8828 181.815 37.8828L261.815 37.8828C267.338 37.8828 271.815 42.36 271.815 47.8828V108.883C271.815 114.406 267.338 118.883 261.815 118.883H235.815C230.293 118.883 225.815 123.36 225.815 128.883V219C225.815 224.523 230.293 229 235.815 229H371.999C377.522 229 381.999 233.477 381.999 239V271C381.999 276.523 377.522 281 371.999 281H335.999C330.476 281 325.999 285.477 325.999 291V297C325.999 302.523 330.476 307 335.999 307H401.999C407.522 307 411.999 311.477 411.999 317V344C411.999 349.523 407.522 354 401.999 354H383.999C378.476 354 373.999 358.477 373.999 364V383C373.999 388.523 369.522 393 363.999 393H349.999C344.476 393 339.999 397.477 339.999 403V424C339.999 429.523 335.522 434 329.999 434H124.999C119.476 434 114.999 429.523 114.999 424V403C114.999 397.477 110.522 393 104.999 393H89.999C84.4762 393 79.999 388.523 79.999 383V364C79.999 358.477 75.5219 354 69.999 354H43.999C38.4762 354 33.999 349.523 33.999 344V317C33.999 311.477 38.4762 307 43.999 307H97.999C103.522 307 107.999 302.523 107.999 297V291C107.999 285.477 103.522 281 97.999 281H71.999C66.4762 281 61.999 276.523 61.999 271V239C61.999 233.477 66.4762 229 71.999 229H207.815C213.338 229 217.815 224.523 217.815 219V128.883C217.815 123.36 213.338 118.883 207.815 118.883H181.815C176.293 118.883 171.815 114.406 171.815 108.883V47.8828Z" fill="#D9D9D9" fill-opacity="0.01"/>
</g>
<g filter="url(#filter2_d_935_6030)">
<path d="M97.6582 271.603C105.578 271.603 109.418 265.843 109.418 259.363C109.418 253.123 106.058 247.123 98.1382 247.123C90.9382 247.123 89.2582 254.083 89.2582 254.083H89.0182C89.4982 246.403 93.1462 243.523 98.1382 243.523H102.218C107.738 243.523 107.978 239.443 107.978 237.283H105.578C105.578 239.203 104.378 239.683 102.218 239.683H99.5782C89.2582 239.683 85.8982 247.123 85.8982 257.443C85.8982 265.843 89.4982 271.603 97.6582 271.603ZM97.6582 250.003C101.738 250.003 105.098 252.883 105.098 259.363C105.098 265.843 101.738 268.723 97.6582 268.723C93.5782 268.723 90.2182 265.843 90.2182 259.363C90.2182 253.363 93.5782 250.003 97.6582 250.003ZM121.66 270.883L121.18 272.083C120.22 274.531 119.02 275.203 117.34 275.203C116.38 275.203 114.94 275.059 114.94 275.059V278.083C114.94 278.083 116.62 278.323 118.06 278.323C122.14 278.323 123.58 276.307 125.26 272.083L135.1 246.883H130.78L123.628 266.611L115.66 246.883H111.1L121.66 270.883ZM140.118 278.083V270.883H160.038V278.083H164.118V267.763H159.798V246.883H142.278V252.403C142.278 263.683 140.358 267.763 136.998 267.763H136.038V278.083H140.118ZM142.758 267.763C145.398 265.603 146.118 259.987 146.118 252.883V250.003H155.718V267.763H142.758ZM176.86 270.883C181.9 270.883 186.22 269.203 186.22 263.683C186.22 258.163 181.9 256.723 176.86 256.723H170.38V246.883H166.3V270.883H176.86ZM170.38 267.763V259.843H176.62C179.5 259.843 181.9 260.563 181.9 263.683C181.9 267.043 179.5 267.763 176.62 267.763H170.38ZM202.536 270.883V250.003H215.496V246.883H198.456V270.883H202.536ZM229.189 271.603C237.109 271.603 240.949 265.843 240.949 258.883C240.949 251.923 237.109 246.163 229.189 246.163C221.269 246.163 217.429 251.923 217.429 258.883C217.429 265.843 221.269 271.603 229.189 271.603ZM221.749 258.883C221.749 251.923 225.109 249.043 229.189 249.043C233.269 249.043 236.629 251.923 236.629 258.883C236.629 265.843 233.269 268.723 229.189 268.723C225.109 268.723 221.749 265.843 221.749 258.883ZM251.751 250.003V270.883H255.831V250.003H264.711V246.883H242.871V250.003H251.751ZM278.408 271.603C286.328 271.603 290.168 265.843 290.168 258.883C290.168 251.923 286.328 246.163 278.408 246.163C270.488 246.163 266.648 251.923 266.648 258.883C266.648 265.843 270.488 271.603 278.408 271.603ZM270.968 258.883C270.968 251.923 274.328 249.043 278.408 249.043C282.488 249.043 285.848 251.923 285.848 258.883C285.848 265.843 282.488 268.723 278.408 268.723C274.328 268.723 270.968 265.843 270.968 258.883ZM293.05 246.883V270.883H304.57C309.61 270.883 313.93 269.203 313.93 263.923C313.93 258.883 308.41 258.163 308.41 258.163V257.923C308.41 257.923 312.97 257.203 312.97 252.643C312.97 248.323 308.89 246.883 304.33 246.883H293.05ZM304.33 259.843C307.21 259.843 309.61 260.563 309.61 263.683C309.61 267.043 307.21 267.763 304.33 267.763H297.13V259.843H304.33ZM297.13 250.003H304.09C306.49 250.003 308.89 250.483 308.89 253.363C308.89 256.003 306.73 256.963 303.61 256.963H297.13V250.003ZM336.309 278.275H314.805V275.203H336.309V278.275ZM345.589 271.603C351.589 271.603 353.989 266.803 353.989 266.803V267.523C353.989 270.643 355.909 271.123 358.309 271.123C359.365 271.123 360.469 270.883 360.469 270.883V268.003C358.069 268.243 358.069 267.043 358.069 265.123V254.083C358.069 248.563 354.469 246.163 347.989 246.163C341.989 246.163 337.669 248.563 337.669 254.083H341.749C341.749 250.723 343.909 249.043 347.989 249.043C351.829 249.043 353.989 250.243 353.989 253.123C353.989 255.043 353.509 256.963 347.989 256.963C339.829 256.963 337.189 260.323 337.189 264.403C337.189 268.483 340.069 271.603 345.589 271.603ZM347.509 259.363C352.885 259.363 353.941 257.587 353.989 257.491V259.123C353.989 266.323 349.909 268.723 346.549 268.723C343.429 268.723 341.509 266.803 341.509 263.923C341.509 260.323 344.869 259.363 347.509 259.363ZM129.833 306.883V299.923L134.249 295.315L141.833 306.883H146.633L136.889 292.531L146.153 282.883H141.593L129.833 295.363V282.883H125.753V306.883H129.833ZM160.33 307.603C168.25 307.603 172.09 301.843 172.09 294.883C172.09 287.923 168.25 282.163 160.33 282.163C152.41 282.163 148.57 287.923 148.57 294.883C148.57 301.843 152.41 307.603 160.33 307.603ZM152.89 294.883C152.89 287.923 156.25 285.043 160.33 285.043C164.41 285.043 167.77 287.923 167.77 294.883C167.77 301.843 164.41 304.723 160.33 304.723C156.25 304.723 152.89 301.843 152.89 294.883ZM184.581 282.883V306.883H196.101C201.141 306.883 205.461 305.203 205.461 299.923C205.461 294.883 199.941 294.163 199.941 294.163V293.923C199.941 293.923 204.501 293.203 204.501 288.643C204.501 284.323 200.421 282.883 195.861 282.883H184.581ZM195.861 295.843C198.741 295.843 201.141 296.563 201.141 299.683C201.141 303.043 198.741 303.763 195.861 303.763H188.661V295.843H195.861ZM188.661 286.003H195.621C198.021 286.003 200.421 286.483 200.421 289.363C200.421 292.003 198.261 292.963 195.141 292.963H188.661V286.003ZM219.393 307.603C226.353 307.603 229.953 303.283 230.193 298.483H225.873C225.393 302.323 223.233 304.723 219.393 304.723C215.313 304.723 211.953 301.843 211.953 294.883C211.953 287.923 215.313 285.043 219.393 285.043C223.233 285.043 225.393 287.443 225.873 291.283H230.193C229.953 286.483 226.353 282.163 219.393 282.163C211.473 282.163 207.633 287.923 207.633 294.883C207.633 301.843 211.473 307.603 219.393 307.603ZM244.33 307.603C250.33 307.603 253.93 304.243 254.89 299.683H250.81C250.09 303.043 247.45 304.723 244.33 304.723C240.442 304.723 237.178 302.131 236.89 295.843H255.13V293.923C255.13 288.163 252.01 282.163 244.09 282.163C236.41 282.163 232.57 287.923 232.57 294.883C232.57 301.843 236.41 307.603 244.33 307.603ZM244.09 285.043C247.738 285.043 250.81 287.443 250.81 292.963H236.986C237.514 287.395 240.394 285.043 244.09 285.043ZM257.988 306.883H262.068V286.723L269.748 306.883H273.588L281.268 286.723V306.883H285.348V282.883H279.108L271.668 302.563L264.228 282.883H257.988V306.883ZM298.051 306.883L297.571 308.083C296.611 310.531 295.411 311.203 293.731 311.203C292.771 311.203 291.331 311.059 291.331 311.059V314.083C291.331 314.083 293.011 314.323 294.451 314.323C298.531 314.323 299.971 312.307 301.651 308.083L311.491 282.883H307.171L300.019 302.611L292.051 282.883H287.491L298.051 306.883ZM55.3301 343.603C62.2901 343.603 65.8901 339.283 66.1301 334.483H61.8101C61.3301 338.323 59.1701 340.723 55.3301 340.723C51.2501 340.723 47.8901 337.843 47.8901 330.883C47.8901 323.923 51.2501 321.043 55.3301 321.043C59.1701 321.043 61.3301 323.443 61.8101 327.283H66.1301C65.8901 322.483 62.2901 318.163 55.3301 318.163C47.4101 318.163 43.5701 323.923 43.5701 330.883C43.5701 337.843 47.4101 343.603 55.3301 343.603ZM80.2676 343.603C88.1876 343.603 92.0276 337.843 92.0276 330.883C92.0276 323.923 88.1876 318.163 80.2676 318.163C72.3476 318.163 68.5076 323.923 68.5076 330.883C68.5076 337.843 72.3476 343.603 80.2676 343.603ZM72.8276 330.883C72.8276 323.923 76.1876 321.043 80.2676 321.043C84.3476 321.043 87.7076 323.923 87.7076 330.883C87.7076 337.843 84.3476 340.723 80.2676 340.723C76.1876 340.723 72.8276 337.843 72.8276 330.883ZM115.799 343.603C122.759 343.603 126.359 339.283 126.599 334.483H122.279C121.799 338.323 119.639 340.723 115.799 340.723C111.719 340.723 108.359 337.843 108.359 330.883C108.359 323.923 111.719 321.043 115.799 321.043C119.639 321.043 121.799 323.443 122.279 327.283H126.599C126.359 322.483 122.759 318.163 115.799 318.163C107.879 318.163 104.039 323.923 104.039 330.883C104.039 337.843 107.879 343.603 115.799 343.603ZM129.456 342.883H133.536V322.003H146.016V342.883H150.096V318.883H129.456V342.883ZM153.456 350.083H157.536V338.563C157.536 338.563 159.936 343.603 165.696 343.603C173.376 343.603 176.736 337.603 176.736 330.883C176.736 324.163 173.376 318.163 165.696 318.163C159.936 318.163 157.536 323.203 157.536 323.203V318.883H153.456V350.083ZM164.976 321.043C169.056 321.043 172.416 323.923 172.416 330.883C172.416 337.843 169.056 340.723 164.976 340.723C160.896 340.723 157.536 337.363 157.536 330.883C157.536 324.403 160.896 321.043 164.976 321.043ZM187.293 343.603C193.293 343.603 195.693 338.803 195.693 338.803V339.523C195.693 342.643 197.613 343.123 200.013 343.123C201.069 343.123 202.173 342.883 202.173 342.883V340.003C199.773 340.243 199.773 339.043 199.773 337.123V326.083C199.773 320.563 196.173 318.163 189.693 318.163C183.693 318.163 179.373 320.563 179.373 326.083H183.453C183.453 322.723 185.613 321.043 189.693 321.043C193.533 321.043 195.693 322.243 195.693 325.123C195.693 327.043 195.213 328.963 189.693 328.963C181.533 328.963 178.893 332.323 178.893 336.403C178.893 340.483 181.773 343.603 187.293 343.603ZM189.213 331.363C194.589 331.363 195.645 329.587 195.693 329.491V331.123C195.693 338.323 191.613 340.723 188.253 340.723C185.133 340.723 183.213 338.803 183.213 335.923C183.213 332.323 186.573 331.363 189.213 331.363ZM204.316 318.883V342.883H215.836C220.876 342.883 225.196 341.203 225.196 335.923C225.196 330.883 219.676 330.163 219.676 330.163V329.923C219.676 329.923 224.236 329.203 224.236 324.643C224.236 320.323 220.156 318.883 215.596 318.883H204.316ZM215.596 331.843C218.476 331.843 220.876 332.563 220.876 335.683C220.876 339.043 218.476 339.763 215.596 339.763H208.396V331.843H215.596ZM208.396 322.003H215.356C217.756 322.003 220.156 322.483 220.156 325.363C220.156 328.003 217.996 328.963 214.876 328.963H208.396V322.003ZM239.127 343.603C247.047 343.603 250.887 337.843 250.887 330.883C250.887 323.923 247.047 318.163 239.127 318.163C231.207 318.163 227.367 323.923 227.367 330.883C227.367 337.843 231.207 343.603 239.127 343.603ZM231.687 330.883C231.687 323.923 235.047 321.043 239.127 321.043C243.207 321.043 246.567 323.923 246.567 330.883C246.567 337.843 243.207 340.723 239.127 340.723C235.047 340.723 231.687 337.843 231.687 330.883ZM253.529 318.883V326.083C253.529 331.843 257.129 334.483 262.169 334.483C266.969 334.483 269.129 331.603 269.129 331.603V342.883H273.209V318.883H269.129V327.763C269.129 330.163 266.729 331.363 263.369 331.363C259.289 331.363 257.609 329.443 257.609 325.123V318.883H253.529ZM280.63 342.883V331.843H293.11V342.883H297.19V318.883H293.11V328.963H280.63V318.883H276.55V342.883H280.63ZM300.55 318.883V342.883H304.63L317.59 324.163V342.883H321.67V318.883H317.59L304.63 337.603V318.883H300.55ZM329.099 342.883V335.923L333.515 331.315L341.099 342.883H345.899L336.155 328.531L345.419 318.883H340.859L329.099 331.363V318.883H325.019V342.883H329.099ZM359.596 343.603C367.516 343.603 371.356 337.843 371.356 330.883C371.356 323.923 367.516 318.163 359.596 318.163C351.676 318.163 347.836 323.923 347.836 330.883C347.836 337.843 351.676 343.603 359.596 343.603ZM352.156 330.883C352.156 323.923 355.516 321.043 359.596 321.043C363.676 321.043 367.036 323.923 367.036 330.883C367.036 337.843 363.676 340.723 359.596 340.723C355.516 340.723 352.156 337.843 352.156 330.883ZM374.238 342.883H378.318V322.723L385.998 342.883H389.838L397.518 322.723V342.883H401.598V318.883H395.358L387.918 338.563L380.478 318.883H374.238V342.883Z" fill="#313131"/>
</g>
<g filter="url(#filter3_d_935_6030)">
<path d="M125.792 394.883V418.883H137.312C142.352 418.883 146.672 417.203 146.672 411.923C146.672 406.883 141.152 406.163 141.152 406.163V405.923C141.152 405.923 145.712 405.203 145.712 400.643C145.712 396.323 141.632 394.883 137.072 394.883H125.792ZM137.072 407.843C139.952 407.843 142.352 408.563 142.352 411.683C142.352 415.043 139.952 415.763 137.072 415.763H129.872V407.843H137.072ZM129.872 398.003H136.832C139.232 398.003 141.632 398.483 141.632 401.363C141.632 404.003 139.472 404.963 136.352 404.963H129.872V398.003ZM160.604 419.603C167.564 419.603 171.164 415.283 171.404 410.483H167.084C166.604 414.323 164.444 416.723 160.604 416.723C156.524 416.723 153.164 413.843 153.164 406.883C153.164 399.923 156.524 397.043 160.604 397.043C164.444 397.043 166.604 399.443 167.084 403.283H171.404C171.164 398.483 167.564 394.163 160.604 394.163C152.684 394.163 148.844 399.923 148.844 406.883C148.844 413.843 152.684 419.603 160.604 419.603ZM185.541 419.603C191.541 419.603 195.141 416.243 196.101 411.683H192.021C191.301 415.043 188.661 416.723 185.541 416.723C181.653 416.723 178.389 414.131 178.101 407.843H196.341V405.923C196.341 400.163 193.221 394.163 185.301 394.163C177.621 394.163 173.781 399.923 173.781 406.883C173.781 413.843 177.621 419.603 185.541 419.603ZM185.301 397.043C188.949 397.043 192.021 399.443 192.021 404.963H178.197C178.725 399.395 181.605 397.043 185.301 397.043ZM198.239 418.883H203.039L209.999 409.043L216.959 418.883H221.759L212.399 406.403L221.279 394.883H216.479L209.999 403.763L203.519 394.883H198.719L207.599 406.403L198.239 418.883ZM237.825 418.883V411.923L242.241 407.315L249.825 418.883H254.625L244.881 404.531L254.145 394.883H249.585L237.825 407.363V394.883H233.745V418.883H237.825ZM264.722 419.603C270.722 419.603 273.122 414.803 273.122 414.803V415.523C273.122 418.643 275.042 419.123 277.442 419.123C278.498 419.123 279.602 418.883 279.602 418.883V416.003C277.202 416.243 277.202 415.043 277.202 413.123V402.083C277.202 396.563 273.602 394.163 267.122 394.163C261.122 394.163 256.802 396.563 256.802 402.083H260.882C260.882 398.723 263.042 397.043 267.122 397.043C270.962 397.043 273.122 398.243 273.122 401.123C273.122 403.043 272.642 404.963 267.122 404.963C258.962 404.963 256.322 408.323 256.322 412.403C256.322 416.483 259.202 419.603 264.722 419.603ZM266.642 407.363C272.018 407.363 273.074 405.587 273.122 405.491V407.123C273.122 414.323 269.042 416.723 265.682 416.723C262.562 416.723 260.642 414.803 260.642 411.923C260.642 408.323 264.002 407.363 266.642 407.363ZM281.745 426.083H285.825V414.563C285.825 414.563 288.225 419.603 293.985 419.603C301.665 419.603 305.025 413.603 305.025 406.883C305.025 400.163 301.665 394.163 293.985 394.163C288.225 394.163 285.825 399.203 285.825 399.203V394.883H281.745V426.083ZM293.265 397.043C297.345 397.043 300.705 399.923 300.705 406.883C300.705 413.843 297.345 416.723 293.265 416.723C289.185 416.723 285.825 413.363 285.825 406.883C285.825 400.403 289.185 397.043 293.265 397.043ZM315.822 398.003V418.883H319.902V398.003H328.782V394.883H306.942V398.003H315.822Z" fill="#313131"/>
</g>
<g filter="url(#filter4_d_935_6030)">
<path d="M97.8623 381H109.822L105.142 378.66V359.16H110.862L113.982 364.88V357.6H93.7023V364.88L96.8223 359.16H102.542V378.66L97.8623 381ZM128.567 358.224C132.883 358.224 137.563 362.02 137.563 370.652C137.563 376.788 133.871 380.376 130.023 380.376C125.759 380.376 121.027 376.58 121.027 367.948C121.027 361.708 124.771 358.224 128.567 358.224ZM118.167 369.3C118.167 376.32 122.067 381.78 129.295 381.78C136.003 381.78 140.423 376.32 140.423 369.3C140.423 362.28 136.523 356.82 129.295 356.82C122.587 356.82 118.167 362.28 118.167 369.3ZM157.585 381H168.505L164.345 378.66V359.94L168.505 357.6H147.185L151.345 359.94V363.06C151.345 373.2 149.473 378.348 147.445 378.348C146.249 378.348 146.405 377.048 144.949 377.048C143.909 377.048 143.025 377.88 143.025 379.128C143.025 380.948 144.637 381.52 145.781 381.52C151.865 381.52 153.165 371.64 153.165 363.06V359.94L154.569 359.16H160.341L161.745 359.94V378.66L157.585 381ZM191.543 381H196.587L192.895 378.66L181.871 367.844L190.243 359.94L196.067 357.6H185.147L188.267 359.68L178.907 368.572V359.94L183.067 357.6H172.147L176.307 359.94V378.66L172.147 381H183.067L178.907 378.66V368.572L191.543 381ZM208.547 358.224C212.863 358.224 217.543 362.02 217.543 370.652C217.543 376.788 213.851 380.376 210.003 380.376C205.739 380.376 201.007 376.58 201.007 367.948C201.007 361.708 204.751 358.224 208.547 358.224ZM198.147 369.3C198.147 376.32 202.047 381.78 209.275 381.78C215.983 381.78 220.403 376.32 220.403 369.3C220.403 362.28 216.503 356.82 209.275 356.82C202.567 356.82 198.147 362.28 198.147 369.3ZM235.746 369.716C239.386 369.716 242.506 370.86 242.506 374.5C242.506 378.14 239.126 379.44 236.006 379.44H232.21L230.806 378.66V369.716H235.746ZM230.806 368.156V359.94L232.21 359.16H234.966C238.086 359.16 241.466 360.096 241.466 363.424C241.466 366.908 238.346 368.156 234.706 368.156H230.806ZM244.326 363.32C244.326 358.484 238.866 357.6 234.706 357.6H224.046L228.206 359.94V378.66L224.046 381H236.006C240.166 381 245.366 379.44 245.366 374.5C245.366 369.04 239.126 368.676 239.126 368.676V368.52C239.126 368.52 244.326 367.74 244.326 363.32ZM256.252 368.468C252.716 369.716 249.544 372.16 249.544 375.8C249.544 379.492 251.884 381.78 255.472 381.78C257.552 381.78 259.32 380.74 260.516 379.96L264.364 377.412C264.364 380.168 264.364 381.78 266.184 381.78C268.004 381.78 271.644 377.36 271.644 377.36L266.964 379.18V364.36C266.964 359.94 265.092 356.82 259.424 356.82C256.304 356.82 250.428 359.68 250.428 362.904C250.428 364.412 251.312 365.088 252.3 365.088C253.288 365.088 254.172 364.516 254.172 362.904C254.172 362.176 254.068 361.656 254.068 361.24C254.068 359.94 255.732 358.38 258.904 358.38C261.764 358.38 264.364 359.732 264.364 364.36V365.66L256.252 368.468ZM261.14 377.88C259.632 378.868 258.332 379.856 256.304 379.856C253.704 379.856 252.3 377.776 252.3 375.54C252.3 372.68 253.6 370.912 258.124 369.3L264.364 367.116V375.748L261.14 377.88ZM273.71 381H284.63L280.47 378.66V369.716H293.21V378.66L289.05 381H299.97L295.81 378.66V359.94L299.97 357.6H289.05L293.21 359.94V368.156H280.47V359.94L284.63 357.6H273.71L277.87 359.94V378.66L273.71 381ZM319.48 381H330.4L326.24 378.66V359.94L330.4 357.6H319.48L323.64 359.94V360.46L310.38 375.748V359.94L314.54 357.6H303.62L307.78 359.94V378.66L303.62 381H314.54L310.38 378.66V378.14L323.64 362.852V378.66L319.48 381ZM349.898 381H360.818L356.658 378.66V359.94L360.818 357.6H349.898L354.058 359.94V360.46L340.798 375.748V359.94L344.958 357.6H334.038L338.198 359.94V378.66L334.038 381H344.958L340.798 378.66V378.14L354.058 362.852V378.66L349.898 381ZM347.402 353.44C345.634 353.44 344.126 352.92 343.866 352.036C343.554 351.1 344.75 350.996 344.75 349.54C344.75 348.656 344.074 347.876 342.982 347.876C341.682 347.876 340.85 348.812 340.85 350.216C340.85 353.18 344.126 354.428 347.402 354.428C350.678 354.428 353.954 353.18 353.954 350.216C353.954 348.812 353.122 347.876 351.822 347.876C350.73 347.876 350.054 348.656 350.054 349.54C350.054 350.996 351.25 351.1 350.938 352.036C350.678 352.92 349.17 353.44 347.402 353.44Z" fill="#313131"/>
</g>
<g filter="url(#filter5_d_935_6030)">
<path d="M235.909 100.336C233.987 100.336 232.167 99.7734 230.448 98.6484C228.729 97.5391 227.206 96.0156 225.878 94.0781C224.55 92.1406 223.503 89.9219 222.737 87.4219C221.987 84.9062 221.612 82.2578 221.612 79.4766C221.612 76.6953 221.987 74.0547 222.737 71.5547C223.503 69.0391 224.55 66.8125 225.878 64.875C227.206 62.9375 228.729 61.4141 230.448 60.3047C232.167 59.1797 233.987 58.6172 235.909 58.6172C237.831 58.6172 239.651 59.1797 241.37 60.3047C243.089 61.4141 244.612 62.9375 245.94 64.875C247.269 66.8125 248.308 69.0391 249.058 71.5547C249.823 74.0547 250.206 76.6953 250.206 79.4766C250.206 82.2578 249.823 84.9062 249.058 87.4219C248.308 89.9219 247.269 92.1406 245.94 94.0781C244.612 96.0156 243.089 97.5391 241.37 98.6484C239.651 99.7734 237.831 100.336 235.909 100.336ZM204.503 87.0703C203.534 87.0703 202.644 86.75 201.831 86.1094C201.019 85.4531 200.37 84.5781 199.886 83.4844C199.417 82.375 199.183 81.1562 199.183 79.8281C199.183 78.4844 199.417 77.2656 199.886 76.1719C200.37 75.0781 201.019 74.2109 201.831 73.5703C202.644 72.9141 203.534 72.5859 204.503 72.5859C205.159 72.5859 205.8 72.75 206.425 73.0781C206.003 73.375 205.667 73.7812 205.417 74.2969C205.183 74.7969 205.065 75.3203 205.065 75.8672C205.065 76.6328 205.276 77.2734 205.698 77.7891C206.136 78.2891 206.69 78.5391 207.362 78.5391C208.175 78.5391 208.894 78.1562 209.519 77.3906C209.722 78.1094 209.823 78.9219 209.823 79.8281C209.823 81.1562 209.581 82.375 209.097 83.4844C208.628 84.5781 207.987 85.4531 207.175 86.1094C206.378 86.75 205.487 87.0703 204.503 87.0703ZM208.722 100.336C206.8 100.336 204.979 99.7734 203.261 98.6484C201.542 97.5391 200.019 96.0156 198.69 94.0781C197.362 92.1406 196.315 89.9219 195.55 87.4219C194.8 84.9062 194.425 82.2578 194.425 79.4766C194.425 76.6953 194.8 74.0547 195.55 71.5547C196.315 69.0391 197.362 66.8125 198.69 64.875C200.019 62.9375 201.542 61.4141 203.261 60.3047C204.979 59.1797 206.8 58.6172 208.722 58.6172C210.644 58.6172 212.464 59.1797 214.183 60.3047C215.901 61.4141 217.425 62.9375 218.753 64.875C220.081 66.8125 221.12 69.0391 221.87 71.5547C222.636 74.0547 223.019 76.6953 223.019 79.4766C223.019 82.2578 222.636 84.9062 221.87 87.4219C221.12 89.9219 220.081 92.1406 218.753 94.0781C217.425 96.0156 215.901 97.5391 214.183 98.6484C212.464 99.7734 210.644 100.336 208.722 100.336ZM208.722 98.4609C210.362 98.4609 211.925 97.9531 213.409 96.9375C214.909 95.9219 216.237 94.5312 217.394 92.7656C218.55 90.9844 219.464 88.9531 220.136 86.6719C220.808 84.3906 221.144 81.9922 221.144 79.4766C221.144 76.9609 220.808 74.5625 220.136 72.2812C219.464 70 218.55 67.9766 217.394 66.2109C216.237 64.4297 214.909 63.0312 213.409 62.0156C211.925 61 210.362 60.4922 208.722 60.4922C207.081 60.4922 205.511 61 204.011 62.0156C202.526 63.0312 201.206 64.4297 200.05 66.2109C198.894 67.9766 197.979 70 197.308 72.2812C196.636 74.5625 196.3 76.9609 196.3 79.4766C196.3 81.9922 196.636 84.3906 197.308 86.6719C197.979 88.9531 198.894 90.9844 200.05 92.7656C201.206 94.5312 202.526 95.9219 204.011 96.9375C205.511 97.9531 207.081 98.4609 208.722 98.4609ZM231.69 87.0703C230.722 87.0703 229.831 86.75 229.019 86.1094C228.206 85.4531 227.558 84.5781 227.073 83.4844C226.604 82.375 226.37 81.1562 226.37 79.8281C226.37 78.4844 226.604 77.2656 227.073 76.1719C227.558 75.0781 228.206 74.2109 229.019 73.5703C229.831 72.9141 230.722 72.5859 231.69 72.5859C232.347 72.5859 232.987 72.75 233.612 73.0781C233.19 73.375 232.854 73.7812 232.604 74.2969C232.37 74.7969 232.253 75.3203 232.253 75.8672C232.253 76.6328 232.464 77.2734 232.886 77.7891C233.323 78.2891 233.878 78.5391 234.55 78.5391C235.362 78.5391 236.081 78.1562 236.706 77.3906C236.909 78.1094 237.011 78.9219 237.011 79.8281C237.011 81.1562 236.769 82.375 236.284 83.4844C235.815 84.5781 235.175 85.4531 234.362 86.1094C233.565 86.75 232.675 87.0703 231.69 87.0703ZM235.909 98.4609C237.55 98.4609 239.112 97.9531 240.597 96.9375C242.097 95.9219 243.425 94.5312 244.581 92.7656C245.737 90.9844 246.651 88.9531 247.323 86.6719C247.995 84.3906 248.331 81.9922 248.331 79.4766C248.331 76.9609 247.995 74.5625 247.323 72.2812C246.651 70 245.737 67.9766 244.581 66.2109C243.425 64.4297 242.097 63.0312 240.597 62.0156C239.112 61 237.55 60.4922 235.909 60.4922C234.269 60.4922 232.698 61 231.198 62.0156C229.714 63.0312 228.394 64.4297 227.237 66.2109C226.081 67.9766 225.167 70 224.495 72.2812C223.823 74.5625 223.487 76.9609 223.487 79.4766C223.487 81.9922 223.823 84.3906 224.495 86.6719C225.167 88.9531 226.081 90.9844 227.237 92.7656C228.394 94.5312 229.714 95.9219 231.198 96.9375C232.698 97.9531 234.269 98.4609 235.909 98.4609Z" fill="#313131"/>
</g>
<g filter="url(#filter6_d_935_6030)">
<path d="M75.2771 528.083H70.4771L72.3971 529.043L69.3491 536.675L65.7011 529.043L67.6211 528.083H62.2451L64.4051 529.163L68.7491 538.163L67.4291 541.523C67.1411 542.219 66.8291 542.819 66.5171 542.819C66.0851 542.819 66.1091 542.075 65.2931 542.075C64.7891 542.075 64.3331 542.483 64.3331 543.107C64.3331 543.803 64.8611 544.283 65.6531 544.283C66.5411 544.283 67.3811 543.611 68.1491 541.667L73.1171 529.163L75.2771 528.083ZM74.5554 538.163L75.8754 543.443V538.883H85.7154V543.443L87.0354 538.163H85.2834L84.6354 537.803V529.163L86.5554 528.083H76.7154L78.6354 529.163V530.603C78.6354 534.563 77.6034 538.163 75.7074 538.163H74.5554ZM83.4354 537.803L82.7874 538.163H77.4354C77.4354 538.163 79.4754 536.963 79.4754 530.603V529.163L80.1234 528.803H82.7874L83.4354 529.163V537.803ZM93.1507 528.371C95.1427 528.371 97.3027 530.123 97.3027 534.107C97.3027 536.939 95.5987 538.595 93.8227 538.595C91.8547 538.595 89.6707 536.843 89.6707 532.859C89.6707 529.979 91.3987 528.371 93.1507 528.371ZM88.3507 533.483C88.3507 536.723 90.1507 539.243 93.4867 539.243C96.5827 539.243 98.6227 536.723 98.6227 533.483C98.6227 530.243 96.8227 527.723 93.4867 527.723C90.3907 527.723 88.3507 530.243 88.3507 533.483ZM101.144 530.963C101.504 527.603 102.344 524.603 105.464 524.603H108.104C110.264 524.603 110.504 523.523 110.504 522.683V522.203C110.408 522.467 110.024 523.283 108.344 523.283H105.824C102.704 523.283 100.304 526.163 100.304 532.043C100.304 536.363 102.296 539.243 105.632 539.243C108.728 539.243 110.864 536.843 110.864 533.723C110.864 530.603 108.944 528.203 105.584 528.203C102.584 528.203 101.384 530.963 101.384 530.963H101.144ZM105.32 528.923C107.312 528.923 109.64 530.603 109.64 534.707C109.64 537.059 107.744 538.523 105.968 538.523C104 538.523 101.624 536.531 101.624 532.787C101.624 530.387 103.568 528.923 105.32 528.923ZM112.538 538.883H117.578L115.658 537.803V533.675H121.538V537.803L119.618 538.883H124.658L122.738 537.803V529.163L124.658 528.083H119.618L121.538 529.163V532.955H115.658V529.163L117.578 528.083H112.538L114.458 529.163V537.803L112.538 538.883ZM136.063 538.883H141.103L139.183 537.803V529.163L141.103 528.083H136.063L137.983 529.163V537.803L136.063 538.883ZM126.343 538.883H131.263C133.183 538.883 135.583 538.163 135.583 535.883C135.583 533.603 133.183 532.955 131.263 532.955H129.463V529.163L131.383 528.083H126.343L128.263 529.163V537.803L126.343 538.883ZM131.143 533.675C132.823 533.675 134.263 534.203 134.263 535.883C134.263 537.563 132.703 538.163 131.263 538.163H130.111L129.463 537.803V533.675H131.143ZM150.093 538.883H155.133L153.213 537.803V529.163L155.133 528.083H150.093L152.013 529.163V529.403L145.893 536.459V529.163L147.813 528.083H142.773L144.693 529.163V537.803L142.773 538.883H147.813L145.893 537.803V537.563L152.013 530.507V537.803L150.093 538.883ZM148.941 526.163C148.125 526.163 147.429 525.923 147.309 525.515C147.165 525.083 147.717 525.035 147.717 524.363C147.717 523.955 147.405 523.595 146.901 523.595C146.301 523.595 145.917 524.027 145.917 524.675C145.917 526.043 147.429 526.619 148.941 526.619C150.453 526.619 151.965 526.043 151.965 524.675C151.965 524.027 151.581 523.595 150.981 523.595C150.477 523.595 150.165 523.955 150.165 524.363C150.165 525.035 150.717 525.083 150.573 525.515C150.453 525.923 149.757 526.163 148.941 526.163ZM168.23 528.299C170.27 528.299 170.486 529.523 170.486 529.763C170.486 530.147 170.27 530.219 170.27 530.747C170.27 531.275 170.606 531.635 171.182 531.635C171.782 531.635 172.094 531.155 172.094 530.531C172.094 529.211 170.678 527.723 168.278 527.723C165.422 527.723 163.046 530.003 163.046 533.483C163.046 536.723 164.966 539.243 168.086 539.243C171.686 539.243 172.406 535.763 172.406 535.763C172.406 535.763 171.326 538.163 168.686 538.163C166.286 538.163 164.246 536.675 164.246 533.099C164.246 529.811 166.55 528.299 168.23 528.299ZM174.925 530.963C175.285 527.603 176.125 524.603 179.245 524.603H181.885C184.045 524.603 184.285 523.523 184.285 522.683V522.203C184.189 522.467 183.805 523.283 182.125 523.283H179.605C176.485 523.283 174.085 526.163 174.085 532.043C174.085 536.363 176.077 539.243 179.413 539.243C182.509 539.243 184.645 536.843 184.645 533.723C184.645 530.603 182.725 528.203 179.365 528.203C176.365 528.203 175.165 530.963 175.165 530.963H174.925ZM179.101 528.923C181.093 528.923 183.421 530.603 183.421 534.707C183.421 537.059 181.525 538.523 179.749 538.523C177.781 538.523 175.405 536.531 175.405 532.787C175.405 530.387 177.349 528.923 179.101 528.923ZM191.119 528.371C193.111 528.371 195.271 530.123 195.271 534.107C195.271 536.939 193.567 538.595 191.791 538.595C189.823 538.595 187.639 536.843 187.639 532.859C187.639 529.979 189.367 528.371 191.119 528.371ZM186.319 533.483C186.319 536.723 188.119 539.243 191.455 539.243C194.551 539.243 196.591 536.723 196.591 533.483C196.591 530.243 194.791 527.723 191.455 527.723C188.359 527.723 186.319 530.243 186.319 533.483ZM199.833 542.843L197.913 543.923H202.953L201.033 542.843V537.347C201.105 537.515 201.993 539.243 204.393 539.243C206.553 539.243 209.073 537.563 209.073 533.483C209.073 529.043 206.793 527.723 204.633 527.723C202.113 527.723 201.033 530.003 201.033 530.003V527.723L197.913 528.683L199.833 529.283V542.843ZM201.033 531.203C201.033 531.203 201.873 528.443 204.273 528.443C206.097 528.443 207.753 529.883 207.753 533.483C207.753 536.843 206.097 538.523 204.273 538.523C202.233 538.523 201.033 536.963 201.033 535.163V531.203ZM210.882 538.883H215.922L214.002 537.803V533.675H219.882V537.803L217.962 538.883H223.002L221.082 537.803V529.163L223.002 528.083H217.962L219.882 529.163V532.955H214.002V529.163L215.922 528.083H210.882L212.802 529.163V537.803L210.882 538.883ZM232.007 538.883H237.047L235.127 537.803V529.163L237.047 528.083H232.007L233.927 529.163V529.403L227.807 536.459V529.163L229.727 528.083H224.687L226.607 529.163V537.803L224.687 538.883H229.727L227.807 537.803V537.563L233.927 530.507V537.803L232.007 538.883ZM247.678 538.883H250.006L248.302 537.803L243.214 532.811L247.078 529.163L249.766 528.083H244.726L246.166 529.043L241.846 533.147V529.163L243.766 528.083H238.726L240.646 529.163V537.803L238.726 538.883H243.766L241.846 537.803V533.147L247.678 538.883ZM260.645 533.099C259.013 533.675 257.549 534.803 257.549 536.483C257.549 538.187 258.629 539.243 260.285 539.243C261.245 539.243 262.061 538.763 262.613 538.403L264.389 537.227C264.389 538.499 264.389 539.243 265.229 539.243C266.069 539.243 267.749 537.203 267.749 537.203L265.589 538.043V531.203C265.589 529.163 264.725 527.723 262.109 527.723C260.669 527.723 257.957 529.043 257.957 530.531C257.957 531.227 258.365 531.539 258.821 531.539C259.277 531.539 259.685 531.275 259.685 530.531C259.685 530.195 259.637 529.955 259.637 529.763C259.637 529.163 260.405 528.443 261.869 528.443C263.189 528.443 264.389 529.067 264.389 531.203V531.803L260.645 533.099ZM262.901 537.443C262.205 537.899 261.605 538.355 260.669 538.355C259.469 538.355 258.821 537.395 258.821 536.363C258.821 535.043 259.421 534.227 261.509 533.483L264.389 532.475V536.459L262.901 537.443ZM277.654 538.883H279.982L278.278 537.803L273.19 532.811L277.054 529.163L279.742 528.083H274.702L276.142 529.043L271.822 533.147V529.163L273.742 528.083H268.702L270.622 529.163V537.803L268.702 538.883H273.742L271.822 537.803V533.147L277.654 538.883ZM283.331 538.883H288.851L286.691 537.803V528.803H289.331L290.771 531.443V528.083H281.411V531.443L282.851 528.803H285.491V537.803L283.331 538.883ZM304.894 528.083H300.094L302.014 529.043L298.966 536.675L295.318 529.043L297.238 528.083H291.862L294.022 529.163L298.366 538.163L297.046 541.523C296.758 542.219 296.446 542.819 296.134 542.819C295.702 542.819 295.726 542.075 294.91 542.075C294.406 542.075 293.95 542.483 293.95 543.107C293.95 543.803 294.478 544.283 295.27 544.283C296.158 544.283 296.998 543.611 297.766 541.667L302.734 529.163L304.894 528.083ZM308.95 533.099C307.318 533.675 305.854 534.803 305.854 536.483C305.854 538.187 306.934 539.243 308.59 539.243C309.55 539.243 310.366 538.763 310.918 538.403L312.694 537.227C312.694 538.499 312.694 539.243 313.534 539.243C314.374 539.243 316.054 537.203 316.054 537.203L313.894 538.043V531.203C313.894 529.163 313.03 527.723 310.414 527.723C308.974 527.723 306.262 529.043 306.262 530.531C306.262 531.227 306.67 531.539 307.126 531.539C307.582 531.539 307.99 531.275 307.99 530.531C307.99 530.195 307.942 529.955 307.942 529.763C307.942 529.163 308.71 528.443 310.174 528.443C311.494 528.443 312.694 529.067 312.694 531.203V531.803L308.95 533.099ZM311.206 537.443C310.51 537.899 309.91 538.355 308.974 538.355C307.774 538.355 307.126 537.395 307.126 536.363C307.126 535.043 307.726 534.227 309.814 533.483L312.694 532.475V536.459L311.206 537.443ZM323.247 538.883H328.287L326.367 537.803V529.163L328.287 528.083H318.447L320.367 529.163V530.603C320.367 535.283 319.503 537.659 318.567 537.659C318.015 537.659 318.087 537.059 317.415 537.059C316.935 537.059 316.527 537.443 316.527 538.019C316.527 538.859 317.271 539.123 317.799 539.123C320.607 539.123 321.207 534.563 321.207 530.603V529.163L321.855 528.803H324.519L325.167 529.163V537.803L323.247 538.883ZM329.968 538.883H335.128C337.048 538.883 339.448 538.163 339.448 535.883C339.448 533.603 337.048 532.955 335.128 532.955H333.088V529.163L335.008 528.083H329.968L331.888 529.163V537.803L329.968 538.883ZM335.008 533.675C336.688 533.675 338.128 534.203 338.128 535.883C338.128 537.563 336.568 538.163 335.128 538.163H333.736L333.088 537.803V533.675H335.008ZM341.124 538.883H346.164L344.244 537.803V533.675H350.124V537.803L348.204 538.883H353.244L351.324 537.803V529.163L353.244 528.083H348.204L350.124 529.163V532.955H344.244V529.163L346.164 528.083H341.124L343.044 529.163V537.803L341.124 538.883ZM364.649 538.883H369.689L367.769 537.803V529.163L369.689 528.083H364.649L366.569 529.163V537.803L364.649 538.883ZM354.929 538.883H359.849C361.769 538.883 364.169 538.163 364.169 535.883C364.169 533.603 361.769 532.955 359.849 532.955H358.049V529.163L359.969 528.083H354.929L356.849 529.163V537.803L354.929 538.883ZM359.729 533.675C361.409 533.675 362.849 534.203 362.849 535.883C362.849 537.563 361.289 538.163 359.849 538.163H358.697L358.049 537.803V533.675H359.729ZM374.407 529.043L376.087 528.083H370.759L373.039 529.163L376.159 533.243L372.799 537.803L370.519 538.883H375.295L373.615 537.923L376.615 533.843L379.759 537.923L378.079 538.883H383.383L381.103 537.803L377.311 532.859L380.023 529.163L382.399 528.083H377.551L379.231 529.043L376.855 532.259L374.407 529.043ZM62.2428 568.843L60.3228 569.923H65.3628L63.4428 568.843V563.347C63.5148 563.515 64.4028 565.243 66.8028 565.243C68.9628 565.243 71.4828 563.563 71.4828 559.483C71.4828 555.043 69.2028 553.723 67.0428 553.723C64.5228 553.723 63.4428 556.003 63.4428 556.003V553.723L60.3228 554.683L62.2428 555.283V568.843ZM63.4428 557.203C63.4428 557.203 64.2828 554.443 66.6828 554.443C68.5068 554.443 70.1628 555.883 70.1628 559.483C70.1628 562.843 68.5068 564.523 66.6828 564.523C64.6428 564.523 63.4428 562.963 63.4428 561.163V557.203ZM76.5081 559.099C74.8761 559.675 73.4121 560.803 73.4121 562.483C73.4121 564.187 74.4921 565.243 76.1481 565.243C77.1081 565.243 77.9241 564.763 78.4761 564.403L80.2521 563.227C80.2521 564.499 80.2521 565.243 81.0921 565.243C81.9321 565.243 83.6121 563.203 83.6121 563.203L81.4521 564.043V557.203C81.4521 555.163 80.5881 553.723 77.9721 553.723C76.5321 553.723 73.8201 555.043 73.8201 556.531C73.8201 557.227 74.2281 557.539 74.6841 557.539C75.1401 557.539 75.5481 557.275 75.5481 556.531C75.5481 556.195 75.5001 555.955 75.5001 555.763C75.5001 555.163 76.2681 554.443 77.7321 554.443C79.0521 554.443 80.2521 555.067 80.2521 557.203V557.803L76.5081 559.099ZM78.7641 563.443C78.0681 563.899 77.4681 564.355 76.5321 564.355C75.3321 564.355 74.6841 563.395 74.6841 562.363C74.6841 561.043 75.2841 560.227 77.3721 559.483L80.2521 558.475V562.459L78.7641 563.443ZM89.7496 554.299C91.7896 554.299 92.0056 555.523 92.0056 555.763C92.0056 556.147 91.7896 556.219 91.7896 556.747C91.7896 557.275 92.1256 557.635 92.7016 557.635C93.3016 557.635 93.6136 557.155 93.6136 556.531C93.6136 555.211 92.1976 553.723 89.7976 553.723C86.9416 553.723 84.5656 556.003 84.5656 559.483C84.5656 562.723 86.4856 565.243 89.6056 565.243C93.2056 565.243 93.9256 561.763 93.9256 561.763C93.9256 561.763 92.8456 564.163 90.2056 564.163C87.8056 564.163 85.7656 562.675 85.7656 559.099C85.7656 555.811 88.0696 554.299 89.7496 554.299ZM109.285 563.803L108.637 564.163H104.605V555.163L106.285 554.083H101.725L103.405 555.163V564.163H99.3726L98.7246 563.803V555.163L100.405 554.083H95.6046L97.5246 555.163V563.803L95.6046 564.883H112.405L110.485 563.803V555.163L112.405 554.083H107.605L109.285 555.163V563.803ZM121.393 564.883H126.433L124.513 563.803V555.163L126.433 554.083H121.393L123.313 555.163V555.403L117.193 562.459V555.163L119.113 554.083H114.073L115.993 555.163V563.803L114.073 564.883H119.113L117.193 563.803V563.563L123.313 556.507V563.803L121.393 564.883ZM138.432 554.443C140.232 554.443 141.432 556.243 141.432 559.483C141.432 562.723 140.232 564.523 138.432 564.523C136.656 564.523 136.056 562.939 136.032 562.867V556.123C136.032 556.123 136.632 554.443 138.432 554.443ZM134.832 562.843C134.832 562.843 134.232 564.523 132.432 564.523C130.632 564.523 129.432 562.723 129.432 559.483C129.432 556.243 130.632 554.443 132.432 554.443C134.232 554.443 134.832 556.123 134.832 556.123V562.843ZM134.832 549.283V555.283C134.76 555.139 134.016 553.723 132.192 553.723C129.912 553.723 128.112 555.643 128.112 559.483C128.112 563.323 129.912 565.243 132.192 565.243C134.064 565.243 134.784 563.779 134.832 563.707V568.843L132.912 569.923H137.952L136.032 568.843V563.707C136.104 563.851 136.848 565.243 138.672 565.243C140.952 565.243 142.752 563.323 142.752 559.483C142.752 555.643 140.952 553.723 138.672 553.723C136.896 553.723 136.104 555.067 136.032 555.283V547.723L132.912 548.683L134.832 549.283ZM145.985 568.843L144.065 569.923H149.105L147.185 568.843V563.347C147.257 563.515 148.145 565.243 150.545 565.243C152.705 565.243 155.225 563.563 155.225 559.483C155.225 555.043 152.945 553.723 150.785 553.723C148.265 553.723 147.185 556.003 147.185 556.003V553.723L144.065 554.683L145.985 555.283V568.843ZM147.185 557.203C147.185 557.203 148.025 554.443 150.425 554.443C152.249 554.443 153.905 555.883 153.905 559.483C153.905 562.843 152.249 564.523 150.425 564.523C148.385 564.523 147.185 562.963 147.185 561.163V557.203ZM161.834 554.371C163.826 554.371 165.986 556.123 165.986 560.107C165.986 562.939 164.282 564.595 162.506 564.595C160.538 564.595 158.354 562.843 158.354 558.859C158.354 555.979 160.082 554.371 161.834 554.371ZM157.034 559.483C157.034 562.723 158.834 565.243 162.17 565.243C165.266 565.243 167.306 562.723 167.306 559.483C167.306 556.243 165.506 553.723 162.17 553.723C159.074 553.723 157.034 556.243 157.034 559.483ZM174.387 559.675C176.067 559.675 177.507 560.203 177.507 561.883C177.507 563.563 175.947 564.163 174.507 564.163H172.755L172.107 563.803V559.675H174.387ZM172.107 558.955V555.163L172.755 554.803H174.027C175.467 554.803 177.027 555.235 177.027 556.771C177.027 558.379 175.587 558.955 173.907 558.955H172.107ZM178.347 556.723C178.347 554.491 175.827 554.083 173.907 554.083H168.987L170.907 555.163V563.803L168.987 564.883H174.507C176.427 564.883 178.827 564.163 178.827 561.883C178.827 559.363 175.947 559.195 175.947 559.195V559.123C175.947 559.123 178.347 558.763 178.347 556.723ZM185.436 554.371C187.428 554.371 189.588 556.123 189.588 560.107C189.588 562.939 187.884 564.595 186.108 564.595C184.14 564.595 181.956 562.843 181.956 558.859C181.956 555.979 183.684 554.371 185.436 554.371ZM180.636 559.483C180.636 562.723 182.436 565.243 185.772 565.243C188.868 565.243 190.908 562.723 190.908 559.483C190.908 556.243 189.108 553.723 185.772 553.723C182.676 553.723 180.636 556.243 180.636 559.483ZM201.541 564.883H203.869L202.165 563.803L197.077 558.811L200.941 555.163L203.629 554.083H198.589L200.029 555.043L195.709 559.147V555.163L197.629 554.083H192.589L194.509 555.163V563.803L192.589 564.883H197.629L195.709 563.803V559.147L201.541 564.883ZM220.244 564.883H222.572L220.868 563.803L215.78 558.811L219.644 555.163L222.332 554.083H217.292L218.732 555.043L214.412 559.147V555.163L216.332 554.083H211.292L213.212 555.163V563.803L211.292 564.883H216.332L214.412 563.803V559.147L220.244 564.883ZM226.977 559.099C225.345 559.675 223.881 560.803 223.881 562.483C223.881 564.187 224.961 565.243 226.617 565.243C227.577 565.243 228.393 564.763 228.945 564.403L230.721 563.227C230.721 564.499 230.721 565.243 231.561 565.243C232.401 565.243 234.081 563.203 234.081 563.203L231.921 564.043V557.203C231.921 555.163 231.057 553.723 228.441 553.723C227.001 553.723 224.289 555.043 224.289 556.531C224.289 557.227 224.697 557.539 225.153 557.539C225.609 557.539 226.017 557.275 226.017 556.531C226.017 556.195 225.969 555.955 225.969 555.763C225.969 555.163 226.737 554.443 228.201 554.443C229.521 554.443 230.721 555.067 230.721 557.203V557.803L226.977 559.099ZM229.233 563.443C228.537 563.899 227.937 564.355 227.001 564.355C225.801 564.355 225.153 563.395 225.153 562.363C225.153 561.043 225.753 560.227 227.841 559.483L230.721 558.475V562.459L229.233 563.443ZM236.594 568.843L234.674 569.923H239.714L237.794 568.843V563.347C237.866 563.515 238.754 565.243 241.154 565.243C243.314 565.243 245.834 563.563 245.834 559.483C245.834 555.043 243.554 553.723 241.394 553.723C238.874 553.723 237.794 556.003 237.794 556.003V553.723L234.674 554.683L236.594 555.283V568.843ZM237.794 557.203C237.794 557.203 238.634 554.443 241.034 554.443C242.858 554.443 244.514 555.883 244.514 559.483C244.514 562.843 242.858 564.523 241.034 564.523C238.994 564.523 237.794 562.963 237.794 561.163V557.203ZM249.804 564.883H255.324L253.164 563.803V554.803H255.804L257.244 557.443V554.083H247.884V557.443L249.324 554.803H251.964V563.803L249.804 564.883ZM264.809 564.163L266.129 569.443V564.883H275.969V569.443L277.289 564.163H275.537L274.889 563.803V555.163L276.809 554.083H266.969L268.889 555.163V556.603C268.889 560.563 267.857 564.163 265.961 564.163H264.809ZM273.689 563.803L273.041 564.163H267.689C267.689 564.163 269.729 562.963 269.729 556.603V555.163L270.377 554.803H273.041L273.689 555.163V563.803ZM283.405 554.371C285.397 554.371 287.557 556.123 287.557 560.107C287.557 562.939 285.853 564.595 284.077 564.595C282.109 564.595 279.925 562.843 279.925 558.859C279.925 555.979 281.653 554.371 283.405 554.371ZM278.605 559.483C278.605 562.723 280.405 565.243 283.741 565.243C286.837 565.243 288.877 562.723 288.877 559.483C288.877 556.243 287.077 553.723 283.741 553.723C280.645 553.723 278.605 556.243 278.605 559.483ZM295.742 554.299C297.782 554.299 297.998 555.523 297.998 555.763C297.998 556.147 297.782 556.219 297.782 556.747C297.782 557.275 298.118 557.635 298.694 557.635C299.294 557.635 299.606 557.155 299.606 556.531C299.606 555.211 298.19 553.723 295.79 553.723C292.934 553.723 290.558 556.003 290.558 559.483C290.558 562.723 292.478 565.243 295.598 565.243C299.198 565.243 299.918 561.763 299.918 561.763C299.918 561.763 298.838 564.163 296.198 564.163C293.798 564.163 291.758 562.675 291.758 559.099C291.758 555.811 294.062 554.299 295.742 554.299ZM303.757 564.883H309.277L307.117 563.803V554.803H309.757L311.197 557.443V554.083H301.837V557.443L303.277 554.803H305.917V563.803L303.757 564.883ZM325.32 554.083H320.52L322.44 555.043L319.392 562.675L315.744 555.043L317.664 554.083H312.288L314.448 555.163L318.792 564.163L317.472 567.523C317.184 568.219 316.872 568.819 316.56 568.819C316.128 568.819 316.152 568.075 315.336 568.075C314.832 568.075 314.376 568.483 314.376 569.107C314.376 569.803 314.904 570.283 315.696 570.283C316.584 570.283 317.424 569.611 318.192 567.667L323.16 555.163L325.32 554.083ZM329.279 555.163L329.927 554.803H334.511L335.159 555.163V563.803L333.239 564.883H338.279L336.359 563.803V555.163L338.279 554.083H326.159L328.079 555.163V563.803L326.159 564.883H331.199L329.279 563.803V555.163ZM339.964 564.883H345.004L343.084 563.803V559.675H348.964V563.803L347.044 564.883H352.084L350.164 563.803V555.163L352.084 554.083H347.044L348.964 555.163V558.955H343.084V555.163L345.004 554.083H339.964L341.884 555.163V563.803L339.964 564.883ZM363.489 564.883H368.529L366.609 563.803V555.163L368.529 554.083H363.489L365.409 555.163V563.803L363.489 564.883ZM353.769 564.883H358.689C360.609 564.883 363.009 564.163 363.009 561.883C363.009 559.603 360.609 558.955 358.689 558.955H356.889V555.163L358.809 554.083H353.769L355.689 555.163V563.803L353.769 564.883ZM358.569 559.675C360.249 559.675 361.689 560.203 361.689 561.883C361.689 563.563 360.129 564.163 358.689 564.163H357.537L356.889 563.803V559.675H358.569ZM372.958 563.803V555.643L377.398 565.243L381.838 555.331V563.803L379.918 564.883H384.958L383.038 563.803V555.163L384.958 554.083H381.598L377.662 562.939L373.558 554.083H370.198L372.118 555.163V563.803L370.198 564.883H374.878L372.958 563.803ZM102.183 580.083H96.7831C94.8631 580.083 92.4631 580.803 92.4631 583.083C92.4631 584.763 93.7591 585.555 95.1991 585.867L92.5831 589.803L90.9031 590.883H93.2791L96.4711 586.011H99.0631V589.803L97.1431 590.883H102.183L100.263 589.803V581.163L102.183 580.083ZM96.9031 585.291C95.2231 585.291 93.7831 584.763 93.7831 583.083C93.7831 581.403 95.3431 580.803 96.7831 580.803H98.4151L99.0631 581.163V585.291H96.9031ZM108.295 590.643C106.375 590.643 105.559 589.851 105.559 589.011C105.559 588.771 105.703 588.531 105.703 588.123C105.703 587.667 105.535 587.139 104.863 587.139C104.263 587.139 103.975 587.619 103.975 588.243C103.975 589.803 105.415 591.243 108.295 591.243C111.295 591.243 112.975 589.683 112.975 588.003C112.975 585.243 109.975 585.003 109.975 585.003V584.931C109.975 584.931 112.447 584.763 112.447 582.603C112.447 580.563 110.455 579.723 108.535 579.723C106.255 579.723 105.295 581.283 105.295 581.283L104.335 579.723V583.683L105.415 581.883C105.415 581.883 106.375 580.443 108.295 580.443C110.095 580.443 111.127 581.403 111.127 582.603C111.127 583.923 110.095 584.715 108.175 584.715H106.495V585.435H108.055C111.175 585.435 111.655 586.803 111.655 588.003C111.655 589.563 110.359 590.643 108.295 590.643ZM124.497 590.883H129.537L127.617 589.803V581.163L129.537 580.083H124.497L126.417 581.163V589.803L124.497 590.883ZM114.777 590.883H119.697C121.617 590.883 124.017 590.163 124.017 587.883C124.017 585.603 121.617 584.955 119.697 584.955H117.897V581.163L119.817 580.083H114.777L116.697 581.163V589.803L114.777 590.883ZM119.577 585.675C121.257 585.675 122.697 586.203 122.697 587.883C122.697 589.563 121.137 590.163 119.697 590.163H118.545L117.897 589.803V585.675H119.577ZM140.158 590.883H142.486L140.782 589.803L135.694 584.811L139.558 581.163L142.246 580.083H137.206L138.646 581.043L134.326 585.147V581.163L136.246 580.083H131.206L133.126 581.163V589.803L131.206 590.883H136.246L134.326 589.803V585.147L140.158 590.883ZM148.006 580.371C149.998 580.371 152.158 582.123 152.158 586.107C152.158 588.939 150.454 590.595 148.678 590.595C146.71 590.595 144.526 588.843 144.526 584.859C144.526 581.979 146.254 580.371 148.006 580.371ZM143.206 585.483C143.206 588.723 145.006 591.243 148.342 591.243C151.438 591.243 153.478 588.723 153.478 585.483C153.478 582.243 151.678 579.723 148.342 579.723C145.246 579.723 143.206 582.243 143.206 585.483ZM157.919 589.803V581.643L162.359 591.243L166.799 581.331V589.803L164.879 590.883H169.919L167.999 589.803V581.163L169.919 580.083H166.559L162.623 588.939L158.519 580.083H155.159L157.079 581.163V589.803L155.159 590.883H159.839L157.919 589.803ZM185.143 590.883H190.183L188.263 589.803V581.163L190.183 580.083H185.143L187.063 581.163V581.403L180.943 588.459V581.163L182.863 580.083H177.823L179.743 581.163V589.803L177.823 590.883H182.863L180.943 589.803V589.563L187.063 582.507V589.803L185.143 590.883ZM203.497 585.675C205.177 585.675 206.617 586.203 206.617 587.883C206.617 589.563 205.057 590.163 203.617 590.163H201.865L201.217 589.803V585.675H203.497ZM201.217 584.955V581.163L201.865 580.803H203.137C204.577 580.803 206.137 581.235 206.137 582.771C206.137 584.379 204.697 584.955 203.017 584.955H201.217ZM207.457 582.723C207.457 580.491 204.937 580.083 203.017 580.083H198.097L200.017 581.163V589.803L198.097 590.883H203.617C205.537 590.883 207.937 590.163 207.937 587.883C207.937 585.363 205.057 585.195 205.057 585.195V585.123C205.057 585.123 207.457 584.763 207.457 582.723ZM221.164 580.299C223.204 580.299 223.42 581.523 223.42 581.763C223.42 582.147 223.204 582.219 223.204 582.747C223.204 583.275 223.54 583.635 224.116 583.635C224.716 583.635 225.028 583.155 225.028 582.531C225.028 581.211 223.612 579.723 221.212 579.723C218.356 579.723 215.98 582.003 215.98 585.483C215.98 588.723 217.9 591.243 221.02 591.243C224.62 591.243 225.34 587.763 225.34 587.763C225.34 587.763 224.26 590.163 221.62 590.163C219.22 590.163 217.18 588.675 217.18 585.099C217.18 581.811 219.484 580.299 221.164 580.299ZM231.819 580.371C233.811 580.371 235.971 582.123 235.971 586.107C235.971 588.939 234.267 590.595 232.491 590.595C230.523 590.595 228.339 588.843 228.339 584.859C228.339 581.979 230.067 580.371 231.819 580.371ZM227.019 585.483C227.019 588.723 228.819 591.243 232.155 591.243C235.251 591.243 237.291 588.723 237.291 585.483C237.291 582.243 235.491 579.723 232.155 579.723C229.059 579.723 227.019 582.243 227.019 585.483ZM244.372 585.675C246.052 585.675 247.492 586.203 247.492 587.883C247.492 589.563 245.932 590.163 244.492 590.163H242.74L242.092 589.803V585.675H244.372ZM242.092 584.955V581.163L242.74 580.803H244.012C245.452 580.803 247.012 581.235 247.012 582.771C247.012 584.379 245.572 584.955 243.892 584.955H242.092ZM248.332 582.723C248.332 580.491 245.812 580.083 243.892 580.083H238.972L240.892 581.163V589.803L238.972 590.883H244.492C246.412 590.883 248.812 590.163 248.812 587.883C248.812 585.363 245.932 585.195 245.932 585.195V585.123C245.932 585.123 248.332 584.763 248.332 582.723ZM252.18 594.843L250.26 595.923H255.3L253.38 594.843V589.347C253.452 589.515 254.34 591.243 256.74 591.243C258.9 591.243 261.42 589.563 261.42 585.483C261.42 581.043 259.14 579.723 256.98 579.723C254.46 579.723 253.38 582.003 253.38 582.003V579.723L250.26 580.683L252.18 581.283V594.843ZM253.38 583.203C253.38 583.203 254.22 580.443 256.62 580.443C258.444 580.443 260.1 581.883 260.1 585.483C260.1 588.843 258.444 590.523 256.62 590.523C254.58 590.523 253.38 588.963 253.38 587.163V583.203ZM272.59 584.403C272.59 581.763 271.51 579.723 268.462 579.723C265.606 579.723 263.23 581.979 263.23 585.483C263.23 588.723 265.15 591.243 268.27 591.243C271.87 591.243 272.59 587.763 272.59 587.763C272.59 587.763 271.51 590.163 268.87 590.163C266.47 590.163 264.43 588.675 264.43 585.099C264.43 584.859 264.43 584.643 264.454 584.403H272.59ZM268.414 580.299C270.094 580.299 271.27 581.403 271.27 582.603C271.27 583.563 270.43 583.683 269.23 583.683H264.574C265.102 581.379 266.902 580.299 268.414 580.299ZM277.263 589.803V581.643L281.703 591.243L286.143 581.331V589.803L284.223 590.883H289.263L287.343 589.803V581.163L289.263 580.083H285.903L281.967 588.939L277.863 580.083H274.503L276.423 581.163V589.803L274.503 590.883H279.183L277.263 589.803ZM300.293 584.403C300.293 581.763 299.213 579.723 296.165 579.723C293.309 579.723 290.933 581.979 290.933 585.483C290.933 588.723 292.853 591.243 295.973 591.243C299.573 591.243 300.293 587.763 300.293 587.763C300.293 587.763 299.213 590.163 296.573 590.163C294.173 590.163 292.133 588.675 292.133 585.099C292.133 584.859 292.133 584.643 292.157 584.403H300.293ZM296.117 580.299C297.797 580.299 298.973 581.403 298.973 582.603C298.973 583.563 298.133 583.683 296.933 583.683H292.277C292.805 581.379 294.605 580.299 296.117 580.299ZM302.206 590.883H307.246L305.326 589.803V585.675H311.206V589.803L309.286 590.883H314.326L312.406 589.803V581.163L314.326 580.083H309.286L311.206 581.163V584.955H305.326V581.163L307.246 580.083H302.206L304.126 581.163V589.803L302.206 590.883ZM316.011 590.883H321.051L319.131 589.803V585.675H325.011V589.803L323.091 590.883H328.131L326.211 589.803V581.163L328.131 580.083H323.091L325.011 581.163V584.955H319.131V581.163L321.051 580.083H316.011L317.931 581.163V589.803L316.011 590.883ZM334.616 580.371C336.608 580.371 338.768 582.123 338.768 586.107C338.768 588.939 337.064 590.595 335.288 590.595C333.32 590.595 331.136 588.843 331.136 584.859C331.136 581.979 332.864 580.371 334.616 580.371ZM329.816 585.483C329.816 588.723 331.616 591.243 334.952 591.243C338.048 591.243 340.088 588.723 340.088 585.483C340.088 582.243 338.288 579.723 334.952 579.723C331.856 579.723 329.816 582.243 329.816 585.483ZM349.089 590.883H354.129L352.209 589.803V581.163L354.129 580.083H349.089L351.009 581.163V581.403L344.889 588.459V581.163L346.809 580.083H341.769L343.689 581.163V589.803L341.769 590.883H346.809L344.889 589.803V589.563L351.009 582.507V589.803L349.089 590.883ZM347.937 578.163C347.121 578.163 346.425 577.923 346.305 577.515C346.161 577.083 346.713 577.035 346.713 576.363C346.713 575.955 346.401 575.595 345.897 575.595C345.297 575.595 344.913 576.027 344.913 576.675C344.913 578.043 346.425 578.619 347.937 578.619C349.449 578.619 350.961 578.043 350.961 576.675C350.961 576.027 350.577 575.595 349.977 575.595C349.473 575.595 349.161 575.955 349.161 576.363C349.161 577.035 349.713 577.083 349.569 577.515C349.449 577.923 348.753 578.163 347.937 578.163ZM171.148 606.299C173.188 606.299 173.404 607.523 173.404 607.763C173.404 608.147 173.188 608.219 173.188 608.747C173.188 609.275 173.524 609.635 174.1 609.635C174.7 609.635 175.012 609.155 175.012 608.531C175.012 607.211 173.596 605.723 171.196 605.723C168.34 605.723 165.964 608.003 165.964 611.483C165.964 614.723 167.884 617.243 171.004 617.243C174.604 617.243 175.324 613.763 175.324 613.763C175.324 613.763 174.244 616.163 171.604 616.163C169.204 616.163 167.164 614.675 167.164 611.099C167.164 607.811 169.468 606.299 171.148 606.299ZM184.323 616.883H189.363L187.443 615.803V607.163L189.363 606.083H184.323L186.243 607.163V607.403L180.123 614.459V607.163L182.043 606.083H177.003L178.923 607.163V615.803L177.003 616.883H182.043L180.123 615.803V615.563L186.243 608.507V615.803L184.323 616.883ZM193.802 615.803V607.643L198.242 617.243L202.682 607.331V615.803L200.762 616.883H205.802L203.882 615.803V607.163L205.802 606.083H202.442L198.506 614.939L194.402 606.083H191.042L192.962 607.163V615.803L191.042 616.883H195.722L193.802 615.803ZM212.872 611.675C214.552 611.675 215.992 612.203 215.992 613.883C215.992 615.563 214.432 616.163 212.992 616.163H211.24L210.592 615.803V611.675H212.872ZM210.592 610.955V607.163L211.24 606.803H212.512C213.952 606.803 215.512 607.235 215.512 608.771C215.512 610.379 214.072 610.955 212.392 610.955H210.592ZM216.832 608.723C216.832 606.491 214.312 606.083 212.392 606.083H207.472L209.392 607.163V615.803L207.472 616.883H212.992C214.912 616.883 217.312 616.163 217.312 613.883C217.312 611.363 214.432 611.195 214.432 611.195V611.123C214.432 611.123 216.832 610.763 216.832 608.723ZM223.92 606.371C225.912 606.371 228.072 608.123 228.072 612.107C228.072 614.939 226.368 616.595 224.592 616.595C222.624 616.595 220.44 614.843 220.44 610.859C220.44 607.979 222.168 606.371 223.92 606.371ZM219.12 611.483C219.12 614.723 220.92 617.243 224.256 617.243C227.352 617.243 229.392 614.723 229.392 611.483C229.392 608.243 227.592 605.723 224.256 605.723C221.16 605.723 219.12 608.243 219.12 611.483ZM237.313 616.883H242.353L240.433 615.803V607.163L242.353 606.083H232.513L234.433 607.163V608.603C234.433 613.283 233.569 615.659 232.633 615.659C232.081 615.659 232.153 615.059 231.481 615.059C231.001 615.059 230.593 615.443 230.593 616.019C230.593 616.859 231.337 617.123 231.865 617.123C234.673 617.123 235.273 612.563 235.273 608.603V607.163L235.921 606.803H238.585L239.233 607.163V615.803L237.313 616.883ZM251.354 616.883H256.394L254.474 615.803V607.163L256.394 606.083H251.354L253.274 607.163V607.403L247.154 614.459V607.163L249.074 606.083H244.034L245.954 607.163V615.803L244.034 616.883H249.074L247.154 615.803V615.563L253.274 608.507V615.803L251.354 616.883ZM267.025 616.883H269.353L267.649 615.803L262.561 610.811L266.425 607.163L269.113 606.083H264.073L265.513 607.043L261.193 611.147V607.163L263.113 606.083H258.073L259.993 607.163V615.803L258.073 616.883H263.113L261.193 615.803V611.147L267.025 616.883ZM279.433 610.403C279.433 607.763 278.353 605.723 275.305 605.723C272.449 605.723 270.073 607.979 270.073 611.483C270.073 614.723 271.993 617.243 275.113 617.243C278.713 617.243 279.433 613.763 279.433 613.763C279.433 613.763 278.353 616.163 275.713 616.163C273.313 616.163 271.273 614.675 271.273 611.099C271.273 610.859 271.273 610.643 271.297 610.403H279.433ZM275.257 606.299C276.937 606.299 278.113 607.403 278.113 608.603C278.113 609.563 277.273 609.683 276.073 609.683H271.417C271.945 607.379 273.745 606.299 275.257 606.299Z" fill="#313131"/>
</g>
<defs>
<filter id="filter0_di_935_6030" x="0.133611" y="0.360756" width="445.271" height="671.192" filterUnits="userSpaceOnUse" color-interpolation-filters="sRGB">
<feFlood flood-opacity="0" result="BackgroundImageFix"/>
<feColorMatrix in="SourceAlpha" type="matrix" values="0 0 0 0 0 0 0 0 0 0 0 0 0 0 0 0 0 0 127 0" result="hardAlpha"/>
<feOffset dy="4.04257"/>
<feGaussianBlur stdDeviation="3.34091"/>
<feComposite in2="hardAlpha" operator="out"/>
<feColorMatrix type="matrix" values="0 0 0 0 0 0 0 0 0 0 0 0 0 0 0 0 0 0 0.25 0"/>
<feBlend mode="normal" in2="BackgroundImageFix" result="effect1_dropShadow_935_6030"/>
<feBlend mode="normal" in="SourceGraphic" in2="effect1_dropShadow_935_6030" result="shape"/>
<feColorMatrix in="SourceAlpha" type="matrix" values="0 0 0 0 0 0 0 0 0 0 0 0 0 0 0 0 0 0 127 0" result="hardAlpha"/>
<feOffset dy="4.04257"/>
<feGaussianBlur stdDeviation="5.05322"/>
<feComposite in2="hardAlpha" operator="arithmetic" k2="-1" k3="1"/>
<feColorMatrix type="matrix" values="0 0 0 0 0.972549 0 0 0 0 0.964706 0 0 0 0 0.941176 0 0 0 1 0"/>
<feBlend mode="normal" in2="shape" result="effect2_innerShadow_935_6030"/>
</filter>
<filter id="filter1_di_935_6030" x="27.3172" y="35.2436" width="391.364" height="409.481" filterUnits="userSpaceOnUse" color-interpolation-filters="sRGB">
<feFlood flood-opacity="0" result="BackgroundImageFix"/>
<feColorMatrix in="SourceAlpha" type="matrix" values="0 0 0 0 0 0 0 0 0 0 0 0 0 0 0 0 0 0 127 0" result="hardAlpha"/>
<feOffset dy="4.04257"/>
<feGaussianBlur stdDeviation="3.34091"/>
<feComposite in2="hardAlpha" operator="out"/>
<feColorMatrix type="matrix" values="0 0 0 0 0 0 0 0 0 0 0 0 0 0 0 0 0 0 0.25 0"/>
<feBlend mode="normal" in2="BackgroundImageFix" result="effect1_dropShadow_935_6030"/>
<feBlend mode="normal" in="SourceGraphic" in2="effect1_dropShadow_935_6030" result="shape"/>
<feColorMatrix in="SourceAlpha" type="matrix" values="0 0 0 0 0 0 0 0 0 0 0 0 0 0 0 0 0 0 127 0" result="hardAlpha"/>
<feOffset dy="4.04257"/>
<feGaussianBlur stdDeviation="5.05322"/>
<feComposite in2="hardAlpha" operator="arithmetic" k2="-1" k3="1"/>
<feColorMatrix type="matrix" values="0 0 0 0 0.972549 0 0 0 0 0.964706 0 0 0 0 0.941176 0 0 0 1 0"/>
<feBlend mode="normal" in2="shape" result="effect2_innerShadow_935_6030"/>
</filter>
<filter id="filter2_d_935_6030" x="31.4429" y="225.156" width="382.282" height="137.054" filterUnits="userSpaceOnUse" color-interpolation-filters="sRGB">
<feFlood flood-opacity="0" result="BackgroundImageFix"/>
<feColorMatrix in="SourceAlpha" type="matrix" values="0 0 0 0 0 0 0 0 0 0 0 0 0 0 0 0 0 0 127 0" result="hardAlpha"/>
<feOffset/>
<feGaussianBlur stdDeviation="6.06373"/>
<feComposite in2="hardAlpha" operator="out"/>
<feColorMatrix type="matrix" values="0 0 0 0 0.972549 0 0 0 0 0.964706 0 0 0 0 0.941176 0 0 0 1 0"/>
<feBlend mode="normal" in2="BackgroundImageFix" result="effect1_dropShadow_935_6030"/>
<feBlend mode="normal" in="SourceGraphic" in2="effect1_dropShadow_935_6030" result="shape"/>
</filter>
<filter id="filter3_d_935_6030" x="113.665" y="382.035" width="227.244" height="56.1748" filterUnits="userSpaceOnUse" color-interpolation-filters="sRGB">
<feFlood flood-opacity="0" result="BackgroundImageFix"/>
<feColorMatrix in="SourceAlpha" type="matrix" values="0 0 0 0 0 0 0 0 0 0 0 0 0 0 0 0 0 0 127 0" result="hardAlpha"/>
<feOffset/>
<feGaussianBlur stdDeviation="6.06373"/>
<feComposite in2="hardAlpha" operator="out"/>
<feColorMatrix type="matrix" values="0 0 0 0 0.972549 0 0 0 0 0.964706 0 0 0 0 0.941176 0 0 0 1 0"/>
<feBlend mode="normal" in2="BackgroundImageFix" result="effect1_dropShadow_935_6030"/>
<feBlend mode="normal" in="SourceGraphic" in2="effect1_dropShadow_935_6030" result="shape"/>
</filter>
<filter id="filter4_d_935_6030" x="81.5747" y="335.749" width="291.37" height="58.1573" filterUnits="userSpaceOnUse" color-interpolation-filters="sRGB">
<feFlood flood-opacity="0" result="BackgroundImageFix"/>
<feColorMatrix in="SourceAlpha" type="matrix" values="0 0 0 0 0 0 0 0 0 0 0 0 0 0 0 0 0 0 127 0" result="hardAlpha"/>
<feOffset/>
<feGaussianBlur stdDeviation="6.06373"/>
<feComposite in2="hardAlpha" operator="out"/>
<feColorMatrix type="matrix" values="0 0 0 0 0.972549 0 0 0 0 0.964706 0 0 0 0 0.941176 0 0 0 1 0"/>
<feBlend mode="normal" in2="BackgroundImageFix" result="effect1_dropShadow_935_6030"/>
<feBlend mode="normal" in="SourceGraphic" in2="effect1_dropShadow_935_6030" result="shape"/>
</filter>
<filter id="filter5_d_935_6030" x="182.297" y="46.4897" width="80.0362" height="65.9737" filterUnits="userSpaceOnUse" color-interpolation-filters="sRGB">
<feFlood flood-opacity="0" result="BackgroundImageFix"/>
<feColorMatrix in="SourceAlpha" type="matrix" values="0 0 0 0 0 0 0 0 0 0 0 0 0 0 0 0 0 0 127 0" result="hardAlpha"/>
<feOffset/>
<feGaussianBlur stdDeviation="6.06373"/>
<feComposite in2="hardAlpha" operator="out"/>
<feColorMatrix type="matrix" values="0 0 0 0 0.972549 0 0 0 0 0.964706 0 0 0 0 0.941176 0 0 0 1 0"/>
<feBlend mode="normal" in2="BackgroundImageFix" result="effect1_dropShadow_935_6030"/>
<feBlend mode="normal" in="SourceGraphic" in2="effect1_dropShadow_935_6030" result="shape"/>
</filter>
<filter id="filter6_d_935_6030" x="48.1958" y="510.076" width="348.89" height="119.294" filterUnits="userSpaceOnUse" color-interpolation-filters="sRGB">
<feFlood flood-opacity="0" result="BackgroundImageFix"/>
<feColorMatrix in="SourceAlpha" type="matrix" values="0 0 0 0 0 0 0 0 0 0 0 0 0 0 0 0 0 0 127 0" result="hardAlpha"/>
<feOffset/>
<feGaussianBlur stdDeviation="6.06373"/>
<feComposite in2="hardAlpha" operator="out"/>
<feColorMatrix type="matrix" values="0 0 0 0 0.972549 0 0 0 0 0.964706 0 0 0 0 0.941176 0 0 0 1 0"/>
<feBlend mode="normal" in2="BackgroundImageFix" result="effect1_dropShadow_935_6030"/>
<feBlend mode="normal" in="SourceGraphic" in2="effect1_dropShadow_935_6030" result="shape"/>
</filter>
<radialGradient id="paint0_radial_935_6030" cx="0" cy="0" r="1" gradientUnits="userSpaceOnUse" gradientTransform="translate(235.467 2.54252) rotate(91.9713) scale(378.499 425.537)">
<stop stop-color="#FFAFE9"/>
<stop offset="0.776042" stop-color="#FF94E1" stop-opacity="0"/>
</radialGradient>
</defs>
</svg>
